<?xml version="1.0" standalone="no"?>
<!DOCTYPE svg PUBLIC "-//W3C//DTD SVG 1.1//EN" "http://www.w3.org/Graphics/SVG/1.1/DTD/svg11.dtd" >
<svg>
<metadata>
Created by FontForge 20090914 at Tue Nov 23 13:52:56 2021
 By www-data
Copyright (C) 2001, 2016 Hoefler &#38; Co. http://www.typography.com |DCNT
</metadata>
<defs>
<font id="GothamOffice-Regular" horiz-adv-x="530" >
  <font-face 
    font-family="Gotham Office"
    font-weight="400"
    font-stretch="normal"
    units-per-em="1000"
    panose-1="2 0 0 0 0 0 0 0 0 0"
    ascent="800"
    descent="-200"
    x-height="534"
    cap-height="728"
    bbox="-216 -244 1140 1030"
    underline-thickness="50"
    underline-position="-200"
    unicode-range="U+0020-U+FB04"
  />
<missing-glyph horiz-adv-x="500" 
d="M0 -200v1000h500v-1000h-500zM71 750l179 -390l179 390h-358zM50 -76l172 376l-172 376v-752zM450 676l-172 -376l172 -376v752zM250 240l-179 -390h358z" />
    <glyph glyph-name="f_f" unicode="ff" horiz-adv-x="769" 
d="M128 0v474h-75v60h75v49c0 60.667 15.667 106.667 47 138c28 28 66 42 114 42c28.667 0 56.667 -4.33301 84 -13v-60c-28 8.66699 -54 13 -78 13c-66.667 0 -100 -41 -100 -123v-46h177v-60h-177v-474h-67zM508 0v474h-75v60h75v49c0 60.667 15.667 106.667 47 138
c28 28 66 42 114 42c28.667 0 56.667 -4.33301 84 -13v-60c-28 8.66699 -54 13 -78 13c-66.667 0 -100 -41 -100 -123v-46h177v-60h-177v-474h-67z" />
    <glyph glyph-name="fi" unicode="fi" horiz-adv-x="657" 
d="M128 0v474h-75v60h75v49c0 60.667 15.667 106.667 47 138c28 28 66 42 114 42c28.667 0 56.667 -4.33301 84 -13v-60c-28 8.66699 -54 13 -78 13c-66.667 0 -100 -41 -100 -123v-46h177v-60h-177v-474h-67zM479 661v81h79v-81h-79zM485 0v534h67v-534h-67z" />
    <glyph glyph-name="fl" unicode="fl" horiz-adv-x="657" 
d="M128 0v474h-75v60h75v49c0 60.667 15.667 106.667 47 138c28 28 66 42 114 42c28.667 0 56.667 -4.33301 84 -13v-60c-28 8.66699 -54 13 -78 13c-66.667 0 -100 -41 -100 -123v-46h177v-60h-177v-474h-67zM485 0v759h67v-759h-67z" />
    <glyph glyph-name="f_f_i" unicode="ffi" horiz-adv-x="1036" 
d="M128 0v474h-75v60h75v49c0 60.667 15.667 106.667 47 138c28 28 66 42 114 42c28.667 0 56.667 -4.33301 84 -13v-60c-28 8.66699 -54 13 -78 13c-66.667 0 -100 -41 -100 -123v-46h177v-60h-177v-474h-67zM508 0v474h-75v60h75v49c0 60.667 15.667 106.667 47 138
c28 28 66 42 114 42c28.667 0 56.667 -4.33301 84 -13v-60c-28 8.66699 -54 13 -78 13c-66.667 0 -100 -41 -100 -123v-46h177v-60h-177v-474h-67zM858 661v81h79v-81h-79zM864 0v534h67v-534h-67z" />
    <glyph glyph-name="f_f_l" unicode="ffl" horiz-adv-x="1036" 
d="M128 0v474h-75v60h75v49c0 60.667 15.667 106.667 47 138c28 28 66 42 114 42c28.667 0 56.667 -4.33301 84 -13v-60c-28 8.66699 -54 13 -78 13c-66.667 0 -100 -41 -100 -123v-46h177v-60h-177v-474h-67zM508 0v474h-75v60h75v49c0 60.667 15.667 106.667 47 138
c28 28 66 42 114 42c28.667 0 56.667 -4.33301 84 -13v-60c-28 8.66699 -54 13 -78 13c-66.667 0 -100 -41 -100 -123v-46h177v-60h-177v-474h-67zM864 0v759h67v-759h-67z" />
    <glyph glyph-name=".notdef" horiz-adv-x="500" 
d="M0 -200v1000h500v-1000h-500zM71 750l179 -390l179 390h-358zM50 -76l172 376l-172 376v-752zM450 676l-172 -376l172 -376v752zM250 240l-179 -390h358z" />
    <glyph glyph-name="space" unicode=" " horiz-adv-x="322" 
 />
    <glyph glyph-name="exclam" unicode="!" horiz-adv-x="283" 
d="M123 199l-21 464v65h79v-65l-20 -464h-38zM100 0v100h83v-100h-83z" />
    <glyph glyph-name="quotedbl" unicode="&#x22;" horiz-adv-x="630" 
d="M363 454l63 274h85v-5l-110 -269h-38zM139 454l63 274h85v-5l-110 -269h-38z" />
    <glyph glyph-name="numbersign" unicode="#" horiz-adv-x="630" 
d="M38 249h110l32 234h-108v59h117l26 186h57l-27 -186h189l26 186h57l-26 -186h101v-59h-110l-33 -234h109v-59h-117l-27 -190h-56l26 190h-188l-26 -190h-57l26 190h-101v59zM237 484l-34 -236h190l33 236h-189z" />
    <glyph glyph-name="dollar" unicode="$" horiz-adv-x="630" 
d="M407 810l-10.999 -89.999c54 -11.333 105 -35.333 153 -72l-35 -53c-41.333 33.333 -84.333 55.666 -129 66.999l-33 -271c74.667 -16.667 129.167 -40.667 163.5 -72s51.5 -73 51.5 -125v-1c0 -56 -22.5 -102.333 -67.5 -139s-102.5 -55 -172.5 -55
c-8 0 -14.333 0.333008 -19 1l-16 -123h-56l16 128c-74.667 14.667 -140 47.334 -196 98.001l37 50c55.333 -48.667 111.666 -78.667 168.999 -90l34 277c-73.333 17.333 -126.833 41.833 -160.5 73.5s-50.5 73.5 -50.5 125.5v1c0 55.333 21.333 100.666 64 135.999
s97 53 163 53c4 0 9 -0.166992 15 -0.5s10.667 -0.5 14 -0.5l10 82h56zM502.001 190.001l0.000976562 1c0 35.333 -11.667 63.833 -35 85.5s-64 39.5 -122 53.5l-34 -273h20c51.333 0 92.666 12.5 123.999 37.5s47 56.833 47 95.5zM150.002 542.001l0.000976562 -1.00098
c0 -32.667 11.167 -60.667 33.5 -84s62.166 -41.666 119.499 -54.999l34 268c-7.33301 0.666992 -17 1 -29 1c-47.333 0 -85.5 -12 -114.5 -36s-43.5 -55 -43.5 -93z" />
    <glyph glyph-name="percent" unicode="%" horiz-adv-x="630" 
d="M163 736c36 0 65.333 -16.5 88 -49.5s34 -74.833 34 -125.5v-5c0 -50.667 -11.5 -92.834 -34.5 -126.501s-52.167 -50.5 -87.5 -50.5c-36.667 0 -66.334 16.5 -89.001 49.5s-34 74.833 -34 125.5v5c0 50.667 11.333 92.834 34 126.501s52.334 50.5 89.001 50.5zM163 691
c-23.333 0 -41.333 -12.168 -54 -36.501s-19 -54.833 -19 -91.5v-10c0 -37.333 6.33301 -68.166 19 -92.499s30.667 -36.5 54 -36.5s41.166 12 53.499 36s18.5 55 18.5 93v10c0 36.667 -6.16699 67.167 -18.5 91.5s-30.166 36.5 -53.499 36.5zM484 727.999h49l-201 -373
l-186 -355h-49l201 373zM467 348.999c36.667 0 66.334 -16.5 89.001 -49.5s34 -74.833 34 -125.5v-5c0 -50.667 -11.333 -92.834 -34 -126.501s-52.334 -50.5 -89.001 -50.5c-36 0 -65.333 16.5 -88 49.5s-34 74.833 -34 125.5v5c0 50.667 11.5 92.834 34.5 126.501
s52.167 50.5 87.5 50.5zM467 303.999c-23.333 0 -41.166 -11.999 -53.499 -35.999s-18.5 -55 -18.5 -93v-10c0 -36.667 6.16699 -67.167 18.5 -91.5s30.166 -36.5 53.499 -36.5s41.333 12.167 54 36.5s19 54.833 19 91.5v10c0 37.333 -6.33301 68.166 -19 92.499
s-30.667 36.5 -54 36.5z" />
    <glyph glyph-name="ampersand" unicode="&#x26;" horiz-adv-x="734" 
d="M641 -15l-118.998 124.001c-70.667 -79.333 -151.334 -119 -242.001 -119c-65.333 0 -119.333 18.833 -162 56.5s-64 86.5 -64 146.5v2c0 94.667 60.333 165 181 211c-27.333 31.333 -47 59.166 -59 83.499s-18 50.833 -18 79.5v2c0 48 17.667 88.167 53 120.5
s80.333 48.5 135 48.5c49.333 0 90.5 -15.667 123.5 -47s49.5 -69.333 49.5 -114v-2c0 -84 -58.333 -147 -175 -189l177 -182c31.333 42.667 61.666 99 90.999 169l59 -26c-32.667 -74 -68 -136.667 -106 -188l130 -133zM304.002 429.001
c98.667 32 147.999 80.001 147.999 144.001v2c0 31.333 -10.167 57.166 -30.5 77.499s-46.166 30.5 -77.499 30.5c-34 0 -62.167 -10.667 -84.5 -32s-33.5 -47.666 -33.5 -78.999v-2c0 -22 5.5 -42.833 16.5 -62.5s31.5 -45.834 61.5 -78.501zM284.001 49.002
c69.333 0 134.333 34.667 195 104l-204 210c-50.667 -18 -88.5 -41.5 -113.5 -70.5s-37.5 -60.833 -37.5 -95.5v-2c0 -41.333 15.167 -76 45.5 -104s68.5 -42 114.5 -42z" />
    <glyph glyph-name="quotesingle" unicode="'" horiz-adv-x="315" 
d="M94 454l63 274h85v-5l-109 -269h-39z" />
    <glyph glyph-name="parenleft" unicode="(" horiz-adv-x="460" 
d="M394 -102l-28.999 -44.999c-192 108 -288 256.333 -288 445v1c0 93.333 24.667 177.666 74 252.999s120.666 139.333 213.999 192l29 -45c-165.333 -104 -248 -237.667 -248 -401v-1c0 -163.333 82.667 -296.333 248 -399z" />
    <glyph glyph-name="parenright" unicode=")" horiz-adv-x="460" 
d="M94 -147l-29 45c165.333 104 248 237.333 248 400v1c0 164 -82.667 297.333 -248 400l29 45c192.667 -107.333 289 -256 289 -446v-1c0 -188.667 -96.333 -336.667 -289 -444z" />
    <glyph glyph-name="asterisk" unicode="*" horiz-adv-x="457" 
d="M204 417l10 131l-109 -75l-26 44l122 57l-122 56l26 44l109 -75l-10 131h50l-11 -131l109 75l26 -44l-122 -56l122 -57l-26 -44l-109 75l11 -131h-50z" />
    <glyph glyph-name="plus" unicode="+" horiz-adv-x="630" 
d="M558 335h-210v-216h-66v216h-210v63l210 -1v216h66v-216l210 1v-63z" />
    <glyph glyph-name="comma" unicode="," horiz-adv-x="315" 
d="M98 -120l-13 32.001c24.667 10.667 42 22.667 52 36s14.333 30.666 13 51.999h-41v110h98v-96c0 -36.667 -8.83301 -65.5 -26.5 -86.5s-45.167 -36.833 -82.5 -47.5z" />
    <glyph glyph-name="hyphen" unicode="-" horiz-adv-x="434" 
d="M75 275v72h285v-72h-285z" />
    <glyph glyph-name="period" unicode="." horiz-adv-x="315" 
d="M109 0v110h98v-110h-98z" />
    <glyph glyph-name="slash" unicode="/" horiz-adv-x="630" 
d="M603 830l-527 -963h-64l527 963h64z" />
    <glyph glyph-name="zero" unicode="0" horiz-adv-x="630" 
d="M314 -12c-75.333 0 -136.668 33.167 -184.001 99.5s-71 156.833 -71 271.5v8c0 114 24 204.667 72 272s109.667 101 185 101c74.667 0 135.834 -33.333 183.501 -100s71.5 -157 71.5 -271v-8c0 -114 -24 -204.667 -72 -272s-109.667 -101 -185 -101zM314.998 679
c-54.667 0 -99.334 -27.5 -134.001 -82.5s-52 -130.833 -52 -227.5v-8c0 -96.667 17.333 -172.834 52 -228.501s79.334 -83.5 134.001 -83.5s99.334 27.5 134.001 82.5s52 130.833 52 227.5v8c0 96.667 -17.333 172.834 -52 228.501s-79.334 83.5 -134.001 83.5z" />
    <glyph glyph-name="one" unicode="1" horiz-adv-x="630" 
d="M587 0h-492v62h222v597l-198 -68l-18 58l232 84h51v-671h203v-62z" />
    <glyph glyph-name="two" unicode="2" horiz-adv-x="630" 
d="M558 0l-501.003 -0.000976562v53l266 240c58 52 98.5 95.333 121.5 130s34.5 70.334 34.5 107.001c0 42.667 -15.167 77.667 -45.5 105s-67.166 41 -110.499 41c-42.667 0 -79.667 -10.833 -111 -32.5s-61.666 -55.5 -90.999 -101.5l-52 36
c34.667 53.333 71.834 93.333 111.501 120s88.834 40 147.501 40c64 0 117 -19.167 159 -57.5s63 -86.5 63 -144.5v-2c0 -48.667 -12.833 -92.167 -38.5 -130.5s-70.834 -86.833 -135.501 -145.5l-215 -193h397v-65z" />
    <glyph glyph-name="three" unicode="3" horiz-adv-x="630" 
d="M310 -12c-105.333 0 -190.333 41.332 -255 123.999l49 46c29.333 -36 60.5 -63 93.5 -81s71.167 -27 114.5 -27c48 0 89.167 14.333 123.5 43s51.5 66.334 51.5 113.001v2c0 44.667 -17.5 79.167 -52.5 103.5s-82.167 36.5 -141.5 36.5h-60l-21 45l248 271h-373v64h459
v-60l-242 -262c72.667 0 133.167 -17 181.5 -51s72.5 -82 72.5 -144v-2c0 -65.333 -24.333 -118.5 -73 -159.5s-107 -61.5 -175 -61.5z" />
    <glyph glyph-name="four" unicode="4" horiz-adv-x="630" 
d="M423 0v172h-365l-17 60l365 500h81v-502h105v-58h-105v-172h-64zM423 229v426l-312 -426h312z" />
    <glyph glyph-name="five" unicode="5" horiz-adv-x="630" 
d="M311 -12c-96 0 -180.667 38.001 -254 114.001l47 48c64 -67.333 133.667 -101 209 -101c54 0 98.167 16 132.5 48s51.5 72.667 51.5 122v2c0 48 -17 87 -51 117s-78 45 -132 45c-56 0 -110.667 -14 -164 -42l-48 31l24 356h409v-65h-350l-19 -253
c50 23.333 101.667 35 155 35c70.667 0 129.5 -20.333 176.5 -61s70.5 -94 70.5 -160v-2c0 -68.667 -24.5 -124.834 -73.5 -168.501s-110.167 -65.5 -183.5 -65.5z" />
    <glyph glyph-name="six" unicode="6" horiz-adv-x="630" 
d="M337 460c65.333 0 120.499 -20.668 165.499 -62.001s67.5 -96.333 67.5 -165v-2c0 -70 -23.5 -128 -70.5 -174s-104.5 -69 -172.5 -69c-70.667 0 -129 22.333 -175 67c-30 30 -52.167 66.5 -66.5 109.5s-21.5 101.167 -21.5 174.5v4c0 118 26 213.667 78 287
s123 110 213 110c68.667 0 131.334 -25 188.001 -75l-39 -53c-46.667 44.667 -97.667 67 -153 67c-68.667 0 -122.167 -31.167 -160.5 -93.5s-57.5 -138.166 -57.5 -227.499v-12c44.667 76 112.667 114 204 114zM324.999 46.999c52.667 0 95.333 17.335 128 52.002
s49 78 49 130v1c0 51.333 -16.167 92.666 -48.5 123.999s-73.5 47 -123.5 47c-56 0 -100.667 -16.833 -134 -50.5s-50 -74.834 -50 -123.501v-1c0 -52 17.333 -94.833 52 -128.5s77 -50.5 127 -50.5z" />
    <glyph glyph-name="seven" unicode="7" horiz-adv-x="630" 
d="M487 663h-409v65h487v-52l-328 -676h-77z" />
    <glyph glyph-name="eight" unicode="8" horiz-adv-x="630" 
d="M315 -11c-74.667 0 -136.5 19.1689 -185.5 57.502s-73.5 87.166 -73.5 146.499v4c0 41.333 13.5 77.666 40.5 108.999s62.833 55 107.5 71c-36.667 16 -66.667 38.333 -90 67s-35 62.667 -35 102v3c0 54.667 23.333 100 70 136s102 54 166 54s119.333 -18 166 -54
s70 -81.333 70 -136v-3c0 -39.333 -11.667 -73.333 -35 -102s-53.333 -51 -90 -67c44.667 -16 80.5 -39.5 107.5 -70.5s40.5 -67.5 40.5 -109.5v-3c0 -60.667 -24.5 -110 -73.5 -148s-110.833 -57 -185.5 -57zM315 401.002c46.667 0 86.167 13.5 118.5 40.5
s48.5 60.833 48.5 101.5v2c0 38.667 -15.833 70.834 -47.5 96.501s-71.5 38.5 -119.5 38.5s-87.833 -12.833 -119.5 -38.5s-47.5 -57.834 -47.5 -96.501v-2c0 -40.667 16.167 -74.5 48.5 -101.5s71.833 -40.5 118.5 -40.5zM315 48.002c58 0 104.167 14 138.5 42
s51.5 62.667 51.5 104v3c0 42 -18.333 77 -55 105s-81.667 42 -135 42s-98.333 -14 -135 -42s-55 -63 -55 -105v-3c0 -41.333 17.167 -76 51.5 -104s80.5 -42 138.5 -42z" />
    <glyph glyph-name="nine" unicode="9" horiz-adv-x="630" 
d="M292 262c-65.333 0 -120.333 20.834 -165 62.501s-67 97.5 -67 167.5v2c0 71.333 23.333 130.166 70 176.499s104.334 69.5 173.001 69.5c70.667 0 129 -22.333 175 -67c30 -30 52.167 -66.5 66.5 -109.5s21.5 -101.167 21.5 -174.5v-4c0 -118 -26 -213.667 -78 -287
s-123 -110 -213 -110c-71.333 0 -137.333 26.667 -198 80l39 53c55.333 -48 109.666 -72 162.999 -72c68 0 121.333 32 160 96s58 139.333 58 226v5c-44.667 -76 -113 -114 -205 -114zM305 681.001c-52.667 0 -95.333 -17.665 -128 -52.998s-49 -79.333 -49 -132v-1
c0 -52.667 16 -94.834 48 -126.501s73 -47.5 123 -47.5c56 0 100.833 17.167 134.5 51.5s50.5 76.166 50.5 125.499v1c0 52.667 -17.333 96.167 -52 130.5s-77 51.5 -127 51.5z" />
    <glyph glyph-name="colon" unicode=":" horiz-adv-x="315" 
d="M109 426v108h98v-108h-98zM109 0v109h98v-109h-98z" />
    <glyph glyph-name="semicolon" unicode=";" horiz-adv-x="315" 
d="M109 426v108h98v-108h-98zM98 -120l-13 32.001c24.667 10.667 42 22.667 52 36s14.333 30.666 13 51.999h-41v109h98v-95c0 -36.667 -8.83301 -65.5 -26.5 -86.5s-45.167 -36.833 -82.5 -47.5z" />
    <glyph glyph-name="less" unicode="&#x3c;" horiz-adv-x="630" 
d="M530 97l-458 242v55l458 241v-67l-387 -201l387 -202v-68z" />
    <glyph glyph-name="equal" unicode="=" horiz-adv-x="630" 
d="M540 451h-450v65h450v-65zM540 217h-450v64h450v-64z" />
    <glyph glyph-name="greater" unicode="&#x3e;" horiz-adv-x="630" 
d="M558 339l-458 -242v67l387 201l-387 203v67l458 -241v-55z" />
    <glyph glyph-name="question" unicode="?" horiz-adv-x="567" 
d="M238 199l-15 168.001l5 6c68 1.33301 120.167 15.666 156.5 42.999s54.5 64.666 54.5 111.999v2c0 41.333 -14.667 75.833 -44 103.5s-68.333 41.5 -117 41.5c-73.333 0 -138 -34 -194 -102l-46 42c66.667 81.333 147.667 122 243 122c68.667 0 124 -19.167 166 -57.5
s63 -87.166 63 -146.499v-2c0 -62 -20.167 -110.667 -60.5 -146s-92.833 -57.333 -157.5 -66l-10 -120h-44zM218 0.000976562v100h84v-100h-84z" />
    <glyph glyph-name="at" unicode="@" horiz-adv-x="1029" 
d="M524 -168c-132 0 -242.335 44.1699 -331.002 132.503s-133 195.166 -133 320.499s44.333 232.5 133 321.5s196.334 133.5 323.001 133.5c125.333 0 232.166 -40.833 320.499 -122.5s132.5 -177.834 132.5 -288.501c0 -83.333 -19.167 -146.5 -57.5 -189.5
s-83.166 -64.5 -134.499 -64.5c-75.333 0 -123.333 30.333 -144 91c-48.667 -60.667 -106.667 -91 -174 -91c-52 0 -95.833 17.5 -131.5 52.5s-53.5 79.833 -53.5 134.5c0 72 24.833 133.167 74.5 183.5s105.167 75.5 166.5 75.5c69.333 0 120.333 -29.667 153 -89l14 75
l61 -9l-40 -228c-6 -33.333 -9 -56.333 -9 -69c0 -28 8 -49.5 24 -64.5s38.333 -22.5 67 -22.5c40 0 74.5 18.333 103.5 55s43.5 90 43.5 160c0 47.333 -10.667 93.666 -32 138.999s-50.166 85.5 -86.499 120.5s-80.5 63.333 -132.5 85s-107 32.5 -165 32.5
c-118.667 0 -218.167 -41 -298.5 -123s-120.5 -181.333 -120.5 -298c0 -118 40.167 -217.333 120.5 -298s182.5 -121 306.5 -121c92 0 178.333 23.667 259 71l17 -27c-86 -52 -178 -78 -276 -78zM470.998 132.003c43.333 0 82.334 17.334 117.001 52.001
c40.667 40.667 61 87.667 61 141c0 39.333 -12.5 72.166 -37.5 98.499s-56.167 39.5 -93.5 39.5c-44.667 0 -84.667 -17.667 -120 -53c-39.333 -39.333 -59 -87 -59 -143c0 -42 12.167 -75 36.5 -99s56.166 -36 95.499 -36z" />
    <glyph glyph-name="A" unicode="A" horiz-adv-x="832" 
d="M48 0l335 733h66l335 -733h-76l-88 198h-411l-89 -198h-72zM237 261h355l-177 393z" />
    <glyph glyph-name="B" unicode="B" horiz-adv-x="761" 
d="M110 0v728h306c82.667 0 146 -21.333 190 -64c31.333 -31.333 47 -70 47 -116v-2c0 -81.333 -40 -138.333 -120 -171c106.667 -29.333 160 -87.333 160 -174v-2c0 -61.333 -23.833 -109.833 -71.5 -145.5s-111.167 -53.5 -190.5 -53.5h-321zM582 537v1.99902
c0 38.667 -14.833 69.334 -44.5 92.001s-71.5 34 -125.5 34h-233v-267h227c53.333 0 96 12 128 36s48 58.333 48 103zM623 201.999v2c0 42 -17.5 74.5 -52.5 97.5s-86.167 34.5 -153.5 34.5h-238v-273h253c58.667 0 105.167 12.333 139.5 37s51.5 58.667 51.5 102z" />
    <glyph glyph-name="C" unicode="C" horiz-adv-x="782" 
d="M441 -12c-103.333 0 -189.668 36 -259.001 108s-104 160.667 -104 266v2c0 104 34.833 192.667 104.5 266s156.834 110 261.501 110c60.667 0 112.5 -9.66699 155.5 -29s85.833 -48 128.5 -86l-48 -52c-72.667 69.333 -151.667 104 -237 104
c-83.333 0 -152.833 -30 -208.5 -90s-83.5 -133.667 -83.5 -221v-2c0 -87.333 28.167 -161.333 84.5 -222s125.833 -91 208.5 -91c48 0 90.667 9 128 27s75.333 45.333 114 82l46 -45c-42 -42 -85.5 -73.667 -130.5 -95s-98.5 -32 -160.5 -32z" />
    <glyph glyph-name="D" unicode="D" horiz-adv-x="823" 
d="M110 0v728h249c112.667 0 205.167 -34.5 277.5 -103.5s108.5 -155.167 108.5 -258.5v-2c0 -103.333 -36.167 -189.833 -108.5 -259.5s-164.833 -104.5 -277.5 -104.5h-249zM359 664l-179 0.000976562v-600h179c94 0 169.833 28.333 227.5 85s86.5 127.667 86.5 213v2
c0 85.333 -28.833 156.666 -86.5 213.999s-133.5 86 -227.5 86z" />
    <glyph glyph-name="E" unicode="E" horiz-adv-x="707" 
d="M110 0v728h523v-64h-453v-265h406v-64h-406v-271h458v-64h-528z" />
    <glyph glyph-name="F" unicode="F" horiz-adv-x="692" 
d="M110 0v728h519v-64h-449v-277h402v-64h-402v-323h-70z" />
    <glyph glyph-name="G" unicode="G" horiz-adv-x="825" 
d="M446 -12c-111.333 0 -200.501 35.668 -267.501 107.001s-100.5 160.333 -100.5 267v2c0 102 34 190.167 102 264.5s155 111.5 261 111.5c57.333 0 106.833 -7.83301 148.5 -23.5s81.834 -39.834 120.501 -72.501l-45 -53c-63.333 57.333 -139.333 86 -228 86
c-82.667 0 -151 -30.333 -205 -91s-81 -134 -81 -220v-2c0 -92 27 -167.333 81 -226s126.333 -88 217 -88c42 0 82.5 7.16699 121.5 21.5s71.833 32.833 98.5 55.5v194h-231v63h298v-286c-83.333 -73.333 -180 -110 -290 -110z" />
    <glyph glyph-name="H" unicode="H" horiz-adv-x="800" 
d="M110 0v728h70v-330h440v330h70v-728h-70v334h-440v-334h-70z" />
    <glyph glyph-name="I" unicode="I" horiz-adv-x="305" 
d="M117 0v728h70v-728h-70z" />
    <glyph glyph-name="J" unicode="J" horiz-adv-x="583" 
d="M263 -10c-97.333 0 -171.669 44 -223.002 132l53 41c22.667 -37.333 47.334 -65 74.001 -83s59.334 -27 98.001 -27c44 0 79.833 16 107.5 48s41.5 77.333 41.5 136v491h71v-489c0 -82 -22.333 -145.333 -67 -190c-41.333 -39.333 -93 -59 -155 -59z" />
    <glyph glyph-name="K" unicode="K" horiz-adv-x="756" 
d="M110 0v728h70v-454l438 454h93l-316 -319l329 -409h-89l-289 359l-166 -168v-191h-70z" />
    <glyph glyph-name="L" unicode="L" horiz-adv-x="649" 
d="M110 0v728h70v-664h418v-64h-488z" />
    <glyph glyph-name="M" unicode="M" horiz-adv-x="913" 
d="M110 0v728h69l277 -412l277 412h70v-728h-70v609l-276 -403h-4l-275 402v-608h-68z" />
    <glyph glyph-name="N" unicode="N" horiz-adv-x="832" 
d="M110 0v728h66l478 -606v606h68v-728h-55l-489 619v-619h-68z" />
    <glyph glyph-name="O" unicode="O" horiz-adv-x="894" 
d="M446 -12c-108 0 -196.333 36.667 -265 110s-103 161.333 -103 264v2c0 102.667 34.667 191 104 265s158 111 266 111s196.333 -36.667 265 -110s103 -161.333 103 -264v-2c0 -102.667 -34.667 -191 -104 -265s-158 -111 -266 -111zM448 51c84.667 0 155 30 211 90
s84 133.667 84 221v2c0 87.333 -28.333 161.333 -85 222s-127.334 91 -212.001 91s-155 -30 -211 -90s-84 -133.667 -84 -221v-2c0 -87.333 28.333 -161.333 85 -222s127.334 -91 212.001 -91z" />
    <glyph glyph-name="P" unicode="P" horiz-adv-x="705" 
d="M110 0v728h269c82 0 147.833 -20.333 197.5 -61s74.5 -96 74.5 -166v-2c0 -74.667 -27.333 -132.667 -82 -174s-122.667 -62 -204 -62h-185v-263h-70zM180 327h188.999c63.333 0 114.5 15.5 153.5 46.5s58.5 71.833 58.5 122.5v2c0 53.333 -18.667 94.333 -56 123
s-87.666 43 -150.999 43h-194v-337z" />
    <glyph glyph-name="Q" unicode="Q" horiz-adv-x="894" 
d="M825 31l-48 -53l-99 90c-66 -53.333 -143.333 -80 -232 -80c-108 0 -196.333 36.667 -265 110s-103 161.333 -103 264v2c0 102.667 34.667 191 104 265s158 111 266 111s196.333 -36.667 265 -110s103 -161.333 103 -264v-2c0 -94.667 -30 -177.667 -90 -249zM448 51
c70 0 129.667 20 179 60l-138 119l48 54l138 -126c45.333 59.333 68 127.333 68 204v2c0 87.333 -28.333 161.333 -85 222s-127.334 91 -212.001 91s-155 -30 -211 -90s-84 -133.667 -84 -221v-2c0 -87.333 28.333 -161.333 85 -222s127.334 -91 212.001 -91z" />
    <glyph glyph-name="R" unicode="R" horiz-adv-x="762" 
d="M110 0v728h310c89.333 0 158 -24 206 -72c37.333 -37.333 56 -84 56 -140v-2c0 -58 -18.667 -105.167 -56 -141.5s-87 -59.5 -149 -69.5l231 -303h-86l-221 291h-221v-291h-70zM180 354h233c58.667 0 106.5 14 143.5 42s55.5 66.333 55.5 115v2
c0 46.667 -17.333 83.5 -52 110.5s-83 40.5 -145 40.5h-235v-310z" />
    <glyph glyph-name="S" unicode="S" horiz-adv-x="676" 
d="M358 -10c-110.667 0 -208.998 38.668 -294.998 116.001l44 52c39.333 -36.667 79 -63.5 119 -80.5s85.333 -25.5 136 -25.5s92 12.667 124 38s48 57.333 48 96v2c0 37.333 -13.833 67 -41.5 89s-79.5 40.667 -155.5 56c-86.667 17.333 -149.167 42.166 -187.5 74.499
s-57.5 76.833 -57.5 133.5v2c0 56 22.5 102.5 67.5 139.5s101.5 55.5 169.5 55.5c52 0 97.5 -7.16699 136.5 -21.5s77.833 -36.833 116.5 -67.5l-42 -54c-64.667 54 -135.667 81 -213 81c-48.667 0 -88.334 -12.333 -119.001 -37s-46 -54.667 -46 -90v-2
c0 -37.333 14.167 -67.333 42.5 -90s82.166 -42.334 161.499 -59.001c83.333 -17.333 143.833 -42.166 181.5 -74.499s56.5 -75.5 56.5 -129.5v-2c0 -60 -23 -108.667 -69 -146s-105 -56 -177 -56z" />
    <glyph glyph-name="T" unicode="T" horiz-adv-x="675" 
d="M303 0v663h-249v65h567v-65h-248v-663h-70z" />
    <glyph glyph-name="U" unicode="U" horiz-adv-x="800" 
d="M400 -11c-91.333 0 -164.333 27.3311 -219 81.998s-82 132.334 -82 233.001v424h70v-419c0 -82 20.333 -145.333 61 -190s98 -67 172 -67c71.333 0 127.333 21.5 168 64.5s61 105.5 61 187.5v424h70v-418c0 -103.333 -27.167 -182.666 -81.5 -237.999
s-127.5 -83 -219.5 -83z" />
    <glyph glyph-name="V" unicode="V" horiz-adv-x="790" 
d="M364 -5l-316 733h77l271 -646l272 646h74l-316 -733h-62z" />
    <glyph glyph-name="W" unicode="W" horiz-adv-x="1159" 
d="M316 -5l-262 733h77l217 -625l206 627h56l205 -627l217 625h73l-261 -733h-59l-205 609l-206 -609h-58z" />
    <glyph glyph-name="X" unicode="X" horiz-adv-x="762" 
d="M616 728h81l-273 -357l284 -371h-83l-245 324l-244 -324h-81l284 371l-274 357h83l234 -310z" />
    <glyph glyph-name="Y" unicode="Y" horiz-adv-x="755" 
d="M342 0v288l-307 440h86l257 -376l259 376h82l-307 -439v-289h-70z" />
    <glyph glyph-name="Z" unicode="Z" horiz-adv-x="729" 
d="M75 0v44l483 621h-466v63h563v-44l-484 -621h484v-63h-580z" />
    <glyph glyph-name="bracketleft" unicode="[" horiz-adv-x="463" 
d="M105 -135v863h291v-52h-228v-759h228v-52h-291z" />
    <glyph glyph-name="backslash" unicode="\" horiz-adv-x="535" 
d="M487 -133l-487 963h64l486 -963h-63z" />
    <glyph glyph-name="bracketright" unicode="]" horiz-adv-x="463" 
d="M66 -135v52h229v759h-229v52h292v-863h-292z" />
    <glyph glyph-name="asciicircum" unicode="^" 
d="M75 513l162 218h56l162 -218h-64l-127 166l-127 -166h-62z" />
    <glyph glyph-name="underscore" unicode="_" horiz-adv-x="630" 
d="M1 -166v57h628v-57h-628z" />
    <glyph glyph-name="grave" unicode="`" 
d="M276 619l-115 110l74 35l95 -145h-54z" />
    <glyph glyph-name="a" unicode="a" horiz-adv-x="610" 
d="M259 -12c-54 0 -101.333 14.833 -142 44.5s-61 70.5 -61 122.5v2c0 54.667 21 97.167 63 127.5s98 45.5 168 45.5c62.667 0 119 -7.66699 169 -23v21c0 50 -14.5 88.167 -43.5 114.5s-69.833 39.5 -122.5 39.5c-52 0 -107 -13.667 -165 -41l-21 56
c65.333 30 129.333 45 192 45c74.667 0 131.667 -19.333 171 -58c36.667 -38 55 -89.333 55 -154v-330h-66v84c-47.333 -64 -113 -96 -197 -96zM268 45c53.333 0 98.333 14.332 135 42.999s55 65.334 55 110.001v56c-60 15.333 -116.333 23 -169 23
c-52 0 -92.333 -10.333 -121 -31s-43 -49 -43 -85v-3c0 -34.667 13.833 -62.167 41.5 -82.5s61.5 -30.5 101.5 -30.5z" />
    <glyph glyph-name="b" unicode="b" horiz-adv-x="699" 
d="M377 -12c-88 0 -158.667 39.999 -212 119.999v-108h-67v759h67v-337c56 83.333 126.667 125 212 125c68 0 127.833 -25.5 179.5 -76.5s77.5 -118.167 77.5 -201.5v-2c0 -83.333 -25.833 -150.666 -77.5 -201.999s-111.5 -77 -179.5 -77zM366 49.999
c56 0 102.832 19.501 140.499 58.501s56.5 91.167 56.5 156.5v2c0 64 -19.167 116.333 -57.5 157s-84.833 61 -139.5 61c-54 0 -101.5 -20.667 -142.5 -62s-61.5 -93 -61.5 -155v-2c0 -62.667 20.333 -114.334 61 -155.001s88.334 -61 143.001 -61z" />
    <glyph glyph-name="c" unicode="c" horiz-adv-x="604" 
d="M336 -12c-76.667 0 -141.332 27.167 -193.999 81.5s-79 119.5 -79 195.5v2c0 76 26.5 141.667 79.5 197s117.833 83 194.5 83c79.333 0 150.333 -32.667 213 -98l-45 -47c-54.667 56 -111.334 84 -170.001 84c-57.333 0 -105.333 -21 -144 -63s-58 -93.333 -58 -154v-2
c0 -60.667 20 -112.167 60 -154.5s89 -63.5 147 -63.5c63.333 0 120 28 170 84l44 -41c-30.667 -34 -63 -59.833 -97 -77.5s-74.333 -26.5 -121 -26.5z" />
    <glyph glyph-name="d" unicode="d" horiz-adv-x="699" 
d="M322 -12c-68 0 -127.833 25.5 -179.5 76.5s-77.5 117.833 -77.5 200.5v2c0 84 25.833 151.667 77.5 203s111.5 77 179.5 77c87.333 0 158 -40.333 212 -121v333h67v-759h-67v113c-56 -83.333 -126.667 -125 -212 -125zM333 50c54 0 101.501 20.499 142.501 61.499
s61.5 92.5 61.5 154.5v2c0 63.333 -20.5 115.333 -61.5 156s-88.5 61 -142.5 61c-56 0 -103 -19.667 -141 -59s-57 -91.666 -57 -156.999v-2c0 -64 19.167 -116.167 57.5 -156.5s85.166 -60.5 140.499 -60.5z" />
    <glyph glyph-name="e" unicode="e" horiz-adv-x="622" 
d="M328 -12c-74 0 -136.669 26.001 -188.002 78.001s-77 118.667 -77 200v2c0 78 24.333 144 73 198s109.334 81 182.001 81c75.333 0 135.5 -26.833 180.5 -80.5s67.5 -120.834 67.5 -201.501c0 -11.333 -0.666992 -19.333 -2 -24h-432
c5.33301 -59.333 26.833 -106.5 64.5 -141.5s82.167 -52.5 133.5 -52.5c66.667 0 125 26.667 175 80l43 -39c-61.333 -66.667 -134.666 -100 -219.999 -100zM131.998 295.001h364c-4 54.667 -21.5 100.5 -52.5 137.5s-73.5 55.5 -127.5 55.5
c-49.333 0 -91 -18.167 -125 -54.5s-53.667 -82.5 -59 -138.5z" />
    <glyph glyph-name="f" unicode="f" horiz-adv-x="390" 
d="M128 0v474h-75v60h75v49c0 60.667 15.667 106.667 47 138c28 28 66 42 114 42c28.667 0 56.667 -4.33301 84 -13v-60c-28 8.66699 -54 13 -78 13c-66.667 0 -100 -41 -100 -123v-46h177v-60h-177v-474h-67z" />
    <glyph glyph-name="g" unicode="g" horiz-adv-x="699" 
d="M333 -168c-89.333 0 -170.667 25.666 -244 76.999l34 53c64.667 -47.333 135 -71 211 -71c61.333 0 110 17 146 51s54 83 54 147v69c-55.333 -78.667 -127 -118 -215 -118c-68 0 -127.333 23.333 -178 70s-76 107.334 -76 182.001v2c0 74.667 25.5 135.5 76.5 182.5
s110.167 70.5 177.5 70.5c84 0 155.667 -38 215 -114v101h67v-445c0 -78.667 -22.667 -140.667 -68 -186c-47.333 -47.333 -114 -71 -200 -71zM329.999 101.999c54.667 0 102.834 18 144.501 54s62.5 81.667 62.5 137v2c0 55.333 -20.833 100.833 -62.5 136.5
s-89.834 53.5 -144.501 53.5c-55.333 0 -101.666 -17.333 -138.999 -52s-56 -80.667 -56 -138v-2c0 -55.333 19.167 -101 57.5 -137s84.166 -54 137.499 -54z" />
    <glyph glyph-name="h" unicode="h" horiz-adv-x="649" 
d="M98 0l0.000976562 758.999h67v-320c42 72 104.333 108 187 108c64.667 0 115.667 -20 153 -60s56 -92.333 56 -157v-330h-67v314c0 52.667 -14 94.334 -42 125.001s-66.667 46 -116 46c-48.667 0 -89.334 -16.667 -122.001 -50s-49 -76 -49 -128v-307h-67z" />
    <glyph glyph-name="i" unicode="i" horiz-adv-x="277" 
d="M99 661v81h79v-81h-79zM105 0v534h67v-534h-67z" />
    <glyph glyph-name="j" unicode="j" horiz-adv-x="277" 
d="M99 661v81h79v-81h-79zM49 -170c-12.667 0 -28.333 1.66699 -47 5v57c11.333 -2.66699 25 -4 41 -4c41.333 0 62 24.333 62 73v573h67v-572c0 -88 -41 -132 -123 -132z" />
    <glyph glyph-name="k" unicode="k" horiz-adv-x="597" 
d="M98 0v759h67v-544l307 319h86l-229 -232l236 -302h-82l-200 254l-118 -119v-135h-67z" />
    <glyph glyph-name="l" unicode="l" horiz-adv-x="277" 
d="M105 0v759h67v-759h-67z" />
    <glyph glyph-name="m" unicode="m" horiz-adv-x="999" 
d="M98 0l0.00195312 533.999h67v-92c21.333 32.667 45.166 58.334 71.499 77.001s60.833 28 103.5 28c81.333 0 139.666 -37 174.999 -111c46.667 74 110 111 190 111c62 0 111.167 -19.833 147.5 -59.5s54.5 -92.834 54.5 -159.501v-328h-67v314c0 54 -13 96 -39 126
s-62 45 -108 45c-44 0 -81.167 -15.833 -111.5 -47.5s-45.5 -74.5 -45.5 -128.5v-309h-67v317c0 52.667 -13 93.834 -39 123.501s-61.667 44.5 -107 44.5c-44.667 0 -82.167 -17 -112.5 -51s-45.5 -76.333 -45.5 -127v-307h-67z" />
    <glyph glyph-name="n" unicode="n" horiz-adv-x="649" 
d="M98 0l0.000976562 533.999h67v-95c42 72 104.333 108 187 108c64.667 0 115.667 -20 153 -60s56 -92.333 56 -157v-330h-67v314c0 52.667 -14 94.334 -42 125.001s-66.667 46 -116 46c-48.667 0 -89.334 -16.667 -122.001 -50s-49 -76 -49 -128v-307h-67z" />
    <glyph glyph-name="o" unicode="o" horiz-adv-x="679" 
d="M339 -12c-78.667 0 -144.334 27.167 -197.001 81.5s-79 119.5 -79 195.5v2c0 76.667 26.667 142.5 80 197.5s119.333 82.5 198 82.5s144.334 -27.167 197.001 -81.5s79 -119.833 79 -196.5v-2c0 -76 -26.667 -141.5 -80 -196.5s-119.333 -82.5 -198 -82.5zM341 49
c59.333 0 108.333 20.999 147 62.999s58 93 58 153v2c0 60.667 -20 112.334 -60 155.001s-89 64 -147 64c-60 0 -109.333 -21 -148 -63s-58 -93.333 -58 -154v-2c0 -60.667 20.167 -112.167 60.5 -154.5s89.5 -63.5 147.5 -63.5z" />
    <glyph glyph-name="p" unicode="p" horiz-adv-x="699" 
d="M98 -166v699.999h67v-112c56 83.333 126.667 125 212 125c68 0 127.833 -25.5 179.5 -76.5s77.5 -118.167 77.5 -201.5v-2c0 -83.333 -25.833 -150.666 -77.5 -201.999s-111.5 -77 -179.5 -77c-88 0 -158.667 40 -212 120v-274h-67zM366 49.999
c56 0 102.832 19.501 140.499 58.501s56.5 91.167 56.5 156.5v2c0 64 -19.167 116.333 -57.5 157s-84.833 61 -139.5 61c-54 0 -101.5 -20.667 -142.5 -62s-61.5 -93 -61.5 -155v-2c0 -62.667 20.333 -114.334 61 -155.001s88.334 -61 143.001 -61z" />
    <glyph glyph-name="q" unicode="q" horiz-adv-x="699" 
d="M534 -166v279c-56 -83.333 -126.667 -125 -212 -125c-68 0 -127.833 25.5 -179.5 76.5s-77.5 117.833 -77.5 200.5v2c0 84 25.833 151.667 77.5 203s111.5 77 179.5 77c87.333 0 158 -40.333 212 -121v108h67v-700h-67zM333 50c54 0 101.501 20.499 142.501 61.499
s61.5 92.5 61.5 154.5v2c0 63.333 -20.5 115.333 -61.5 156s-88.5 61 -142.5 61c-56 0 -103 -19.667 -141 -59s-57 -91.666 -57 -156.999v-2c0 -64 19.167 -116.167 57.5 -156.5s85.166 -60.5 140.499 -60.5z" />
    <glyph glyph-name="r" unicode="r" horiz-adv-x="429" 
d="M98 0l0.000976562 533.999h67v-145c21.333 48 51.666 86 90.999 114s84.333 41.333 135 40v-72h-5c-62.667 0 -115.167 -22.667 -157.5 -68s-63.5 -107.666 -63.5 -186.999v-216h-67z" />
    <glyph glyph-name="s" unicode="s" horiz-adv-x="528" 
d="M273 -10c-38.667 0 -77.666 7 -116.999 21s-74 33 -104 57l36 50c60 -46 122.667 -69 188 -69c34.667 0 63.167 8.5 85.5 25.5s33.5 39.167 33.5 66.5v2c0 11.333 -2.66699 21.666 -8 30.999s-11.5 17 -18.5 23s-17.667 12.167 -32 18.5s-26.333 11 -36 14
s-23.834 7.16699 -42.501 12.5c-22 6 -39.5 11.167 -52.5 15.5s-28.5 10.833 -46.5 19.5s-32 17.667 -42 27s-18.833 21.5 -26.5 36.5s-11.5 31.833 -11.5 50.5v2c0 45.333 16.667 82 50 110s76.333 42 129 42c68 0 131.667 -20 191 -60l-32 -52
c-56 35.333 -109.667 53 -161 53c-33.333 0 -60.333 -8 -81 -24s-31 -36.333 -31 -61v-2c0 -10.667 2.83301 -20.5 8.5 -29.5s12.334 -16.5 20.001 -22.5s18.667 -12 33 -18s26.833 -10.667 37.5 -14s25.334 -7.66602 44.001 -12.999
c25.333 -7.33301 46.666 -14.5 63.999 -21.5s35.166 -16.333 53.499 -28s32.333 -26 42 -43s14.5 -36.833 14.5 -59.5v-2c0 -48 -17.833 -86.333 -53.5 -115s-80.5 -43 -134.5 -43z" />
    <glyph glyph-name="t" unicode="t" horiz-adv-x="428" 
d="M276 -9c-44.667 0 -80.832 12.167 -108.499 36.5s-41.5 61.833 -41.5 112.5v334h-76v60h76v166h67v-166h178v-60h-178v-326c0 -64 32.333 -96 97 -96c24 0 50 6.33301 78 19v-60c-28.667 -13.333 -59.334 -20 -92.001 -20z" />
    <glyph glyph-name="u" unicode="u" horiz-adv-x="649" 
d="M297 -12c-64.667 0 -115.668 19.834 -153.001 59.501s-56 92.167 -56 157.5v329h67v-314c0 -52.667 14 -94.334 42 -125.001s66.667 -46 116 -46c48.667 0 89.334 16.667 122.001 50s49 76 49 128v307h67v-534h-67v96c-42 -72 -104.333 -108 -187 -108z" />
    <glyph glyph-name="v" unicode="v" horiz-adv-x="618" 
d="M280 -4l-236 538h76l189 -458l191 458h74l-236 -538h-58z" />
    <glyph glyph-name="w" unicode="w" horiz-adv-x="905" 
d="M243 -4l-191 538h73l149 -446l152 449h55l152 -449l150 446h70l-191 -538h-58l-151 437l-152 -437h-58z" />
    <glyph glyph-name="x" unicode="x" horiz-adv-x="605" 
d="M136 534l167 -216l168 216h77l-206 -260l215 -274h-80l-176 229l-176 -229h-77l214 272l-205 262h79z" />
    <glyph glyph-name="y" unicode="y" horiz-adv-x="623" 
d="M325 74l179.999 459.999h73l-228 -552c-22 -54.667 -47.167 -93.667 -75.5 -117s-62.166 -35 -101.499 -35c-37.333 0 -74.333 8.66699 -111 26l23 55c28 -13.333 57 -20 87 -20c26 0 48 8.33301 66 25s36 45.334 54 86.001l-249 532h75z" />
    <glyph glyph-name="z" unicode="z" horiz-adv-x="588" 
d="M64 0v41l369 435h-355v58h449v-41l-369 -435h369v-58h-463z" />
    <glyph glyph-name="braceleft" unicode="{" horiz-adv-x="511" 
d="M448 -103l-9.99902 -44.002c-46 8.66699 -83.833 19.334 -113.5 32.001s-52.334 28.167 -68.001 46.5s-26.5 37.666 -32.5 57.999s-9 45.166 -9 74.499v80c0 43.333 -9.16699 75.666 -27.5 96.999s-50.166 32 -95.499 32h-27v51h27c45.333 0 77.166 10.667 95.499 32
s27.5 53.666 27.5 96.999v80c0 29.333 3 54.166 9 74.499s16.833 39.666 32.5 57.999s38.334 33.833 68.001 46.5s67.5 23.334 113.5 32.001l10 -44c-38 -10 -68.167 -20 -90.5 -30s-39.166 -22.167 -50.499 -36.5s-18.666 -29.166 -21.999 -44.499s-5 -36.666 -5 -63.999
v-78c0 -43.333 -9 -76.166 -27 -98.499s-45 -39.166 -81 -50.499c37.333 -11.333 64.666 -28 81.999 -50s26 -54.667 26 -98v-78c0 -27.333 1.66699 -48.666 5 -63.999s10.666 -30.166 21.999 -44.499s28.166 -26.5 50.499 -36.5s52.5 -20 90.5 -30z" />
    <glyph glyph-name="bar" unicode="|" horiz-adv-x="315" 
d="M129 -133v963h58v-963h-58z" />
    <glyph glyph-name="braceright" unicode="}" horiz-adv-x="511" 
d="M73 -147l-10.001 43.9971c38 10 68.167 20 90.5 30s39.166 22.167 50.499 36.5s18.666 29.166 21.999 44.499s5 36.666 5 63.999v78c0 42.667 9 75.334 27 98.001s45 39.334 81 50.001c-37.333 12.667 -64.666 29.834 -81.999 51.501s-26 54.167 -26 97.5v78
c0 27.333 -1.66699 48.666 -5 63.999s-10.666 30.166 -21.999 44.499s-28.166 26.5 -50.499 36.5s-52.5 20 -90.5 30l10 44c46 -8.66699 83.833 -19.334 113.5 -32.001s52.334 -28.167 68.001 -46.5s26.5 -37.666 32.5 -57.999s9 -45.166 9 -74.499v-80
c0 -43.333 9.16699 -75.666 27.5 -96.999s50.166 -32 95.499 -32h27v-51h-27c-45.333 0 -77.166 -10.667 -95.499 -32s-27.5 -53.666 -27.5 -96.999v-80c0 -29.333 -3 -54.166 -9 -74.499s-16.833 -39.666 -32.5 -57.999s-38.334 -33.833 -68.001 -46.5
s-67.5 -23.334 -113.5 -32.001z" />
    <glyph glyph-name="asciitilde" unicode="~" horiz-adv-x="496" 
d="M317 258c-14 0 -37.667 7.33301 -71 22c-29.333 14 -51 21 -65 21c-13.333 0 -23.5 -3.66699 -30.5 -11s-14.5 -21 -22.5 -41l-43 12c10.667 38 23 64.667 37 80s33 23 57 23c16 0 39.667 -7 71 -21c29.333 -14 51 -21 65 -21c13.333 0 23.5 3.66699 30.5 11
s14.5 21 22.5 41l43 -12c-10 -38 -22.167 -64.833 -36.5 -80.5s-33.5 -23.5 -57.5 -23.5z" />
    <glyph glyph-name="exclamdown" unicode="&#xa1;" horiz-adv-x="283" 
d="M100 628v100h83v-100h-83zM102 0v65l21 464h38l20 -464v-65h-79z" />
    <glyph glyph-name="cent" unicode="&#xa2;" horiz-adv-x="630" 
d="M437 734l-20 -95.998c54 -12.667 102.667 -43 146 -91l-43 -44c-40 42 -79.333 68.333 -118 79l-87 -432c5.33301 -0.666992 13 -1 23 -1c69.333 0 131.666 30 186.999 90l42 -38c-65.333 -73.333 -143 -110 -233 -110c-12.667 0 -22 0.333008 -28 1l-20 -98h-60l23 110
c-54.667 17.333 -99 49.666 -133 96.999s-51 101.666 -51 162.999v2c0 76 26.667 141.833 80 197.5s119.333 83.5 198 83.5c6.66699 0 12.334 -0.333008 17.001 -1l18 88h59zM131 366.002v-2c0 -48.667 12 -91 36 -127s56.333 -61.333 97 -76l85 429h-7
c-61.333 0 -111.833 -21.5 -151.5 -64.5s-59.5 -96.167 -59.5 -159.5z" />
    <glyph glyph-name="sterling" unicode="&#xa3;" horiz-adv-x="630" 
d="M152 375v120.999c0 78 21.333 138.667 64 182c40 40 92.333 60 157 60c80 0 145.667 -32 197 -96l-48 -46c-42 53.333 -91.667 80 -149 80c-43.333 0 -79 -14 -107 -42c-31.333 -31.333 -47 -76.666 -47 -135.999v-123h278v-59h-278v-255h354v-61h-504v37l83 21v258h-84
v59h84z" />
    <glyph glyph-name="yen" unicode="&#xa5;" horiz-adv-x="630" 
d="M96 171h187v109h-187v52h170l-240 396h78l212 -365l213 365h75l-243 -396h173v-52h-187v-109h187v-52h-187v-119h-64v119h-187v52z" />
    <glyph glyph-name="section" unicode="&#xa7;" horiz-adv-x="630" 
d="M328 -10c-43.333 0 -84.5 7.83301 -123.5 23.5s-72.167 37.167 -99.5 64.5l41 48c55.333 -52.667 117.333 -79 186 -79c32.667 0 58 6.83301 76 20.5s27 30.834 27 51.501v1c0 22.667 -11.5 42.334 -34.5 59.001s-61.167 32 -114.5 46
c-83.333 22.667 -141.333 45.334 -174 68.001s-49 52 -49 88v1c0 30 13 55.5 39 76.5s60.667 33.5 104 37.5c-52.667 29.333 -79 65.666 -79 108.999v1c0 38.667 16.5 70.334 49.5 95.001s74.833 37 125.5 37c43.333 0 84.5 -7.83301 123.5 -23.5s72.167 -37.167 99.5 -64.5
l-41 -48c-55.333 52.667 -117.333 79 -186 79c-32.667 0 -58 -6.83301 -76 -20.5s-27 -30.834 -27 -51.501v-1c0 -22.667 11.5 -42.334 34.5 -59.001s61.167 -32 114.5 -46c83.333 -22.667 141.333 -45.334 174 -68.001s49 -52 49 -88v-1c0 -30 -13 -55.5 -39 -76.5
s-60.667 -33.5 -104 -37.5c52.667 -29.333 79 -65.666 79 -108.999v-1c0 -38.667 -16.5 -70.334 -49.5 -95.001s-74.833 -37 -125.5 -37zM243 460c-34.667 0.666992 -62.5 -6.16992 -83.5 -20.5029s-31.5 -31.833 -31.5 -52.5v-1c0 -20.667 10.5 -38.667 31.5 -54
s56.5 -29.666 106.5 -42.999c58 -14 98.333 -21 121 -21c34.667 -1.33301 62.5 5.33398 83.5 20.001s31.5 32.334 31.5 53.001v1c0 21.333 -10.5 39.5 -31.5 54.5s-56.5 29.167 -106.5 42.5c-58 14 -98.333 21 -121 21z" />
    <glyph glyph-name="dieresis" unicode="&#xa8;" 
d="M311 619v92h84v-92h-84zM135 619v92h84v-92h-84z" />
    <glyph glyph-name="copyright" unicode="&#xa9;" horiz-adv-x="873" 
d="M436 -12c-105.333 0 -194.335 36.5 -267.002 109.5s-109 161.167 -109 264.5v2c0 103.333 36.833 191.833 110.5 265.5s162.834 110.5 267.501 110.5s193.334 -36.5 266.001 -109.5s109 -161.167 109 -264.5v-2c0 -103.333 -36.5 -191.833 -109.5 -265.5
s-162.167 -110.5 -267.5 -110.5zM435.998 19c97.333 0 179 33.8311 245 101.498s99 148.834 99 243.501v2c0 95.333 -32.833 176.333 -98.5 243s-146.834 100 -243.501 100c-97.333 0 -179.166 -33.667 -245.499 -101s-99.5 -148.666 -99.5 -243.999v-2
c0 -95.333 32.833 -176.333 98.5 -243s147.167 -100 244.5 -100zM440.998 170.998c-54 0 -99.499 19.166 -136.499 57.499s-55.5 84.833 -55.5 139.5v2c0 54 18.833 100.5 56.5 139.5s83.167 58.5 136.5 58.5s102.666 -21 147.999 -63l-35 -37
c-38.667 34.667 -76.667 52 -114 52c-39.333 0 -72.333 -14.5 -99 -43.5s-40 -64.167 -40 -105.5v-2c0 -41.333 13.667 -76.666 41 -105.999s60.333 -44 99 -44c40.667 0 79.667 17.667 117 53l34 -34c-46 -44.667 -96.667 -67 -152 -67z" />
    <glyph glyph-name="ordfeminine" unicode="&#xaa;" horiz-adv-x="416" 
d="M183 426c-30 0 -56.166 8.33203 -78.499 24.999s-33.5 39.334 -33.5 68.001v2c0 30.667 11.667 54.5 35 71.5s54.333 25.5 93 25.5c32 0 60 -3.66699 84 -11v5c0 50.667 -27.667 76 -83 76c-23.333 0 -53.333 -7.66699 -90 -23l-15 39c37.333 18 73.666 27 108.999 27
c40 0 71.667 -11 95 -33c20 -21.333 30 -50 30 -86v-180h-46v41c-24.667 -31.333 -58 -47 -100 -47zM188.001 465.999c26.667 0 49.333 7.16699 68 21.5s28 32.833 28 55.5v26c-24 7.33301 -52 11 -84 11c-25.333 0 -45.166 -5.16699 -59.499 -15.5
s-21.5 -23.833 -21.5 -40.5v-2c0 -17.333 6.66699 -31 20 -41s29.666 -15 48.999 -15zM67 301.999v46h267v-46h-267z" />
    <glyph glyph-name="guillemotleft" unicode="&#xab;" horiz-adv-x="566" 
d="M448 44l-169 219v8l169 220l50 -30l-140 -193l140 -195zM226 44l-170 219v8l170 220l49 -30l-140 -193l140 -195z" />
    <glyph glyph-name="registered" unicode="&#xae;" horiz-adv-x="435" 
d="M218 374c-50 0 -92.667 17.667 -128 53s-53 78 -53 128v1c0 50 17.667 92.833 53 128.5s78 53.5 128 53.5s92.667 -17.667 128 -53s53 -78 53 -128v-1c0 -50 -17.667 -92.833 -53 -128.5s-78 -53.5 -128 -53.5zM218 394c44.667 0 82.5 15.8311 113.5 47.498
s46.5 69.834 46.5 114.501v1c0 44.667 -15.333 82.834 -46 114.501s-68.667 47.5 -114 47.5s-83.5 -16 -114.5 -48s-46.5 -70.333 -46.5 -115v-1c0 -44.667 15.5 -82.667 46.5 -114s69.167 -47 114.5 -47zM148 467.998l-0.000976562 184h83c20.667 0 37.334 -5 50.001 -15
s19 -24.333 19 -43v-1c0 -13.333 -4.16699 -25 -12.5 -35s-18.833 -16.667 -31.5 -20l51 -70h-41l-44 65h-41v-65h-33zM180.999 559.998h47c26 0 39 10.667 39 32v1c0 9.33301 -3.5 16.833 -10.5 22.5s-16.5 8.16699 -28.5 7.5h-47v-63z" />
    <glyph glyph-name="overscore" unicode="&#xaf;" 
d="M107 643v57h316v-57h-316z" />
    <glyph glyph-name="degree" unicode="&#xb0;" horiz-adv-x="630" 
d="M314 323c-58 0 -107.333 20.001 -148 60.001s-61 88.667 -61 146v1c0 56 20.833 104.333 62.5 145s91.167 61 148.5 61s106.5 -20.333 147.5 -61s61.5 -89.334 61.5 -146.001v-1c0 -56 -20.833 -104.167 -62.5 -144.5s-91.167 -60.5 -148.5 -60.5zM316 374.001
c44 0 80.333 14.833 109 44.5s43 66.5 43 110.5v1c0 43.333 -14.667 80 -44 110s-66 45 -110 45s-80.333 -15 -109 -45s-43 -67 -43 -111v-1c0 -42.667 14.833 -79 44.5 -109s66.167 -45 109.5 -45z" />
    <glyph glyph-name="plusminus" unicode="&#xb1;" horiz-adv-x="630" 
d="M558 376h-210v-207h-66v207h-210v63l210 -1v207h66v-207l210 1v-63zM558 0h-486v62h486v-62z" />
    <glyph glyph-name="acute" unicode="&#xb4;" 
d="M200 619l95 145l74 -35l-115 -110h-54z" />
    <glyph glyph-name="mu" unicode="&#xb5;" horiz-adv-x="701" 
d="M676 56l0.000976562 -58c-20 -4 -37.333 -6 -52 -6c-72.667 0 -114 33.333 -124 100c-41.333 -69.333 -97.666 -104 -168.999 -104c-78 0 -135.667 37 -173 111h-1c4.66699 -34.667 7 -79 7 -133v-132h-66v700h67v-308c0 -50 15.833 -92.167 47.5 -126.5
s71.167 -51.5 118.5 -51.5s86.666 17.167 117.999 51.5s47 76.5 47 126.5v308h67v-410c2 -48.667 26.333 -73 73 -73c13.333 0 26.666 1.66699 39.999 5z" />
    <glyph glyph-name="paragraph" unicode="&#xb6;" horiz-adv-x="630" 
d="M435 0v281.001h-76c-83.333 0 -151 19.667 -203 59s-78 93.333 -78 162v1c0 69.333 26.167 124.166 78.5 164.499s121.5 60.5 207.5 60.5h142v-728h-71z" />
    <glyph glyph-name="middot" unicode="&#xb7;" horiz-adv-x="315" 
d="M109 257v109h98v-109h-98z" />
    <glyph glyph-name="cedilla" unicode="&#xb8;" 
d="M235 -158l-68 31l94 139h55z" />
    <glyph glyph-name="ordmasculine" unicode="&#xba;" horiz-adv-x="416" 
d="M207 425c-42.667 0 -78.498 14.833 -107.498 44.5s-43.5 65.5 -43.5 107.5v2c0 42 14.667 78.167 44 108.5s65.666 45.5 108.999 45.5s79.166 -14.833 107.499 -44.5s42.5 -65.5 42.5 -107.5v-2c0 -42 -14.5 -78.167 -43.5 -108.5s-65.167 -45.5 -108.5 -45.5z
M58.002 302v46h300v-46h-300zM209.002 471c29.333 0 53.166 10.166 71.499 30.499s27.5 45.5 27.5 75.5v2c0 30.667 -9.5 56.334 -28.5 77.001s-43.167 31 -72.5 31s-53.333 -10.167 -72 -30.5s-28 -45.5 -28 -75.5v-2c0 -30 9.83301 -55.5 29.5 -76.5
s43.834 -31.5 72.501 -31.5z" />
    <glyph glyph-name="guillemotright" unicode="&#xbb;" horiz-adv-x="566" 
d="M340 44l-49 29l140 193l-140 195l49 30l169 -220v-8zM117 44l-49 29l140 193l-140 195l49 30l170 -220v-8z" />
    <glyph glyph-name="onequarter" unicode="&#xbc;" horiz-adv-x="945" 
d="M363 326h-282v42h121v316l-107 -38l-11 43l127 46h39v-367h113v-42zM226 0l257 372l238 356h51l-257 -372l-238 -356h-51zM835 91v-93h-45v93h-198l-12 41l201 276h54v-276h56v-41h-56zM790 132v216l-159 -216h159z" />
    <glyph glyph-name="onehalf" unicode="&#xbd;" horiz-adv-x="945" 
d="M363 326h-282v42h121v316l-107 -38l-11 43l127 46h39v-367h113v-42zM597 0v41.002l153 133c29.333 26 50.166 47.667 62.499 65s18.5 36 18.5 56c0 21.333 -7.66699 39 -23 53s-34.666 21 -57.999 21c-42 0 -79 -24 -111 -72l-36 24c38 60.667 88 91 150 91
c36.667 0 67 -10.833 91 -32.5s36 -48.834 36 -81.501c0 -27.333 -7 -51.333 -21 -72s-38.667 -46.334 -74 -77.001l-122 -104h221v-45h-287zM221 0.00195312l257 372l238 356h51l-257 -372l-238 -356h-51z" />
    <glyph glyph-name="threequarters" unicode="&#xbe;" horiz-adv-x="945" 
d="M835 91v-93h-45v93h-198l-12 41l201 276h54v-276h56v-41h-56zM790 132v216l-159 -216h159zM221 0l257 372l238 356h51l-257 -372l-238 -356h-51zM211 316c-61.333 0 -111.669 24.665 -151.002 73.998l33 32c32.667 -42 72.334 -63 119.001 -63
c24.667 0 45.5 7.33301 62.5 22s25.5 33.667 25.5 57c0 24.667 -10.167 43.834 -30.5 57.501s-47.166 20.5 -80.499 20.5h-32l-9 30l134 137h-200v45h261v-39l-130 -133c40 -2.66699 72.667 -14.167 98 -34.5s38 -48.166 38 -83.499s-13.5 -64.5 -40.5 -87.5
s-59.5 -34.5 -97.5 -34.5z" />
    <glyph glyph-name="questiondown" unicode="&#xbf;" horiz-adv-x="567" 
d="M265 628v100h84v-100h-84zM286 -9c-68.667 0 -124 19.166 -166 57.499s-63 87.166 -63 146.499v2c0 62 20.167 110.667 60.5 146s92.833 57.333 157.5 66l10 120h44l15 -168l-5 -6c-68 -1.33301 -120.333 -15.666 -157 -42.999s-55 -64.666 -55 -111.999v-2
c0 -41.333 14.667 -75.833 44 -103.5s68.666 -41.5 117.999 -41.5c70.667 0 135.334 34 194.001 102l46 -42c-66.667 -81.333 -147.667 -122 -243 -122z" />
    <glyph glyph-name="Agrave" unicode="&#xc0;" horiz-adv-x="832" 
d="M48 0l335 733h66l335 -733h-76l-88 198h-411l-89 -198h-72zM237 261h355l-177 393zM444 804h-58l-116 95l73 34z" />
    <glyph glyph-name="Aacute" unicode="&#xc1;" horiz-adv-x="832" 
d="M48 0l335 733h66l335 -733h-76l-88 198h-411l-89 -198h-72zM237 261h355l-177 393zM388 804l101 129l73 -34l-116 -95h-58z" />
    <glyph glyph-name="Acircumflex" unicode="&#xc2;" horiz-adv-x="832" 
d="M48 0l335 733h66l335 -733h-76l-88 198h-411l-89 -198h-72zM237 261h355l-177 393zM273 804l111 118h64l111 -118h-67l-77 63l-77 -63h-65z" />
    <glyph glyph-name="Atilde" unicode="&#xc3;" horiz-adv-x="832" 
d="M48 0l335 733h66l335 -733h-76l-88 198h-411l-89 -198h-72zM237 261h355l-177 393zM490 804c-15.333 0 -41.001 7.33301 -77.001 22c-28 12 -47.667 18 -59 18c-12.667 0 -22.667 -3.5 -30 -10.5s-15 -19.833 -23 -38.5l-46 12c10.667 35.333 23.167 60.833 37.5 76.5
s32.5 23.5 54.5 23.5c16.667 0 42.334 -7.66699 77.001 -23c30 -11.333 49.667 -17 59 -17c13.333 0 23.5 3.5 30.5 10.5s14.5 19.5 22.5 37.5l46 -13c-10.667 -34.667 -23.167 -59.667 -37.5 -75s-32.5 -23 -54.5 -23z" />
    <glyph glyph-name="Adieresis" unicode="&#xc4;" horiz-adv-x="832" 
d="M48 0l335 733h66l335 -733h-76l-88 198h-411l-89 -198h-72zM237 261h355l-177 393zM468 804v87h87v-87h-87zM278 804v87h88v-87h-88z" />
    <glyph glyph-name="Aring" unicode="&#xc5;" horiz-adv-x="832" 
d="M48 0l315 691.999c-40 18.667 -60 48.334 -60 89.001c0 28.667 11.167 52.834 33.5 72.501s48.833 29.5 79.5 29.5s57.167 -9.83301 79.5 -29.5s33.5 -43.834 33.5 -72.501c0 -40.667 -20.333 -70.667 -61 -90l316 -691h-76l-88 198h-411l-89 -198h-72zM237 260.999h355
l-177 393zM416 716.999c19.333 0 35.833 6.16699 49.5 18.5s20.5 27.5 20.5 45.5c0 18.667 -6.83301 34.167 -20.5 46.5s-30.167 18.5 -49.5 18.5c-20 0 -36.667 -6.16699 -50 -18.5s-20 -27.833 -20 -46.5c0 -18 6.66699 -33.167 20 -45.5s30 -18.5 50 -18.5z" />
    <glyph glyph-name="AE" unicode="&#xc6;" horiz-adv-x="1097" 
d="M24 0l434 728h565v-64h-436v-265h389v-64h-389v-271h441v-64h-511v198h-302l-117 -198h-74zM251 261h266v405h-26z" />
    <glyph glyph-name="Ccedilla" unicode="&#xc7;" horiz-adv-x="782" 
d="M388 -158l-68.002 30.999l79 117c-93.333 9.33301 -170.166 49.333 -230.499 120s-90.5 154.667 -90.5 252v2c0 104 34.833 192.667 104.5 266s156.834 110 261.501 110c60.667 0 112.5 -9.66699 155.5 -29s85.833 -48 128.5 -86l-48 -52
c-72.667 69.333 -151.667 104 -237 104c-83.333 0 -152.833 -30 -208.5 -90s-83.5 -133.667 -83.5 -221v-2c0 -87.333 28.167 -161.333 84.5 -222s125.833 -91 208.5 -91c48 0 90.667 9 128 27s75.333 45.333 114 82l46 -45c-40 -40 -81.5 -70.667 -124.5 -92
s-93.167 -32.666 -150.5 -33.999z" />
    <glyph glyph-name="Egrave" unicode="&#xc8;" horiz-adv-x="707" 
d="M402 794h-58l-116 95l73 34zM110 0v728h523v-64h-453v-265h406v-64h-406v-271h458v-64h-528z" />
    <glyph glyph-name="Eacute" unicode="&#xc9;" horiz-adv-x="707" 
d="M345 794l101 129l73 -34l-116 -95h-58zM110 0v728h523v-64h-453v-265h406v-64h-406v-271h458v-64h-528z" />
    <glyph glyph-name="Ecircumflex" unicode="&#xca;" horiz-adv-x="707" 
d="M110 0v728h523v-64h-453v-265h406v-64h-406v-271h458v-64h-528zM230 794l111 118h64l111 -118h-67l-77 63l-77 -63h-65z" />
    <glyph glyph-name="Edieresis" unicode="&#xcb;" horiz-adv-x="707" 
d="M425 794v87h87v-87h-87zM235 794v87h88v-87h-88zM110 0v728h523v-64h-453v-265h406v-64h-406v-271h458v-64h-528z" />
    <glyph glyph-name="Igrave" unicode="&#xcc;" horiz-adv-x="305" 
d="M117 0v728h70v-728h-70zM182 794h-58l-116 95l73 34z" />
    <glyph glyph-name="Iacute" unicode="&#xcd;" horiz-adv-x="305" 
d="M117 0v728h70v-728h-70zM125 794l101 129l73 -34l-116 -95h-58z" />
    <glyph glyph-name="Icircumflex" unicode="&#xce;" horiz-adv-x="305" 
d="M117 0v728h70v-728h-70zM10 794l111 118h64l111 -118h-67l-77 63l-77 -63h-65z" />
    <glyph glyph-name="Idieresis" unicode="&#xcf;" horiz-adv-x="305" 
d="M117 0v728h70v-728h-70zM205 794v87h87v-87h-87zM15 794v87h88v-87h-88z" />
    <glyph glyph-name="Eth" unicode="&#xd0;" horiz-adv-x="854" 
d="M141 0v337h-78v59h78v332h249c112.667 0 205.334 -34.5 278.001 -103.5s109 -155.167 109 -258.5v-2c0 -103.333 -36.333 -189.833 -109 -259.5s-165.334 -104.5 -278.001 -104.5h-249zM440 337l-229 0.000976562v-273h179c94 0 169.833 28.333 227.5 85
s86.5 127.667 86.5 213v2c0 85.333 -28.833 156.666 -86.5 213.999s-133.5 86 -227.5 86h-179v-268h229v-59z" />
    <glyph glyph-name="Ntilde" unicode="&#xd1;" horiz-adv-x="832" 
d="M490 791c-15.333 0 -41.001 7.33301 -77.001 22c-28 12 -47.667 18 -59 18c-12.667 0 -22.667 -3.5 -30 -10.5s-15 -19.833 -23 -38.5l-46 12c10.667 35.333 23.167 60.833 37.5 76.5s32.5 23.5 54.5 23.5c16.667 0 42.334 -7.66699 77.001 -23
c30 -11.333 49.667 -17 59 -17c13.333 0 23.5 3.5 30.5 10.5s14.5 19.5 22.5 37.5l46 -13c-10.667 -34.667 -23.167 -59.667 -37.5 -75s-32.5 -23 -54.5 -23zM109.999 0v728h66l478 -606v606h68v-728h-55l-489 619v-619h-68z" />
    <glyph glyph-name="Ograve" unicode="&#xd2;" horiz-adv-x="894" 
d="M476 804h-58l-116 95l73 34zM446 -12c-108 0 -196.333 36.667 -265 110s-103 161.333 -103 264v2c0 102.667 34.667 191 104 265s158 111 266 111s196.333 -36.667 265 -110s103 -161.333 103 -264v-2c0 -102.667 -34.667 -191 -104 -265s-158 -111 -266 -111zM448 51
c84.667 0 155 30 211 90s84 133.667 84 221v2c0 87.333 -28.333 161.333 -85 222s-127.334 91 -212.001 91s-155 -30 -211 -90s-84 -133.667 -84 -221v-2c0 -87.333 28.333 -161.333 85 -222s127.334 -91 212.001 -91z" />
    <glyph glyph-name="Oacute" unicode="&#xd3;" horiz-adv-x="894" 
d="M419 804l101 129l73 -34l-116 -95h-58zM446 -12c-108 0 -196.333 36.667 -265 110s-103 161.333 -103 264v2c0 102.667 34.667 191 104 265s158 111 266 111s196.333 -36.667 265 -110s103 -161.333 103 -264v-2c0 -102.667 -34.667 -191 -104 -265s-158 -111 -266 -111z
M448 51c84.667 0 155 30 211 90s84 133.667 84 221v2c0 87.333 -28.333 161.333 -85 222s-127.334 91 -212.001 91s-155 -30 -211 -90s-84 -133.667 -84 -221v-2c0 -87.333 28.333 -161.333 85 -222s127.334 -91 212.001 -91z" />
    <glyph glyph-name="Ocircumflex" unicode="&#xd4;" horiz-adv-x="894" 
d="M446 -12c-108 0 -196.333 36.667 -265 110s-103 161.333 -103 264v2c0 102.667 34.667 191 104 265s158 111 266 111s196.333 -36.667 265 -110s103 -161.333 103 -264v-2c0 -102.667 -34.667 -191 -104 -265s-158 -111 -266 -111zM448 51c84.667 0 155 30 211 90
s84 133.667 84 221v2c0 87.333 -28.333 161.333 -85 222s-127.334 91 -212.001 91s-155 -30 -211 -90s-84 -133.667 -84 -221v-2c0 -87.333 28.333 -161.333 85 -222s127.334 -91 212.001 -91zM304 804l111 118h64l111 -118h-67l-77 63l-77 -63h-65z" />
    <glyph glyph-name="Otilde" unicode="&#xd5;" horiz-adv-x="894" 
d="M521 804c-15.333 0 -41.001 7.33301 -77.001 22c-28 12 -47.667 18 -59 18c-12.667 0 -22.667 -3.5 -30 -10.5s-15 -19.833 -23 -38.5l-46 12c10.667 35.333 23.167 60.833 37.5 76.5s32.5 23.5 54.5 23.5c16.667 0 42.334 -7.66699 77.001 -23
c30 -11.333 49.667 -17 59 -17c13.333 0 23.5 3.5 30.5 10.5s14.5 19.5 22.5 37.5l46 -13c-10.667 -34.667 -23.167 -59.667 -37.5 -75s-32.5 -23 -54.5 -23zM445.999 -12c-108 0 -196.333 36.667 -265 110s-103 161.333 -103 264v2c0 102.667 34.667 191 104 265
s158 111 266 111s196.333 -36.667 265 -110s103 -161.333 103 -264v-2c0 -102.667 -34.667 -191 -104 -265s-158 -111 -266 -111zM447.999 51c84.667 0 155 30 211 90s84 133.667 84 221v2c0 87.333 -28.333 161.333 -85 222s-127.334 91 -212.001 91s-155 -30 -211 -90
s-84 -133.667 -84 -221v-2c0 -87.333 28.333 -161.333 85 -222s127.334 -91 212.001 -91z" />
    <glyph glyph-name="Odieresis" unicode="&#xd6;" horiz-adv-x="894" 
d="M499 804v87h87v-87h-87zM309 804v87h88v-87h-88zM446 -12c-108 0 -196.333 36.667 -265 110s-103 161.333 -103 264v2c0 102.667 34.667 191 104 265s158 111 266 111s196.333 -36.667 265 -110s103 -161.333 103 -264v-2c0 -102.667 -34.667 -191 -104 -265
s-158 -111 -266 -111zM448 51c84.667 0 155 30 211 90s84 133.667 84 221v2c0 87.333 -28.333 161.333 -85 222s-127.334 91 -212.001 91s-155 -30 -211 -90s-84 -133.667 -84 -221v-2c0 -87.333 28.333 -161.333 85 -222s127.334 -91 212.001 -91z" />
    <glyph glyph-name="multiply" unicode="&#xd7;" horiz-adv-x="630" 
d="M497 138l-183 185l-183 -185l-44 44l185 183l-185 183l46 46l183 -185l183 185l44 -44l-185 -183l185 -183z" />
    <glyph glyph-name="Oslash" unicode="&#xd8;" horiz-adv-x="894" 
d="M749 733h76l-104 -112c63.333 -70.667 95 -155.667 95 -255v-2c0 -102.667 -34.667 -191 -104 -265s-158 -111 -266 -111c-91.333 0 -169 26.667 -233 80l-68 -73h-76l104 111c-63.333 70.667 -95 156 -95 256v2c0 102.667 34.667 191 104 265s158 111 266 111
c90.667 0 168 -26.667 232 -80zM149 366l-0.000976562 -1.00098c0 -78.667 24 -148 72 -208l415 452c-54.667 46 -118 69 -190 69c-85.333 0 -156.166 -30.167 -212.499 -90.5s-84.5 -134.166 -84.5 -221.499zM447.999 49.999c85.333 0 156.166 30.168 212.499 90.501
s84.5 134.166 84.5 221.499v1c0 78.667 -24 148 -72 208l-416 -452c54.667 -46.667 118.334 -69.667 191.001 -69z" />
    <glyph glyph-name="Ugrave" unicode="&#xd9;" horiz-adv-x="800" 
d="M428 791h-58l-116 95l73 34zM400 -11c-91.333 0 -164.333 27.3311 -219 81.998s-82 132.334 -82 233.001v424h70v-419c0 -82 20.333 -145.333 61 -190s98 -67 172 -67c71.333 0 127.333 21.5 168 64.5s61 105.5 61 187.5v424h70v-418
c0 -103.333 -27.167 -182.666 -81.5 -237.999s-127.5 -83 -219.5 -83z" />
    <glyph glyph-name="Uacute" unicode="&#xda;" horiz-adv-x="800" 
d="M372 791l101 129l73 -34l-116 -95h-58zM400 -11c-91.333 0 -164.333 27.3311 -219 81.998s-82 132.334 -82 233.001v424h70v-419c0 -82 20.333 -145.333 61 -190s98 -67 172 -67c71.333 0 127.333 21.5 168 64.5s61 105.5 61 187.5v424h70v-418
c0 -103.333 -27.167 -182.666 -81.5 -237.999s-127.5 -83 -219.5 -83z" />
    <glyph glyph-name="Ucircumflex" unicode="&#xdb;" horiz-adv-x="800" 
d="M400 -11c-91.333 0 -164.333 27.3311 -219 81.998s-82 132.334 -82 233.001v424h70v-419c0 -82 20.333 -145.333 61 -190s98 -67 172 -67c71.333 0 127.333 21.5 168 64.5s61 105.5 61 187.5v424h70v-418c0 -103.333 -27.167 -182.666 -81.5 -237.999
s-127.5 -83 -219.5 -83zM257 790.998l111 118h64l111 -118h-67l-77 63l-77 -63h-65z" />
    <glyph glyph-name="Udieresis" unicode="&#xdc;" horiz-adv-x="800" 
d="M452 791v87h87v-87h-87zM262 791v87h88v-87h-88zM400 -11c-91.333 0 -164.333 27.3311 -219 81.998s-82 132.334 -82 233.001v424h70v-419c0 -82 20.333 -145.333 61 -190s98 -67 172 -67c71.333 0 127.333 21.5 168 64.5s61 105.5 61 187.5v424h70v-418
c0 -103.333 -27.167 -182.666 -81.5 -237.999s-127.5 -83 -219.5 -83z" />
    <glyph glyph-name="Yacute" unicode="&#xdd;" horiz-adv-x="755" 
d="M342 0v288l-307 440h86l257 -376l259 376h82l-307 -439v-289h-70zM349 791l101 129l73 -34l-116 -95h-58z" />
    <glyph glyph-name="Thorn" unicode="&#xde;" horiz-adv-x="710" 
d="M110 0v728.001h70v-128h199c82 0 147.833 -20.333 197.5 -61s74.5 -96 74.5 -166v-2c0 -74.667 -27.333 -132.834 -82 -174.501s-122.667 -62.5 -204 -62.5h-185v-134h-70zM180 198.001h188.999c63.333 0 114.5 15.667 153.5 47s58.5 72.333 58.5 123v2
c0 53.333 -18.667 94.333 -56 123s-87.666 43 -150.999 43h-194v-338z" />
    <glyph glyph-name="germandbls" unicode="&#xdf;" horiz-adv-x="655" 
d="M307 -2l-0.000976562 56.0039c66.667 1.33301 118.334 14.166 155.001 38.499s55 59.166 55 104.499v2c0 84.667 -70 135 -210 151v51c109.333 37.333 164 95.333 164 174v3c0 37.333 -13.333 68 -40 92s-61.334 36 -104.001 36
c-47.333 0 -86.166 -16.833 -116.499 -50.5s-45.5 -78.5 -45.5 -134.5v-521h-67v520c0 73.333 21.167 132.666 63.5 177.999s98.833 68 169.5 68c62.667 0 113.334 -17.5 152.001 -52.5s58 -78.833 58 -131.5v-3c0 -46 -14.833 -85.667 -44.5 -119s-65.834 -58 -108.501 -74
c58.667 -12 106.5 -32.833 143.5 -62.5s55.5 -70.834 55.5 -123.501v-2c0 -63.333 -25 -112.5 -75 -147.5s-118.333 -52.5 -205 -52.5z" />
    <glyph glyph-name="agrave" unicode="&#xe0;" horiz-adv-x="610" 
d="M259 -12c-54 0 -101.333 14.833 -142 44.5s-61 70.5 -61 122.5v2c0 54.667 21 97.167 63 127.5s98 45.5 168 45.5c62.667 0 119 -7.66699 169 -23v21c0 50 -14.5 88.167 -43.5 114.5s-69.833 39.5 -122.5 39.5c-52 0 -107 -13.667 -165 -41l-21 56
c65.333 30 129.333 45 192 45c74.667 0 131.667 -19.333 171 -58c36.667 -38 55 -89.333 55 -154v-330h-66v84c-47.333 -64 -113 -96 -197 -96zM268 45c53.333 0 98.333 14.332 135 42.999s55 65.334 55 110.001v56c-60 15.333 -116.333 23 -169 23
c-52 0 -92.333 -10.333 -121 -31s-43 -49 -43 -85v-3c0 -34.667 13.833 -62.167 41.5 -82.5s61.5 -30.5 101.5 -30.5zM279 618.999l-115 110l74 35l95 -145h-54z" />
    <glyph glyph-name="aacute" unicode="&#xe1;" horiz-adv-x="610" 
d="M259 -12c-54 0 -101.333 14.833 -142 44.5s-61 70.5 -61 122.5v2c0 54.667 21 97.167 63 127.5s98 45.5 168 45.5c62.667 0 119 -7.66699 169 -23v21c0 50 -14.5 88.167 -43.5 114.5s-69.833 39.5 -122.5 39.5c-52 0 -107 -13.667 -165 -41l-21 56
c65.333 30 129.333 45 192 45c74.667 0 131.667 -19.333 171 -58c36.667 -38 55 -89.333 55 -154v-330h-66v84c-47.333 -64 -113 -96 -197 -96zM268 45c53.333 0 98.333 14.332 135 42.999s55 65.334 55 110.001v56c-60 15.333 -116.333 23 -169 23
c-52 0 -92.333 -10.333 -121 -31s-43 -49 -43 -85v-3c0 -34.667 13.833 -62.167 41.5 -82.5s61.5 -30.5 101.5 -30.5zM278 618.999l95 145l74 -35l-115 -110h-54z" />
    <glyph glyph-name="acircumflex" unicode="&#xe2;" horiz-adv-x="610" 
d="M259 -12c-54 0 -101.333 14.833 -142 44.5s-61 70.5 -61 122.5v2c0 54.667 21 97.167 63 127.5s98 45.5 168 45.5c62.667 0 119 -7.66699 169 -23v21c0 50 -14.5 88.167 -43.5 114.5s-69.833 39.5 -122.5 39.5c-52 0 -107 -13.667 -165 -41l-21 56
c65.333 30 129.333 45 192 45c74.667 0 131.667 -19.333 171 -58c36.667 -38 55 -89.333 55 -154v-330h-66v84c-47.333 -64 -113 -96 -197 -96zM268 45c53.333 0 98.333 14.332 135 42.999s55 65.334 55 110.001v56c-60 15.333 -116.333 23 -169 23
c-52 0 -92.333 -10.333 -121 -31s-43 -49 -43 -85v-3c0 -34.667 13.833 -62.167 41.5 -82.5s61.5 -30.5 101.5 -30.5zM169 618.999l107 132h58l108 -132h-60l-78 70l-78 -70h-57z" />
    <glyph glyph-name="atilde" unicode="&#xe3;" horiz-adv-x="610" 
d="M259 -12c-54 0 -101.333 14.833 -142 44.5s-61 70.5 -61 122.5v2c0 54.667 21 97.167 63 127.5s98 45.5 168 45.5c62.667 0 119 -7.66699 169 -23v21c0 50 -14.5 88.167 -43.5 114.5s-69.833 39.5 -122.5 39.5c-52 0 -107 -13.667 -165 -41l-21 56
c65.333 30 129.333 45 192 45c74.667 0 131.667 -19.333 171 -58c36.667 -38 55 -89.333 55 -154v-330h-66v84c-47.333 -64 -113 -96 -197 -96zM268 45c53.333 0 98.333 14.332 135 42.999s55 65.334 55 110.001v56c-60 15.333 -116.333 23 -169 23
c-52 0 -92.333 -10.333 -121 -31s-43 -49 -43 -85v-3c0 -34.667 13.833 -62.167 41.5 -82.5s61.5 -30.5 101.5 -30.5zM378 618.999c-12.667 0 -36.332 7 -70.999 21c-29.333 14 -51 21 -65 21c-13.333 0 -23.5 -3.66699 -30.5 -11s-14.5 -21 -22.5 -41l-43 12
c10 38 22.167 64.833 36.5 80.5s33.5 23.5 57.5 23.5c12.667 0 36.334 -7 71.001 -21c29.333 -14 51 -21 65 -21c13.333 0 23.666 3.5 30.999 10.5s14.666 20.5 21.999 40.5l43 -11c-10 -38 -22.167 -64.833 -36.5 -80.5s-33.5 -23.5 -57.5 -23.5z" />
    <glyph glyph-name="adieresis" unicode="&#xe4;" horiz-adv-x="610" 
d="M259 -12c-54 0 -101.333 14.833 -142 44.5s-61 70.5 -61 122.5v2c0 54.667 21 97.167 63 127.5s98 45.5 168 45.5c62.667 0 119 -7.66699 169 -23v21c0 50 -14.5 88.167 -43.5 114.5s-69.833 39.5 -122.5 39.5c-52 0 -107 -13.667 -165 -41l-21 56
c65.333 30 129.333 45 192 45c74.667 0 131.667 -19.333 171 -58c36.667 -38 55 -89.333 55 -154v-330h-66v84c-47.333 -64 -113 -96 -197 -96zM268 45c53.333 0 98.333 14.332 135 42.999s55 65.334 55 110.001v56c-60 15.333 -116.333 23 -169 23
c-52 0 -92.333 -10.333 -121 -31s-43 -49 -43 -85v-3c0 -34.667 13.833 -62.167 41.5 -82.5s61.5 -30.5 101.5 -30.5zM351 618.999v92h84v-92h-84zM175 618.999v92h84v-92h-84z" />
    <glyph glyph-name="aring" unicode="&#xe5;" horiz-adv-x="610" 
d="M259 -12c-54 0 -101.333 14.833 -142 44.5s-61 70.5 -61 122.5v2c0 54.667 21 97.167 63 127.5s98 45.5 168 45.5c62.667 0 119 -7.66699 169 -23v21c0 50 -14.5 88.167 -43.5 114.5s-69.833 39.5 -122.5 39.5c-52 0 -107 -13.667 -165 -41l-21 56
c65.333 30 129.333 45 192 45c74.667 0 131.667 -19.333 171 -58c36.667 -38 55 -89.333 55 -154v-330h-66v84c-47.333 -64 -113 -96 -197 -96zM268 45c53.333 0 98.333 14.332 135 42.999s55 65.334 55 110.001v56c-60 15.333 -116.333 23 -169 23
c-52 0 -92.333 -10.333 -121 -31s-43 -49 -43 -85v-3c0 -34.667 13.833 -62.167 41.5 -82.5s61.5 -30.5 101.5 -30.5zM305 616.999c-30 0 -56 10.5 -78 31.5s-33 45.833 -33 74.5c0 29.333 11 54.5 33 75.5s48 31.5 78 31.5s56 -10.5 78 -31.5s33 -46.167 33 -75.5
c0 -28.667 -11 -53.5 -33 -74.5s-48 -31.5 -78 -31.5zM305 650.999c19.333 0 36.166 7.16699 50.499 21.5s21.5 31.166 21.5 50.499c0 20 -7.16699 37.167 -21.5 51.5s-31.166 21.5 -50.499 21.5s-36.166 -7.16699 -50.499 -21.5s-21.5 -31.5 -21.5 -51.5
c0 -19.333 7.16699 -36.166 21.5 -50.499s31.166 -21.5 50.499 -21.5z" />
    <glyph glyph-name="ae" unicode="&#xe6;" horiz-adv-x="1002" 
d="M257 -12c-54.667 0 -101.835 14.835 -141.502 44.502s-59.5 70.5 -59.5 122.5v2c0 54.667 20.667 97.167 62 127.5s96 45.5 164 45.5c58 0 112 -7.66699 162 -23v21c0 50 -13.667 88.167 -41 114.5s-67 39.5 -119 39.5c-48 0 -101 -13.667 -159 -41l-21 56
c64 30 126 45 186 45c106 0 172.333 -41 199 -123c22 39.333 51.333 70.5 88 93.5s77.334 34.5 122.001 34.5c74.667 0 134.334 -26.833 179.001 -80.5s67 -120.834 67 -201.501c0 -8.66699 -0.333008 -16.667 -1 -24h-432c5.33301 -60 26.5 -107.333 63.5 -142
s81.5 -52 133.5 -52c68 0 126.333 26.667 175 80l44 -39c-30 -32.667 -62.167 -57.5 -96.5 -74.5s-75.833 -25.5 -124.5 -25.5c-44 0 -84.667 9.66699 -122 29s-68 46.666 -92 81.999c-68 -74 -146.667 -111 -236 -111zM511.999 295.002h364
c-4 54.667 -21.5 100.5 -52.5 137.5s-73.5 55.5 -127.5 55.5c-49.333 0 -91 -18.167 -125 -54.5s-53.667 -82.5 -59 -138.5zM263.999 45.002c76 0 143.333 34.333 202 103c-13.333 34 -21 69.667 -23 107c-57.333 14.667 -110 22 -158 22
c-51.333 0 -90.833 -10.333 -118.5 -31s-41.5 -49 -41.5 -85v-3c0 -34.667 13.333 -62.167 40 -82.5s59.667 -30.5 99 -30.5z" />
    <glyph glyph-name="ccedilla" unicode="&#xe7;" horiz-adv-x="604" 
d="M281 -158l-67.999 31l80 118c-66.667 10.667 -121.667 42 -165 94s-65 112 -65 180v2c0 76 26.5 141.667 79.5 197s117.833 83 194.5 83c79.333 0 150.333 -32.667 213 -98l-45 -47c-54.667 56 -111.334 84 -170.001 84c-57.333 0 -105.333 -21 -144 -63
s-58 -93.333 -58 -154v-2c0 -60.667 20 -112.167 60 -154.5s89 -63.5 147 -63.5c63.333 0 120 28 170 84l44 -41c-58 -66 -126 -100.667 -204 -104z" />
    <glyph glyph-name="egrave" unicode="&#xe8;" horiz-adv-x="622" 
d="M328 -12c-74 0 -136.669 26.001 -188.002 78.001s-77 118.667 -77 200v2c0 78 24.333 144 73 198s109.334 81 182.001 81c75.333 0 135.5 -26.833 180.5 -80.5s67.5 -120.834 67.5 -201.501c0 -11.333 -0.666992 -19.333 -2 -24h-432
c5.33301 -59.333 26.833 -106.5 64.5 -141.5s82.167 -52.5 133.5 -52.5c66.667 0 125 26.667 175 80l43 -39c-61.333 -66.667 -134.666 -100 -219.999 -100zM131.998 295.001h364c-4 54.667 -21.5 100.5 -52.5 137.5s-73.5 55.5 -127.5 55.5
c-49.333 0 -91 -18.167 -125 -54.5s-53.667 -82.5 -59 -138.5zM290.998 619.001l-115 110l74 35l95 -145h-54z" />
    <glyph glyph-name="eacute" unicode="&#xe9;" horiz-adv-x="622" 
d="M290 619l95 145l74 -35l-115 -110h-54zM328 -12c-74 0 -136.669 26.001 -188.002 78.001s-77 118.667 -77 200v2c0 78 24.333 144 73 198s109.334 81 182.001 81c75.333 0 135.5 -26.833 180.5 -80.5s67.5 -120.834 67.5 -201.501c0 -11.333 -0.666992 -19.333 -2 -24
h-432c5.33301 -59.333 26.833 -106.5 64.5 -141.5s82.167 -52.5 133.5 -52.5c66.667 0 125 26.667 175 80l43 -39c-61.333 -66.667 -134.666 -100 -219.999 -100zM131.998 295.001h364c-4 54.667 -21.5 100.5 -52.5 137.5s-73.5 55.5 -127.5 55.5
c-49.333 0 -91 -18.167 -125 -54.5s-53.667 -82.5 -59 -138.5z" />
    <glyph glyph-name="ecircumflex" unicode="&#xea;" horiz-adv-x="622" 
d="M182 619l107 132h58l108 -132h-60l-78 70l-78 -70h-57zM328 -12c-74 0 -136.669 26.001 -188.002 78.001s-77 118.667 -77 200v2c0 78 24.333 144 73 198s109.334 81 182.001 81c75.333 0 135.5 -26.833 180.5 -80.5s67.5 -120.834 67.5 -201.501
c0 -11.333 -0.666992 -19.333 -2 -24h-432c5.33301 -59.333 26.833 -106.5 64.5 -141.5s82.167 -52.5 133.5 -52.5c66.667 0 125 26.667 175 80l43 -39c-61.333 -66.667 -134.666 -100 -219.999 -100zM131.998 295.001h364c-4 54.667 -21.5 100.5 -52.5 137.5
s-73.5 55.5 -127.5 55.5c-49.333 0 -91 -18.167 -125 -54.5s-53.667 -82.5 -59 -138.5z" />
    <glyph glyph-name="edieresis" unicode="&#xeb;" horiz-adv-x="622" 
d="M364 619v92h84v-92h-84zM188 619v92h84v-92h-84zM328 -12c-74 0 -136.669 26.001 -188.002 78.001s-77 118.667 -77 200v2c0 78 24.333 144 73 198s109.334 81 182.001 81c75.333 0 135.5 -26.833 180.5 -80.5s67.5 -120.834 67.5 -201.501
c0 -11.333 -0.666992 -19.333 -2 -24h-432c5.33301 -59.333 26.833 -106.5 64.5 -141.5s82.167 -52.5 133.5 -52.5c66.667 0 125 26.667 175 80l43 -39c-61.333 -66.667 -134.666 -100 -219.999 -100zM131.998 295.001h364c-4 54.667 -21.5 100.5 -52.5 137.5
s-73.5 55.5 -127.5 55.5c-49.333 0 -91 -18.167 -125 -54.5s-53.667 -82.5 -59 -138.5z" />
    <glyph glyph-name="igrave" unicode="&#xec;" horiz-adv-x="277" 
d="M105 0v534h67v-534h-67zM113 619l-115 110l74 35l95 -145h-54z" />
    <glyph glyph-name="iacute" unicode="&#xed;" horiz-adv-x="277" 
d="M112 619l95 145l74 -35l-115 -110h-54zM105 0v534h67v-534h-67z" />
    <glyph glyph-name="icircumflex" unicode="&#xee;" horiz-adv-x="277" 
d="M3 619l107 132h58l108 -132h-60l-78 70l-78 -70h-57zM105 0v534h67v-534h-67z" />
    <glyph glyph-name="idieresis" unicode="&#xef;" horiz-adv-x="277" 
d="M185 619v92h84v-92h-84zM9 619v92h84v-92h-84zM105 0v534h67v-534h-67z" />
    <glyph glyph-name="eth" unicode="&#xf0;" horiz-adv-x="679" 
d="M510 718l-91.001 -41.001c130.667 -127.333 196 -255 196 -383v-2c0 -90 -25.833 -163.167 -77.5 -219.5s-119.167 -84.5 -202.5 -84.5c-76 0 -140.333 27.167 -193 81.5s-79 120.5 -79 198.5v2c0 76.667 25.167 139.834 75.5 189.501s109.833 74.5 178.5 74.5
c72.667 0 138 -27 196 -81c-27.333 60 -78.666 125.667 -153.999 197l-118 -53l-23 44l100 45c-18.667 16.667 -48.667 41 -90 73h99l53 -45l106 48zM339.999 48.999c59.333 0 108.331 20.668 146.998 62.001s58 93 58 155v2c0 59.333 -20 108.833 -60 148.5
s-91.333 59.5 -154 59.5c-59.333 0 -107.166 -19.833 -143.499 -59.5s-54.5 -89.834 -54.5 -150.501v-2c0 -59.333 19.833 -110 59.5 -152s88.834 -63 147.501 -63z" />
    <glyph glyph-name="ntilde" unicode="&#xf1;" horiz-adv-x="649" 
d="M98 0l0.000976562 533.999h67v-95c42 72 104.333 108 187 108c64.667 0 115.667 -20 153 -60s56 -92.333 56 -157v-330h-67v314c0 52.667 -14 94.334 -42 125.001s-66.667 46 -116 46c-48.667 0 -89.334 -16.667 -122.001 -50s-49 -76 -49 -128v-307h-67z
M401.001 618.999c-12.667 0 -36.332 7 -70.999 21c-29.333 14 -51 21 -65 21c-13.333 0 -23.5 -3.66699 -30.5 -11s-14.5 -21 -22.5 -41l-43 12c10 38 22.167 64.833 36.5 80.5s33.5 23.5 57.5 23.5c12.667 0 36.334 -7 71.001 -21c29.333 -14 51 -21 65 -21
c13.333 0 23.666 3.5 30.999 10.5s14.666 20.5 21.999 40.5l43 -11c-10 -38 -22.167 -64.833 -36.5 -80.5s-33.5 -23.5 -57.5 -23.5z" />
    <glyph glyph-name="ograve" unicode="&#xf2;" horiz-adv-x="679" 
d="M339 -12c-78.667 0 -144.334 27.167 -197.001 81.5s-79 119.5 -79 195.5v2c0 76.667 26.667 142.5 80 197.5s119.333 82.5 198 82.5s144.334 -27.167 197.001 -81.5s79 -119.833 79 -196.5v-2c0 -76 -26.667 -141.5 -80 -196.5s-119.333 -82.5 -198 -82.5zM341 49
c59.333 0 108.333 20.999 147 62.999s58 93 58 153v2c0 60.667 -20 112.334 -60 155.001s-89 64 -147 64c-60 0 -109.333 -21 -148 -63s-58 -93.333 -58 -154v-2c0 -60.667 20.167 -112.167 60.5 -154.5s89.5 -63.5 147.5 -63.5zM313 618.999l-115 110l74 35l95 -145h-54z
" />
    <glyph glyph-name="oacute" unicode="&#xf3;" horiz-adv-x="679" 
d="M312 619l95 145l74 -35l-115 -110h-54zM339 -12c-78.667 0 -144.334 27.167 -197.001 81.5s-79 119.5 -79 195.5v2c0 76.667 26.667 142.5 80 197.5s119.333 82.5 198 82.5s144.334 -27.167 197.001 -81.5s79 -119.833 79 -196.5v-2c0 -76 -26.667 -141.5 -80 -196.5
s-119.333 -82.5 -198 -82.5zM341 49c59.333 0 108.333 20.999 147 62.999s58 93 58 153v2c0 60.667 -20 112.334 -60 155.001s-89 64 -147 64c-60 0 -109.333 -21 -148 -63s-58 -93.333 -58 -154v-2c0 -60.667 20.167 -112.167 60.5 -154.5s89.5 -63.5 147.5 -63.5z" />
    <glyph glyph-name="ocircumflex" unicode="&#xf4;" horiz-adv-x="679" 
d="M204 619l107 132h58l108 -132h-60l-78 70l-78 -70h-57zM339 -12c-78.667 0 -144.334 27.167 -197.001 81.5s-79 119.5 -79 195.5v2c0 76.667 26.667 142.5 80 197.5s119.333 82.5 198 82.5s144.334 -27.167 197.001 -81.5s79 -119.833 79 -196.5v-2
c0 -76 -26.667 -141.5 -80 -196.5s-119.333 -82.5 -198 -82.5zM341 49c59.333 0 108.333 20.999 147 62.999s58 93 58 153v2c0 60.667 -20 112.334 -60 155.001s-89 64 -147 64c-60 0 -109.333 -21 -148 -63s-58 -93.333 -58 -154v-2c0 -60.667 20.167 -112.167 60.5 -154.5
s89.5 -63.5 147.5 -63.5z" />
    <glyph glyph-name="otilde" unicode="&#xf5;" horiz-adv-x="679" 
d="M339 -12c-78.667 0 -144.334 27.167 -197.001 81.5s-79 119.5 -79 195.5v2c0 76.667 26.667 142.5 80 197.5s119.333 82.5 198 82.5s144.334 -27.167 197.001 -81.5s79 -119.833 79 -196.5v-2c0 -76 -26.667 -141.5 -80 -196.5s-119.333 -82.5 -198 -82.5zM341 49
c59.333 0 108.333 20.999 147 62.999s58 93 58 153v2c0 60.667 -20 112.334 -60 155.001s-89 64 -147 64c-60 0 -109.333 -21 -148 -63s-58 -93.333 -58 -154v-2c0 -60.667 20.167 -112.167 60.5 -154.5s89.5 -63.5 147.5 -63.5zM412 618.999
c-12.667 0 -36.332 7 -70.999 21c-29.333 14 -51 21 -65 21c-13.333 0 -23.5 -3.66699 -30.5 -11s-14.5 -21 -22.5 -41l-43 12c10 38 22.167 64.833 36.5 80.5s33.5 23.5 57.5 23.5c12.667 0 36.334 -7 71.001 -21c29.333 -14 51 -21 65 -21
c13.333 0 23.666 3.5 30.999 10.5s14.666 20.5 21.999 40.5l43 -11c-10 -38 -22.167 -64.833 -36.5 -80.5s-33.5 -23.5 -57.5 -23.5z" />
    <glyph glyph-name="odieresis" unicode="&#xf6;" horiz-adv-x="679" 
d="M386 619v92h84v-92h-84zM210 619v92h84v-92h-84zM339 -12c-78.667 0 -144.334 27.167 -197.001 81.5s-79 119.5 -79 195.5v2c0 76.667 26.667 142.5 80 197.5s119.333 82.5 198 82.5s144.334 -27.167 197.001 -81.5s79 -119.833 79 -196.5v-2
c0 -76 -26.667 -141.5 -80 -196.5s-119.333 -82.5 -198 -82.5zM341 49c59.333 0 108.333 20.999 147 62.999s58 93 58 153v2c0 60.667 -20 112.334 -60 155.001s-89 64 -147 64c-60 0 -109.333 -21 -148 -63s-58 -93.333 -58 -154v-2c0 -60.667 20.167 -112.167 60.5 -154.5
s89.5 -63.5 147.5 -63.5z" />
    <glyph glyph-name="divide" unicode="&#xf7;" horiz-adv-x="630" 
d="M267 519v101h96v-101h-96zM558 335h-486v62h486v-62zM267 112v101h96v-101h-96z" />
    <glyph glyph-name="oslash" unicode="&#xf8;" horiz-adv-x="679" 
d="M561 541l71 -0.000976562l-83 -88c45.333 -51.333 68 -112.666 68 -183.999v-2c0 -76 -26.667 -141.5 -80 -196.5s-119.333 -82.5 -198 -82.5c-63.333 0 -120.333 19.333 -171 58l-50 -51h-71l83 87c-44.667 50.667 -67 111.667 -67 183v2
c0 76.667 26.667 142.5 80 197.5s119.333 82.5 198 82.5c64 0 121 -19.667 171 -59zM341 46.999c60.667 0 110.332 21.001 148.999 63.001s58 93.667 58 155v1c0 51.333 -15.333 97.666 -46 138.999l-292 -311c36.667 -32 80.334 -47.667 131.001 -47zM131.998 269
l0.000976562 -1c0 -51.333 14.667 -97.333 44 -138l293 310c-38 31.333 -81.333 47 -130 47c-60.667 0 -110.334 -21 -149.001 -63s-58 -93.667 -58 -155z" />
    <glyph glyph-name="ugrave" unicode="&#xf9;" horiz-adv-x="649" 
d="M297 -12c-64.667 0 -115.668 19.834 -153.001 59.501s-56 92.167 -56 157.5v329h67v-314c0 -52.667 14 -94.334 42 -125.001s66.667 -46 116 -46c48.667 0 89.334 16.667 122.001 50s49 76 49 128v307h67v-534h-67v96c-42 -72 -104.333 -108 -187 -108zM292.999 619.001
l-115 110l74 35l95 -145h-54z" />
    <glyph glyph-name="uacute" unicode="&#xfa;" horiz-adv-x="649" 
d="M292 619l95 145l74 -35l-115 -110h-54zM297 -12c-64.667 0 -115.668 19.834 -153.001 59.501s-56 92.167 -56 157.5v329h67v-314c0 -52.667 14 -94.334 42 -125.001s66.667 -46 116 -46c48.667 0 89.334 16.667 122.001 50s49 76 49 128v307h67v-534h-67v96
c-42 -72 -104.333 -108 -187 -108z" />
    <glyph glyph-name="ucircumflex" unicode="&#xfb;" horiz-adv-x="649" 
d="M183 619l107 132h58l108 -132h-60l-78 70l-78 -70h-57zM297 -12c-64.667 0 -115.668 19.834 -153.001 59.501s-56 92.167 -56 157.5v329h67v-314c0 -52.667 14 -94.334 42 -125.001s66.667 -46 116 -46c48.667 0 89.334 16.667 122.001 50s49 76 49 128v307h67v-534h-67
v96c-42 -72 -104.333 -108 -187 -108z" />
    <glyph glyph-name="udieresis" unicode="&#xfc;" horiz-adv-x="649" 
d="M365 619v92h84v-92h-84zM189 619v92h84v-92h-84zM297 -12c-64.667 0 -115.668 19.834 -153.001 59.501s-56 92.167 -56 157.5v329h67v-314c0 -52.667 14 -94.334 42 -125.001s66.667 -46 116 -46c48.667 0 89.334 16.667 122.001 50s49 76 49 128v307h67v-534h-67v96
c-42 -72 -104.333 -108 -187 -108z" />
    <glyph glyph-name="yacute" unicode="&#xfd;" horiz-adv-x="623" 
d="M325 74l179.999 459.999h73l-228 -552c-22 -54.667 -47.167 -93.667 -75.5 -117s-62.166 -35 -101.499 -35c-37.333 0 -74.333 8.66699 -111 26l23 55c28 -13.333 57 -20 87 -20c26 0 48 8.33301 66 25s36 45.334 54 86.001l-249 532h75zM287.999 618.999l95 145l74 -35
l-115 -110h-54z" />
    <glyph glyph-name="thorn" unicode="&#xfe;" horiz-adv-x="699" 
d="M98 -166v924.999h67v-337c56 83.333 126.667 125 212 125c68 0 127.833 -25.5 179.5 -76.5s77.5 -118.167 77.5 -201.5v-2c0 -83.333 -25.833 -150.666 -77.5 -201.999s-111.5 -77 -179.5 -77c-88 0 -158.667 40 -212 120v-274h-67zM366 49.999
c56 0 102.832 19.501 140.499 58.501s56.5 91.167 56.5 156.5v2c0 64 -19.167 116.333 -57.5 157s-84.833 61 -139.5 61c-54 0 -101.5 -20.667 -142.5 -62s-61.5 -93 -61.5 -155v-2c0 -62.667 20.333 -114.334 61 -155.001s88.334 -61 143.001 -61z" />
    <glyph glyph-name="ydieresis" unicode="&#xff;" horiz-adv-x="623" 
d="M325 74l179.999 459.999h73l-228 -552c-22 -54.667 -47.167 -93.667 -75.5 -117s-62.166 -35 -101.499 -35c-37.333 0 -74.333 8.66699 -111 26l23 55c28 -13.333 57 -20 87 -20c26 0 48 8.33301 66 25s36 45.334 54 86.001l-249 532h75zM360.999 618.999v92h84v-92h-84z
M184.999 618.999v92h84v-92h-84z" />
    <glyph glyph-name="Amacron" unicode="&#x100;" horiz-adv-x="832" 
d="M48 0l335 733h66l335 -733h-76l-88 198h-411l-89 -198h-72zM237 261h355l-177 393zM249 828v60h334v-60h-334z" />
    <glyph glyph-name="amacron" unicode="&#x101;" horiz-adv-x="610" 
d="M259 -12c-54 0 -101.333 14.833 -142 44.5s-61 70.5 -61 122.5v2c0 54.667 21 97.167 63 127.5s98 45.5 168 45.5c62.667 0 119 -7.66699 169 -23v21c0 50 -14.5 88.167 -43.5 114.5s-69.833 39.5 -122.5 39.5c-52 0 -107 -13.667 -165 -41l-21 56
c65.333 30 129.333 45 192 45c74.667 0 131.667 -19.333 171 -58c36.667 -38 55 -89.333 55 -154v-330h-66v84c-47.333 -64 -113 -96 -197 -96zM268 45c53.333 0 98.333 14.332 135 42.999s55 65.334 55 110.001v56c-60 15.333 -116.333 23 -169 23
c-52 0 -92.333 -10.333 -121 -31s-43 -49 -43 -85v-3c0 -34.667 13.833 -62.167 41.5 -82.5s61.5 -30.5 101.5 -30.5zM147 642.999v57h316v-57h-316z" />
    <glyph glyph-name="Abreve" unicode="&#x102;" horiz-adv-x="832" 
d="M48 0l335 733h66l335 -733h-76l-88 198h-411l-89 -198h-72zM237 261h355l-177 393zM416 802c-42 0 -76.1709 9.83301 -102.504 29.5s-41.166 47.167 -44.499 82.5h55c12.667 -36 43.334 -54 92.001 -54s79.334 18 92.001 54h55
c-3.33301 -35.333 -18.166 -62.833 -44.499 -82.5s-60.5 -29.5 -102.5 -29.5z" />
    <glyph glyph-name="abreve" unicode="&#x103;" horiz-adv-x="610" 
d="M259 -12c-54 0 -101.333 14.833 -142 44.5s-61 70.5 -61 122.5v2c0 54.667 21 97.167 63 127.5s98 45.5 168 45.5c62.667 0 119 -7.66699 169 -23v21c0 50 -14.5 88.167 -43.5 114.5s-69.833 39.5 -122.5 39.5c-52 0 -107 -13.667 -165 -41l-21 56
c65.333 30 129.333 45 192 45c74.667 0 131.667 -19.333 171 -58c36.667 -38 55 -89.333 55 -154v-330h-66v84c-47.333 -64 -113 -96 -197 -96zM268 45c53.333 0 98.333 14.332 135 42.999s55 65.334 55 110.001v56c-60 15.333 -116.333 23 -169 23
c-52 0 -92.333 -10.333 -121 -31s-43 -49 -43 -85v-3c0 -34.667 13.833 -62.167 41.5 -82.5s61.5 -30.5 101.5 -30.5zM305 616.999c-42 0 -76.1689 10.833 -102.502 32.5s-41.166 52.167 -44.499 91.5h50c14.667 -44 47 -66 97 -66s82.333 22 97 66h50
c-3.33301 -39.333 -18.166 -69.833 -44.499 -91.5s-60.5 -32.5 -102.5 -32.5z" />
    <glyph glyph-name="Aogonek" unicode="&#x104;" horiz-adv-x="832" 
d="M793 -128l-0.00195312 -43.002h-7c-43.333 1.33301 -76.166 9.33301 -98.499 24s-33.5 34.334 -33.5 59.001c0 30.667 17.667 60.667 53 90v1l-87 195h-411l-89 -198h-72l335 733h66l335 -733h-15c-19.333 -16.667 -33.166 -30.667 -41.499 -42
s-12.5 -23.666 -12.5 -36.999c0 -28.667 26 -45 78 -49zM236.998 260.998h355l-177 393z" />
    <glyph glyph-name="aogonek" unicode="&#x105;" horiz-adv-x="610" 
d="M536 -128l-0.00195312 -43.002h-7c-43.333 1.33301 -76.166 9.33301 -98.499 24s-33.5 34.334 -33.5 59.001c0 32 19.667 63.667 59 95v1v76c-47.333 -64 -113 -96 -197 -96c-54 0 -101.333 14.833 -142 44.5s-61 70.5 -61 122.5v2c0 54.667 21 97.167 63 127.5
s98 45.5 168 45.5c62.667 0 119 -7.66699 169 -23v21c0 50 -14.5 88.167 -43.5 114.5s-69.833 39.5 -122.5 39.5c-52 0 -107 -13.667 -165 -41l-21 56c65.333 30 129.333 45 192 45c74.667 0 131.667 -19.333 171 -58c36.667 -38 55 -89.333 55 -154v-330h-10
c-19.333 -16.667 -33.166 -30.667 -41.499 -42s-12.5 -23.666 -12.5 -36.999c0 -28.667 26 -45 78 -49zM267.998 44.998c53.333 0 98.333 14.332 135 42.999s55 65.334 55 110.001v56c-60 15.333 -116.333 23 -169 23c-52 0 -92.333 -10.333 -121 -31s-43 -49 -43 -85v-3
c0 -34.667 13.833 -62.167 41.5 -82.5s61.5 -30.5 101.5 -30.5z" />
    <glyph glyph-name="Cacute" unicode="&#x106;" horiz-adv-x="782" 
d="M441 -12c-103.333 0 -189.668 36 -259.001 108s-104 160.667 -104 266v2c0 104 34.833 192.667 104.5 266s156.834 110 261.501 110c60.667 0 112.5 -9.66699 155.5 -29s85.833 -48 128.5 -86l-48 -52c-72.667 69.333 -151.667 104 -237 104
c-83.333 0 -152.833 -30 -208.5 -90s-83.5 -133.667 -83.5 -221v-2c0 -87.333 28.167 -161.333 84.5 -222s125.833 -91 208.5 -91c48 0 90.667 9 128 27s75.333 45.333 114 82l46 -45c-42 -42 -85.5 -73.667 -130.5 -95s-98.5 -32 -160.5 -32zM408.998 804l101 129l73 -34
l-116 -95h-58z" />
    <glyph glyph-name="cacute" unicode="&#x107;" horiz-adv-x="604" 
d="M304 619l95 145l74 -35l-115 -110h-54zM336 -12c-76.667 0 -141.332 27.167 -193.999 81.5s-79 119.5 -79 195.5v2c0 76 26.5 141.667 79.5 197s117.833 83 194.5 83c79.333 0 150.333 -32.667 213 -98l-45 -47c-54.667 56 -111.334 84 -170.001 84
c-57.333 0 -105.333 -21 -144 -63s-58 -93.333 -58 -154v-2c0 -60.667 20 -112.167 60 -154.5s89 -63.5 147 -63.5c63.333 0 120 28 170 84l44 -41c-30.667 -34 -63 -59.833 -97 -77.5s-74.333 -26.5 -121 -26.5z" />
    <glyph glyph-name="Cdotaccent" unicode="&#x10a;" horiz-adv-x="782" 
d="M393 804v87h90v-87h-90zM441 -12c-103.333 0 -189.668 36 -259.001 108s-104 160.667 -104 266v2c0 104 34.833 192.667 104.5 266s156.834 110 261.501 110c60.667 0 112.5 -9.66699 155.5 -29s85.833 -48 128.5 -86l-48 -52c-72.667 69.333 -151.667 104 -237 104
c-83.333 0 -152.833 -30 -208.5 -90s-83.5 -133.667 -83.5 -221v-2c0 -87.333 28.167 -161.333 84.5 -222s125.833 -91 208.5 -91c48 0 90.667 9 128 27s75.333 45.333 114 82l46 -45c-42 -42 -85.5 -73.667 -130.5 -95s-98.5 -32 -160.5 -32z" />
    <glyph glyph-name="cdotaccent" unicode="&#x10b;" horiz-adv-x="604" 
d="M336 -12c-76.667 0 -141.332 27.167 -193.999 81.5s-79 119.5 -79 195.5v2c0 76 26.5 141.667 79.5 197s117.833 83 194.5 83c79.333 0 150.333 -32.667 213 -98l-45 -47c-54.667 56 -111.334 84 -170.001 84c-57.333 0 -105.333 -21 -144 -63s-58 -93.333 -58 -154v-2
c0 -60.667 20 -112.167 60 -154.5s89 -63.5 147 -63.5c63.333 0 120 28 170 84l44 -41c-30.667 -34 -63 -59.833 -97 -77.5s-74.333 -26.5 -121 -26.5zM287.002 619v92h88v-92h-88z" />
    <glyph glyph-name="Ccaron" unicode="&#x10c;" horiz-adv-x="782" 
d="M441 -12c-103.333 0 -189.668 36 -259.001 108s-104 160.667 -104 266v2c0 104 34.833 192.667 104.5 266s156.834 110 261.501 110c60.667 0 112.5 -9.66699 155.5 -29s85.833 -48 128.5 -86l-48 -52c-72.667 69.333 -151.667 104 -237 104
c-83.333 0 -152.833 -30 -208.5 -90s-83.5 -133.667 -83.5 -221v-2c0 -87.333 28.167 -161.333 84.5 -222s125.833 -91 208.5 -91c48 0 90.667 9 128 27s75.333 45.333 114 82l46 -45c-42 -42 -85.5 -73.667 -130.5 -95s-98.5 -32 -160.5 -32zM580.998 922l-111 -118h-64
l-111 118h67l77 -63l77 63h65z" />
    <glyph glyph-name="ccaron" unicode="&#x10d;" horiz-adv-x="604" 
d="M468 751l-108 -132h-58l-107 132h59l78 -70l78 70h58zM336 -12c-76.667 0 -141.332 27.167 -193.999 81.5s-79 119.5 -79 195.5v2c0 76 26.5 141.667 79.5 197s117.833 83 194.5 83c79.333 0 150.333 -32.667 213 -98l-45 -47c-54.667 56 -111.334 84 -170.001 84
c-57.333 0 -105.333 -21 -144 -63s-58 -93.333 -58 -154v-2c0 -60.667 20 -112.167 60 -154.5s89 -63.5 147 -63.5c63.333 0 120 28 170 84l44 -41c-30.667 -34 -63 -59.833 -97 -77.5s-74.333 -26.5 -121 -26.5z" />
    <glyph glyph-name="Dcaron" unicode="&#x10e;" horiz-adv-x="823" 
d="M538 912l-111 -118h-64l-111 118h67l77 -63l77 63h65zM110 0v728h249c112.667 0 205.167 -34.5 277.5 -103.5s108.5 -155.167 108.5 -258.5v-2c0 -103.333 -36.167 -189.833 -108.5 -259.5s-164.833 -104.5 -277.5 -104.5h-249zM359 664l-179 0.000976562v-600h179
c94 0 169.833 28.333 227.5 85s86.5 127.667 86.5 213v2c0 85.333 -28.833 156.666 -86.5 213.999s-133.5 86 -227.5 86z" />
    <glyph glyph-name="dcaron" unicode="&#x10f;" horiz-adv-x="699" 
d="M671 596l16 164h71v-3l-52 -161h-35zM322 -12c-68 0 -127.833 25.5 -179.5 76.5s-77.5 117.833 -77.5 200.5v2c0 84 25.833 151.667 77.5 203s111.5 77 179.5 77c87.333 0 158 -40.333 212 -121v333h67v-759h-67v113c-56 -83.333 -126.667 -125 -212 -125zM333 50
c54 0 101.501 20.499 142.501 61.499s61.5 92.5 61.5 154.5v2c0 63.333 -20.5 115.333 -61.5 156s-88.5 61 -142.5 61c-56 0 -103 -19.667 -141 -59s-57 -91.666 -57 -156.999v-2c0 -64 19.167 -116.167 57.5 -156.5s85.166 -60.5 140.499 -60.5z" />
    <glyph glyph-name="Dcroat" unicode="&#x110;" horiz-adv-x="854" 
d="M141 0v337h-78v59h78v332h249c112.667 0 205.334 -34.5 278.001 -103.5s109 -155.167 109 -258.5v-2c0 -103.333 -36.333 -189.833 -109 -259.5s-165.334 -104.5 -278.001 -104.5h-249zM440 337l-229 0.000976562v-273h179c94 0 169.833 28.333 227.5 85
s86.5 127.667 86.5 213v2c0 85.333 -28.833 156.666 -86.5 213.999s-133.5 86 -227.5 86h-179v-268h229v-59z" />
    <glyph glyph-name="dslash" unicode="&#x111;" horiz-adv-x="699" 
d="M346 639v53h188v67h67v-67h72v-53h-72v-639h-67v113c-56 -83.333 -126.667 -125 -212 -125c-68 0 -127.833 25.5 -179.5 76.5s-77.5 117.833 -77.5 200.5v2c0 84 25.833 151.667 77.5 203s111.5 77 179.5 77c87.333 0 158 -40.333 212 -121v213h-188zM333 50
c54 0 101.501 20.499 142.501 61.499s61.5 92.5 61.5 154.5v2c0 63.333 -20.5 115.333 -61.5 156s-88.5 61 -142.5 61c-56 0 -103 -19.667 -141 -59s-57 -91.666 -57 -156.999v-2c0 -64 19.167 -116.167 57.5 -156.5s85.166 -60.5 140.499 -60.5z" />
    <glyph glyph-name="Emacron" unicode="&#x112;" horiz-adv-x="707" 
d="M206 818v60h334v-60h-334zM110 0v728h523v-64h-453v-265h406v-64h-406v-271h458v-64h-528z" />
    <glyph glyph-name="emacron" unicode="&#x113;" horiz-adv-x="622" 
d="M328 -12c-74 0 -136.669 26.001 -188.002 78.001s-77 118.667 -77 200v2c0 78 24.333 144 73 198s109.334 81 182.001 81c75.333 0 135.5 -26.833 180.5 -80.5s67.5 -120.834 67.5 -201.501c0 -11.333 -0.666992 -19.333 -2 -24h-432
c5.33301 -59.333 26.833 -106.5 64.5 -141.5s82.167 -52.5 133.5 -52.5c66.667 0 125 26.667 175 80l43 -39c-61.333 -66.667 -134.666 -100 -219.999 -100zM131.998 295.001h364c-4 54.667 -21.5 100.5 -52.5 137.5s-73.5 55.5 -127.5 55.5
c-49.333 0 -91 -18.167 -125 -54.5s-53.667 -82.5 -59 -138.5zM159.998 643.001v57h316v-57h-316z" />
    <glyph glyph-name="Ebreve" unicode="&#x114;" horiz-adv-x="707" 
d="M373 792c-42 0 -76.1709 9.83301 -102.504 29.5s-41.166 47.167 -44.499 82.5h55c12.667 -36 43.334 -54 92.001 -54s79.334 18 92.001 54h55c-3.33301 -35.333 -18.166 -62.833 -44.499 -82.5s-60.5 -29.5 -102.5 -29.5zM109.996 0v728h523v-64h-453v-265h406v-64h-406
v-271h458v-64h-528z" />
    <glyph glyph-name="ebreve" unicode="&#x115;" horiz-adv-x="622" 
d="M328 -12c-74 0 -136.669 26.001 -188.002 78.001s-77 118.667 -77 200v2c0 78 24.333 144 73 198s109.334 81 182.001 81c75.333 0 135.5 -26.833 180.5 -80.5s67.5 -120.834 67.5 -201.501c0 -11.333 -0.666992 -19.333 -2 -24h-432
c5.33301 -59.333 26.833 -106.5 64.5 -141.5s82.167 -52.5 133.5 -52.5c66.667 0 125 26.667 175 80l43 -39c-61.333 -66.667 -134.666 -100 -219.999 -100zM131.998 295.001h364c-4 54.667 -21.5 100.5 -52.5 137.5s-73.5 55.5 -127.5 55.5
c-49.333 0 -91 -18.167 -125 -54.5s-53.667 -82.5 -59 -138.5zM317.998 617.001c-42 0 -76.1689 10.833 -102.502 32.5s-41.166 52.167 -44.499 91.5h50c14.667 -44 47 -66 97 -66s82.333 22 97 66h50c-3.33301 -39.333 -18.166 -69.833 -44.499 -91.5
s-60.5 -32.5 -102.5 -32.5z" />
    <glyph glyph-name="Edotaccent" unicode="&#x116;" horiz-adv-x="707" 
d="M328 794v87h90v-87h-90zM110 0v728h523v-64h-453v-265h406v-64h-406v-271h458v-64h-528z" />
    <glyph glyph-name="edotaccent" unicode="&#x117;" horiz-adv-x="622" 
d="M328 -12c-74 0 -136.669 26.001 -188.002 78.001s-77 118.667 -77 200v2c0 78 24.333 144 73 198s109.334 81 182.001 81c75.333 0 135.5 -26.833 180.5 -80.5s67.5 -120.834 67.5 -201.501c0 -11.333 -0.666992 -19.333 -2 -24h-432
c5.33301 -59.333 26.833 -106.5 64.5 -141.5s82.167 -52.5 133.5 -52.5c66.667 0 125 26.667 175 80l43 -39c-61.333 -66.667 -134.666 -100 -219.999 -100zM131.998 295.001h364c-4 54.667 -21.5 100.5 -52.5 137.5s-73.5 55.5 -127.5 55.5
c-49.333 0 -91 -18.167 -125 -54.5s-53.667 -82.5 -59 -138.5zM273.998 619.001v92h88v-92h-88z" />
    <glyph glyph-name="Eogonek" unicode="&#x118;" horiz-adv-x="707" 
d="M110 0l-0.00195312 727.998h523v-64h-453v-265h406v-64h-406v-271h458v-64h-25c-19.333 -16.667 -33.166 -30.667 -41.499 -42s-12.5 -23.666 -12.5 -36.999c0 -28.667 26 -45 78 -49v-43h-7c-43.333 1.33301 -76.166 9.33301 -98.499 24s-33.5 34.334 -33.5 59.001
c0 28.667 16.667 58 50 88h-438z" />
    <glyph glyph-name="eogonek" unicode="&#x119;" horiz-adv-x="622" 
d="M132 295h364c-4 54.667 -21.5 100.5 -52.5 137.5s-73.5 55.5 -127.5 55.5c-49.333 0 -91 -18.167 -125 -54.5s-53.667 -82.5 -59 -138.5zM505 127l42.999 -39c-18.667 -20 -36.667 -37 -54 -51c-29.333 -24.667 -49.5 -45.167 -60.5 -61.5s-16.5 -32.166 -16.5 -47.499
c0 -18 6.16699 -31.167 18.5 -39.5s32.5 -13.833 60.5 -16.5v-43h-7c-88 3.33301 -132 32.333 -132 87c0 24.667 13 51 39 79c-19.333 -4.66699 -42 -7 -68 -7c-74 0 -136.667 26 -188 78s-77 118.667 -77 200v2c0 78 24.333 144 73 198s109.334 81 182.001 81
c75.333 0 135.5 -26.833 180.5 -80.5s67.5 -120.834 67.5 -201.501c0 -11.333 -0.666992 -19.333 -2 -24h-432c5.33301 -59.333 26.833 -106.5 64.5 -141.5s82.167 -52.5 133.5 -52.5c66.667 0 125 26.667 175 80z" />
    <glyph glyph-name="Ecaron" unicode="&#x11a;" horiz-adv-x="707" 
d="M516 912l-111 -118h-64l-111 118h67l77 -63l77 63h65zM110 0v728h523v-64h-453v-265h406v-64h-406v-271h458v-64h-528z" />
    <glyph glyph-name="ecaron" unicode="&#x11b;" horiz-adv-x="622" 
d="M455 751l-108 -132h-58l-107 132h59l78 -70l78 70h58zM328 -12c-74 0 -136.669 26.001 -188.002 78.001s-77 118.667 -77 200v2c0 78 24.333 144 73 198s109.334 81 182.001 81c75.333 0 135.5 -26.833 180.5 -80.5s67.5 -120.834 67.5 -201.501
c0 -11.333 -0.666992 -19.333 -2 -24h-432c5.33301 -59.333 26.833 -106.5 64.5 -141.5s82.167 -52.5 133.5 -52.5c66.667 0 125 26.667 175 80l43 -39c-61.333 -66.667 -134.666 -100 -219.999 -100zM131.998 295.001h364c-4 54.667 -21.5 100.5 -52.5 137.5
s-73.5 55.5 -127.5 55.5c-49.333 0 -91 -18.167 -125 -54.5s-53.667 -82.5 -59 -138.5z" />
    <glyph glyph-name="Gbreve" unicode="&#x11e;" horiz-adv-x="825" 
d="M433 802c-42 0 -76.1709 9.83301 -102.504 29.5s-41.166 47.167 -44.499 82.5h55c12.667 -36 43.334 -54 92.001 -54s79.334 18 92.001 54h55c-3.33301 -35.333 -18.166 -62.833 -44.499 -82.5s-60.5 -29.5 -102.5 -29.5zM445.996 -12
c-111.333 0 -200.501 35.668 -267.501 107.001s-100.5 160.333 -100.5 267v2c0 102 34 190.167 102 264.5s155 111.5 261 111.5c57.333 0 106.833 -7.83301 148.5 -23.5s81.834 -39.834 120.501 -72.501l-45 -53c-63.333 57.333 -139.333 86 -228 86
c-82.667 0 -151 -30.333 -205 -91s-81 -134 -81 -220v-2c0 -92 27 -167.333 81 -226s126.333 -88 217 -88c42 0 82.5 7.16699 121.5 21.5s71.833 32.833 98.5 55.5v194h-231v63h298v-286c-83.333 -73.333 -180 -110 -290 -110z" />
    <glyph glyph-name="gbreve" unicode="&#x11f;" horiz-adv-x="699" 
d="M333 -168c-89.333 0 -170.667 25.666 -244 76.999l34 53c64.667 -47.333 135 -71 211 -71c61.333 0 110 17 146 51s54 83 54 147v69c-55.333 -78.667 -127 -118 -215 -118c-68 0 -127.333 23.333 -178 70s-76 107.334 -76 182.001v2c0 74.667 25.5 135.5 76.5 182.5
s110.167 70.5 177.5 70.5c84 0 155.667 -38 215 -114v101h67v-445c0 -78.667 -22.667 -140.667 -68 -186c-47.333 -47.333 -114 -71 -200 -71zM329.999 101.999c54.667 0 102.834 18 144.501 54s62.5 81.667 62.5 137v2c0 55.333 -20.833 100.833 -62.5 136.5
s-89.834 53.5 -144.501 53.5c-55.333 0 -101.666 -17.333 -138.999 -52s-56 -80.667 -56 -138v-2c0 -55.333 19.167 -101 57.5 -137s84.166 -54 137.499 -54zM351.999 616.999c-42 0 -76.1689 10.833 -102.502 32.5s-41.166 52.167 -44.499 91.5h50
c14.667 -44 47 -66 97 -66s82.333 22 97 66h50c-3.33301 -39.333 -18.166 -69.833 -44.499 -91.5s-60.5 -32.5 -102.5 -32.5z" />
    <glyph glyph-name="Gdotaccent" unicode="&#x120;" horiz-adv-x="825" 
d="M388 804v87h90v-87h-90zM446 -12c-111.333 0 -200.501 35.668 -267.501 107.001s-100.5 160.333 -100.5 267v2c0 102 34 190.167 102 264.5s155 111.5 261 111.5c57.333 0 106.833 -7.83301 148.5 -23.5s81.834 -39.834 120.501 -72.501l-45 -53
c-63.333 57.333 -139.333 86 -228 86c-82.667 0 -151 -30.333 -205 -91s-81 -134 -81 -220v-2c0 -92 27 -167.333 81 -226s126.333 -88 217 -88c42 0 82.5 7.16699 121.5 21.5s71.833 32.833 98.5 55.5v194h-231v63h298v-286c-83.333 -73.333 -180 -110 -290 -110z" />
    <glyph glyph-name="gdotaccent" unicode="&#x121;" horiz-adv-x="699" 
d="M333 -168c-89.333 0 -170.667 25.666 -244 76.999l34 53c64.667 -47.333 135 -71 211 -71c61.333 0 110 17 146 51s54 83 54 147v69c-55.333 -78.667 -127 -118 -215 -118c-68 0 -127.333 23.333 -178 70s-76 107.334 -76 182.001v2c0 74.667 25.5 135.5 76.5 182.5
s110.167 70.5 177.5 70.5c84 0 155.667 -38 215 -114v101h67v-445c0 -78.667 -22.667 -140.667 -68 -186c-47.333 -47.333 -114 -71 -200 -71zM329.999 101.999c54.667 0 102.834 18 144.501 54s62.5 81.667 62.5 137v2c0 55.333 -20.833 100.833 -62.5 136.5
s-89.834 53.5 -144.501 53.5c-55.333 0 -101.666 -17.333 -138.999 -52s-56 -80.667 -56 -138v-2c0 -55.333 19.167 -101 57.5 -137s84.166 -54 137.499 -54zM307.999 618.999v92h88v-92h-88z" />
    <glyph glyph-name="Gcommaaccent" unicode="&#x122;" horiz-adv-x="825" 
d="M446 -12c-111.333 0 -200.501 35.668 -267.501 107.001s-100.5 160.333 -100.5 267v2c0 102 34 190.167 102 264.5s155 111.5 261 111.5c57.333 0 106.833 -7.83301 148.5 -23.5s81.834 -39.834 120.501 -72.501l-45 -53c-63.333 57.333 -139.333 86 -228 86
c-82.667 0 -151 -30.333 -205 -91s-81 -134 -81 -220v-2c0 -92 27 -167.333 81 -226s126.333 -88 217 -88c42 0 82.5 7.16699 121.5 21.5s71.833 32.833 98.5 55.5v194h-231v63h298v-286c-83.333 -73.333 -180 -110 -290 -110zM373.999 -243.999l-7.00195 28.001
c22.667 4.66699 38.834 11.667 48.501 21s13.834 22.666 12.501 39.999h-38v80h86v-70c0 -58 -34 -91 -102 -99z" />
    <glyph glyph-name="gcommaaccent" unicode="&#x123;" horiz-adv-x="699" 
d="M333 -168c-89.333 0 -170.667 25.666 -244 76.999l34 53c64.667 -47.333 135 -71 211 -71c61.333 0 110 17 146 51s54 83 54 147v69c-55.333 -78.667 -127 -118 -215 -118c-68 0 -127.333 23.333 -178 70s-76 107.334 -76 182.001v2c0 74.667 25.5 135.5 76.5 182.5
s110.167 70.5 177.5 70.5c84 0 155.667 -38 215 -114v101h67v-445c0 -78.667 -22.667 -140.667 -68 -186c-47.333 -47.333 -114 -71 -200 -71zM329.999 101.999c54.667 0 102.834 18 144.501 54s62.5 81.667 62.5 137v2c0 55.333 -20.833 100.833 -62.5 136.5
s-89.834 53.5 -144.501 53.5c-55.333 0 -101.666 -17.333 -138.999 -52s-56 -80.667 -56 -138v-2c0 -55.333 19.167 -101 57.5 -137s84.166 -54 137.499 -54zM410.999 788.999l6.99902 -29c-21.333 -4 -37.166 -11 -47.499 -21s-14.833 -23 -13.5 -39h37v-81h-85v70
c0 58 34 91.333 102 100z" />
    <glyph glyph-name="Hbar" unicode="&#x126;" horiz-adv-x="853" 
d="M59 530v56h78v142h70v-142h440v142h70v-142h77v-56h-77v-530h-70v329h-440v-329h-70v530h-78zM207 394h440v136h-440v-136z" />
    <glyph glyph-name="hbar" unicode="&#x127;" horiz-adv-x="649" 
d="M353 639l-187.999 -0.000976562v-200c42 72 104.333 108 187 108c64.667 0 115.667 -20 153 -60s56 -92.333 56 -157v-330h-67v314c0 52.667 -14 94.334 -42 125.001s-66.667 46 -116 46c-48.667 0 -89.334 -16.667 -122.001 -50s-49 -76 -49 -128v-307h-67v639h-73v53
h73v67h67v-67h188v-53z" />
    <glyph glyph-name="Imacron" unicode="&#x12a;" horiz-adv-x="305" 
d="M117 0v728h70v-728h-70zM-14 818v60h334v-60h-334z" />
    <glyph glyph-name="imacron" unicode="&#x12b;" horiz-adv-x="277" 
d="M105 0v534h67v-534h-67zM-19 643v57h316v-57h-316z" />
    <glyph glyph-name="Ibreve" unicode="&#x12c;" horiz-adv-x="305" 
d="M117 0v728h70v-728h-70zM153 792c-42 0 -76.1709 9.83301 -102.504 29.5s-41.166 47.167 -44.499 82.5h55c12.667 -36 43.334 -54 92.001 -54s79.334 18 92.001 54h55c-3.33301 -35.333 -18.166 -62.833 -44.499 -82.5s-60.5 -29.5 -102.5 -29.5z" />
    <glyph glyph-name="ibreve" unicode="&#x12d;" horiz-adv-x="277" 
d="M105 0v534h67v-534h-67zM139 617c-42 0 -76.1689 10.833 -102.502 32.5s-41.166 52.167 -44.499 91.5h50c14.667 -44 47 -66 97 -66s82.333 22 97 66h50c-3.33301 -39.333 -18.166 -69.833 -44.499 -91.5s-60.5 -32.5 -102.5 -32.5z" />
    <glyph glyph-name="Iogonek" unicode="&#x12e;" horiz-adv-x="305" 
d="M117 2l-0.00195312 725.997h70v-728h-7c-19.333 -16.667 -33.166 -30.667 -41.499 -42s-12.5 -23.666 -12.5 -36.999c0 -28.667 26 -45 78 -49v-43h-7c-43.333 1.33301 -76.166 9.33301 -98.499 24s-33.5 34.334 -33.5 59.001c0 28.667 17.333 58.334 52 89.001v1z" />
    <glyph glyph-name="iogonek" unicode="&#x12f;" horiz-adv-x="277" 
d="M105 4l-0.00195312 529.998h67v-534h-6c-19.333 -16.667 -33.166 -30.667 -41.499 -42s-12.5 -23.666 -12.5 -36.999c0 -28.667 26 -45 78 -49v-43h-7c-43.333 1.33301 -76.166 9.33301 -98.499 24s-33.5 34.334 -33.5 59.001c0 28.667 18 59 54 91v1zM98.998 660.998v81
h79v-81h-79z" />
    <glyph glyph-name="Idot" unicode="&#x130;" horiz-adv-x="305" 
d="M117 0v728h70v-728h-70zM108 794v87h90v-87h-90z" />
    <glyph glyph-name="dotlessi" unicode="&#x131;" horiz-adv-x="277" 
d="M105 0v534h67v-534h-67z" />
    <glyph glyph-name="Kcommaaccent" unicode="&#x136;" horiz-adv-x="756" 
d="M110 0v728h70v-454l438 454h93l-316 -319l329 -409h-89l-289 359l-166 -168v-191h-70zM322 -239l-7.00195 28.001c22.667 4.66699 38.834 11.667 48.501 21s13.834 22.666 12.501 39.999h-38v80h86v-70c0 -58 -34 -91 -102 -99z" />
    <glyph glyph-name="kcommaaccent" unicode="&#x137;" horiz-adv-x="597" 
d="M256 -244l-7.00195 28.001c22.667 4.66699 38.834 11.667 48.501 21s13.834 22.666 12.501 39.999h-38v80h86v-70c0 -58 -34 -91 -102 -99zM97.998 0.000976562v759h67v-544l307 319h86l-229 -232l236 -302h-82l-200 254l-118 -119v-135h-67z" />
    <glyph glyph-name="Lacute" unicode="&#x139;" horiz-adv-x="649" 
d="M128 794l101 129l73 -34l-116 -95h-58zM110 0v728h70v-664h418v-64h-488z" />
    <glyph glyph-name="lacute" unicode="&#x13a;" horiz-adv-x="277" 
d="M112 817l101 129l73 -34l-116 -95h-58zM105 0v759h67v-759h-67z" />
    <glyph glyph-name="Lcommaaccent" unicode="&#x13b;" horiz-adv-x="649" 
d="M110 0v728h70v-664h418v-64h-488zM290 -244l-7.00195 28.001c22.667 4.66699 38.834 11.667 48.501 21s13.834 22.666 12.501 39.999h-38v80h86v-70c0 -58 -34 -91 -102 -99z" />
    <glyph glyph-name="lcommaaccent" unicode="&#x13c;" horiz-adv-x="277" 
d="M79 -244l-7.00195 28.001c22.667 4.66699 38.834 11.667 48.501 21s13.834 22.666 12.501 39.999h-38v80h86v-70c0 -58 -34 -91 -102 -99zM104.998 0.000976562v759h67v-759h-67z" />
    <glyph glyph-name="Lcaron" unicode="&#x13d;" horiz-adv-x="649" 
d="M110 0v728h70v-664h418v-64h-488zM281 565l16 164h71v-3l-52 -161h-35z" />
    <glyph glyph-name="lcaron" unicode="&#x13e;" horiz-adv-x="277" 
d="M242 596l16 164h71v-3l-52 -161h-35zM105 0v759h67v-759h-67z" />
    <glyph glyph-name="Ldot" unicode="&#x13f;" horiz-adv-x="649" 
d="M439 334v92h86v-92h-86zM110 0v728h70v-664h418v-64h-488z" />
    <glyph glyph-name="ldot" unicode="&#x140;" horiz-adv-x="344" 
d="M265 337v91h83v-91h-83zM105 0v759h67v-759h-67z" />
    <glyph glyph-name="Lslash" unicode="&#x141;" horiz-adv-x="681" 
d="M400 421l-190 -89v-268h419v-64h-488v299l-78 -36v69l78 36v360h69v-327l190 89v-69z" />
    <glyph glyph-name="lslash" unicode="&#x142;" horiz-adv-x="340" 
d="M282 410l-79 -44v-366h-67v330l-79 -43v70l79 42v360h67v-324l79 44v-69z" />
    <glyph glyph-name="Nacute" unicode="&#x143;" horiz-adv-x="832" 
d="M388 791l101 129l73 -34l-116 -95h-58zM110 0v728h66l478 -606v606h68v-728h-55l-489 619v-619h-68z" />
    <glyph glyph-name="nacute" unicode="&#x144;" horiz-adv-x="649" 
d="M301 619l95 145l74 -35l-115 -110h-54zM98 0l0.000976562 533.999h67v-95c42 72 104.333 108 187 108c64.667 0 115.667 -20 153 -60s56 -92.333 56 -157v-330h-67v314c0 52.667 -14 94.334 -42 125.001s-66.667 46 -116 46c-48.667 0 -89.334 -16.667 -122.001 -50
s-49 -76 -49 -128v-307h-67z" />
    <glyph glyph-name="Ncommaaccent" unicode="&#x145;" horiz-adv-x="832" 
d="M356 -239l-7.00195 28.001c22.667 4.66699 38.834 11.667 48.501 21s13.834 22.666 12.501 39.999h-38v80h86v-70c0 -58 -34 -91 -102 -99zM109.998 0.000976562v728h66l478 -606v606h68v-728h-55l-489 619v-619h-68z" />
    <glyph glyph-name="ncommaaccent" unicode="&#x146;" horiz-adv-x="649" 
d="M269 -244l-7.00195 28.001c22.667 4.66699 38.834 11.667 48.501 21s13.834 22.666 12.501 39.999h-38v80h86v-70c0 -58 -34 -91 -102 -99zM97.998 0.000976562l0.000976562 533.999h67v-95c42 72 104.333 108 187 108c64.667 0 115.667 -20 153 -60s56 -92.333 56 -157
v-330h-67v314c0 52.667 -14 94.334 -42 125.001s-66.667 46 -116 46c-48.667 0 -89.334 -16.667 -122.001 -50s-49 -76 -49 -128v-307h-67z" />
    <glyph glyph-name="Ncaron" unicode="&#x147;" horiz-adv-x="832" 
d="M559 909l-111 -118h-64l-111 118h67l77 -63l77 63h65zM110 0v728h66l478 -606v606h68v-728h-55l-489 619v-619h-68z" />
    <glyph glyph-name="ncaron" unicode="&#x148;" horiz-adv-x="649" 
d="M466 751l-108 -132h-58l-107 132h59l78 -70l78 70h58zM98 0l0.000976562 533.999h67v-95c42 72 104.333 108 187 108c64.667 0 115.667 -20 153 -60s56 -92.333 56 -157v-330h-67v314c0 52.667 -14 94.334 -42 125.001s-66.667 46 -116 46
c-48.667 0 -89.334 -16.667 -122.001 -50s-49 -76 -49 -128v-307h-67z" />
    <glyph glyph-name="Omacron" unicode="&#x14c;" horiz-adv-x="894" 
d="M280 828v60h334v-60h-334zM446 -12c-108 0 -196.333 36.667 -265 110s-103 161.333 -103 264v2c0 102.667 34.667 191 104 265s158 111 266 111s196.333 -36.667 265 -110s103 -161.333 103 -264v-2c0 -102.667 -34.667 -191 -104 -265s-158 -111 -266 -111zM448 51
c84.667 0 155 30 211 90s84 133.667 84 221v2c0 87.333 -28.333 161.333 -85 222s-127.334 91 -212.001 91s-155 -30 -211 -90s-84 -133.667 -84 -221v-2c0 -87.333 28.333 -161.333 85 -222s127.334 -91 212.001 -91z" />
    <glyph glyph-name="omacron" unicode="&#x14d;" horiz-adv-x="679" 
d="M182 643v57h316v-57h-316zM339 -12c-78.667 0 -144.334 27.167 -197.001 81.5s-79 119.5 -79 195.5v2c0 76.667 26.667 142.5 80 197.5s119.333 82.5 198 82.5s144.334 -27.167 197.001 -81.5s79 -119.833 79 -196.5v-2c0 -76 -26.667 -141.5 -80 -196.5
s-119.333 -82.5 -198 -82.5zM341 49c59.333 0 108.333 20.999 147 62.999s58 93 58 153v2c0 60.667 -20 112.334 -60 155.001s-89 64 -147 64c-60 0 -109.333 -21 -148 -63s-58 -93.333 -58 -154v-2c0 -60.667 20.167 -112.167 60.5 -154.5s89.5 -63.5 147.5 -63.5z" />
    <glyph glyph-name="Obreve" unicode="&#x14e;" horiz-adv-x="894" 
d="M447 802c-42 0 -76.1709 9.83301 -102.504 29.5s-41.166 47.167 -44.499 82.5h55c12.667 -36 43.334 -54 92.001 -54s79.334 18 92.001 54h55c-3.33301 -35.333 -18.166 -62.833 -44.499 -82.5s-60.5 -29.5 -102.5 -29.5zM445.996 -12c-108 0 -196.333 36.667 -265 110
s-103 161.333 -103 264v2c0 102.667 34.667 191 104 265s158 111 266 111s196.333 -36.667 265 -110s103 -161.333 103 -264v-2c0 -102.667 -34.667 -191 -104 -265s-158 -111 -266 -111zM447.996 51c84.667 0 155 30 211 90s84 133.667 84 221v2
c0 87.333 -28.333 161.333 -85 222s-127.334 91 -212.001 91s-155 -30 -211 -90s-84 -133.667 -84 -221v-2c0 -87.333 28.333 -161.333 85 -222s127.334 -91 212.001 -91z" />
    <glyph glyph-name="obreve" unicode="&#x14f;" horiz-adv-x="679" 
d="M339 -12c-78.667 0 -144.334 27.167 -197.001 81.5s-79 119.5 -79 195.5v2c0 76.667 26.667 142.5 80 197.5s119.333 82.5 198 82.5s144.334 -27.167 197.001 -81.5s79 -119.833 79 -196.5v-2c0 -76 -26.667 -141.5 -80 -196.5s-119.333 -82.5 -198 -82.5zM341 49
c59.333 0 108.333 20.999 147 62.999s58 93 58 153v2c0 60.667 -20 112.334 -60 155.001s-89 64 -147 64c-60 0 -109.333 -21 -148 -63s-58 -93.333 -58 -154v-2c0 -60.667 20.167 -112.167 60.5 -154.5s89.5 -63.5 147.5 -63.5zM340 616.999
c-42 0 -76.1689 10.833 -102.502 32.5s-41.166 52.167 -44.499 91.5h50c14.667 -44 47 -66 97 -66s82.333 22 97 66h50c-3.33301 -39.333 -18.166 -69.833 -44.499 -91.5s-60.5 -32.5 -102.5 -32.5z" />
    <glyph glyph-name="Ohungarumlaut" unicode="&#x150;" horiz-adv-x="894" 
d="M446 -12c-108 0 -196.333 36.667 -265 110s-103 161.333 -103 264v2c0 102.667 34.667 191 104 265s158 111 266 111s196.333 -36.667 265 -110s103 -161.333 103 -264v-2c0 -102.667 -34.667 -191 -104 -265s-158 -111 -266 -111zM448 51c84.667 0 155 30 211 90
s84 133.667 84 221v2c0 87.333 -28.333 161.333 -85 222s-127.334 91 -212.001 91s-155 -30 -211 -90s-84 -133.667 -84 -221v-2c0 -87.333 28.333 -161.333 85 -222s127.334 -91 212.001 -91zM332 804l101 129l72 -34l-116 -95h-57zM485 804l101 129l72 -34l-115 -95h-58z
" />
    <glyph glyph-name="ohungarumlaut" unicode="&#x151;" horiz-adv-x="679" 
d="M378 619l96 145l69 -35l-110 -110h-55zM229 619l96 145l68 -35l-109 -110h-55zM339 -12c-78.667 0 -144.334 27.167 -197.001 81.5s-79 119.5 -79 195.5v2c0 76.667 26.667 142.5 80 197.5s119.333 82.5 198 82.5s144.334 -27.167 197.001 -81.5s79 -119.833 79 -196.5
v-2c0 -76 -26.667 -141.5 -80 -196.5s-119.333 -82.5 -198 -82.5zM341 49c59.333 0 108.333 20.999 147 62.999s58 93 58 153v2c0 60.667 -20 112.334 -60 155.001s-89 64 -147 64c-60 0 -109.333 -21 -148 -63s-58 -93.333 -58 -154v-2
c0 -60.667 20.167 -112.167 60.5 -154.5s89.5 -63.5 147.5 -63.5z" />
    <glyph glyph-name="OE" unicode="&#x152;" horiz-adv-x="1196" 
d="M1127 0h-662c-112.667 0 -205.334 34.5 -278.001 103.5s-109 155.167 -109 258.5v2c0 103.333 36.333 189.833 109 259.5s165.334 104.5 278.001 104.5h657v-64h-436v-265h389v-64h-389v-271h441v-64zM465 64l151 -0.000976562v600h-151
c-94 0 -169.833 -28.333 -227.5 -85s-86.5 -127.667 -86.5 -213v-2c0 -85.333 28.833 -156.666 86.5 -213.999s133.5 -86 227.5 -86z" />
    <glyph glyph-name="oe" unicode="&#x153;" horiz-adv-x="1104" 
d="M336 -12c-76.667 0 -141.33 27.1689 -193.997 81.502s-79 119.5 -79 195.5v2c0 76.667 26.667 142.5 80 197.5s118.666 82.5 195.999 82.5c52.667 0 100 -13.833 142 -41.5s74 -64.5 96 -110.5c20 46.667 49.833 83.667 89.5 111s84.5 41 134.5 41
c74.667 0 134.5 -26.833 179.5 -80.5s67.5 -120.834 67.5 -201.501c0 -1.33301 -0.666992 -9.33301 -2 -24h-432c5.33301 -59.333 26.666 -106.5 63.999 -141.5s81.666 -52.5 132.999 -52.5c68 0 126.333 26.667 175 80l44 -39c-61.333 -66.667 -134.333 -100 -219 -100
c-50.667 0 -97 13.5 -139 40.5s-73.667 64.5 -95 112.5c-22 -46.667 -54.167 -83.834 -96.5 -111.501s-90.5 -41.5 -144.5 -41.5zM614.004 295.002h364c-4 54.667 -21.5 100.5 -52.5 137.5s-73.5 55.5 -127.5 55.5c-49.333 0 -91 -18.167 -125 -54.5
s-53.667 -82.5 -59 -138.5zM340.004 49.002c59.333 0 108.333 20.999 147 62.999s58 93 58 153v2c0 60.667 -20 112.334 -60 155.001s-89 64 -147 64c-58.667 0 -107.5 -21.167 -146.5 -63.5s-58.5 -93.5 -58.5 -153.5v-2c0 -60.667 20 -112.167 60 -154.5
s89 -63.5 147 -63.5z" />
    <glyph glyph-name="Racute" unicode="&#x154;" horiz-adv-x="762" 
d="M110 0v728h310c89.333 0 158 -24 206 -72c37.333 -37.333 56 -84 56 -140v-2c0 -58 -18.667 -105.167 -56 -141.5s-87 -59.5 -149 -69.5l231 -303h-86l-221 291h-221v-291h-70zM180 354h233c58.667 0 106.5 14 143.5 42s55.5 66.333 55.5 115v2
c0 46.667 -17.333 83.5 -52 110.5s-83 40.5 -145 40.5h-235v-310zM342 794l101 129l73 -34l-116 -95h-58z" />
    <glyph glyph-name="racute" unicode="&#x155;" horiz-adv-x="429" 
d="M200 619l95 145l74 -35l-115 -110h-54zM98 0l0.000976562 533.999h67v-145c21.333 48 51.666 86 90.999 114s84.333 41.333 135 40v-72h-5c-62.667 0 -115.167 -22.667 -157.5 -68s-63.5 -107.666 -63.5 -186.999v-216h-67z" />
    <glyph glyph-name="Rcommaaccent" unicode="&#x156;" horiz-adv-x="762" 
d="M110 0v728h310c89.333 0 158 -24 206 -72c37.333 -37.333 56 -84 56 -140v-2c0 -58 -18.667 -105.167 -56 -141.5s-87 -59.5 -149 -69.5l231 -303h-86l-221 291h-221v-291h-70zM180 354h233c58.667 0 106.5 14 143.5 42s55.5 66.333 55.5 115v2
c0 46.667 -17.333 83.5 -52 110.5s-83 40.5 -145 40.5h-235v-310zM310 -239l-7.00195 28.001c22.667 4.66699 38.834 11.667 48.501 21s13.834 22.666 12.501 39.999h-38v80h86v-70c0 -58 -34 -91 -102 -99z" />
    <glyph glyph-name="rcommaaccent" unicode="&#x157;" horiz-adv-x="429" 
d="M81 -244l-7.00195 28.001c22.667 4.66699 38.834 11.667 48.501 21s13.834 22.666 12.501 39.999h-38v80h86v-70c0 -58 -34 -91 -102 -99zM97.998 0.000976562l0.000976562 533.999h67v-145c21.333 48 51.666 86 90.999 114s84.333 41.333 135 40v-72h-5
c-62.667 0 -115.167 -22.667 -157.5 -68s-63.5 -107.666 -63.5 -186.999v-216h-67z" />
    <glyph glyph-name="Rcaron" unicode="&#x158;" horiz-adv-x="762" 
d="M513 912l-111 -118h-64l-111 118h67l77 -63l77 63h65zM110 0v728h310c89.333 0 158 -24 206 -72c37.333 -37.333 56 -84 56 -140v-2c0 -58 -18.667 -105.167 -56 -141.5s-87 -59.5 -149 -69.5l231 -303h-86l-221 291h-221v-291h-70zM180 354h233
c58.667 0 106.5 14 143.5 42s55.5 66.333 55.5 115v2c0 46.667 -17.333 83.5 -52 110.5s-83 40.5 -145 40.5h-235v-310z" />
    <glyph glyph-name="rcaron" unicode="&#x159;" horiz-adv-x="429" 
d="M365 751l-108 -132h-58l-107 132h59l78 -70l78 70h58zM98 0l0.000976562 533.999h67v-145c21.333 48 51.666 86 90.999 114s84.333 41.333 135 40v-72h-5c-62.667 0 -115.167 -22.667 -157.5 -68s-63.5 -107.666 -63.5 -186.999v-216h-67z" />
    <glyph glyph-name="Sacute" unicode="&#x15a;" horiz-adv-x="676" 
d="M358 -10c-110.667 0 -208.998 38.668 -294.998 116.001l44 52c39.333 -36.667 79 -63.5 119 -80.5s85.333 -25.5 136 -25.5s92 12.667 124 38s48 57.333 48 96v2c0 37.333 -13.833 67 -41.5 89s-79.5 40.667 -155.5 56c-86.667 17.333 -149.167 42.166 -187.5 74.499
s-57.5 76.833 -57.5 133.5v2c0 56 22.5 102.5 67.5 139.5s101.5 55.5 169.5 55.5c52 0 97.5 -7.16699 136.5 -21.5s77.833 -36.833 116.5 -67.5l-42 -54c-64.667 54 -135.667 81 -213 81c-48.667 0 -88.334 -12.333 -119.001 -37s-46 -54.667 -46 -90v-2
c0 -37.333 14.167 -67.333 42.5 -90s82.166 -42.334 161.499 -59.001c83.333 -17.333 143.833 -42.166 181.5 -74.499s56.5 -75.5 56.5 -129.5v-2c0 -60 -23 -108.667 -69 -146s-105 -56 -177 -56zM317.002 804.001l101 129l73 -34l-116 -95h-58z" />
    <glyph glyph-name="sacute" unicode="&#x15b;" horiz-adv-x="528" 
d="M240 619l95 145l74 -35l-115 -110h-54zM273 -10c-38.667 0 -77.666 7 -116.999 21s-74 33 -104 57l36 50c60 -46 122.667 -69 188 -69c34.667 0 63.167 8.5 85.5 25.5s33.5 39.167 33.5 66.5v2c0 11.333 -2.66699 21.666 -8 30.999s-11.5 17 -18.5 23
s-17.667 12.167 -32 18.5s-26.333 11 -36 14s-23.834 7.16699 -42.501 12.5c-22 6 -39.5 11.167 -52.5 15.5s-28.5 10.833 -46.5 19.5s-32 17.667 -42 27s-18.833 21.5 -26.5 36.5s-11.5 31.833 -11.5 50.5v2c0 45.333 16.667 82 50 110s76.333 42 129 42
c68 0 131.667 -20 191 -60l-32 -52c-56 35.333 -109.667 53 -161 53c-33.333 0 -60.333 -8 -81 -24s-31 -36.333 -31 -61v-2c0 -10.667 2.83301 -20.5 8.5 -29.5s12.334 -16.5 20.001 -22.5s18.667 -12 33 -18s26.833 -10.667 37.5 -14s25.334 -7.66602 44.001 -12.999
c25.333 -7.33301 46.666 -14.5 63.999 -21.5s35.166 -16.333 53.499 -28s32.333 -26 42 -43s14.5 -36.833 14.5 -59.5v-2c0 -48 -17.833 -86.333 -53.5 -115s-80.5 -43 -134.5 -43z" />
    <glyph glyph-name="Scedilla" unicode="&#x15e;" horiz-adv-x="676" 
d="M309 -158l-67.998 31.002l80 119c-96.667 6.66699 -182.667 44.667 -258 114l44 52c39.333 -36.667 79 -63.5 119 -80.5s85.333 -25.5 136 -25.5s92 12.667 124 38s48 57.333 48 96v2c0 37.333 -13.833 67 -41.5 89s-79.5 40.667 -155.5 56
c-86.667 17.333 -149.167 42.166 -187.5 74.499s-57.5 76.833 -57.5 133.5v2c0 56 22.5 102.5 67.5 139.5s101.5 55.5 169.5 55.5c52 0 97.5 -7.16699 136.5 -21.5s77.833 -36.833 116.5 -67.5l-42 -54c-64.667 54 -135.667 81 -213 81
c-48.667 0 -88.334 -12.333 -119.001 -37s-46 -54.667 -46 -90v-2c0 -37.333 14.167 -67.333 42.5 -90s82.166 -42.334 161.499 -59.001c83.333 -17.333 143.833 -42.166 181.5 -74.499s56.5 -75.5 56.5 -129.5v-2c0 -56.667 -20.833 -103.334 -62.5 -140.001
s-95.5 -57 -161.5 -61z" />
    <glyph glyph-name="scedilla" unicode="&#x15f;" horiz-adv-x="528" 
d="M218 -158l-67.999 31l81 120c-69.333 8.66699 -129 33.667 -179 75l36 50c60 -46 122.667 -69 188 -69c34.667 0 63.167 8.5 85.5 25.5s33.5 39.167 33.5 66.5v2c0 11.333 -2.66699 21.666 -8 30.999s-11.5 17 -18.5 23s-17.667 12.167 -32 18.5s-26.333 11 -36 14
s-23.834 7.16699 -42.501 12.5c-22 6 -39.5 11.167 -52.5 15.5s-28.5 10.833 -46.5 19.5s-32 17.667 -42 27s-18.833 21.5 -26.5 36.5s-11.5 31.833 -11.5 50.5v2c0 45.333 16.667 82 50 110s76.333 42 129 42c68 0 131.667 -20 191 -60l-32 -52
c-56 35.333 -109.667 53 -161 53c-33.333 0 -60.333 -8 -81 -24s-31 -36.333 -31 -61v-2c0 -10.667 2.83301 -20.5 8.5 -29.5s12.334 -16.5 20.001 -22.5s18.667 -12 33 -18s26.833 -10.667 37.5 -14s25.334 -7.66602 44.001 -12.999
c25.333 -7.33301 46.666 -14.5 63.999 -21.5s35.166 -16.333 53.499 -28s32.333 -26 42 -43s14.5 -36.833 14.5 -59.5v-2c0 -46 -16.167 -83 -48.5 -111s-73.5 -43.333 -123.5 -46z" />
    <glyph glyph-name="Scaron" unicode="&#x160;" horiz-adv-x="676" 
d="M358 -10c-110.667 0 -208.998 38.668 -294.998 116.001l44 52c39.333 -36.667 79 -63.5 119 -80.5s85.333 -25.5 136 -25.5s92 12.667 124 38s48 57.333 48 96v2c0 37.333 -13.833 67 -41.5 89s-79.5 40.667 -155.5 56c-86.667 17.333 -149.167 42.166 -187.5 74.499
s-57.5 76.833 -57.5 133.5v2c0 56 22.5 102.5 67.5 139.5s101.5 55.5 169.5 55.5c52 0 97.5 -7.16699 136.5 -21.5s77.833 -36.833 116.5 -67.5l-42 -54c-64.667 54 -135.667 81 -213 81c-48.667 0 -88.334 -12.333 -119.001 -37s-46 -54.667 -46 -90v-2
c0 -37.333 14.167 -67.333 42.5 -90s82.166 -42.334 161.499 -59.001c83.333 -17.333 143.833 -42.166 181.5 -74.499s56.5 -75.5 56.5 -129.5v-2c0 -60 -23 -108.667 -69 -146s-105 -56 -177 -56zM488.002 922.001l-111 -118h-64l-111 118h67l77 -63l77 63h65z" />
    <glyph glyph-name="scaron" unicode="&#x161;" horiz-adv-x="528" 
d="M404 751l-108 -132h-58l-107 132h59l78 -70l78 70h58zM273 -10c-38.667 0 -77.666 7 -116.999 21s-74 33 -104 57l36 50c60 -46 122.667 -69 188 -69c34.667 0 63.167 8.5 85.5 25.5s33.5 39.167 33.5 66.5v2c0 11.333 -2.66699 21.666 -8 30.999s-11.5 17 -18.5 23
s-17.667 12.167 -32 18.5s-26.333 11 -36 14s-23.834 7.16699 -42.501 12.5c-22 6 -39.5 11.167 -52.5 15.5s-28.5 10.833 -46.5 19.5s-32 17.667 -42 27s-18.833 21.5 -26.5 36.5s-11.5 31.833 -11.5 50.5v2c0 45.333 16.667 82 50 110s76.333 42 129 42
c68 0 131.667 -20 191 -60l-32 -52c-56 35.333 -109.667 53 -161 53c-33.333 0 -60.333 -8 -81 -24s-31 -36.333 -31 -61v-2c0 -10.667 2.83301 -20.5 8.5 -29.5s12.334 -16.5 20.001 -22.5s18.667 -12 33 -18s26.833 -10.667 37.5 -14s25.334 -7.66602 44.001 -12.999
c25.333 -7.33301 46.666 -14.5 63.999 -21.5s35.166 -16.333 53.499 -28s32.333 -26 42 -43s14.5 -36.833 14.5 -59.5v-2c0 -48 -17.833 -86.333 -53.5 -115s-80.5 -43 -134.5 -43z" />
    <glyph glyph-name="Tcommaaccent" unicode="&#x162;" horiz-adv-x="675" 
d="M303 0v663h-249v65h567v-65h-248v-663h-70zM278 -244l-7.00195 28.001c22.667 4.66699 38.834 11.667 48.501 21s13.834 22.666 12.501 39.999h-38v80h86v-70c0 -58 -34 -91 -102 -99z" />
    <glyph glyph-name="Tcommaaccent" unicode="&#x21a;" horiz-adv-x="675" 
d="M303 0v663h-249v65h567v-65h-248v-663h-70zM278 -244l-7.00195 28.001c22.667 4.66699 38.834 11.667 48.501 21s13.834 22.666 12.501 39.999h-38v80h86v-70c0 -58 -34 -91 -102 -99z" />
    <glyph glyph-name="tcommaaccent" unicode="&#x163;" horiz-adv-x="428" 
d="M181 -244l-7.00195 28.001c22.667 4.66699 38.834 11.667 48.501 21s13.834 22.666 12.501 39.999h-38v80h86v-70c0 -58 -34 -91 -102 -99zM275.998 -8.99902c-44.667 0 -80.832 12.167 -108.499 36.5s-41.5 61.833 -41.5 112.5v334h-76v60h76v166h67v-166h178v-60h-178
v-326c0 -64 32.333 -96 97 -96c24 0 50 6.33301 78 19v-60c-28.667 -13.333 -59.334 -20 -92.001 -20z" />
    <glyph glyph-name="tcommaaccent" unicode="&#x21b;" horiz-adv-x="428" 
d="M181 -244l-7.00195 28.001c22.667 4.66699 38.834 11.667 48.501 21s13.834 22.666 12.501 39.999h-38v80h86v-70c0 -58 -34 -91 -102 -99zM275.998 -8.99902c-44.667 0 -80.832 12.167 -108.499 36.5s-41.5 61.833 -41.5 112.5v334h-76v60h76v166h67v-166h178v-60h-178
v-326c0 -64 32.333 -96 97 -96c24 0 50 6.33301 78 19v-60c-28.667 -13.333 -59.334 -20 -92.001 -20z" />
    <glyph glyph-name="Tcaron" unicode="&#x164;" horiz-adv-x="675" 
d="M481 912l-111 -118h-64l-111 118h67l77 -63l77 63h65zM303 0v663h-249v65h567v-65h-248v-663h-70z" />
    <glyph glyph-name="tcaron" unicode="&#x165;" horiz-adv-x="428" 
d="M285 606l16 164h71v-3l-52 -161h-35zM276 -9c-44.667 0 -80.832 12.167 -108.499 36.5s-41.5 61.833 -41.5 112.5v334h-76v60h76v166h67v-166h178v-60h-178v-326c0 -64 32.333 -96 97 -96c24 0 50 6.33301 78 19v-60c-28.667 -13.333 -59.334 -20 -92.001 -20z" />
    <glyph glyph-name="Umacron" unicode="&#x16a;" horiz-adv-x="800" 
d="M233 815v60h334v-60h-334zM400 -11c-91.333 0 -164.333 27.3311 -219 81.998s-82 132.334 -82 233.001v424h70v-419c0 -82 20.333 -145.333 61 -190s98 -67 172 -67c71.333 0 127.333 21.5 168 64.5s61 105.5 61 187.5v424h70v-418
c0 -103.333 -27.167 -182.666 -81.5 -237.999s-127.5 -83 -219.5 -83z" />
    <glyph glyph-name="umacron" unicode="&#x16b;" horiz-adv-x="649" 
d="M297 -12c-64.667 0 -115.668 19.834 -153.001 59.501s-56 92.167 -56 157.5v329h67v-314c0 -52.667 14 -94.334 42 -125.001s66.667 -46 116 -46c48.667 0 89.334 16.667 122.001 50s49 76 49 128v307h67v-534h-67v96c-42 -72 -104.333 -108 -187 -108zM160.999 643.001
v57h316v-57h-316z" />
    <glyph glyph-name="Ubreve" unicode="&#x16c;" horiz-adv-x="800" 
d="M400 787c-42 0 -76.1709 9.83301 -102.504 29.5s-41.166 47.167 -44.499 82.5h55c12.667 -36 43.334 -54 92.001 -54s79.334 18 92.001 54h55c-3.33301 -35.333 -18.166 -62.833 -44.499 -82.5s-60.5 -29.5 -102.5 -29.5zM399.996 -11
c-91.333 0 -164.333 27.3311 -219 81.998s-82 132.334 -82 233.001v424h70v-419c0 -82 20.333 -145.333 61 -190s98 -67 172 -67c71.333 0 127.333 21.5 168 64.5s61 105.5 61 187.5v424h70v-418c0 -103.333 -27.167 -182.666 -81.5 -237.999s-127.5 -83 -219.5 -83z" />
    <glyph glyph-name="ubreve" unicode="&#x16d;" horiz-adv-x="649" 
d="M297 -12c-64.667 0 -115.668 19.834 -153.001 59.501s-56 92.167 -56 157.5v329h67v-314c0 -52.667 14 -94.334 42 -125.001s66.667 -46 116 -46c48.667 0 89.334 16.667 122.001 50s49 76 49 128v307h67v-534h-67v96c-42 -72 -104.333 -108 -187 -108zM318.999 617.001
c-42 0 -76.1689 10.833 -102.502 32.5s-41.166 52.167 -44.499 91.5h50c14.667 -44 47 -66 97 -66s82.333 22 97 66h50c-3.33301 -39.333 -18.166 -69.833 -44.499 -91.5s-60.5 -32.5 -102.5 -32.5z" />
    <glyph glyph-name="Uring" unicode="&#x16e;" horiz-adv-x="800" 
d="M400 -11c-91.333 0 -164.333 27.3311 -219 81.998s-82 132.334 -82 233.001v424h70v-419c0 -82 20.333 -145.333 61 -190s98 -67 172 -67c71.333 0 127.333 21.5 168 64.5s61 105.5 61 187.5v424h70v-418c0 -103.333 -27.167 -182.666 -81.5 -237.999
s-127.5 -83 -219.5 -83zM400 775.998c-31.333 0 -58 9.66699 -80 29s-33 43.333 -33 72s11 52.667 33 72s48.667 29 80 29s58 -9.66699 80 -29s33 -43.333 33 -72s-11 -52.667 -33 -72s-48.667 -29 -80 -29zM400 812.998c20 0 36.667 6 50 18s20 27.333 20 46
s-6.66699 34.167 -20 46.5s-30 18.5 -50 18.5s-36.667 -6.16699 -50 -18.5s-20 -27.833 -20 -46.5s6.66699 -34 20 -46s30 -18 50 -18z" />
    <glyph glyph-name="uring" unicode="&#x16f;" horiz-adv-x="649" 
d="M319 607c-30 0 -56 10.5 -78 31.5s-33 45.833 -33 74.5c0 29.333 11 54.5 33 75.5s48 31.5 78 31.5s56 -10.5 78 -31.5s33 -46.167 33 -75.5c0 -28.667 -11 -53.5 -33 -74.5s-48 -31.5 -78 -31.5zM319 641c19.333 0 36.166 7.16699 50.499 21.5s21.5 31.166 21.5 50.499
c0 20 -7.16699 37.167 -21.5 51.5s-31.166 21.5 -50.499 21.5s-36.166 -7.16699 -50.499 -21.5s-21.5 -31.5 -21.5 -51.5c0 -19.333 7.16699 -36.166 21.5 -50.499s31.166 -21.5 50.499 -21.5zM297 -12c-64.667 0 -115.668 19.834 -153.001 59.501s-56 92.167 -56 157.5v329
h67v-314c0 -52.667 14 -94.334 42 -125.001s66.667 -46 116 -46c48.667 0 89.334 16.667 122.001 50s49 76 49 128v307h67v-534h-67v96c-42 -72 -104.333 -108 -187 -108z" />
    <glyph glyph-name="Uhungarumlaut" unicode="&#x170;" horiz-adv-x="800" 
d="M400 -11c-91.333 0 -164.333 27.3311 -219 81.998s-82 132.334 -82 233.001v424h70v-419c0 -82 20.333 -145.333 61 -190s98 -67 172 -67c71.333 0 127.333 21.5 168 64.5s61 105.5 61 187.5v424h70v-418c0 -103.333 -27.167 -182.666 -81.5 -237.999
s-127.5 -83 -219.5 -83zM285 790.998l101 129l72 -34l-116 -95h-57zM438 790.998l101 129l72 -34l-115 -95h-58z" />
    <glyph glyph-name="uhungarumlaut" unicode="&#x171;" horiz-adv-x="649" 
d="M297 -12c-64.667 0 -115.668 19.834 -153.001 59.501s-56 92.167 -56 157.5v329h67v-314c0 -52.667 14 -94.334 42 -125.001s66.667 -46 116 -46c48.667 0 89.334 16.667 122.001 50s49 76 49 128v307h67v-534h-67v96c-42 -72 -104.333 -108 -187 -108zM357.999 619.001
l96 145l69 -35l-110 -110h-55zM208.999 619.001l96 145l68 -35l-109 -110h-55z" />
    <glyph glyph-name="Uogonek" unicode="&#x172;" horiz-adv-x="800" 
d="M464 -128l-0.000976562 -43.001h-7c-43.333 1.33301 -76.166 9.33301 -98.499 24s-33.5 34.334 -33.5 59.001c0 26 13.333 52.333 40 79c-82 6.66699 -146.833 37 -194.5 91s-71.5 128 -71.5 222v424h70v-419c0 -82 20.333 -145.333 61 -190s98 -67 172 -67
c71.333 0 127.333 21.5 168 64.5s61 105.5 61 187.5v424h70v-418c0 -98 -24.5 -174.5 -73.5 -229.5s-115.167 -85.167 -198.5 -90.5c-28.667 -24.667 -43 -47.667 -43 -69c0 -28.667 26 -45 78 -49z" />
    <glyph glyph-name="uogonek" unicode="&#x173;" horiz-adv-x="649" 
d="M297 -12c-64.667 0 -115.67 19.832 -153.003 59.499s-56 92.167 -56 157.5v329h67v-314c0 -52.667 14 -94.334 42 -125.001s66.667 -46 116 -46c48.667 0 89.334 16.667 122.001 50s49 76 49 128v307h67v-534h-8c-19.333 -16.667 -33.166 -30.667 -41.499 -42
s-12.5 -23.666 -12.5 -36.999c0 -28.667 26 -45 78 -49v-43h-7c-43.333 1.33301 -76.166 9.33301 -98.499 24s-33.5 34.334 -33.5 59.001c0 30 18.667 61 56 93v1v90c-42 -72 -104.333 -108 -187 -108z" />
    <glyph glyph-name="Wcircumflex" unicode="&#x174;" horiz-adv-x="1159" 
d="M316 -5l-262 733h77l217 -625l206 627h56l205 -627l217 625h73l-261 -733h-59l-205 609l-206 -609h-58zM437 794l111 118h64l111 -118h-67l-77 63l-77 -63h-65z" />
    <glyph glyph-name="wcircumflex" unicode="&#x175;" horiz-adv-x="905" 
d="M316 619l107 132h58l108 -132h-60l-78 70l-78 -70h-57zM243 -4l-191 538h73l149 -446l152 449h55l152 -449l150 446h70l-191 -538h-58l-151 437l-152 -437h-58z" />
    <glyph glyph-name="Ycircumflex" unicode="&#x176;" horiz-adv-x="755" 
d="M342 0v288l-307 440h86l257 -376l259 376h82l-307 -439v-289h-70zM234 791l111 118h64l111 -118h-67l-77 63l-77 -63h-65z" />
    <glyph glyph-name="ycircumflex" unicode="&#x177;" horiz-adv-x="623" 
d="M325 74l179.999 459.999h73l-228 -552c-22 -54.667 -47.167 -93.667 -75.5 -117s-62.166 -35 -101.499 -35c-37.333 0 -74.333 8.66699 -111 26l23 55c28 -13.333 57 -20 87 -20c26 0 48 8.33301 66 25s36 45.334 54 86.001l-249 532h75zM178.999 618.999l107 132h58
l108 -132h-60l-78 70l-78 -70h-57z" />
    <glyph glyph-name="Ydieresis" unicode="&#x178;" horiz-adv-x="755" 
d="M342 0v288l-307 440h86l257 -376l259 376h82l-307 -439v-289h-70zM429 791v87h87v-87h-87zM239 791v87h88v-87h-88z" />
    <glyph glyph-name="Zacute" unicode="&#x179;" horiz-adv-x="729" 
d="M75 0v44l483 621h-466v63h563v-44l-484 -621h484v-63h-580zM345 794l101 129l73 -34l-116 -95h-58z" />
    <glyph glyph-name="zacute" unicode="&#x17a;" horiz-adv-x="588" 
d="M271 619l95 145l74 -35l-115 -110h-54zM64 0v41l369 435h-355v58h449v-41l-369 -435h369v-58h-463z" />
    <glyph glyph-name="Zdotaccent" unicode="&#x17b;" horiz-adv-x="729" 
d="M328 794v87h90v-87h-90zM75 0v44l483 621h-466v63h563v-44l-484 -621h484v-63h-580z" />
    <glyph glyph-name="zdotaccent" unicode="&#x17c;" horiz-adv-x="588" 
d="M64 0v41l369 435h-355v58h449v-41l-369 -435h369v-58h-463zM254 619v92h88v-92h-88z" />
    <glyph glyph-name="Zcaron" unicode="&#x17d;" horiz-adv-x="729" 
d="M516 912l-111 -118h-64l-111 118h67l77 -63l77 63h65zM75 0v44l483 621h-466v63h563v-44l-484 -621h484v-63h-580z" />
    <glyph glyph-name="zcaron" unicode="&#x17e;" horiz-adv-x="588" 
d="M435 751l-108 -132h-58l-107 132h59l78 -70l78 70h58zM64 0v41l369 435h-355v58h449v-41l-369 -435h369v-58h-463z" />
    <glyph glyph-name="uni018F" unicode="&#x18f;" horiz-adv-x="839" 
d="M150 555l-48 45.999c83.333 92.667 185.333 139 306 139c104.667 0 189.667 -35 255 -105s98 -160 98 -270v-3c0 -105.333 -33 -194 -99 -266s-148.667 -108 -248 -108c-103.333 0 -185.333 35.833 -246 107.5s-91 161.834 -91 270.501v1c0 12 0.333008 22 1 30h610
c-6.66699 82 -35 149.167 -85 201.5s-115 78.5 -195 78.5c-98.667 0 -184.667 -40.667 -258 -122zM414 51.999c77.333 0 140.668 26.167 190.001 78.5s77.333 120.5 84 204.5h-538c4 -84 30.167 -152.167 78.5 -204.5s110.166 -78.5 185.499 -78.5z" />
    <glyph glyph-name="florin" unicode="&#x192;" horiz-adv-x="541" 
d="M100 -5c-21.333 0 -38.6631 1.33301 -51.9961 4v58c11.333 -2.66699 26.666 -4 45.999 -4c45.333 0 73 27.333 83 82l48 258h-107v59h118l25 132c10 52 27.167 89.833 51.5 113.5s59.166 35.5 104.499 35.5c31.333 0 58.333 -3.66699 81 -11v-58
c-22.667 6.66699 -46.667 10 -72 10c-28 0 -49.333 -7.5 -64 -22.5s-25.334 -40.167 -32.001 -75.5l-23 -124h155v-59h-165l-50 -264c-8.66699 -46 -24.834 -79.833 -48.501 -101.5s-56.5 -32.5 -98.5 -32.5z" />
    <glyph glyph-name="Aringacute" unicode="&#x1fa;" horiz-adv-x="832" 
d="M48 0l315 691.999c-40 18.667 -60 48.334 -60 89.001c0 28.667 11.167 52.834 33.5 72.501s48.833 29.5 79.5 29.5s57.167 -9.83301 79.5 -29.5s33.5 -43.834 33.5 -72.501c0 -40.667 -20.333 -70.667 -61 -90l316 -691h-76l-88 198h-411l-89 -198h-72zM237 260.999h355
l-177 393zM416 716.999c19.333 0 35.833 6.16699 49.5 18.5s20.5 27.5 20.5 45.5c0 18.667 -6.83301 34.167 -20.5 46.5s-30.167 18.5 -49.5 18.5c-20 0 -36.667 -6.16699 -50 -18.5s-20 -27.833 -20 -46.5c0 -18 6.66699 -33.167 20 -45.5s30 -18.5 50 -18.5zM384 912.999
l102 117l71 -33l-115 -84h-58z" />
    <glyph glyph-name="aringacute" unicode="&#x1fb;" horiz-adv-x="610" 
d="M259 -12c-54 0 -101.333 14.833 -142 44.5s-61 70.5 -61 122.5v2c0 54.667 21 97.167 63 127.5s98 45.5 168 45.5c62.667 0 119 -7.66699 169 -23v21c0 50 -14.5 88.167 -43.5 114.5s-69.833 39.5 -122.5 39.5c-52 0 -107 -13.667 -165 -41l-21 56
c65.333 30 129.333 45 192 45c74.667 0 131.667 -19.333 171 -58c36.667 -38 55 -89.333 55 -154v-330h-66v84c-47.333 -64 -113 -96 -197 -96zM268 45c53.333 0 98.333 14.332 135 42.999s55 65.334 55 110.001v56c-60 15.333 -116.333 23 -169 23
c-52 0 -92.333 -10.333 -121 -31s-43 -49 -43 -85v-3c0 -34.667 13.833 -62.167 41.5 -82.5s61.5 -30.5 101.5 -30.5zM305 616.999c-30 0 -56 10.5 -78 31.5s-33 45.833 -33 74.5c0 29.333 11 54.5 33 75.5s48 31.5 78 31.5s56 -10.5 78 -31.5s33 -46.167 33 -75.5
c0 -28.667 -11 -53.5 -33 -74.5s-48 -31.5 -78 -31.5zM305 650.999c19.333 0 36.166 7.16699 50.499 21.5s21.5 31.166 21.5 50.499c0 20 -7.16699 37.167 -21.5 51.5s-31.166 21.5 -50.499 21.5s-36.166 -7.16699 -50.499 -21.5s-21.5 -31.5 -21.5 -51.5
c0 -19.333 7.16699 -36.166 21.5 -50.499s31.166 -21.5 50.499 -21.5zM276 858.999l97 127l73 -35l-113 -92h-57z" />
    <glyph glyph-name="AEacute" unicode="&#x1fc;" horiz-adv-x="1097" 
d="M633 794l101 129l73 -34l-116 -95h-58zM24 0l434 728h565v-64h-436v-265h389v-64h-389v-271h441v-64h-511v198h-302l-117 -198h-74zM251 261h266v405h-26z" />
    <glyph glyph-name="aeacute" unicode="&#x1fd;" horiz-adv-x="1002" 
d="M473 619l95 145l74 -35l-115 -110h-54zM257 -12c-54.667 0 -101.835 14.835 -141.502 44.502s-59.5 70.5 -59.5 122.5v2c0 54.667 20.667 97.167 62 127.5s96 45.5 164 45.5c58 0 112 -7.66699 162 -23v21c0 50 -13.667 88.167 -41 114.5s-67 39.5 -119 39.5
c-48 0 -101 -13.667 -159 -41l-21 56c64 30 126 45 186 45c106 0 172.333 -41 199 -123c22 39.333 51.333 70.5 88 93.5s77.334 34.5 122.001 34.5c74.667 0 134.334 -26.833 179.001 -80.5s67 -120.834 67 -201.501c0 -8.66699 -0.333008 -16.667 -1 -24h-432
c5.33301 -60 26.5 -107.333 63.5 -142s81.5 -52 133.5 -52c68 0 126.333 26.667 175 80l44 -39c-30 -32.667 -62.167 -57.5 -96.5 -74.5s-75.833 -25.5 -124.5 -25.5c-44 0 -84.667 9.66699 -122 29s-68 46.666 -92 81.999c-68 -74 -146.667 -111 -236 -111z
M511.999 295.002h364c-4 54.667 -21.5 100.5 -52.5 137.5s-73.5 55.5 -127.5 55.5c-49.333 0 -91 -18.167 -125 -54.5s-53.667 -82.5 -59 -138.5zM263.999 45.002c76 0 143.333 34.333 202 103c-13.333 34 -21 69.667 -23 107c-57.333 14.667 -110 22 -158 22
c-51.333 0 -90.833 -10.333 -118.5 -31s-41.5 -49 -41.5 -85v-3c0 -34.667 13.333 -62.167 40 -82.5s59.667 -30.5 99 -30.5z" />
    <glyph glyph-name="Oslashacute" unicode="&#x1fe;" horiz-adv-x="894" 
d="M749 733h76l-104 -112c63.333 -70.667 95 -155.667 95 -255v-2c0 -102.667 -34.667 -191 -104 -265s-158 -111 -266 -111c-91.333 0 -169 26.667 -233 80l-68 -73h-76l104 111c-63.333 70.667 -95 156 -95 256v2c0 102.667 34.667 191 104 265s158 111 266 111
c90.667 0 168 -26.667 232 -80zM149 366l-0.000976562 -1.00098c0 -78.667 24 -148 72 -208l415 452c-54.667 46 -118 69 -190 69c-85.333 0 -156.166 -30.167 -212.499 -90.5s-84.5 -134.166 -84.5 -221.499zM447.999 49.999c85.333 0 156.166 30.168 212.499 90.501
s84.5 134.166 84.5 221.499v1c0 78.667 -24 148 -72 208l-416 -452c54.667 -46.667 118.334 -69.667 191.001 -69zM418.999 804l101 129l73 -34l-116 -95h-58z" />
    <glyph glyph-name="oslashacute" unicode="&#x1ff;" horiz-adv-x="679" 
d="M561 541l71 -0.000976562l-83 -88c45.333 -51.333 68 -112.666 68 -183.999v-2c0 -76 -26.667 -141.5 -80 -196.5s-119.333 -82.5 -198 -82.5c-63.333 0 -120.333 19.333 -171 58l-50 -51h-71l83 87c-44.667 50.667 -67 111.667 -67 183v2
c0 76.667 26.667 142.5 80 197.5s119.333 82.5 198 82.5c64 0 121 -19.667 171 -59zM341 46.999c60.667 0 110.332 21.001 148.999 63.001s58 93.667 58 155v1c0 51.333 -15.333 97.666 -46 138.999l-292 -311c36.667 -32 80.334 -47.667 131.001 -47zM131.998 269
l0.000976562 -1c0 -51.333 14.667 -97.333 44 -138l293 310c-38 31.333 -81.333 47 -130 47c-60.667 0 -110.334 -21 -149.001 -63s-58 -93.667 -58 -155zM311.999 619l95 145l74 -35l-115 -110h-54z" />
    <glyph glyph-name="Scommaaccent" unicode="&#x218;" horiz-adv-x="676" 
d="M358 -10c-110.667 0 -208.998 38.668 -294.998 116.001l44 52c39.333 -36.667 79 -63.5 119 -80.5s85.333 -25.5 136 -25.5s92 12.667 124 38s48 57.333 48 96v2c0 37.333 -13.833 67 -41.5 89s-79.5 40.667 -155.5 56c-86.667 17.333 -149.167 42.166 -187.5 74.499
s-57.5 76.833 -57.5 133.5v2c0 56 22.5 102.5 67.5 139.5s101.5 55.5 169.5 55.5c52 0 97.5 -7.16699 136.5 -21.5s77.833 -36.833 116.5 -67.5l-42 -54c-64.667 54 -135.667 81 -213 81c-48.667 0 -88.334 -12.333 -119.001 -37s-46 -54.667 -46 -90v-2
c0 -37.333 14.167 -67.333 42.5 -90s82.166 -42.334 161.499 -59.001c83.333 -17.333 143.833 -42.166 181.5 -74.499s56.5 -75.5 56.5 -129.5v-2c0 -60 -23 -108.667 -69 -146s-105 -56 -177 -56zM286.002 -243.999l-7.00195 28.001
c22.667 4.66699 38.834 11.667 48.501 21s13.834 22.666 12.501 39.999h-38v80h86v-70c0 -58 -34 -91 -102 -99z" />
    <glyph glyph-name="scommaaccent" unicode="&#x219;" horiz-adv-x="528" 
d="M208 -244l-7.00195 28.001c22.667 4.66699 38.834 11.667 48.501 21s13.834 22.666 12.501 39.999h-38v80h86v-70c0 -58 -34 -91 -102 -99zM272.998 -9.99902c-38.667 0 -77.666 7 -116.999 21s-74 33 -104 57l36 50c60 -46 122.667 -69 188 -69
c34.667 0 63.167 8.5 85.5 25.5s33.5 39.167 33.5 66.5v2c0 11.333 -2.66699 21.666 -8 30.999s-11.5 17 -18.5 23s-17.667 12.167 -32 18.5s-26.333 11 -36 14s-23.834 7.16699 -42.501 12.5c-22 6 -39.5 11.167 -52.5 15.5s-28.5 10.833 -46.5 19.5s-32 17.667 -42 27
s-18.833 21.5 -26.5 36.5s-11.5 31.833 -11.5 50.5v2c0 45.333 16.667 82 50 110s76.333 42 129 42c68 0 131.667 -20 191 -60l-32 -52c-56 35.333 -109.667 53 -161 53c-33.333 0 -60.333 -8 -81 -24s-31 -36.333 -31 -61v-2c0 -10.667 2.83301 -20.5 8.5 -29.5
s12.334 -16.5 20.001 -22.5s18.667 -12 33 -18s26.833 -10.667 37.5 -14s25.334 -7.66602 44.001 -12.999c25.333 -7.33301 46.666 -14.5 63.999 -21.5s35.166 -16.333 53.499 -28s32.333 -26 42 -43s14.5 -36.833 14.5 -59.5v-2c0 -48 -17.833 -86.333 -53.5 -115
s-80.5 -43 -134.5 -43z" />
    <glyph glyph-name="schwa" unicode="&#x259;" horiz-adv-x="622" 
d="M294 547c74 0 136.668 -26 188.001 -78s77 -118.667 77 -200v-2c0 -78 -24.333 -144 -73 -198s-109.334 -81 -182.001 -81c-75.333 0 -135.5 26.667 -180.5 80s-67.5 120.333 -67.5 201c0 10 0.333008 18 1 24h433c-5.33301 59.333 -26.833 106.5 -64.5 141.5
s-82.167 52.5 -133.5 52.5c-67.333 0 -125.666 -26.333 -174.999 -79l-43 38c59.333 67.333 132.666 101 219.999 101zM490.001 239h-364.001c4.66699 -54 22.334 -99.5 53.001 -136.5s73 -55.5 127 -55.5c49.333 0 91 18 125 54s53.667 82 59 138z" />
    <glyph glyph-name="circumflex" unicode="&#x2c6;" 
d="M129 619l107 132h58l108 -132h-60l-78 70l-78 -70h-57z" />
    <glyph glyph-name="caron" unicode="&#x2c7;" 
d="M402 751l-108 -132h-58l-107 132h59l78 -70l78 70h58z" />
    <glyph glyph-name="breve" unicode="&#x2d8;" 
d="M265 617c-42 0 -76.1689 10.833 -102.502 32.5s-41.166 52.167 -44.499 91.5h50c14.667 -44 47 -66 97 -66s82.333 22 97 66h50c-3.33301 -39.333 -18.166 -69.833 -44.499 -91.5s-60.5 -32.5 -102.5 -32.5z" />
    <glyph glyph-name="dotaccent" unicode="&#x2d9;" 
d="M221 619v92h88v-92h-88z" />
    <glyph glyph-name="ring" unicode="&#x2da;" 
d="M265 617c-30 0 -56 10.5 -78 31.5s-33 45.833 -33 74.5c0 29.333 11 54.5 33 75.5s48 31.5 78 31.5s56 -10.5 78 -31.5s33 -46.167 33 -75.5c0 -28.667 -11 -53.5 -33 -74.5s-48 -31.5 -78 -31.5zM265 651c19.333 0 36.166 7.16699 50.499 21.5s21.5 31.166 21.5 50.499
c0 20 -7.16699 37.167 -21.5 51.5s-31.166 21.5 -50.499 21.5s-36.166 -7.16699 -50.499 -21.5s-21.5 -31.5 -21.5 -51.5c0 -19.333 7.16699 -36.166 21.5 -50.499s31.166 -21.5 50.499 -21.5z" />
    <glyph glyph-name="ogonek" unicode="&#x2db;" 
d="M344 -128v-43.001h-7c-43.333 1.33301 -76.166 9.33301 -98.499 24s-33.5 34.334 -33.5 59.001c0 32 23.667 67 71 105l47 -15c-20.667 -16.667 -35.334 -31 -44.001 -43s-13 -24.667 -13 -38c0 -28.667 26 -45 78 -49z" />
    <glyph glyph-name="tilde" unicode="&#x2dc;" 
d="M334 619c-12.667 0 -36.332 7 -70.999 21c-29.333 14 -51 21 -65 21c-13.333 0 -23.5 -3.66699 -30.5 -11s-14.5 -21 -22.5 -41l-43 12c10 38 22.167 64.833 36.5 80.5s33.5 23.5 57.5 23.5c12.667 0 36.334 -7 71.001 -21c29.333 -14 51 -21 65 -21
c13.333 0 23.666 3.5 30.999 10.5s14.666 20.5 21.999 40.5l43 -11c-10 -38 -22.167 -64.833 -36.5 -80.5s-33.5 -23.5 -57.5 -23.5z" />
    <glyph glyph-name="hungarumlaut" unicode="&#x2dd;" 
d="M258 619l96 145l69 -35l-110 -110h-55zM109 619l96 145l68 -35l-109 -110h-55z" />
    <glyph glyph-name="commaaccent" unicode="&#x326;" 
d="M206 -244l-7.00195 28.001c22.667 4.66699 38.834 11.667 48.501 21s13.834 22.666 12.501 39.999h-38v80h86v-70c0 -58 -34 -91 -102 -99z" />
    <glyph glyph-name="uni0384" unicode="&#x384;" 
d="M211 619l65 155l75 -31l-91 -124h-49z" />
    <glyph glyph-name="uni0385" unicode="&#x385;" 
d="M348 619v91h81v-91h-81zM101 619v91h81v-91h-81zM221 619l40 173l75 -18l-68 -155h-47z" />
    <glyph glyph-name="uni0386" unicode="&#x386;" horiz-adv-x="832" 
d="M48 0l335 733h66l335 -733h-76l-88 198h-411l-89 -198h-72zM237 261h355l-177 393zM112 548l18 180h78l-57 -180h-39z" />
    <glyph glyph-name="uni0387" unicode="&#x387;" horiz-adv-x="268" 
d="M92 434v100h84v-100h-84z" />
    <glyph glyph-name="uni0388" unicode="&#x388;" horiz-adv-x="707" 
d="M-49 548l18 180h78l-57 -180h-39zM110 0v728h523v-64h-453v-265h406v-64h-406v-271h458v-64h-528z" />
    <glyph glyph-name="uni0389" unicode="&#x389;" horiz-adv-x="800" 
d="M110 0v728h70v-330h440v330h70v-728h-70v334h-440v-334h-70zM-49 548l18 180h78l-57 -180h-39z" />
    <glyph glyph-name="uni038A" unicode="&#x38a;" horiz-adv-x="305" 
d="M117 0v728h70v-728h-70zM-48 548l18 180h78l-57 -180h-39z" />
    <glyph glyph-name="uni038C" unicode="&#x38c;" horiz-adv-x="894" 
d="M-10 548l18 180h78l-57 -180h-39zM446 -12c-108 0 -196.333 36.667 -265 110s-103 161.333 -103 264v2c0 102.667 34.667 191 104 265s158 111 266 111s196.333 -36.667 265 -110s103 -161.333 103 -264v-2c0 -102.667 -34.667 -191 -104 -265s-158 -111 -266 -111z
M448 51c84.667 0 155 30 211 90s84 133.667 84 221v2c0 87.333 -28.333 161.333 -85 222s-127.334 91 -212.001 91s-155 -30 -211 -90s-84 -133.667 -84 -221v-2c0 -87.333 28.333 -161.333 85 -222s127.334 -91 212.001 -91z" />
    <glyph glyph-name="uni038E" unicode="&#x38e;" horiz-adv-x="755" 
d="M342 0v288l-307 440h86l257 -376l259 376h82l-307 -439v-289h-70zM-101 548l18 180h78l-57 -180h-39z" />
    <glyph glyph-name="uni038F" unicode="&#x38f;" horiz-adv-x="913" 
d="M457 740c106.667 0 193.333 -32.999 260 -98.999s100 -149 100 -249v-1c0 -128 -65.333 -238 -196 -330l221 2v-63h-310v59c70 46 122.833 94 158.5 144s53.5 111.667 53.5 185v1c0 84.667 -26.667 153.834 -80 207.501s-122.666 80.5 -207.999 80.5
s-154.5 -26.833 -207.5 -80.5s-79.5 -122.834 -79.5 -207.501v-1c0 -70.667 18 -132 54 -184s88.667 -100.333 158 -145v-59h-310v63l220 -2c-64.667 45.333 -113.334 94.666 -146.001 147.999s-49 114.333 -49 183v1c0 98 33.333 180.333 100 247s153.667 100 261 100z
M-10.001 548.001l18 180h78l-57 -180h-39z" />
    <glyph glyph-name="uni0390" unicode="&#x390;" horiz-adv-x="302" 
d="M228 619v91h81v-91h-81zM-19 619v91h81v-91h-81zM101 619l40 173l75 -18l-68 -155h-47zM96 130v404h67v-402c0 -54 24 -81 72 -81c14 0 27.667 1.66699 41 5v-58c-20 -4 -37.333 -6 -52 -6c-85.333 0 -128 46 -128 138z" />
    <glyph glyph-name="uni0391" unicode="&#x391;" horiz-adv-x="832" 
d="M48 0l335 733h66l335 -733h-76l-88 198h-411l-89 -198h-72zM237 261h355l-177 393z" />
    <glyph glyph-name="uni0392" unicode="&#x392;" horiz-adv-x="761" 
d="M110 0v728h306c82.667 0 146 -21.333 190 -64c31.333 -31.333 47 -70 47 -116v-2c0 -81.333 -40 -138.333 -120 -171c106.667 -29.333 160 -87.333 160 -174v-2c0 -61.333 -23.833 -109.833 -71.5 -145.5s-111.167 -53.5 -190.5 -53.5h-321zM582 537v1.99902
c0 38.667 -14.833 69.334 -44.5 92.001s-71.5 34 -125.5 34h-233v-267h227c53.333 0 96 12 128 36s48 58.333 48 103zM623 201.999v2c0 42 -17.5 74.5 -52.5 97.5s-86.167 34.5 -153.5 34.5h-238v-273h253c58.667 0 105.167 12.333 139.5 37s51.5 58.667 51.5 102z" />
    <glyph glyph-name="uni0393" unicode="&#x393;" horiz-adv-x="649" 
d="M110 0v728h488v-64h-418v-664h-70z" />
    <glyph glyph-name="uni0394" unicode="&#x394;" horiz-adv-x="831" 
d="M62 0l-6 52l325 681h69l325 -681l-6 -52h-707zM414 655l-279 -591h557z" />
    <glyph glyph-name="uni0395" unicode="&#x395;" horiz-adv-x="707" 
d="M110 0v728h523v-64h-453v-265h406v-64h-406v-271h458v-64h-528z" />
    <glyph glyph-name="uni0396" unicode="&#x396;" horiz-adv-x="729" 
d="M75 0v44l483 621h-466v63h563v-44l-484 -621h484v-63h-580z" />
    <glyph glyph-name="uni0397" unicode="&#x397;" horiz-adv-x="800" 
d="M110 0v728h70v-330h440v330h70v-728h-70v334h-440v-334h-70z" />
    <glyph glyph-name="uni0398" unicode="&#x398;" horiz-adv-x="894" 
d="M446 -12c-108 0 -196.333 36.667 -265 110s-103 161.333 -103 264v2c0 102.667 34.667 191 104 265s158 111 266 111s196.333 -36.667 265 -110s103 -161.333 103 -264v-2c0 -102.667 -34.667 -191 -104 -265s-158 -111 -266 -111zM448 51c85.333 0 156 30 212 90
s84 133.667 84 221v2c0 87.333 -28.333 161.333 -85 222s-127.667 91 -213 91s-156 -30 -212 -90s-84 -133.667 -84 -221v-2c0 -87.333 28.333 -161.333 85 -222s127.667 -91 213 -91zM646 399v-66h-398v66h398z" />
    <glyph glyph-name="uni0399" unicode="&#x399;" horiz-adv-x="305" 
d="M117 0v728h70v-728h-70z" />
    <glyph glyph-name="uni039A" unicode="&#x39a;" horiz-adv-x="756" 
d="M110 0v728h70v-454l438 454h93l-316 -319l329 -409h-89l-289 359l-166 -168v-191h-70z" />
    <glyph glyph-name="uni039B" unicode="&#x39b;" horiz-adv-x="813" 
d="M437 733l328 -733h-78l-282 643l-283 -643h-74l326 733h63z" />
    <glyph glyph-name="uni039C" unicode="&#x39c;" horiz-adv-x="913" 
d="M110 0v728h69l277 -412l277 412h70v-728h-70v609l-276 -403h-4l-275 402v-608h-68z" />
    <glyph glyph-name="uni039D" unicode="&#x39d;" horiz-adv-x="832" 
d="M110 0v728h66l478 -606v606h68v-728h-55l-489 619v-619h-68z" />
    <glyph glyph-name="uni039E" unicode="&#x39e;" horiz-adv-x="707" 
d="M633 662h-559v66h559v-66zM604 334h-501v66h501v-66zM638 0h-569v66h569v-66z" />
    <glyph glyph-name="uni039F" unicode="&#x39f;" horiz-adv-x="894" 
d="M446 -12c-108 0 -196.333 36.667 -265 110s-103 161.333 -103 264v2c0 102.667 34.667 191 104 265s158 111 266 111s196.333 -36.667 265 -110s103 -161.333 103 -264v-2c0 -102.667 -34.667 -191 -104 -265s-158 -111 -266 -111zM448 51c84.667 0 155 30 211 90
s84 133.667 84 221v2c0 87.333 -28.333 161.333 -85 222s-127.334 91 -212.001 91s-155 -30 -211 -90s-84 -133.667 -84 -221v-2c0 -87.333 28.333 -161.333 85 -222s127.334 -91 212.001 -91z" />
    <glyph glyph-name="uni03A0" unicode="&#x3a0;" horiz-adv-x="800" 
d="M110 0v728h580v-728h-70v664h-440v-664h-70z" />
    <glyph glyph-name="uni03A1" unicode="&#x3a1;" horiz-adv-x="705" 
d="M110 0v728h269c82 0 147.833 -20.333 197.5 -61s74.5 -96 74.5 -166v-2c0 -74.667 -27.333 -132.667 -82 -174s-122.667 -62 -204 -62h-185v-263h-70zM180 327h188.999c63.333 0 114.5 15.5 153.5 46.5s58.5 71.833 58.5 122.5v2c0 53.333 -18.667 94.333 -56 123
s-87.666 43 -150.999 43h-194v-337z" />
    <glyph glyph-name="uni03A3" unicode="&#x3a3;" horiz-adv-x="706" 
d="M465 364l-292 -301h471v-63h-569v52l301 312l-299 312v52h560v-63h-462z" />
    <glyph glyph-name="uni03A4" unicode="&#x3a4;" horiz-adv-x="675" 
d="M303 0v663h-249v65h567v-65h-248v-663h-70z" />
    <glyph glyph-name="uni03A5" unicode="&#x3a5;" horiz-adv-x="755" 
d="M342 0v288l-307 440h86l257 -376l259 376h82l-307 -439v-289h-70z" />
    <glyph glyph-name="uni03A6" unicode="&#x3a6;" horiz-adv-x="953" 
d="M441 -15v91c-117.333 1.33301 -209.166 28.333 -275.499 81s-99.5 122.667 -99.5 210v1c0 85.333 33.167 154.666 99.5 207.999s158.166 80.666 275.499 81.999v85h70v-85c118 -2.66699 210.167 -30 276.5 -82s99.5 -121.667 99.5 -209v-1
c0 -85.333 -33.333 -154.666 -100 -207.999s-158.667 -80.666 -276 -81.999v-91h-70zM138 367v-1c0 -67.333 25.833 -121.833 77.5 -163.5s127.5 -63.167 227.5 -64.5v458c-99.333 -1.33301 -175 -22.833 -227 -64.5s-78 -96.5 -78 -164.5zM814 367v1
c0 66.667 -25.833 121 -77.5 163s-127.167 63.667 -226.5 65v-458c98.667 1.33301 174 22.833 226 64.5s78 96.5 78 164.5z" />
    <glyph glyph-name="uni03A7" unicode="&#x3a7;" horiz-adv-x="762" 
d="M616 728h81l-273 -357l284 -371h-83l-245 324l-244 -324h-81l284 371l-274 357h83l234 -310z" />
    <glyph glyph-name="uni03A8" unicode="&#x3a8;" horiz-adv-x="900" 
d="M814 728v-249.999c0 -98.667 -29.167 -172.334 -87.5 -221.001s-138.833 -73.667 -241.5 -75v-182h-70v182c-102.667 1.33301 -183.167 26 -241.5 74s-87.5 121 -87.5 219v253h70v-250c0 -79.333 22 -137.5 66 -174.5s108.333 -56.167 193 -57.5v482h69v-482
c85.333 1.33301 150 20.333 194 57s66 94 66 172v253h70z" />
    <glyph glyph-name="uni03A9" unicode="&#x3a9;" horiz-adv-x="913" 
d="M457 740c106.667 0 193.333 -32.999 260 -98.999s100 -149 100 -249v-1c0 -128 -65.333 -238 -196 -330l221 2v-63h-310v59c70 46 122.833 94 158.5 144s53.5 111.667 53.5 185v1c0 84.667 -26.667 153.834 -80 207.501s-122.666 80.5 -207.999 80.5
s-154.5 -26.833 -207.5 -80.5s-79.5 -122.834 -79.5 -207.501v-1c0 -70.667 18 -132 54 -184s88.667 -100.333 158 -145v-59h-310v63l220 -2c-64.667 45.333 -113.334 94.666 -146.001 147.999s-49 114.333 -49 183v1c0 98 33.333 180.333 100 247s153.667 100 261 100z" />
    <glyph glyph-name="uni03AA" unicode="&#x3aa;" horiz-adv-x="305" 
d="M117 0v728h70v-728h-70zM205 794v87h87v-87h-87zM15 794v87h88v-87h-88z" />
    <glyph glyph-name="uni03AB" unicode="&#x3ab;" horiz-adv-x="755" 
d="M342 0v288l-307 440h86l257 -376l259 376h82l-307 -439v-289h-70zM429 791v87h87v-87h-87zM239 791v87h88v-87h-88z" />
    <glyph glyph-name="uni03AC" unicode="&#x3ac;" horiz-adv-x="738" 
d="M324 619l65 155l75 -31l-91 -124h-49zM714 56l0.00195312 -58c-20 -4 -37.333 -6 -52 -6c-78 0 -120 38.333 -126 115c-56 -79.333 -127 -119 -213 -119c-68.667 0 -128.834 25.5 -180.501 76.5s-77.5 117.833 -77.5 200.5v2c0 84 25.833 151.667 77.5 203
s111.5 77 179.5 77c87.333 0 158 -40.333 212 -121v108h67v-402c0 -54 24.333 -81 73 -81c13.333 0 26.666 1.66699 39.999 5zM333.002 50c54 0 101.501 20.499 142.501 61.499s61.5 92.5 61.5 154.5v2c0 63.333 -20.5 115.333 -61.5 156s-88.5 61 -142.5 61
c-56 0 -103 -19.667 -141 -59s-57 -91.666 -57 -156.999v-2c0 -64 19.167 -116.167 57.5 -156.5s85.166 -60.5 140.499 -60.5z" />
    <glyph glyph-name="uni03AD" unicode="&#x3ad;" horiz-adv-x="587" 
d="M271 619l65 155l75 -31l-91 -124h-49zM415 242l-120 -0.000976562c-53.333 0 -93.5 -8.83301 -120.5 -26.5s-40.5 -40.167 -40.5 -67.5v-1c0 -30.667 15 -55 45 -73s71.333 -27 124 -27c72 0 140.333 19.667 205 59l32 -50c-73.333 -45.333 -153 -68 -239 -68
c-75.333 0 -133.5 14.333 -174.5 43s-61.5 65.667 -61.5 111v1c0 33.333 11.167 60.833 33.5 82.5s50.833 36.834 85.5 45.501c-69.333 20 -104 61.333 -104 124v2c0 42 19.667 77.333 59 106s94.333 43 165 43c84 0 160.333 -23 229 -69l-36 -51
c-58.667 41.333 -123 62 -193 62c-49.333 0 -87.5 -9.16699 -114.5 -27.5s-40.5 -41.5 -40.5 -69.5v-1c0 -30 12.5 -52.667 37.5 -68s60.833 -23 107.5 -23h121v-57z" />
    <glyph glyph-name="uni03AE" unicode="&#x3ae;" horiz-adv-x="649" 
d="M297 619l65 155l75 -31l-91 -124h-49zM561 -166l-66.999 -0.000976562v480c0 52.667 -14 94.334 -42 125.001s-66.667 46 -116 46c-48.667 0 -89.334 -16.667 -122.001 -50s-49 -76 -49 -128v-307h-67v534h67v-95c42 72 104.333 108 187 108
c64.667 0 115.667 -20 153 -60s56 -92.333 56 -157v-496z" />
    <glyph glyph-name="uni03AF" unicode="&#x3af;" horiz-adv-x="302" 
d="M101 619l65 155l75 -31l-91 -124h-49zM96 130v404h67v-402c0 -54 24 -81 72 -81c14 0 27.667 1.66699 41 5v-58c-20 -4 -37.333 -6 -52 -6c-85.333 0 -128 46 -128 138z" />
    <glyph glyph-name="uni03B0" unicode="&#x3b0;" horiz-adv-x="652" 
d="M409 619v91h81v-91h-81zM162 619v91h81v-91h-81zM282 619l40 173l75 -18l-68 -155h-47zM325 -12c-72 0 -129.166 20.499 -171.499 61.499s-63.5 99.833 -63.5 176.5v308h67v-305c0 -60 15 -105.167 45 -135.5s71.333 -45.5 124 -45.5c52 0 93.167 15 123.5 45
s45.5 75 45.5 135v306h67v-306c0 -77.333 -21.333 -136.666 -64 -177.999s-100.334 -62 -173.001 -62z" />
    <glyph glyph-name="uni03B1" unicode="&#x3b1;" horiz-adv-x="738" 
d="M714 56l0.00195312 -58c-20 -4 -37.333 -6 -52 -6c-78 0 -120 38.333 -126 115c-56 -79.333 -127 -119 -213 -119c-68.667 0 -128.834 25.5 -180.501 76.5s-77.5 117.833 -77.5 200.5v2c0 84 25.833 151.667 77.5 203s111.5 77 179.5 77c87.333 0 158 -40.333 212 -121
v108h67v-402c0 -54 24.333 -81 73 -81c13.333 0 26.666 1.66699 39.999 5zM333.002 50c54 0 101.501 20.499 142.501 61.499s61.5 92.5 61.5 154.5v2c0 63.333 -20.5 115.333 -61.5 156s-88.5 61 -142.5 61c-56 0 -103 -19.667 -141 -59s-57 -91.666 -57 -156.999v-2
c0 -64 19.167 -116.167 57.5 -156.5s85.166 -60.5 140.499 -60.5z" />
    <glyph glyph-name="uni03B2" unicode="&#x3b2;" horiz-adv-x="684" 
d="M165 -166l-67.001 0.000976562v671c0 81.333 22.667 145.166 68 191.499s107.333 69.5 186 69.5c72.667 0 130.334 -18.5 173.001 -55.5s64 -85.167 64 -144.5v-1c0 -47.333 -14.5 -86.833 -43.5 -118.5s-68.833 -52.834 -119.5 -63.501c130 -28 195 -94.333 195 -199v-1
c0 -55.333 -20.667 -101.666 -62 -138.999s-98 -56 -170 -56c-97.333 0 -172 40 -224 120v-274zM289.999 351.001l-125.001 0.000976562v-84c0 -66.667 20.5 -119.834 61.5 -159.501s92.833 -59.5 155.5 -59.5c52 0 93.167 13.167 123.5 39.5s45.5 59.5 45.5 99.5
c0 51.333 -21.667 91.5 -65 120.5s-108.666 43.5 -195.999 43.5zM164.998 505.002v-98.999h124c72 0 128.333 14 169 42s61 67 61 117c0 42 -15 76 -45 102s-70.667 39 -122 39c-58.667 0 -104.5 -17.833 -137.5 -53.5s-49.5 -84.834 -49.5 -147.501z" />
    <glyph glyph-name="uni03B3" unicode="&#x3b3;" horiz-adv-x="618" 
d="M574 534l-232 -527v-173h-67v175l-231 525h76l189 -455l191 455h74z" />
    <glyph glyph-name="uni03B4" unicode="&#x3b4;" horiz-adv-x="665" 
d="M527 701l-307 1l190 -154c66.667 -53.333 115 -102.5 145 -147.5s45 -95.167 45 -150.5c0 -72.667 -25.167 -134.5 -75.5 -185.5s-115.5 -76.5 -195.5 -76.5s-144.333 24.833 -193 74.5s-73 110.834 -73 183.501c0 68 19.667 125.167 59 171.5
s102.333 90.166 189 131.499l-191 161v49h407v-58zM368 503l-8 6c-84.667 -39.333 -144.167 -79.333 -178.5 -120s-51.5 -88.334 -51.5 -143.001c0 -56.667 18.333 -104 55 -142s84.667 -57 144 -57c60.667 0 109.667 19.333 147 58s56 86.334 56 143.001
c0 46.667 -12.333 88.167 -37 124.5s-67 79.833 -127 130.5z" />
    <glyph glyph-name="uni03B5" unicode="&#x3b5;" horiz-adv-x="587" 
d="M415 242l-120 -0.000976562c-53.333 0 -93.5 -8.83301 -120.5 -26.5s-40.5 -40.167 -40.5 -67.5v-1c0 -30.667 15 -55 45 -73s71.333 -27 124 -27c72 0 140.333 19.667 205 59l32 -50c-73.333 -45.333 -153 -68 -239 -68c-75.333 0 -133.5 14.333 -174.5 43
s-61.5 65.667 -61.5 111v1c0 33.333 11.167 60.833 33.5 82.5s50.833 36.834 85.5 45.501c-69.333 20 -104 61.333 -104 124v2c0 42 19.667 77.333 59 106s94.333 43 165 43c84 0 160.333 -23 229 -69l-36 -51c-58.667 41.333 -123 62 -193 62
c-49.333 0 -87.5 -9.16699 -114.5 -27.5s-40.5 -41.5 -40.5 -69.5v-1c0 -30 12.5 -52.667 37.5 -68s60.833 -23 107.5 -23h121v-57z" />
    <glyph glyph-name="uni03B6" unicode="&#x3b6;" horiz-adv-x="567" 
d="M461 -133v121l-128 16c-90 10 -157.333 33.5 -202 70.5s-67 84.5 -67 142.5c0 44 12 85.333 36 124s70.333 92.334 139 161.001l198 198h-332v59h422v-53l-241 -246c-60 -62 -100.333 -108.333 -121 -139s-31 -64.334 -31 -101.001c0 -86 70.667 -137 212 -153l179 -22
v-178h-64z" />
    <glyph glyph-name="uni03B7" unicode="&#x3b7;" horiz-adv-x="649" 
d="M561 -166l-66.999 -0.000976562v480c0 52.667 -14 94.334 -42 125.001s-66.667 46 -116 46c-48.667 0 -89.334 -16.667 -122.001 -50s-49 -76 -49 -128v-307h-67v534h67v-95c42 72 104.333 108 187 108c64.667 0 115.667 -20 153 -60s56 -92.333 56 -157v-496z" />
    <glyph glyph-name="uni03B8" unicode="&#x3b8;" horiz-adv-x="695" 
d="M347 -12c-57.333 0 -107.167 17.668 -149.5 53.001s-73.833 80.833 -94.5 136.5s-31 117.167 -31 184.5v26c0 68 10.333 129.833 31 185.5s52.334 101.167 95.001 136.5s92.667 53 150 53c85.333 0 152.5 -36.333 201.5 -109s73.5 -161.334 73.5 -266.001v-26
c0 -67.333 -10.333 -128.833 -31 -184.5s-52.334 -101.167 -95.001 -136.5s-92.667 -53 -150 -53zM348.999 48.001c61.333 0 110.5 28.333 147.5 85s56.167 128 57.5 214h-413c1.33301 -86.667 21 -158.167 59 -214.5s87.667 -84.5 149 -84.5zM346.999 702.001
c-61.333 0 -110.668 -27.833 -148.001 -83.5s-56.666 -126.5 -57.999 -212.5h413c-2.66699 86 -22.667 156.833 -60 212.5s-86.333 83.5 -147 83.5z" />
    <glyph glyph-name="uni03B9" unicode="&#x3b9;" horiz-adv-x="302" 
d="M96 130v404h67v-402c0 -54 24 -81 72 -81c14 0 27.667 1.66699 41 5v-58c-20 -4 -37.333 -6 -52 -6c-85.333 0 -128 46 -128 138z" />
    <glyph glyph-name="uni03BA" unicode="&#x3ba;" horiz-adv-x="597" 
d="M165 534v-324l310 324h87l-230 -236l233 -298h-82l-198 252l-120 -121v-131h-67v534h67z" />
    <glyph glyph-name="uni03BB" unicode="&#x3bb;" horiz-adv-x="629" 
d="M101 689l0.000976562 58c23.333 10 47.666 15 72.999 15c42 0 73.167 -11 93.5 -33s43.5 -64.667 69.5 -128l248 -601h-74l-190 470l-203 -470h-73l243 547l-13 34c-20 47.333 -37.167 79.333 -51.5 96s-34.5 25 -60.5 25c-19.333 0 -40 -4.33301 -62 -13z" />
    <glyph glyph-name="uni03BC" unicode="&#x3bc;" horiz-adv-x="701" 
d="M676 56l0.000976562 -58c-20 -4 -37.333 -6 -52 -6c-72.667 0 -114 33.333 -124 100c-41.333 -69.333 -97.666 -104 -168.999 -104c-78 0 -135.667 37 -173 111h-1c4.66699 -34.667 7 -79 7 -133v-132h-66v700h67v-308c0 -50 15.833 -92.167 47.5 -126.5
s71.167 -51.5 118.5 -51.5s86.666 17.167 117.999 51.5s47 76.5 47 126.5v308h67v-410c2 -48.667 26.333 -73 73 -73c13.333 0 26.666 1.66699 39.999 5z" />
    <glyph glyph-name="uni03BD" unicode="&#x3bd;" horiz-adv-x="618" 
d="M280 -4l-236 538h76l189 -458l191 458h74l-236 -538h-58z" />
    <glyph glyph-name="uni03BE" unicode="&#x3be;" horiz-adv-x="580" 
d="M552 683l-39 -52.0029c-58.667 49.333 -119.334 74 -182.001 74c-50 0 -89.833 -13 -119.5 -39s-44.5 -61 -44.5 -105c0 -47.333 17.667 -84.166 53 -110.499s79.666 -39.5 132.999 -39.5h98v-58h-111c-63.333 0 -113.666 -13.167 -150.999 -39.5s-56 -60.833 -56 -103.5
c0 -45.333 19 -78.5 57 -99.5s94 -35.833 168 -44.5l174 -21v-178h-64v121l-122 15c-188.667 18.667 -283 86 -283 202c0 48 15.833 87.167 47.5 117.5s70.834 51.5 117.501 63.5c-13.333 4.66699 -26.333 11 -39 19s-26.5 18.833 -41.5 32.5s-27.167 31.334 -36.5 53.001
s-14 45.834 -14 72.501c0 56.667 21.5 104.667 64.5 144s99.5 59 169.5 59c78 0 151.667 -27.667 221 -83z" />
    <glyph glyph-name="uni03BF" unicode="&#x3bf;" horiz-adv-x="679" 
d="M339 -12c-78.667 0 -144.334 27.167 -197.001 81.5s-79 119.5 -79 195.5v2c0 76.667 26.667 142.5 80 197.5s119.333 82.5 198 82.5s144.334 -27.167 197.001 -81.5s79 -119.833 79 -196.5v-2c0 -76 -26.667 -141.5 -80 -196.5s-119.333 -82.5 -198 -82.5zM341 49
c59.333 0 108.333 20.999 147 62.999s58 93 58 153v2c0 60.667 -20 112.334 -60 155.001s-89 64 -147 64c-60 0 -109.333 -21 -148 -63s-58 -93.333 -58 -154v-2c0 -60.667 20.167 -112.167 60.5 -154.5s89.5 -63.5 147.5 -63.5z" />
    <glyph glyph-name="uni03C0" unicode="&#x3c0;" horiz-adv-x="727" 
d="M32 534h643.001v-60h-110v-342c0 -54 24.333 -81 73 -81c13.333 0 26.666 1.66699 39.999 5v-58c-20 -4 -37.333 -6 -52 -6c-85.333 0 -128 46 -128 138v344h-289v-474h-67v474h-110v60z" />
    <glyph glyph-name="uni03C1" unicode="&#x3c1;" horiz-adv-x="686" 
d="M85 -166l-0.000976562 430.998c0 80.667 25.333 147.834 76 201.501s115 80.5 193 80.5c74.667 0 137.834 -25.5 189.501 -76.5s77.5 -118.167 77.5 -201.5v-2c0 -83.333 -25.833 -150.666 -77.5 -201.999s-111.5 -77 -179.5 -77c-92 0 -162.667 41.667 -212 125v-279
h-67zM354.999 49.998c55.333 0 101.667 19.501 139 58.501s56 91.167 56 156.5v2c0 64.667 -18.667 117.167 -56 157.5s-83.333 60.5 -138 60.5c-58 0 -106.167 -20.333 -144.5 -61s-57.5 -92.667 -57.5 -156v-2c0 -62.667 20 -114.334 60 -155.001s87 -61 141 -61z" />
    <glyph glyph-name="uni03C2" unicode="&#x3c2;" horiz-adv-x="603" 
d="M467 -133v122l-109 13c-96 11.333 -169.167 40.333 -219.5 87s-75.5 110.334 -75.5 191.001v1c0 74 25.333 136.833 76 188.5s115.334 77.5 194.001 77.5c84.667 0 158 -34 220 -102l-48 -49c-52 60 -110 90 -174 90c-56.667 0 -103.834 -19.5 -141.501 -58.5
s-56.5 -87.833 -56.5 -146.5v-1c0 -124.667 79.333 -196.334 238 -215.001l161 -20v-178h-65z" />
    <glyph glyph-name="uni03C3" unicode="&#x3c3;" horiz-adv-x="706" 
d="M671 474l-184 0.999023c40 -22.667 71.167 -52.667 93.5 -90s33.5 -79 33.5 -125v-1c0 -75.333 -26.333 -139.333 -79 -192s-118.667 -79 -198 -79c-78.667 0 -144 26.167 -196 78.5s-78 116.5 -78 192.5v2c0 76.667 26.5 141.334 79.5 194.001s121.5 79 205.5 79h323
v-60zM339 48.999c60 0 109.165 20.001 147.498 60.001s57.5 90 57.5 150v1c0 61.333 -19.667 112.166 -59 152.499s-88.666 60.5 -147.999 60.5s-108.166 -20 -146.499 -60s-57.5 -90.333 -57.5 -151v-1c0 -60.667 19.667 -111.167 59 -151.5s88.333 -60.5 147 -60.5z" />
    <glyph glyph-name="uni03C4" unicode="&#x3c4;" horiz-adv-x="587" 
d="M543 474h-229.001v-312c0 -41.333 8.33301 -70.333 25 -87s42.334 -25 77.001 -25c28.667 0 54 4.33301 76 13v-57c-25.333 -10 -53 -15 -83 -15c-54 0 -94.5 12.833 -121.5 38.5s-40.5 69.167 -40.5 130.5v314h-219v60h515v-60z" />
    <glyph glyph-name="uni03C5" unicode="&#x3c5;" horiz-adv-x="652" 
d="M325 -12c-72 0 -129.166 20.499 -171.499 61.499s-63.5 99.833 -63.5 176.5v308h67v-305c0 -60 15 -105.167 45 -135.5s71.333 -45.5 124 -45.5c52 0 93.167 15 123.5 45s45.5 75 45.5 135v306h67v-306c0 -77.333 -21.333 -136.666 -64 -177.999
s-100.334 -62 -173.001 -62z" />
    <glyph glyph-name="uni03C6" unicode="&#x3c6;" horiz-adv-x="867" 
d="M467 -166l-67 0.000976562v163c-107.333 1.33301 -190.5 27 -249.5 77s-88.5 114 -88.5 192v1c0 77.333 29.667 141.333 89 192s142.333 76.667 249 78v222h67v-222c107.333 -2.66699 190.5 -28.834 249.5 -78.501s88.5 -113.167 88.5 -190.5v-1
c0 -77.333 -29.667 -141.333 -89 -192s-142.333 -76.667 -249 -78v-163zM735 267.001v1.00195c0 62 -22.833 112.167 -68.5 150.5s-112.5 58.166 -200.5 59.499v-421c88 1.33301 154.833 21.166 200.5 59.499s68.5 88.5 68.5 150.5zM132 267.003v-1.00098
c0 -62 22.833 -112 68.5 -150s112.5 -57.667 200.5 -59v421c-88 -1.33301 -154.833 -21.166 -200.5 -59.499s-68.5 -88.833 -68.5 -151.5z" />
    <glyph glyph-name="uni03C7" unicode="&#x3c7;" horiz-adv-x="630" 
d="M137 534l179 -281l180 281h79l-220 -330l247 -370h-82l-206 319l-207 -319h-78l244 368l-218 332h82z" />
    <glyph glyph-name="uni03C8" unicode="&#x3c8;" horiz-adv-x="844" 
d="M456 -166l-66.9971 -0.00488281v163c-96 1.33301 -170.167 26.333 -222.5 75s-78.5 114.334 -78.5 197.001v265h67v-263c0 -65.333 20.167 -117 60.5 -155s98.166 -57.667 173.499 -59v702h66v-702c75.333 0.666992 133.166 19.834 173.499 57.501
s60.5 89.834 60.5 156.501v263h67v-262c0 -83.333 -26.333 -149.666 -79 -198.999s-126.334 -74.666 -221.001 -75.999v-163z" />
    <glyph glyph-name="uni03C9" unicode="&#x3c9;" horiz-adv-x="926" 
d="M430 432h65.9971v-155c0 -69.333 12.833 -124.833 38.5 -166.5s63.167 -62.5 112.5 -62.5c42.667 0 76.667 17 102 51s38 81 38 141c0 98 -44 196 -132 294h81c79.333 -94 119 -192.333 119 -295c0 -78 -18.667 -139.333 -56 -184s-86.666 -67 -147.999 -67
c-50 0 -90.667 14.667 -122 44s-53.666 67 -66.999 113c-11.333 -45.333 -33.166 -82.833 -65.499 -112.5s-73.5 -44.5 -123.5 -44.5c-61.333 0 -110.333 22.167 -147 66.5s-55 105.833 -55 184.5c0 103.333 39.667 201.666 119 294.999h80
c-87.333 -91.333 -131 -189.333 -131 -294c0 -59.333 12.667 -106.166 38 -140.499s58.333 -51.5 99 -51.5c50 0 88.167 20.833 114.5 62.5s39.5 97.167 39.5 166.5v155z" />
    <glyph glyph-name="uni03CA" unicode="&#x3ca;" horiz-adv-x="302" 
d="M178 619v92h84v-92h-84zM2 619v92h84v-92h-84zM96 130v404h67v-402c0 -54 24 -81 72 -81c14 0 27.667 1.66699 41 5v-58c-20 -4 -37.333 -6 -52 -6c-85.333 0 -128 46 -128 138z" />
    <glyph glyph-name="uni03CB" unicode="&#x3cb;" horiz-adv-x="652" 
d="M372 619v92h84v-92h-84zM196 619v92h84v-92h-84zM325 -12c-72 0 -129.166 20.499 -171.499 61.499s-63.5 99.833 -63.5 176.5v308h67v-305c0 -60 15 -105.167 45 -135.5s71.333 -45.5 124 -45.5c52 0 93.167 15 123.5 45s45.5 75 45.5 135v306h67v-306
c0 -77.333 -21.333 -136.666 -64 -177.999s-100.334 -62 -173.001 -62z" />
    <glyph glyph-name="uni03CC" unicode="&#x3cc;" horiz-adv-x="679" 
d="M308 619l65 155l75 -31l-91 -124h-49zM339 -12c-78.667 0 -144.334 27.167 -197.001 81.5s-79 119.5 -79 195.5v2c0 76.667 26.667 142.5 80 197.5s119.333 82.5 198 82.5s144.334 -27.167 197.001 -81.5s79 -119.833 79 -196.5v-2c0 -76 -26.667 -141.5 -80 -196.5
s-119.333 -82.5 -198 -82.5zM341 49c59.333 0 108.333 20.999 147 62.999s58 93 58 153v2c0 60.667 -20 112.334 -60 155.001s-89 64 -147 64c-60 0 -109.333 -21 -148 -63s-58 -93.333 -58 -154v-2c0 -60.667 20.167 -112.167 60.5 -154.5s89.5 -63.5 147.5 -63.5z" />
    <glyph glyph-name="uni03CD" unicode="&#x3cd;" horiz-adv-x="652" 
d="M294 619l65 155l75 -31l-91 -124h-49zM325 -12c-72 0 -129.166 20.499 -171.499 61.499s-63.5 99.833 -63.5 176.5v308h67v-305c0 -60 15 -105.167 45 -135.5s71.333 -45.5 124 -45.5c52 0 93.167 15 123.5 45s45.5 75 45.5 135v306h67v-306
c0 -77.333 -21.333 -136.666 -64 -177.999s-100.334 -62 -173.001 -62z" />
    <glyph glyph-name="uni03CE" unicode="&#x3ce;" horiz-adv-x="926" 
d="M431 619l65 155l75 -31l-91 -124h-49zM430 432h65.9971v-155c0 -69.333 12.833 -124.833 38.5 -166.5s63.167 -62.5 112.5 -62.5c42.667 0 76.667 17 102 51s38 81 38 141c0 98 -44 196 -132 294h81c79.333 -94 119 -192.333 119 -295c0 -78 -18.667 -139.333 -56 -184
s-86.666 -67 -147.999 -67c-50 0 -90.667 14.667 -122 44s-53.666 67 -66.999 113c-11.333 -45.333 -33.166 -82.833 -65.499 -112.5s-73.5 -44.5 -123.5 -44.5c-61.333 0 -110.333 22.167 -147 66.5s-55 105.833 -55 184.5c0 103.333 39.667 201.666 119 294.999h80
c-87.333 -91.333 -131 -189.333 -131 -294c0 -59.333 12.667 -106.166 38 -140.499s58.333 -51.5 99 -51.5c50 0 88.167 20.833 114.5 62.5s39.5 97.167 39.5 166.5v155z" />
    <glyph glyph-name="uni0400" unicode="&#x400;" horiz-adv-x="707" 
d="M402 794h-58l-116 95l73 34zM110 0v728h523v-64h-453v-265h406v-64h-406v-271h458v-64h-528z" />
    <glyph glyph-name="uni0401" unicode="&#x401;" horiz-adv-x="707" 
d="M425 794v87h87v-87h-87zM235 794v87h88v-87h-88zM110 0v728h523v-64h-453v-265h406v-64h-406v-271h458v-64h-528z" />
    <glyph glyph-name="uni0402" unicode="&#x402;" horiz-adv-x="888" 
d="M614 728l-0.000976562 -65.001h-255v-237c65.333 19.333 131.333 29 198 29c89.333 0 157.5 -20.167 204.5 -60.5s70.5 -96.166 70.5 -167.499c0 -70 -24.667 -125.667 -74 -167s-116.666 -62 -201.999 -62h-22v63h17c70 0 122.5 14.5 157.5 43.5s52.5 69.5 52.5 121.5
s-17 92.667 -51 122s-87 44 -159 44c-58.667 0 -122.667 -9.66699 -192 -29v-363h-70v663h-239v65h564z" />
    <glyph glyph-name="uni0403" unicode="&#x403;" horiz-adv-x="649" 
d="M307 794l101 129l73 -34l-116 -95h-58zM110 0v728h488v-64h-418v-664h-70z" />
    <glyph glyph-name="uni0404" unicode="&#x404;" horiz-adv-x="783" 
d="M441 -12c-103.333 0 -189.663 36 -258.996 108s-104 160.667 -104 266v2c0 104 34.833 192.667 104.5 266s157.167 110 262.5 110c61.333 0 113.166 -9.66699 155.499 -29s84.833 -48 127.5 -86l-47 -51c-70.667 68.667 -149.334 103 -236.001 103
c-78.667 0 -145.667 -26.5 -201 -79.5s-86.333 -119.5 -93 -199.5h415v-62h-415c5.33301 -82 35.666 -150 90.999 -204s122.666 -81 201.999 -81c49.333 0 92.5 8.83301 129.5 26.5s74.167 45.167 111.5 82.5l46 -45c-42 -42 -85.5 -73.667 -130.5 -95
s-98.167 -32 -159.5 -32z" />
    <glyph glyph-name="uni0405" unicode="&#x405;" horiz-adv-x="676" 
d="M358 -10c-110.667 0 -208.998 38.668 -294.998 116.001l44 52c39.333 -36.667 79 -63.5 119 -80.5s85.333 -25.5 136 -25.5s92 12.667 124 38s48 57.333 48 96v2c0 37.333 -13.833 67 -41.5 89s-79.5 40.667 -155.5 56c-86.667 17.333 -149.167 42.166 -187.5 74.499
s-57.5 76.833 -57.5 133.5v2c0 56 22.5 102.5 67.5 139.5s101.5 55.5 169.5 55.5c52 0 97.5 -7.16699 136.5 -21.5s77.833 -36.833 116.5 -67.5l-42 -54c-64.667 54 -135.667 81 -213 81c-48.667 0 -88.334 -12.333 -119.001 -37s-46 -54.667 -46 -90v-2
c0 -37.333 14.167 -67.333 42.5 -90s82.166 -42.334 161.499 -59.001c83.333 -17.333 143.833 -42.166 181.5 -74.499s56.5 -75.5 56.5 -129.5v-2c0 -60 -23 -108.667 -69 -146s-105 -56 -177 -56z" />
    <glyph glyph-name="uni0406" unicode="&#x406;" horiz-adv-x="305" 
d="M117 0v728h70v-728h-70z" />
    <glyph glyph-name="uni0407" unicode="&#x407;" horiz-adv-x="305" 
d="M117 0v728h70v-728h-70zM205 794v87h87v-87h-87zM15 794v87h88v-87h-88z" />
    <glyph glyph-name="uni0408" unicode="&#x408;" horiz-adv-x="583" 
d="M263 -10c-97.333 0 -171.669 44 -223.002 132l53 41c22.667 -37.333 47.334 -65 74.001 -83s59.334 -27 98.001 -27c44 0 79.833 16 107.5 48s41.5 77.333 41.5 136v491h71v-489c0 -82 -22.333 -145.333 -67 -190c-41.333 -39.333 -93 -59 -155 -59z" />
    <glyph glyph-name="uni0409" unicode="&#x409;" horiz-adv-x="1073" 
d="M488 0v669h-4l-383 -669h-75l418 728h114v-269h188c82 0 147.833 -19.833 197.5 -59.5s74.5 -94.5 74.5 -164.5v-2c0 -73.333 -27 -130.5 -81 -171.5s-122 -61.5 -204 -61.5h-245zM558 64h178c62.667 0 113.667 15.167 153 45.5s59 70.5 59 120.5v2
c0 52.667 -18.667 93.167 -56 121.5s-87.333 42.5 -150 42.5h-184v-332z" />
    <glyph glyph-name="uni040A" unicode="&#x40a;" horiz-adv-x="1195" 
d="M610 0l-0.000976562 334h-430v-334h-70v728h70v-330h430v330h70v-269h187c82.667 0 148.834 -19.833 198.501 -59.5s74.5 -94.5 74.5 -164.5v-2c0 -73.333 -27 -130.5 -81 -171.5s-122 -61.5 -204 -61.5h-245zM679.999 64h178.001c62.667 0 113.667 15.167 153 45.5
s59 70.5 59 120.5v2c0 52.667 -18.833 93.167 -56.5 121.5s-87.834 42.5 -150.501 42.5h-183v-332z" />
    <glyph glyph-name="uni040B" unicode="&#x40b;" horiz-adv-x="924" 
d="M614 728l0.000976562 -65.001h-255v-237c71.333 20.667 138.666 31 201.999 31c181.333 0 272 -81 272 -243v-214h-70v201c0 68.667 -16.667 117.834 -50 147.501s-86 44.5 -158 44.5c-66 0 -131.333 -10.333 -196 -31v-362h-70v663h-239v65h564z" />
    <glyph glyph-name="uni040C" unicode="&#x40c;" horiz-adv-x="758" 
d="M343 791l101 129l73 -34l-116 -95h-58zM110 0v728h70v-323h130l312 323h91l-344 -351l360 -377h-95l-322 341h-132v-341h-70z" />
    <glyph glyph-name="uni040D" unicode="&#x40d;" horiz-adv-x="832" 
d="M444 791h-58l-116 95l73 34zM722 0h-70v621l-486 -621h-56v728h70v-607l475 607h67v-728z" />
    <glyph glyph-name="uni040E" unicode="&#x40e;" horiz-adv-x="745" 
d="M386 789c-42 0 -76.1709 9.83301 -102.504 29.5s-41.166 47.167 -44.499 82.5h55c12.667 -36 43.334 -54 92.001 -54s79.334 18 92.001 54h55c-3.33301 -35.333 -18.166 -62.833 -44.499 -82.5s-60.5 -29.5 -102.5 -29.5zM278.996 0h-78l153 252l-313 476h81l270 -416
l241 416h79z" />
    <glyph glyph-name="uni040F" unicode="&#x40f;" horiz-adv-x="807" 
d="M366 -153v153h-256v728h70v-664h440v664h70v-728h-256v-153h-68z" />
    <glyph glyph-name="uni0410" unicode="&#x410;" horiz-adv-x="832" 
d="M48 0l335 733h66l335 -733h-76l-88 198h-411l-89 -198h-72zM237 261h355l-177 393z" />
    <glyph glyph-name="uni0411" unicode="&#x411;" horiz-adv-x="739" 
d="M110 0v728h510v-64h-441v-250h236c80.667 0 145.167 -17 193.5 -51s72.5 -83.667 72.5 -149v-2c0 -70 -26.333 -122.833 -79 -158.5s-119 -53.5 -199 -53.5h-293zM179 64h227c61.333 0 110.833 12.667 148.5 38s56.5 61 56.5 107v2c0 48 -17.833 83.333 -53.5 106
s-84.167 34 -145.5 34h-233v-287z" />
    <glyph glyph-name="uni0412" unicode="&#x412;" horiz-adv-x="761" 
d="M110 0v728h306c82.667 0 146 -21.333 190 -64c31.333 -31.333 47 -70 47 -116v-2c0 -81.333 -40 -138.333 -120 -171c106.667 -29.333 160 -87.333 160 -174v-2c0 -61.333 -23.833 -109.833 -71.5 -145.5s-111.167 -53.5 -190.5 -53.5h-321zM582 537v1.99902
c0 38.667 -14.833 69.334 -44.5 92.001s-71.5 34 -125.5 34h-233v-267h227c53.333 0 96 12 128 36s48 58.333 48 103zM623 201.999v2c0 42 -17.5 74.5 -52.5 97.5s-86.167 34.5 -153.5 34.5h-238v-273h253c58.667 0 105.167 12.333 139.5 37s51.5 58.667 51.5 102z" />
    <glyph glyph-name="uni0413" unicode="&#x413;" horiz-adv-x="649" 
d="M110 0v728h488v-64h-418v-664h-70z" />
    <glyph glyph-name="uni0414" unicode="&#x414;" horiz-adv-x="892" 
d="M45 64h68l297 669h72l297 -669h68v-217h-68v153h-666v-153h-68v217zM445 653l-259 -590h516z" />
    <glyph glyph-name="uni0415" unicode="&#x415;" horiz-adv-x="707" 
d="M110 0v728h523v-64h-453v-265h406v-64h-406v-271h458v-64h-528z" />
    <glyph glyph-name="uni0416" unicode="&#x416;" horiz-adv-x="1107" 
d="M37 728h87l294 -323h101v323h69v-323h101l294 323h87l-322 -351l329 -377h-86l-300 342h-103v-342h-69v342h-107l-298 -342h-84l329 377z" />
    <glyph glyph-name="uni0417" unicode="&#x417;" horiz-adv-x="693" 
d="M102 583l-42.001 47c84 73.333 179 110 285 110c76.667 0 138.834 -17.667 186.501 -53s71.5 -82 71.5 -140v-1c0 -42.667 -12.833 -79.334 -38.5 -110.001s-62.834 -52.667 -111.501 -66c50.667 -10.667 91 -31.167 121 -61.5s45 -67.5 45 -111.5v-2
c0 -60 -26 -109.5 -78 -148.5s-120.667 -58.5 -206 -58.5c-110.667 0 -205.667 33.333 -285 100l41 51c74.667 -59.333 156 -89 244 -89c62 0 112.833 13.833 152.5 41.5s59.5 62.5 59.5 104.5v2c0 44.667 -19.167 78.834 -57.5 102.501s-92.166 35.5 -161.499 35.5h-123v61
h124c60 0 108.667 12.333 146 37s56 60 56 106v2c0 40.667 -17 73.5 -51 98.5s-79.333 37.5 -136 37.5c-87.333 0 -168 -31.667 -242 -95z" />
    <glyph glyph-name="uni0418" unicode="&#x418;" horiz-adv-x="832" 
d="M722 0h-70v621l-486 -621h-56v728h70v-607l475 607h67v-728z" />
    <glyph glyph-name="uni0419" unicode="&#x419;" horiz-adv-x="832" 
d="M416 789c-42 0 -76.1709 9.83301 -102.504 29.5s-41.166 47.167 -44.499 82.5h55c12.667 -36 43.334 -54 92.001 -54s79.334 18 92.001 54h55c-3.33301 -35.333 -18.166 -62.833 -44.499 -82.5s-60.5 -29.5 -102.5 -29.5zM721.996 0h-70v621l-486 -621h-56v728h70v-607
l475 607h67v-728z" />
    <glyph glyph-name="uni041A" unicode="&#x41a;" horiz-adv-x="758" 
d="M110 0v728h70v-323h130l312 323h91l-344 -351l360 -377h-95l-322 341h-132v-341h-70z" />
    <glyph glyph-name="uni041B" unicode="&#x41b;" horiz-adv-x="813" 
d="M437 733l328 -733h-78l-282 643l-283 -643h-74l326 733h63z" />
    <glyph glyph-name="uni041C" unicode="&#x41c;" horiz-adv-x="913" 
d="M110 0v728h69l277 -412l277 412h70v-728h-70v609l-276 -403h-4l-275 402v-608h-68z" />
    <glyph glyph-name="uni041D" unicode="&#x41d;" horiz-adv-x="800" 
d="M110 0v728h70v-330h440v330h70v-728h-70v334h-440v-334h-70z" />
    <glyph glyph-name="uni041E" unicode="&#x41e;" horiz-adv-x="894" 
d="M446 -12c-108 0 -196.333 36.667 -265 110s-103 161.333 -103 264v2c0 102.667 34.667 191 104 265s158 111 266 111s196.333 -36.667 265 -110s103 -161.333 103 -264v-2c0 -102.667 -34.667 -191 -104 -265s-158 -111 -266 -111zM448 51c84.667 0 155 30 211 90
s84 133.667 84 221v2c0 87.333 -28.333 161.333 -85 222s-127.334 91 -212.001 91s-155 -30 -211 -90s-84 -133.667 -84 -221v-2c0 -87.333 28.333 -161.333 85 -222s127.334 -91 212.001 -91z" />
    <glyph glyph-name="uni041F" unicode="&#x41f;" horiz-adv-x="800" 
d="M110 0v728h580v-728h-70v664h-440v-664h-70z" />
    <glyph glyph-name="uni0420" unicode="&#x420;" horiz-adv-x="705" 
d="M110 0v728h269c82 0 147.833 -20.333 197.5 -61s74.5 -96 74.5 -166v-2c0 -74.667 -27.333 -132.667 -82 -174s-122.667 -62 -204 -62h-185v-263h-70zM180 327h188.999c63.333 0 114.5 15.5 153.5 46.5s58.5 71.833 58.5 122.5v2c0 53.333 -18.667 94.333 -56 123
s-87.666 43 -150.999 43h-194v-337z" />
    <glyph glyph-name="uni0421" unicode="&#x421;" horiz-adv-x="782" 
d="M441 -12c-103.333 0 -189.668 36 -259.001 108s-104 160.667 -104 266v2c0 104 34.833 192.667 104.5 266s156.834 110 261.501 110c60.667 0 112.5 -9.66699 155.5 -29s85.833 -48 128.5 -86l-48 -52c-72.667 69.333 -151.667 104 -237 104
c-83.333 0 -152.833 -30 -208.5 -90s-83.5 -133.667 -83.5 -221v-2c0 -87.333 28.167 -161.333 84.5 -222s125.833 -91 208.5 -91c48 0 90.667 9 128 27s75.333 45.333 114 82l46 -45c-42 -42 -85.5 -73.667 -130.5 -95s-98.5 -32 -160.5 -32z" />
    <glyph glyph-name="uni0422" unicode="&#x422;" horiz-adv-x="675" 
d="M303 0v663h-249v65h567v-65h-248v-663h-70z" />
    <glyph glyph-name="uni0423" unicode="&#x423;" horiz-adv-x="745" 
d="M279 0h-78l153 252l-313 476h81l270 -416l241 416h79z" />
    <glyph glyph-name="uni0424" unicode="&#x424;" horiz-adv-x="953" 
d="M441 -15v91c-117.333 1.33301 -209.166 28.333 -275.499 81s-99.5 122.667 -99.5 210v1c0 85.333 33.167 154.666 99.5 207.999s158.166 80.666 275.499 81.999v85h70v-85c118 -2.66699 210.167 -30 276.5 -82s99.5 -121.667 99.5 -209v-1
c0 -85.333 -33.333 -154.666 -100 -207.999s-158.667 -80.666 -276 -81.999v-91h-70zM138 367v-1c0 -67.333 25.833 -121.833 77.5 -163.5s127.5 -63.167 227.5 -64.5v458c-99.333 -1.33301 -175 -22.833 -227 -64.5s-78 -96.5 -78 -164.5zM814 367v1
c0 66.667 -25.833 121 -77.5 163s-127.167 63.667 -226.5 65v-458c98.667 1.33301 174 22.833 226 64.5s78 96.5 78 164.5z" />
    <glyph glyph-name="uni0425" unicode="&#x425;" horiz-adv-x="762" 
d="M616 728h81l-273 -357l284 -371h-83l-245 324l-244 -324h-81l284 371l-274 357h83l234 -310z" />
    <glyph glyph-name="uni0426" unicode="&#x426;" horiz-adv-x="812" 
d="M693 -153v153h-583v728h70v-664h440v664h70v-664h71v-217h-68z" />
    <glyph glyph-name="uni0427" unicode="&#x427;" horiz-adv-x="746" 
d="M566 0l-0.000976562 293.001c-68 -20 -135.667 -30 -203 -30c-181.333 0 -272 81 -272 243v222h70v-209c0 -68.667 16.667 -117.834 50 -147.501s86 -44.5 158 -44.5c64.667 0 130.334 10.333 197.001 31v370h70v-728h-70z" />
    <glyph glyph-name="uni0428" unicode="&#x428;" horiz-adv-x="1150" 
d="M110 0v728h70v-664h360v664h70v-664h359v664h70v-728h-929z" />
    <glyph glyph-name="uni0429" unicode="&#x429;" horiz-adv-x="1162" 
d="M110 0v728h70v-664h360v664h70v-664h359v664h70v-664h72v-217h-68v153h-933z" />
    <glyph glyph-name="uni042A" unicode="&#x42a;" horiz-adv-x="890" 
d="M295 0v664h-245v64h315v-269h198c82 0 148 -19.833 198 -59.5s75 -94.5 75 -164.5v-2c0 -73.333 -27 -130.5 -81 -171.5s-122 -61.5 -204 -61.5h-256zM365 64h189.001c62.667 0 113.667 15.167 153 45.5s59 70.5 59 120.5v2c0 52.667 -18.833 93.167 -56.5 121.5
s-87.834 42.5 -150.501 42.5h-194v-332z" />
    <glyph glyph-name="uni042B" unicode="&#x42b;" horiz-adv-x="976" 
d="M110 0v728h70v-269h198c82 0 148 -19.833 198 -59.5s75 -94.5 75 -164.5v-2c0 -73.333 -27 -130.5 -81 -171.5s-122 -61.5 -204 -61.5h-256zM180 64h189.001c62.667 0 113.667 15.167 153 45.5s59 70.5 59 120.5v2c0 52.667 -18.833 93.167 -56.5 121.5
s-87.834 42.5 -150.501 42.5h-194v-332zM796.001 0v728h70v-728h-70z" />
    <glyph glyph-name="uni042C" unicode="&#x42c;" horiz-adv-x="706" 
d="M110 0v728h70v-269h198c82 0 148 -19.833 198 -59.5s75 -94.5 75 -164.5v-2c0 -73.333 -27 -130.5 -81 -171.5s-122 -61.5 -204 -61.5h-256zM180 64h189.001c62.667 0 113.667 15.167 153 45.5s59 70.5 59 120.5v2c0 52.667 -18.833 93.167 -56.5 121.5
s-87.834 42.5 -150.501 42.5h-194v-332z" />
    <glyph glyph-name="uni042D" unicode="&#x42d;" horiz-adv-x="785" 
d="M102 575l-44.001 47.001c84.667 78.667 181.667 118 291 118c104.667 0 190.5 -35.5 257.5 -106.5s100.5 -160.167 100.5 -267.5v-2c0 -106 -34.167 -195.167 -102.5 -267.5s-156.166 -108.5 -263.499 -108.5c-112 0 -207.667 40.667 -287 122l46 48
c72.667 -71.333 153 -107 241 -107c80.667 0 148.334 27 203.001 81s84.667 122 90 204h-415v62h414c-6.66699 81.333 -36.334 148.166 -89.001 200.499s-118 78.5 -196 78.5c-89.333 0 -171.333 -34 -246 -102z" />
    <glyph glyph-name="uni042E" unicode="&#x42e;" horiz-adv-x="1140" 
d="M110 0v728h70v-330h172c8 94 45 174.5 111 241.5s147.667 100.5 245 100.5c104 0 189 -37 255 -111s99 -161.667 99 -263v-2c0 -101.333 -33.5 -189.333 -100.5 -264s-152.167 -112 -255.5 -112c-99.333 0 -181.5 33.667 -246.5 101s-100.833 149 -107.5 245h-172v-334
h-70zM708 51c80.667 0 147.832 30.5 201.499 91.5s80.5 134.167 80.5 219.5v2c0 85.333 -27 158.833 -81 220.5s-121.667 92.5 -203 92.5s-148.666 -30.333 -201.999 -91s-80 -134 -80 -220v-2c0 -86 27 -159.667 81 -221s121.667 -92 203 -92z" />
    <glyph glyph-name="uni042F" unicode="&#x42f;" horiz-adv-x="762" 
d="M80 513l0.000976562 1c0 64 24.5 115.667 73.5 155s114.5 59 196.5 59h302v-728h-70v291h-214l-228 -291h-86l236 298c-62.667 10 -113.334 33.5 -152.001 70.5s-58 85.167 -58 144.5zM582.001 354l-0.000976562 310h-236c-61.333 0 -109.333 -13.5 -144 -40.5
s-52 -63.833 -52 -110.5v-2c0 -50.667 19.333 -89.5 58 -116.5s89.334 -40.5 152.001 -40.5h222z" />
    <glyph glyph-name="uni0430" unicode="&#x430;" horiz-adv-x="610" 
d="M259 -12c-54 0 -101.333 14.833 -142 44.5s-61 70.5 -61 122.5v2c0 54.667 21 97.167 63 127.5s98 45.5 168 45.5c62.667 0 119 -7.66699 169 -23v21c0 50 -14.5 88.167 -43.5 114.5s-69.833 39.5 -122.5 39.5c-52 0 -107 -13.667 -165 -41l-21 56
c65.333 30 129.333 45 192 45c74.667 0 131.667 -19.333 171 -58c36.667 -38 55 -89.333 55 -154v-330h-66v84c-47.333 -64 -113 -96 -197 -96zM268 45c53.333 0 98.333 14.332 135 42.999s55 65.334 55 110.001v56c-60 15.333 -116.333 23 -169 23
c-52 0 -92.333 -10.333 -121 -31s-43 -49 -43 -85v-3c0 -34.667 13.833 -62.167 41.5 -82.5s61.5 -30.5 101.5 -30.5z" />
    <glyph glyph-name="uni0431" unicode="&#x431;" horiz-adv-x="680" 
d="M346 -12c-76 0 -138.334 23.667 -187.001 71c-56.667 56.667 -85 140.334 -85 251.001v1c0 96 10.667 173.833 32 233.5s52.833 104.334 94.5 134.001s96.834 50.167 165.501 61.5l174 30l12 -63l-177 -29c-78.667 -14.667 -135.334 -41.834 -170.001 -81.501
s-56 -103.5 -64 -191.5c22.667 36 53.167 64.167 91.5 84.5s81.5 30.5 129.5 30.5c76.667 0 138.334 -24.333 185.001 -73s70 -110.334 70 -185.001v-1c0 -76 -25.167 -140.5 -75.5 -193.5s-115.5 -79.5 -195.5 -79.5zM346.999 48c58.667 0 106.666 20.0029 143.999 60.0029
s56 90.667 56 152v1c0 59.333 -17.667 107.666 -53 144.999s-82 56 -140 56c-61.333 0 -111.666 -18.333 -150.999 -55s-59 -84.334 -59 -143.001c0 -64.667 19.5 -116.834 58.5 -156.501s87.167 -59.5 144.5 -59.5z" />
    <glyph glyph-name="uni0432" unicode="&#x432;" horiz-adv-x="631" 
d="M98 0v533.999h268c56 0 100 -12 132 -36s48 -57.667 48 -101c0 -62 -33 -103.333 -99 -124c80 -21.333 120 -64.666 120 -129.999c0 -45.333 -17.833 -80.5 -53.5 -105.5s-84.5 -37.5 -146.5 -37.5h-269zM478 391.999c0 26.667 -10.1689 47.667 -30.502 63
s-49.166 23 -86.499 23h-197v-180h188c40.667 0 71.834 8.5 93.501 25.5s32.5 39.833 32.5 68.5zM497.998 144.999c0 30.667 -12.168 54.667 -36.501 72s-59.166 26 -104.499 26h-193v-187h202c42 0 74.5 8 97.5 24s34.5 37.667 34.5 65z" />
    <glyph glyph-name="uni0433" unicode="&#x433;" horiz-adv-x="519" 
d="M98 0v534h385v-61h-318v-473h-67z" />
    <glyph glyph-name="uni0434" unicode="&#x434;" horiz-adv-x="685" 
d="M308 539h69l215 -478h61v-204h-62v143h-497v-143h-62v204h61zM342 472l-179 -412h356z" />
    <glyph glyph-name="uni0435" unicode="&#x435;" horiz-adv-x="622" 
d="M328 -12c-74 0 -136.669 26.001 -188.002 78.001s-77 118.667 -77 200v2c0 78 24.333 144 73 198s109.334 81 182.001 81c75.333 0 135.5 -26.833 180.5 -80.5s67.5 -120.834 67.5 -201.501c0 -11.333 -0.666992 -19.333 -2 -24h-432
c5.33301 -59.333 26.833 -106.5 64.5 -141.5s82.167 -52.5 133.5 -52.5c66.667 0 125 26.667 175 80l43 -39c-61.333 -66.667 -134.666 -100 -219.999 -100zM131.998 295.001h364c-4 54.667 -21.5 100.5 -52.5 137.5s-73.5 55.5 -127.5 55.5
c-49.333 0 -91 -18.167 -125 -54.5s-53.667 -82.5 -59 -138.5z" />
    <glyph glyph-name="uni0436" unicode="&#x436;" horiz-adv-x="906" 
d="M486 534v-234h97l202 234h83l-231 -263l238 -271h-83l-208 240h-98v-240h-66v240h-101l-206 -240h-83l238 270l-230 264h83l201 -234h98v234h66z" />
    <glyph glyph-name="uni0437" unicode="&#x437;" horiz-adv-x="587" 
d="M48 58l35.999 52.002c59.333 -42 126 -63 200 -63c51.333 0 92 9.16699 122 27.5s45 42.833 45 73.5v1c0 29.333 -14.167 52.166 -42.5 68.499s-67.166 24.5 -116.499 24.5h-122v57h121c45.333 0 81 8.66699 107 26s39 40.333 39 69v1c0 28.667 -13 51.334 -39 68.001
s-62 25 -108 25c-68.667 0 -135.334 -22.333 -200.001 -67l-35 49c73.333 51.333 152 77 236 77c67.333 0 120 -13.5 158 -40.5s57 -62.833 57 -107.5v-2c0 -32 -10.667 -58.333 -32 -79s-48 -35.667 -80 -45c36.667 -7.33301 66.834 -21.833 90.501 -43.5
s35.5 -49.834 35.5 -84.501v-1c0 -44.667 -20.833 -81.834 -62.5 -111.501s-99.167 -44.5 -172.5 -44.5c-90.667 0 -169.667 23.333 -237 70z" />
    <glyph glyph-name="uni0438" unicode="&#x438;" horiz-adv-x="673" 
d="M98 0v534h67v-435l344 435h66v-534h-67v435l-346 -435h-64z" />
    <glyph glyph-name="uni0439" unicode="&#x439;" horiz-adv-x="673" 
d="M98 0v534h67v-435l344 435h66v-534h-67v435l-346 -435h-64zM336 617c-42 0 -76.1689 10.833 -102.502 32.5s-41.166 52.167 -44.499 91.5h50c14.667 -44 47 -66 97 -66s82.333 22 97 66h50c-3.33301 -39.333 -18.166 -69.833 -44.499 -91.5s-60.5 -32.5 -102.5 -32.5z
" />
    <glyph glyph-name="uni043A" unicode="&#x43a;" horiz-adv-x="599" 
d="M165 534v-234h107l209 234h84l-237 -261l243 -273h-86l-210 240h-110v-240h-67v534h67z" />
    <glyph glyph-name="uni043B" unicode="&#x43b;" horiz-adv-x="640" 
d="M351 539l245 -539h-75l-202 455l-201 -455h-74l246 539h61z" />
    <glyph glyph-name="uni043C" unicode="&#x43c;" horiz-adv-x="763" 
d="M98 0v534h70l214 -313l213 313h70v-534h-68v427l-215 -309h-3l-215 308v-426h-66z" />
    <glyph glyph-name="uni043D" unicode="&#x43d;" horiz-adv-x="669" 
d="M98 0v534h67v-234h339v234h67v-534h-67v239h-339v-239h-67z" />
    <glyph glyph-name="uni043E" unicode="&#x43e;" horiz-adv-x="679" 
d="M339 -12c-78.667 0 -144.334 27.167 -197.001 81.5s-79 119.5 -79 195.5v2c0 76.667 26.667 142.5 80 197.5s119.333 82.5 198 82.5s144.334 -27.167 197.001 -81.5s79 -119.833 79 -196.5v-2c0 -76 -26.667 -141.5 -80 -196.5s-119.333 -82.5 -198 -82.5zM341 49
c59.333 0 108.333 20.999 147 62.999s58 93 58 153v2c0 60.667 -20 112.334 -60 155.001s-89 64 -147 64c-60 0 -109.333 -21 -148 -63s-58 -93.333 -58 -154v-2c0 -60.667 20.167 -112.167 60.5 -154.5s89.5 -63.5 147.5 -63.5z" />
    <glyph glyph-name="uni043F" unicode="&#x43f;" horiz-adv-x="667" 
d="M98 0v534h472v-534h-67v473h-338v-473h-67z" />
    <glyph glyph-name="uni0440" unicode="&#x440;" horiz-adv-x="699" 
d="M98 -166v699.999h67v-112c56 83.333 126.667 125 212 125c68 0 127.833 -25.5 179.5 -76.5s77.5 -118.167 77.5 -201.5v-2c0 -83.333 -25.833 -150.666 -77.5 -201.999s-111.5 -77 -179.5 -77c-88 0 -158.667 40 -212 120v-274h-67zM366 49.999
c56 0 102.832 19.501 140.499 58.501s56.5 91.167 56.5 156.5v2c0 64 -19.167 116.333 -57.5 157s-84.833 61 -139.5 61c-54 0 -101.5 -20.667 -142.5 -62s-61.5 -93 -61.5 -155v-2c0 -62.667 20.333 -114.334 61 -155.001s88.334 -61 143.001 -61z" />
    <glyph glyph-name="uni0441" unicode="&#x441;" horiz-adv-x="604" 
d="M336 -12c-76.667 0 -141.332 27.167 -193.999 81.5s-79 119.5 -79 195.5v2c0 76 26.5 141.667 79.5 197s117.833 83 194.5 83c79.333 0 150.333 -32.667 213 -98l-45 -47c-54.667 56 -111.334 84 -170.001 84c-57.333 0 -105.333 -21 -144 -63s-58 -93.333 -58 -154v-2
c0 -60.667 20 -112.167 60 -154.5s89 -63.5 147 -63.5c63.333 0 120 28 170 84l44 -41c-30.667 -34 -63 -59.833 -97 -77.5s-74.333 -26.5 -121 -26.5z" />
    <glyph glyph-name="uni0442" unicode="&#x442;" horiz-adv-x="577" 
d="M255 0v474h-221v60h510v-60h-222v-474h-67z" />
    <glyph glyph-name="uni0443" unicode="&#x443;" horiz-adv-x="623" 
d="M325 74l179.999 459.999h73l-228 -552c-22 -54.667 -47.167 -93.667 -75.5 -117s-62.166 -35 -101.499 -35c-37.333 0 -74.333 8.66699 -111 26l23 55c28 -13.333 57 -20 87 -20c26 0 48 8.33301 66 25s36 45.334 54 86.001l-249 532h75z" />
    <glyph glyph-name="uni0444" unicode="&#x444;" horiz-adv-x="867" 
d="M467 -166l-67 0.000976562v163c-107.333 1.33301 -190.5 27 -249.5 77s-88.5 114 -88.5 192v1c0 77.333 29.667 141.333 89 192s142.333 76.667 249 78v222h67v-222c107.333 -2.66699 190.5 -28.834 249.5 -78.501s88.5 -113.167 88.5 -190.5v-1
c0 -77.333 -29.667 -141.333 -89 -192s-142.333 -76.667 -249 -78v-163zM735 267.001v1.00195c0 62 -22.833 112.167 -68.5 150.5s-112.5 58.166 -200.5 59.499v-421c88 1.33301 154.833 21.166 200.5 59.499s68.5 88.5 68.5 150.5zM132 267.003v-1.00098
c0 -62 22.833 -112 68.5 -150s112.5 -57.667 200.5 -59v421c-88 -1.33301 -154.833 -21.166 -200.5 -59.499s-68.5 -88.833 -68.5 -151.5z" />
    <glyph glyph-name="uni0445" unicode="&#x445;" horiz-adv-x="605" 
d="M136 534l167 -216l168 216h77l-206 -260l215 -274h-80l-176 229l-176 -229h-77l214 272l-205 262h79z" />
    <glyph glyph-name="uni0446" unicode="&#x446;" horiz-adv-x="681" 
d="M570 -143v143h-472v534h67v-473h338v473h67v-473h63v-204h-63z" />
    <glyph glyph-name="uni0447" unicode="&#x447;" horiz-adv-x="620" 
d="M455 0v192.001c-57.333 -15.333 -111 -23 -161 -23c-144.667 0 -217 66.333 -217 199v166h67v-161c0 -50.667 12.5 -86.834 37.5 -108.501s64.833 -32.5 119.5 -32.5c50.667 0 102 7.66699 154 23v279h67v-534h-67z" />
    <glyph glyph-name="uni0448" unicode="&#x448;" horiz-adv-x="967" 
d="M98 0v534h67v-473h285v473h67v-473h285v473h67v-534h-771z" />
    <glyph glyph-name="uni0449" unicode="&#x449;" horiz-adv-x="981" 
d="M98 0v534h67v-473h285v473h67v-473h285v473h67v-473h63v-204h-63v143h-771z" />
    <glyph glyph-name="uni044A" unicode="&#x44a;" horiz-adv-x="712" 
d="M29 534l250 0.000976562v-189h176c64.667 0 115.5 -15.333 152.5 -46s55.5 -72.334 55.5 -125.001v-2c0 -52.667 -18.5 -94.5 -55.5 -125.5s-88.5 -46.5 -154.5 -46.5h-240v474h-184v60zM279 287.001l0.000976562 -227.999h173c94.667 0 142 37.667 142 113v1
c0 35.333 -11.833 63.166 -35.5 83.499s-58.834 30.5 -105.501 30.5h-174z" />
    <glyph glyph-name="uni044B" unicode="&#x44b;" horiz-adv-x="816" 
d="M165 534v-188.999h175c65.333 0 116.5 -15.333 153.5 -46s55.5 -72.334 55.5 -125.001v-2c0 -52.667 -18.667 -94.5 -56 -125.5s-89 -46.5 -155 -46.5h-240v534h67zM165 287.001v-227.999h172c95.333 0 143 37.667 143 113v1c0 35.333 -12 63.166 -36 83.499
s-59.333 30.5 -106 30.5h-173zM651 0.00195312v534h67v-534h-67z" />
    <glyph glyph-name="uni044C" unicode="&#x44c;" horiz-adv-x="597" 
d="M165 534v-188.999h175c65.333 0 116.5 -15.333 153.5 -46s55.5 -72.334 55.5 -125.001v-2c0 -52.667 -18.667 -94.5 -56 -125.5s-89 -46.5 -155 -46.5h-240v534h67zM165 287.001v-227.999h172c95.333 0 143 37.667 143 113v1c0 35.333 -12 63.166 -36 83.499
s-59.333 30.5 -106 30.5h-173z" />
    <glyph glyph-name="uni044D" unicode="&#x44d;" horiz-adv-x="607" 
d="M48 80l42 47c50.667 -52.667 111.667 -79 183 -79c54 0 100.333 18.667 139 56s59.334 83.333 62.001 138h-299v58h299c-5.33301 54 -26.5 98.5 -63.5 133.5s-82.833 52.5 -137.5 52.5c-66.667 0 -127.334 -25.667 -182.001 -77l-40 47c66.667 60.667 141.667 91 225 91
c77.333 0 141.333 -26.5 192 -79.5s76 -119.833 76 -200.5v-2c0 -75.333 -26 -140.333 -78 -195s-116 -82 -192 -82c-88 0 -163.333 30.667 -226 92z" />
    <glyph glyph-name="uni044E" unicode="&#x44e;" horiz-adv-x="906" 
d="M165 239l-0.00292969 -238.999h-67v534h67v-233h139c8 70 36.833 128.5 86.5 175.5s110.834 70.5 183.501 70.5c77.333 0 141.5 -27 192.5 -81s76.5 -119.667 76.5 -197v-2c0 -76.667 -25.667 -142.334 -77 -197.001s-116 -82 -194 -82
c-73.333 0 -135.166 24 -185.499 72s-78.166 107.667 -83.499 179h-138zM573.997 49.001c58 0 105.666 21.001 142.999 63.001s56 93 56 153v2c0 61.333 -19.167 113.166 -57.5 155.499s-86.166 63.5 -143.499 63.5c-58.667 0 -106.667 -20.833 -144 -62.5
s-56 -93.167 -56 -154.5v-2c0 -61.333 19.167 -113 57.5 -155s86.5 -63 144.5 -63z" />
    <glyph glyph-name="uni044F" unicode="&#x44f;" horiz-adv-x="643" 
d="M478 203l-183.001 0.000976562l-154 -203h-82l162 210c-45.333 9.33301 -80.333 27.666 -105 54.999s-37 61.666 -37 102.999v1c0 48.667 18.833 88.334 56.5 119.001s87.834 46 150.501 46h259v-534h-67v203zM477.999 477.001h-193c-41.333 0 -74.666 -10 -99.999 -30
s-38 -46 -38 -78v-1c0 -34 12.167 -60.667 36.5 -80s58.166 -29 101.499 -29h193v218z" />
    <glyph glyph-name="uni0450" unicode="&#x450;" horiz-adv-x="622" 
d="M328 -12c-74 0 -136.669 26.001 -188.002 78.001s-77 118.667 -77 200v2c0 78 24.333 144 73 198s109.334 81 182.001 81c75.333 0 135.5 -26.833 180.5 -80.5s67.5 -120.834 67.5 -201.501c0 -11.333 -0.666992 -19.333 -2 -24h-432
c5.33301 -59.333 26.833 -106.5 64.5 -141.5s82.167 -52.5 133.5 -52.5c66.667 0 125 26.667 175 80l43 -39c-61.333 -66.667 -134.666 -100 -219.999 -100zM131.998 295.001h364c-4 54.667 -21.5 100.5 -52.5 137.5s-73.5 55.5 -127.5 55.5
c-49.333 0 -91 -18.167 -125 -54.5s-53.667 -82.5 -59 -138.5zM290.998 619.001l-115 110l74 35l95 -145h-54z" />
    <glyph glyph-name="uni0451" unicode="&#x451;" horiz-adv-x="622" 
d="M364 619v92h84v-92h-84zM188 619v92h84v-92h-84zM328 -12c-74 0 -136.669 26.001 -188.002 78.001s-77 118.667 -77 200v2c0 78 24.333 144 73 198s109.334 81 182.001 81c75.333 0 135.5 -26.833 180.5 -80.5s67.5 -120.834 67.5 -201.501
c0 -11.333 -0.666992 -19.333 -2 -24h-432c5.33301 -59.333 26.833 -106.5 64.5 -141.5s82.167 -52.5 133.5 -52.5c66.667 0 125 26.667 175 80l43 -39c-61.333 -66.667 -134.666 -100 -219.999 -100zM131.998 295.001h364c-4 54.667 -21.5 100.5 -52.5 137.5
s-73.5 55.5 -127.5 55.5c-49.333 0 -91 -18.167 -125 -54.5s-53.667 -82.5 -59 -138.5z" />
    <glyph glyph-name="uni0452" unicode="&#x452;" horiz-adv-x="629" 
d="M362 599l-196.999 -0.000976562v-168c60 16 114 24 162 24c144.667 0 217 -66.333 217 -199v-218c0 -138.667 -59 -208 -177 -208c-18.667 0 -39.334 2.66699 -62.001 8v59c21.333 -5.33301 40 -8 56 -8c39.333 0 68.5 11.333 87.5 34s28.5 61.667 28.5 117v211
c0 50.667 -12.5 86.834 -37.5 108.501s-64.833 32.5 -119.5 32.5c-51.333 0 -103 -7.66699 -155 -23v-369h-67v599h-117v58h117v102h67v-102h197v-58z" />
    <glyph glyph-name="uni0453" unicode="&#x453;" horiz-adv-x="519" 
d="M245 619l95 145l74 -35l-115 -110h-54zM98 0v534h385v-61h-318v-473h-67z" />
    <glyph glyph-name="uni0454" unicode="&#x454;" horiz-adv-x="606" 
d="M551 458l-40.999 -49c-53.333 51.333 -111 77 -173 77c-53.333 0 -99.333 -17.5 -138 -52.5s-60.667 -79.5 -66 -133.5h299v-58h-300c4 -56 25.667 -102.333 65 -139s87 -55 143 -55c66 0 124.667 26.333 176 79l41 -43c-60.667 -64 -134.334 -96 -221.001 -96
c-77.333 0 -142.166 26.667 -194.499 80s-78.5 119 -78.5 197v2c0 78 26.333 144.167 79 198.5s117.667 81.5 195 81.5c83.333 0 154.666 -29.667 213.999 -89z" />
    <glyph glyph-name="uni0455" unicode="&#x455;" horiz-adv-x="528" 
d="M273 -10c-38.667 0 -77.666 7 -116.999 21s-74 33 -104 57l36 50c60 -46 122.667 -69 188 -69c34.667 0 63.167 8.5 85.5 25.5s33.5 39.167 33.5 66.5v2c0 11.333 -2.66699 21.666 -8 30.999s-11.5 17 -18.5 23s-17.667 12.167 -32 18.5s-26.333 11 -36 14
s-23.834 7.16699 -42.501 12.5c-22 6 -39.5 11.167 -52.5 15.5s-28.5 10.833 -46.5 19.5s-32 17.667 -42 27s-18.833 21.5 -26.5 36.5s-11.5 31.833 -11.5 50.5v2c0 45.333 16.667 82 50 110s76.333 42 129 42c68 0 131.667 -20 191 -60l-32 -52
c-56 35.333 -109.667 53 -161 53c-33.333 0 -60.333 -8 -81 -24s-31 -36.333 -31 -61v-2c0 -10.667 2.83301 -20.5 8.5 -29.5s12.334 -16.5 20.001 -22.5s18.667 -12 33 -18s26.833 -10.667 37.5 -14s25.334 -7.66602 44.001 -12.999
c25.333 -7.33301 46.666 -14.5 63.999 -21.5s35.166 -16.333 53.499 -28s32.333 -26 42 -43s14.5 -36.833 14.5 -59.5v-2c0 -48 -17.833 -86.333 -53.5 -115s-80.5 -43 -134.5 -43z" />
    <glyph glyph-name="uni0456" unicode="&#x456;" horiz-adv-x="277" 
d="M99 661v81h79v-81h-79zM105 0v534h67v-534h-67z" />
    <glyph glyph-name="uni0457" unicode="&#x457;" horiz-adv-x="277" 
d="M185 619v92h84v-92h-84zM9 619v92h84v-92h-84zM105 0v534h67v-534h-67z" />
    <glyph glyph-name="uni0458" unicode="&#x458;" horiz-adv-x="277" 
d="M99 661v81h79v-81h-79zM49 -170c-12.667 0 -28.333 1.66699 -47 5v57c11.333 -2.66699 25 -4 41 -4c41.333 0 62 24.333 62 73v573h67v-572c0 -88 -41 -132 -123 -132z" />
    <glyph glyph-name="uni0459" unicode="&#x459;" horiz-adv-x="876" 
d="M387 0v479.001h-3l-295 -479h-74l329 534h109v-189h165c65.333 0 116.5 -15.333 153.5 -46s55.5 -72.334 55.5 -125.001v-2c0 -52.667 -18.5 -94.5 -55.5 -125.5s-88.833 -46.5 -155.5 -46.5h-229zM453 59.001l163 0.000976562c94.667 0 142 37.667 142 113v1
c0 35.333 -12 63.166 -36 83.499s-59.333 30.5 -106 30.5h-163v-228z" />
    <glyph glyph-name="uni045A" unicode="&#x45a;" horiz-adv-x="987" 
d="M564 534v-188.999h165c65.333 0 116.5 -15.333 153.5 -46s55.5 -72.334 55.5 -125.001v-2c0 -52.667 -18.5 -94.5 -55.5 -125.5s-88.833 -46.5 -155.5 -46.5h-229v239h-333v-239h-67v534h67v-233h333v233h66zM564 287.001v-227.999h163c94.667 0 142 37.667 142 113v1
c0 35.333 -12 63.166 -36 83.499s-59.333 30.5 -106 30.5h-163z" />
    <glyph glyph-name="uni045B" unicode="&#x45b;" horiz-adv-x="629" 
d="M165 759v-102.001h197v-58h-197v-168c60 16 114 24 162 24c144.667 0 217 -66.333 217 -199v-256h-67v251c0 50.667 -12.5 86.834 -37.5 108.501s-64.833 32.5 -119.5 32.5c-51.333 0 -103 -7.66699 -155 -23v-369h-67v599h-117v58h117v102h67z" />
    <glyph glyph-name="uni045C" unicode="&#x45c;" horiz-adv-x="599" 
d="M275 619l95 145l74 -35l-115 -110h-54zM165 534v-234h107l209 234h84l-237 -261l243 -273h-86l-210 240h-110v-240h-67v534h67z" />
    <glyph glyph-name="uni045D" unicode="&#x45d;" horiz-adv-x="673" 
d="M309 619l-115 110l74 35l95 -145h-54zM98 0v534h67v-435l344 435h66v-534h-67v435l-346 -435h-64z" />
    <glyph glyph-name="uni045E" unicode="&#x45e;" horiz-adv-x="623" 
d="M325 74l179.999 459.999h73l-228 -552c-22 -54.667 -47.167 -93.667 -75.5 -117s-62.166 -35 -101.499 -35c-37.333 0 -74.333 8.66699 -111 26l23 55c28 -13.333 57 -20 87 -20c26 0 48 8.33301 66 25s36 45.334 54 86.001l-249 532h75zM314.999 616.999
c-42 0 -76.1689 10.833 -102.502 32.5s-41.166 52.167 -44.499 91.5h50c14.667 -44 47 -66 97 -66s82.333 22 97 66h50c-3.33301 -39.333 -18.166 -69.833 -44.499 -91.5s-60.5 -32.5 -102.5 -32.5z" />
    <glyph glyph-name="uni045F" unicode="&#x45f;" horiz-adv-x="667" 
d="M98 0v534h67v-473h338v473h67v-534h-205v-143h-63v143h-204z" />
    <glyph glyph-name="uni0462" unicode="&#x462;" horiz-adv-x="890" 
d="M364 394h221c80 0 141.667 -16.667 185 -50s65 -81 65 -143v-2c0 -60.667 -23.5 -109 -70.5 -145s-108.167 -54 -183.5 -54h-287v556h-244v62h244v125h70v-125h270v-62h-270v-162zM583 331l-219 -0.000976562v-268h219c56 0 100.333 12.333 133 37s49 57.334 49 98.001v1
c0 88 -60.667 132 -182 132z" />
    <glyph glyph-name="uni0463" unicode="&#x463;" horiz-adv-x="712" 
d="M280 339l177 0.000976562c64 0 114.333 -15 151 -45s55 -71 55 -123v-3c0 -50.667 -18.333 -91.334 -55 -122.001s-87.667 -46 -153 -46h-242v475h-184v59h184v225h67v-225h224v-59h-224v-136zM279 281.001v-223.002h176c46 0 80.667 9.83301 104 29.5
s35 46.834 35 81.501v1c0 34.667 -11.667 61.834 -35 81.501s-58 29.5 -104 29.5h-176z" />
    <glyph glyph-name="uni0472" unicode="&#x472;" horiz-adv-x="893" 
d="M445 -12c-107.333 0 -195.333 36.667 -264 110s-103 161.333 -103 264v2c0 102.667 34.667 191 104 265s158 111 266 111c107.333 0 195.333 -36.667 264 -110s103 -161.333 103 -264v-2c0 -102.667 -34.667 -191 -104 -265s-158 -111 -266 -111zM448 50
c81.333 0 149.33 27 203.997 81s85.334 121.667 92.001 203h-594c6.66699 -81.333 37.834 -149 93.501 -203s123.834 -81 204.501 -81zM444.997 678c-80 0 -147.5 -26.667 -202.5 -80s-85.833 -120 -92.5 -200h593c-8 80 -39.667 146.667 -95 200s-123 80 -203 80z" />
    <glyph glyph-name="uni0473" unicode="&#x473;" horiz-adv-x="678" 
d="M338 -12c-78.667 0 -144.168 27.167 -196.501 81.5s-78.5 119.5 -78.5 195.5v2c0 76.667 26.5 142.5 79.5 197.5s118.833 82.5 197.5 82.5s144.334 -27.167 197.001 -81.5s79 -119.833 79 -196.5v-2c0 -76 -26.667 -141.5 -80 -196.5s-119.333 -82.5 -198 -82.5z
M339.999 47c56 0 103.333 18.5 142 55.5s60.667 83.167 66 138.5h-417c5.33301 -56 28 -102.333 68 -139s87 -55 141 -55zM337.999 487c-55.333 0 -101.999 -17.832 -139.999 -53.499s-60.333 -80.834 -67 -135.501h416c-6.66699 54 -29.834 99 -69.501 135
s-86.167 54 -139.5 54z" />
    <glyph glyph-name="uni0474" unicode="&#x474;" horiz-adv-x="829" 
d="M363 -5l-315.001 733h77l271 -646l195 474c27.333 66.667 56.833 112.5 88.5 137.5s73.834 37.5 126.501 37.5h11v-63h-6c-37.333 0 -67.833 -9.83301 -91.5 -29.5s-46.167 -54.5 -67.5 -104.5l-227 -539h-62z" />
    <glyph glyph-name="uni0475" unicode="&#x475;" horiz-adv-x="627" 
d="M269 -4l-225.002 538.001h76l179 -458l125 307c23.333 58.667 48.5 99.167 75.5 121.5s61.833 33.5 104.5 33.5h7v-60h-1c-27.333 0 -50.166 -7.83301 -68.499 -23.5s-37.166 -45.834 -56.499 -90.501l-157 -368h-59z" />
    <glyph glyph-name="uni0490" unicode="&#x490;" horiz-adv-x="649" 
d="M110 728h420v146h68v-210h-418v-664h-70v728z" />
    <glyph glyph-name="uni0491" unicode="&#x491;" horiz-adv-x="519" 
d="M98 0v534h322v139h63v-200h-318v-473h-67z" />
    <glyph glyph-name="uni0492" unicode="&#x492;" horiz-adv-x="681" 
d="M141 0v326h-78v59h78v343h488v-64h-418v-279h204v-59h-204v-326h-70z" />
    <glyph glyph-name="uni0493" unicode="&#x493;" horiz-adv-x="538" 
d="M117 0v229h-73v53h73v252h385v-61h-318v-191h152v-53h-152v-229h-67z" />
    <glyph glyph-name="uni0496" unicode="&#x496;" horiz-adv-x="1121" 
d="M1070 728l-322 -351l273 -313h81v-217h-68v153h-43l-300 342h-103v-342h-69v342h-107l-298 -342h-84l329 377l-322 351h87l294 -323h101v323h69v-323h101l294 323h87z" />
    <glyph glyph-name="uni0497" unicode="&#x497;" horiz-adv-x="915" 
d="M868 534l-231 -263l184 -210h78v-204h-63v143h-44l-208 240h-98v-240h-66v240h-101l-206 -240h-83l238 270l-230 264h83l201 -234h98v234h66v-234h97l202 234h83z" />
    <glyph glyph-name="uni0498" unicode="&#x498;" horiz-adv-x="691" 
d="M100 583l-42.001 47c84 73.333 179 110 285 110c76.667 0 138.834 -17.667 186.501 -53s71.5 -82 71.5 -140v-1c0 -42.667 -12.833 -79.334 -38.5 -110.001s-62.834 -52.667 -111.501 -66c50.667 -10.667 91 -31.167 121 -61.5s45 -67.5 45 -111.5v-2
c0 -56 -22.667 -103 -68 -141s-106.333 -59.667 -183 -65l1 -142h-68l1 142c-95.333 6 -179.333 39 -252 99l41 51c74.667 -59.333 156 -89 244 -89c62 0 112.833 13.833 152.5 41.5s59.5 62.5 59.5 104.5v2c0 44.667 -19.167 78.834 -57.5 102.501
s-92.166 35.5 -161.499 35.5h-123v61h124c60 0 108.667 12.333 146 37s56 60 56 106v2c0 40.667 -17 73.5 -51 98.5s-79.333 37.5 -136 37.5c-87.333 0 -168 -31.667 -242 -95z" />
    <glyph glyph-name="uni0499" unicode="&#x499;" horiz-adv-x="587" 
d="M48 58l35.999 52.001c59.333 -42 126 -63 200 -63c51.333 0 92 9.16699 122 27.5s45 42.833 45 73.5v1c0 29.333 -14.167 52.166 -42.5 68.499s-67.166 24.5 -116.499 24.5h-122v57h121c45.333 0 81 8.66699 107 26s39 40.333 39 69v1c0 28.667 -13 51.334 -39 68.001
s-62 25 -108 25c-68.667 0 -135.334 -22.333 -200.001 -67l-35 49c73.333 51.333 152 77 236 77c67.333 0 120 -13.5 158 -40.5s57 -62.833 57 -107.5v-2c0 -32 -10.667 -58.333 -32 -79s-48 -35.667 -80 -45c36.667 -7.33301 66.834 -21.833 90.501 -43.5
s35.5 -49.834 35.5 -84.501v-1c0 -41.333 -18.333 -76.5 -55 -105.5s-87 -45.5 -151 -49.5l2 -132h-63l1 132c-83.333 7.33301 -152 30.333 -206 69z" />
    <glyph glyph-name="uni049A" unicode="&#x49a;" horiz-adv-x="769" 
d="M110 0v728h70v-323h130l312 323h91l-344 -351l299 -313h82v-217h-68v153h-48l-322 341h-132v-341h-70z" />
    <glyph glyph-name="uni049B" unicode="&#x49b;" horiz-adv-x="603" 
d="M165 534v-234h107l209 234h84l-237 -261l189 -212h71v-204h-63v143h-40l-210 240h-110v-240h-67v534h67z" />
    <glyph glyph-name="uni049C" unicode="&#x49c;" horiz-adv-x="785" 
d="M738 728l-293 -352l306 -376h-88l-273 336h-8l1 -231h-58v231h-145v-336h-70v728h70v-329h145v235h58l-1 -235h2l267 329h87z" />
    <glyph glyph-name="uni049D" unicode="&#x49d;" horiz-adv-x="646" 
d="M607 534l-218 -255l218 -279h-81l-189 245h-28v-164h-52v164h-92v-245h-67v534h67v-232h92v163h52v-163h26l190 232h82z" />
    <glyph glyph-name="uni04A0" unicode="&#x4a0;" horiz-adv-x="942" 
d="M50 664v64h315v-323h130l312 323h91l-344 -351l360 -377h-95l-322 341h-132v-341h-70v664h-245z" />
    <glyph glyph-name="uni04A1" unicode="&#x4a1;" horiz-adv-x="714" 
d="M280 534v-234h107l209 234h84l-237 -261l243 -273h-86l-210 240h-110v-240h-67v474h-184v60h251z" />
    <glyph glyph-name="uni04A2" unicode="&#x4a2;" horiz-adv-x="813" 
d="M110 0v728h70v-330h440v330h70v-664h72v-217h-68v153h-74v334h-440v-334h-70z" />
    <glyph glyph-name="uni04A3" unicode="&#x4a3;" horiz-adv-x="683" 
d="M97 0v534h67v-234h339v234h67v-473h65v-204h-63v143h-69v239h-339v-239h-67z" />
    <glyph glyph-name="uni04A4" unicode="&#x4a4;" horiz-adv-x="1075" 
d="M573 0v334h-430v-334h-70v728h70v-330h430v330h450v-64h-380v-664h-70z" />
    <glyph glyph-name="uni04A5" unicode="&#x4a5;" horiz-adv-x="909" 
d="M498 0v239h-333v-239h-67v534h67v-233h333v233h374v-61h-308v-473h-66z" />
    <glyph glyph-name="uni04AA" unicode="&#x4aa;" horiz-adv-x="782" 
d="M405 -153l0.999023 142.999c-94.667 8 -173 47.333 -235 118s-93 155.334 -93 254.001v2c0 104 34.833 192.667 104.5 266s156.834 110 261.501 110c60.667 0 112.5 -9.66699 155.5 -29s85.833 -48 128.5 -86l-48 -52c-72.667 69.333 -151.667 104 -237 104
c-83.333 0 -152.833 -30 -208.5 -90s-83.5 -133.667 -83.5 -221v-2c0 -87.333 28.167 -161.333 84.5 -222s125.833 -91 208.5 -91c48 0 90.667 9 128 27s75.333 45.333 114 82l46 -45c-78 -78 -165 -120 -261 -126l2 -142h-68z" />
    <glyph glyph-name="uni04AB" unicode="&#x4ab;" horiz-adv-x="604" 
d="M300 -143l1.00098 133c-68 8 -124.667 38.5 -170 91.5s-68 114.167 -68 183.5v2c0 76 26.5 141.667 79.5 197s117.833 83 194.5 83c79.333 0 150.333 -32.667 213 -98l-45 -47c-54.667 56 -111.334 84 -170.001 84c-57.333 0 -105.333 -21 -144 -63s-58 -93.333 -58 -154
v-2c0 -60.667 20 -112.167 60 -154.5s89 -63.5 147 -63.5c63.333 0 120 28 170 84l44 -41c-54.667 -62.667 -118.667 -97 -192 -103l1 -132h-63z" />
    <glyph glyph-name="uni04AE" unicode="&#x4ae;" horiz-adv-x="755" 
d="M342 0v288l-307 440h86l257 -376l259 376h82l-307 -439v-289h-70z" />
    <glyph glyph-name="uni04AF" unicode="&#x4af;" horiz-adv-x="618" 
d="M574 534l-232 -527v-173h-67v175l-231 525h76l189 -455l191 455h74z" />
    <glyph glyph-name="uni04B0" unicode="&#x4b0;" horiz-adv-x="755" 
d="M342 0v238h-195v59h188l-300 431h86l257 -376l259 376h82l-302 -431h189v-59h-194v-238h-70z" />
    <glyph glyph-name="uni04B1" unicode="&#x4b1;" horiz-adv-x="618" 
d="M514 53v-53h-172v-166h-67v166h-171v53h151l-211 481h76l189 -455l191 455h74l-212 -481h152z" />
    <glyph glyph-name="uni04B2" unicode="&#x4b2;" horiz-adv-x="773" 
d="M616 728h81l-273 -357l235 -307h79v-217h-68v153h-45l-245 324l-244 -324h-81l284 371l-274 357h83l234 -310z" />
    <glyph glyph-name="uni04B3" unicode="&#x4b3;" horiz-adv-x="607" 
d="M136 534l167 -216l168 216h77l-206 -260l167 -213h72v-204h-63v143h-41l-176 229l-176 -229h-77l214 272l-205 262h79z" />
    <glyph glyph-name="uni04B6" unicode="&#x4b6;" horiz-adv-x="759" 
d="M566 0l-0.000976562 293.001c-68 -20 -135.667 -30 -203 -30c-181.333 0 -272 81 -272 243v222h70v-209c0 -68.667 16.667 -117.834 50 -147.501s86 -44.5 158 -44.5c64.667 0 130.334 10.333 197.001 31v370h70v-664h72v-217h-68v153h-74z" />
    <glyph glyph-name="uni04B7" unicode="&#x4b7;" horiz-adv-x="634" 
d="M455 0v192.001c-57.333 -15.333 -111 -23 -161 -23c-144.667 0 -217 66.333 -217 199v166h67v-161c0 -50.667 12.5 -86.834 37.5 -108.501s64.833 -32.5 119.5 -32.5c50.667 0 102 7.66699 154 23v279h67v-473h64v-204h-63v143h-68z" />
    <glyph glyph-name="uni04B8" unicode="&#x4b8;" horiz-adv-x="741" 
d="M561 0v293.002c-52 -16 -108.667 -25.667 -170 -29l1 -176h-59l1 175c-165.333 5.33301 -248 86.333 -248 243v222h70v-209c0 -64.667 14.333 -111.834 43 -141.501s73.667 -46.167 135 -49.5l-1 234h59l-1 -235c60 3.33301 116.667 13.666 170 30.999v370h70v-728h-70z
" />
    <glyph glyph-name="uni04B9" unicode="&#x4b9;" horiz-adv-x="620" 
d="M455 0v191.999c-38.667 -11.333 -81.667 -18.666 -129 -21.999v-114h-52v113c-131.333 6 -197 71.333 -197 196v169h67v-157c0 -48.667 10.667 -84 32 -106s54 -34.667 98 -38v163h52v-164c45.333 3.33301 88.333 11 129 23v279h67v-534h-67z" />
    <glyph glyph-name="uni04BA" unicode="&#x4ba;" horiz-adv-x="741" 
d="M169 728v-294.001c70 20.667 138 31 204 31c180.667 0 271 -81 271 -243v-222h-70v209c0 68.667 -16.5 117.834 -49.5 147.501s-85.5 44.5 -157.5 44.5c-62.667 0 -128.667 -10.667 -198 -32v-369h-70v728h70z" />
    <glyph glyph-name="uni04BB" unicode="&#x4bb;" horiz-adv-x="649" 
d="M98 0l0.000976562 758.999h67v-320c42 72 104.333 108 187 108c64.667 0 115.667 -20 153 -60s56 -92.333 56 -157v-330h-67v314c0 52.667 -14 94.334 -42 125.001s-66.667 46 -116 46c-48.667 0 -89.334 -16.667 -122.001 -50s-49 -76 -49 -128v-307h-67z" />
    <glyph glyph-name="uni04C0" unicode="&#x4c0;" horiz-adv-x="305" 
d="M117 0v728h70v-728h-70z" />
    <glyph glyph-name="uni04C1" unicode="&#x4c1;" horiz-adv-x="1107" 
d="M554 792c-42 0 -76.1709 9.83301 -102.504 29.5s-41.166 47.167 -44.499 82.5h55c12.667 -36 43.334 -54 92.001 -54s79.334 18 92.001 54h55c-3.33301 -35.333 -18.166 -62.833 -44.499 -82.5s-60.5 -29.5 -102.5 -29.5zM36.9961 728h87l294 -323h101v323h69v-323h101
l294 323h87l-322 -351l329 -377h-86l-300 342h-103v-342h-69v342h-107l-298 -342h-84l329 377z" />
    <glyph glyph-name="uni04C2" unicode="&#x4c2;" horiz-adv-x="906" 
d="M486 534v-234h97l202 234h83l-231 -263l238 -271h-83l-208 240h-98v-240h-66v240h-101l-206 -240h-83l238 270l-230 264h83l201 -234h98v234h66zM453 617c-42 0 -76.1689 10.833 -102.502 32.5s-41.166 52.167 -44.499 91.5h50c14.667 -44 47 -66 97 -66s82.333 22 97 66
h50c-3.33301 -39.333 -18.166 -69.833 -44.499 -91.5s-60.5 -32.5 -102.5 -32.5z" />
    <glyph glyph-name="uni04CF" unicode="&#x4cf;" horiz-adv-x="277" 
d="M105 0v759h67v-759h-67z" />
    <glyph glyph-name="uni04D0" unicode="&#x4d0;" horiz-adv-x="832" 
d="M48 0l335 733h66l335 -733h-76l-88 198h-411l-89 -198h-72zM237 261h355l-177 393zM416 802c-42 0 -76.1709 9.83301 -102.504 29.5s-41.166 47.167 -44.499 82.5h55c12.667 -36 43.334 -54 92.001 -54s79.334 18 92.001 54h55
c-3.33301 -35.333 -18.166 -62.833 -44.499 -82.5s-60.5 -29.5 -102.5 -29.5z" />
    <glyph glyph-name="uni04D1" unicode="&#x4d1;" horiz-adv-x="610" 
d="M259 -12c-54 0 -101.333 14.833 -142 44.5s-61 70.5 -61 122.5v2c0 54.667 21 97.167 63 127.5s98 45.5 168 45.5c62.667 0 119 -7.66699 169 -23v21c0 50 -14.5 88.167 -43.5 114.5s-69.833 39.5 -122.5 39.5c-52 0 -107 -13.667 -165 -41l-21 56
c65.333 30 129.333 45 192 45c74.667 0 131.667 -19.333 171 -58c36.667 -38 55 -89.333 55 -154v-330h-66v84c-47.333 -64 -113 -96 -197 -96zM268 45c53.333 0 98.333 14.332 135 42.999s55 65.334 55 110.001v56c-60 15.333 -116.333 23 -169 23
c-52 0 -92.333 -10.333 -121 -31s-43 -49 -43 -85v-3c0 -34.667 13.833 -62.167 41.5 -82.5s61.5 -30.5 101.5 -30.5zM305 616.999c-42 0 -76.1689 10.833 -102.502 32.5s-41.166 52.167 -44.499 91.5h50c14.667 -44 47 -66 97 -66s82.333 22 97 66h50
c-3.33301 -39.333 -18.166 -69.833 -44.499 -91.5s-60.5 -32.5 -102.5 -32.5z" />
    <glyph glyph-name="uni04D2" unicode="&#x4d2;" horiz-adv-x="832" 
d="M48 0l335 733h66l335 -733h-76l-88 198h-411l-89 -198h-72zM237 261h355l-177 393zM468 804v87h87v-87h-87zM278 804v87h88v-87h-88z" />
    <glyph glyph-name="uni04D3" unicode="&#x4d3;" horiz-adv-x="610" 
d="M259 -12c-54 0 -101.333 14.833 -142 44.5s-61 70.5 -61 122.5v2c0 54.667 21 97.167 63 127.5s98 45.5 168 45.5c62.667 0 119 -7.66699 169 -23v21c0 50 -14.5 88.167 -43.5 114.5s-69.833 39.5 -122.5 39.5c-52 0 -107 -13.667 -165 -41l-21 56
c65.333 30 129.333 45 192 45c74.667 0 131.667 -19.333 171 -58c36.667 -38 55 -89.333 55 -154v-330h-66v84c-47.333 -64 -113 -96 -197 -96zM268 45c53.333 0 98.333 14.332 135 42.999s55 65.334 55 110.001v56c-60 15.333 -116.333 23 -169 23
c-52 0 -92.333 -10.333 -121 -31s-43 -49 -43 -85v-3c0 -34.667 13.833 -62.167 41.5 -82.5s61.5 -30.5 101.5 -30.5zM351 618.999v92h84v-92h-84zM175 618.999v92h84v-92h-84z" />
    <glyph glyph-name="uni04D4" unicode="&#x4d4;" horiz-adv-x="1097" 
d="M24 0l434 728h565v-64h-436v-265h389v-64h-389v-271h441v-64h-511v198h-302l-117 -198h-74zM251 261h266v405h-26z" />
    <glyph glyph-name="uni04D5" unicode="&#x4d5;" horiz-adv-x="1002" 
d="M257 -12c-54.667 0 -101.835 14.835 -141.502 44.502s-59.5 70.5 -59.5 122.5v2c0 54.667 20.667 97.167 62 127.5s96 45.5 164 45.5c58 0 112 -7.66699 162 -23v21c0 50 -13.667 88.167 -41 114.5s-67 39.5 -119 39.5c-48 0 -101 -13.667 -159 -41l-21 56
c64 30 126 45 186 45c106 0 172.333 -41 199 -123c22 39.333 51.333 70.5 88 93.5s77.334 34.5 122.001 34.5c74.667 0 134.334 -26.833 179.001 -80.5s67 -120.834 67 -201.501c0 -8.66699 -0.333008 -16.667 -1 -24h-432c5.33301 -60 26.5 -107.333 63.5 -142
s81.5 -52 133.5 -52c68 0 126.333 26.667 175 80l44 -39c-30 -32.667 -62.167 -57.5 -96.5 -74.5s-75.833 -25.5 -124.5 -25.5c-44 0 -84.667 9.66699 -122 29s-68 46.666 -92 81.999c-68 -74 -146.667 -111 -236 -111zM511.999 295.002h364
c-4 54.667 -21.5 100.5 -52.5 137.5s-73.5 55.5 -127.5 55.5c-49.333 0 -91 -18.167 -125 -54.5s-53.667 -82.5 -59 -138.5zM263.999 45.002c76 0 143.333 34.333 202 103c-13.333 34 -21 69.667 -23 107c-57.333 14.667 -110 22 -158 22
c-51.333 0 -90.833 -10.333 -118.5 -31s-41.5 -49 -41.5 -85v-3c0 -34.667 13.333 -62.167 40 -82.5s59.667 -30.5 99 -30.5z" />
    <glyph glyph-name="uni04D6" unicode="&#x4d6;" horiz-adv-x="707" 
d="M373 792c-42 0 -76.1709 9.83301 -102.504 29.5s-41.166 47.167 -44.499 82.5h55c12.667 -36 43.334 -54 92.001 -54s79.334 18 92.001 54h55c-3.33301 -35.333 -18.166 -62.833 -44.499 -82.5s-60.5 -29.5 -102.5 -29.5zM109.996 0v728h523v-64h-453v-265h406v-64h-406
v-271h458v-64h-528z" />
    <glyph glyph-name="uni04D7" unicode="&#x4d7;" horiz-adv-x="622" 
d="M328 -12c-74 0 -136.669 26.001 -188.002 78.001s-77 118.667 -77 200v2c0 78 24.333 144 73 198s109.334 81 182.001 81c75.333 0 135.5 -26.833 180.5 -80.5s67.5 -120.834 67.5 -201.501c0 -11.333 -0.666992 -19.333 -2 -24h-432
c5.33301 -59.333 26.833 -106.5 64.5 -141.5s82.167 -52.5 133.5 -52.5c66.667 0 125 26.667 175 80l43 -39c-61.333 -66.667 -134.666 -100 -219.999 -100zM131.998 295.001h364c-4 54.667 -21.5 100.5 -52.5 137.5s-73.5 55.5 -127.5 55.5
c-49.333 0 -91 -18.167 -125 -54.5s-53.667 -82.5 -59 -138.5zM317.998 617.001c-42 0 -76.1689 10.833 -102.502 32.5s-41.166 52.167 -44.499 91.5h50c14.667 -44 47 -66 97 -66s82.333 22 97 66h50c-3.33301 -39.333 -18.166 -69.833 -44.499 -91.5
s-60.5 -32.5 -102.5 -32.5z" />
    </font>
</defs>
</svg>
