<?xml version="1.0" standalone="no"?>
<!DOCTYPE svg PUBLIC "-//W3C//DTD SVG 1.1//EN" "http://www.w3.org/Graphics/SVG/1.1/DTD/svg11.dtd" >
<svg>
<metadata>
Created by FontForge 20090914 at Tue Nov 23 13:52:35 2021
 By www-data
Copyright (C) 2001, 2016 Hoefler &#38; Co. http://www.typography.com |DCNT
</metadata>
<defs>
<font id="GothamOffice-Bold" horiz-adv-x="528" >
  <font-face 
    font-family="Gotham Office"
    font-weight="700"
    font-stretch="normal"
    units-per-em="1000"
    panose-1="2 0 0 0 0 0 0 0 0 0"
    ascent="800"
    descent="-200"
    x-height="556"
    cap-height="728"
    bbox="-233 -303.001 1179 1056"
    underline-thickness="50"
    underline-position="-200"
    unicode-range="U+0020-U+FB04"
  />
<missing-glyph horiz-adv-x="500" 
d="M0 -200v1000h500v-1000h-500zM71 750l179 -390l179 390h-358zM50 -76l172 376l-172 376v-752zM450 676l-172 -376l172 -376v752zM250 240l-179 -390h358z" />
    <glyph glyph-name="f_f" unicode="ff" horiz-adv-x="800" 
d="M104 0v426.001h-67v125h67v36c0 59.333 14.667 104.666 44 135.999c28.667 28.667 71 43 127 43c42 0 79 -5 111 -15v-126c-26 8.66699 -50.333 13 -73 13c-40 0 -60 -21.333 -60 -64v-24h132v-124h-130v-426h-151zM500 0.000976562v426.001h-67v125h67v36
c0 59.333 14.667 104.666 44 135.999c28.667 28.667 71 43 127 43c42 0 79 -5 111 -15v-126c-26 8.66699 -50.333 13 -73 13c-40 0 -60 -21.333 -60 -64v-24h132v-124h-130v-426h-151z" />
    <glyph glyph-name="fi" unicode="fi" horiz-adv-x="715" 
d="M104 0v426.001h-67v125h67v36c0 59.333 14.667 104.666 44 135.999c28.667 28.667 71 43 127 43c42 0 79 -5 111 -15v-126c-26 8.66699 -50.333 13 -73 13c-40 0 -60 -21.333 -60 -64v-24h132v-124h-130v-426h-151zM475 622.001v136h160v-136h-160zM480 0.000976562v556
h151v-556h-151z" />
    <glyph glyph-name="fl" unicode="fl" horiz-adv-x="715" 
d="M104 0v426.001h-67v125h67v36c0 59.333 14.667 104.666 44 135.999c28.667 28.667 71 43 127 43c42 0 79 -5 111 -15v-126c-26 8.66699 -50.333 13 -73 13c-40 0 -60 -21.333 -60 -64v-24h132v-124h-130v-426h-151zM480 0.000976562v759h151v-759h-151z" />
    <glyph glyph-name="f_f_i" unicode="ffi" horiz-adv-x="1111" 
d="M104 0v426.001h-67v125h67v36c0 59.333 14.667 104.666 44 135.999c28.667 28.667 71 43 127 43c42 0 79 -5 111 -15v-126c-26 8.66699 -50.333 13 -73 13c-40 0 -60 -21.333 -60 -64v-24h132v-124h-130v-426h-151zM500 0.000976562v426.001h-67v125h67v36
c0 59.333 14.667 104.666 44 135.999c28.667 28.667 71 43 127 43c42 0 79 -5 111 -15v-126c-26 8.66699 -50.333 13 -73 13c-40 0 -60 -21.333 -60 -64v-24h132v-124h-130v-426h-151zM871 622.002v136h160v-136h-160zM876 0.00195312v556h151v-556h-151z" />
    <glyph glyph-name="f_f_l" unicode="ffl" horiz-adv-x="1111" 
d="M104 0v426.001h-67v125h67v36c0 59.333 14.667 104.666 44 135.999c28.667 28.667 71 43 127 43c42 0 79 -5 111 -15v-126c-26 8.66699 -50.333 13 -73 13c-40 0 -60 -21.333 -60 -64v-24h132v-124h-130v-426h-151zM500 0.000976562v426.001h-67v125h67v36
c0 59.333 14.667 104.666 44 135.999c28.667 28.667 71 43 127 43c42 0 79 -5 111 -15v-126c-26 8.66699 -50.333 13 -73 13c-40 0 -60 -21.333 -60 -64v-24h132v-124h-130v-426h-151zM876 0.00195312v759h151v-759h-151z" />
    <glyph glyph-name=".notdef" horiz-adv-x="500" 
d="M0 -200v1000h500v-1000h-500zM71 750l179 -390l179 390h-358zM50 -76l172 376l-172 376v-752zM450 676l-172 -376l172 -376v752zM250 240l-179 -390h358z" />
    <glyph glyph-name="space" unicode=" " horiz-adv-x="322" 
 />
    <glyph glyph-name="exclam" unicode="!" horiz-adv-x="340" 
d="M128 244l-47 460v24h178v-24l-47 -460h-84zM89 0v162h162v-162h-162z" />
    <glyph glyph-name="quotedbl" unicode="&#x22;" horiz-adv-x="630" 
d="M352 400l41 328h169v-5l-133 -323h-77zM99 400l41 328h168v-5l-132 -323h-77z" />
    <glyph glyph-name="numbersign" unicode="#" horiz-adv-x="630" 
d="M33 283h90l25 166h-84v122h102l23 157h115l-23 -157h127l24 157h115l-23 -157h73v-122h-91l-25 -166h85v-122h-103l-23 -161h-115l23 161h-127l-24 -161h-115l23 161h-72v122zM260 453l-25 -174h134l25 174h-134z" />
    <glyph glyph-name="dollar" unicode="$" horiz-adv-x="630" 
d="M431 811l-12.002 -92.001c52.667 -11.333 102 -32 148 -62l-56 -111c-37.333 24.667 -74.666 42.667 -111.999 54l-21 -180c68.667 -20 119.334 -46.667 152.001 -80s49 -75.666 49 -126.999v-1c0 -65.333 -22.833 -117.333 -68.5 -156s-105.167 -58 -178.5 -58v-1
l-16 -120h-99l16 131c-68 14 -132.667 43 -194 87l63 109c50.667 -38 100.667 -64 150 -78l23 187c-70.667 20.667 -122 46.667 -154 78s-48 73.333 -48 126v1c0 65.333 22.833 117 68.5 155s105.167 57 178.5 57h1l10 81h100zM446.998 201.999l0.000976562 1
c0 37.333 -28.333 66 -85 86l-21 -174h1c34 1.33301 60.167 9.33301 78.5 24s27.166 35.667 26.499 63zM204.999 528.999l-0.000976562 -0.998047c0 -18.667 6.33301 -34.834 19 -48.501s35 -25.834 67 -36.501l21 171h-1c-34.667 0 -61.167 -7.66699 -79.5 -23
s-27.166 -36 -26.499 -62z" />
    <glyph glyph-name="percent" unicode="%" horiz-adv-x="630" 
d="M154 734c38 0 68.333 -16.667 91 -50s34 -79 34 -137v-10c0 -58 -11.333 -103.667 -34 -137s-53 -50 -91 -50c-37.333 0 -67.333 16.667 -90 50s-34 79 -34 137v10c0 58 11.333 103.667 34 137s52.667 50 90 50zM154 654c-27.333 0 -41 -34.333 -41 -103v-18
c0 -68.667 13.667 -103 41 -103c28 0 42 34.333 42 103v18c0 68.667 -14 103 -42 103zM456 728h78l-197 -377l-163 -351h-78l197 377zM476 378c37.333 0 67.333 -16.667 90 -50s34 -79 34 -137v-10c0 -58 -11.333 -103.667 -34 -137s-52.667 -50 -90 -50
c-38 0 -68.333 16.667 -91 50s-34 79 -34 137v10c0 58 11.333 103.667 34 137s53 50 91 50zM476 298c-28 0 -42 -34.333 -42 -103v-18c0 -68.667 14 -103 42 -103c27.333 0 41 34.333 41 103v18c0 68.667 -13.667 103 -41 103z" />
    <glyph glyph-name="ampersand" unicode="&#x26;" horiz-adv-x="732" 
d="M585 -15l-85.999 87.999c-65.333 -55.333 -137.333 -83 -216 -83c-70.667 0 -128.834 19 -174.501 57s-68.5 88.667 -68.5 152v2c0 90 48.333 157 145 201c-35.333 48.667 -53 97.667 -53 147v2c0 52 19.667 96.5 59 133.5s92.333 55.5 159 55.5
c60.667 0 109.667 -17.333 147 -52s56 -77.667 56 -129v-2c0 -87.333 -51.667 -150.666 -155 -189.999l103 -103c30.667 49.333 54.667 92 72 128l113 -62c-34 -63.333 -66 -115.333 -96 -156l108 -109zM318.001 447.999c34 12 59.167 26 75.5 42s24.5 35.333 24.5 58v2
c0 21.333 -6.5 38.333 -19.5 51s-30.167 19 -51.5 19c-22.667 0 -40.667 -7 -54 -21s-20 -32.333 -20 -55v-2c0 -28.667 15 -60 45 -94zM301.001 115.999c37.333 0 74.667 15.333 112 46l-144 146c-49.333 -25.333 -74 -59 -74 -101v-2
c0 -26.667 9.83301 -48.167 29.5 -64.5s45.167 -24.5 76.5 -24.5z" />
    <glyph glyph-name="quotesingle" unicode="'" horiz-adv-x="315" 
d="M67 400l42 328h170v-5l-132 -323h-80z" />
    <glyph glyph-name="parenleft" unicode="(" horiz-adv-x="470" 
d="M421 -46l-66.999 -101.001c-96.667 52.667 -168.834 115.167 -216.501 187.5s-71.5 158.166 -71.5 257.499v1c0 98.667 23.833 184.334 71.5 257.001s119.834 135.334 216.501 188.001l67 -101c-72 -50.667 -124 -102.5 -156 -155.5s-48 -116.167 -48 -189.5v-1
c0 -72 16.167 -135.167 48.5 -189.5s84.166 -105.5 155.499 -153.5z" />
    <glyph glyph-name="parenright" unicode=")" horiz-adv-x="470" 
d="M116 -147l-67.001 101.001c72 50.667 124 102.5 156 155.5s48 115.833 48 188.5v1c0 72.667 -16.167 136.167 -48.5 190.5s-84.166 105.5 -155.499 153.5l67 101c96.667 -52.667 168.834 -115.334 216.501 -188.001s71.5 -158.667 71.5 -258v-1
c0 -98.667 -23.833 -184.167 -71.5 -256.5s-119.834 -134.833 -216.501 -187.5z" />
    <glyph glyph-name="asterisk" unicode="*" horiz-adv-x="455" 
d="M186 389l16 125l-101 -77l-42 73l116 50l-116 49l42 73l101 -77l-16 125h83l-16 -125l101 77l43 -73l-117 -49l117 -50l-43 -73l-101 77l16 -125h-83z" />
    <glyph glyph-name="plus" unicode="+" horiz-adv-x="630" 
d="M566 300l-184 1l1 -186h-136l1 186l-184 -1v132l184 -1l-1 186h136l-1 -186l184 1v-132z" />
    <glyph glyph-name="comma" unicode="," horiz-adv-x="315" 
d="M53 -165l-12.999 62.999c71.333 8 104.333 42 99 102h-65v166h168v-141c0 -64.667 -15.833 -112.167 -47.5 -142.5s-78.834 -46.166 -141.501 -47.499z" />
    <glyph glyph-name="hyphen" unicode="-" horiz-adv-x="432" 
d="M57 248v147h318v-147h-318z" />
    <glyph glyph-name="period" unicode="." horiz-adv-x="315" 
d="M74 0v166h168v-166h-168z" />
    <glyph glyph-name="slash" unicode="/" horiz-adv-x="630" 
d="M624 830l-504 -963h-129l504 963h129z" />
    <glyph glyph-name="zero" unicode="0" horiz-adv-x="630" 
d="M314 -12c-82 0 -147.168 32.833 -195.501 98.5s-72.5 155.167 -72.5 268.5v16c0 113.333 24.333 203.166 73 269.499s114 99.5 196 99.5c81.333 0 146.5 -33 195.5 -99s73.5 -155.333 73.5 -268v-16c0 -113.333 -24.667 -203.166 -74 -269.499
s-114.666 -99.5 -195.999 -99.5zM313.999 610c-38 0 -67.667 -19.833 -89 -59.5s-32 -99.167 -32 -178.5v-15c0 -79.333 10.833 -139 32.5 -179s51.5 -60 89.5 -60s67.833 19.833 89.5 59.5s32.5 99.167 32.5 178.5v15c0 78.667 -11 138.167 -33 178.5s-52 60.5 -90 60.5z
" />
    <glyph glyph-name="one" unicode="1" horiz-adv-x="630" 
d="M587 0h-508v124h191v453l-168 -62l-36 125l247 93h103v-609h171v-124z" />
    <glyph glyph-name="two" unicode="2" horiz-adv-x="630" 
d="M570 0l-518.001 -0.000976562v120l236 208c45.333 40 77 72.667 95 98s27 52 27 80c0 30.667 -9.5 54.334 -28.5 71.001s-43.833 25 -74.5 25c-28.667 0 -54.167 -7.66699 -76.5 -23s-48.166 -41 -77.499 -77l-101 90c36.667 50 75 86.833 115 110.5s90 35.5 150 35.5
c75.333 0 135.333 -20 180 -60s67 -93 67 -159v-2c0 -48 -10.5 -88.5 -31.5 -121.5s-55.167 -70.833 -102.5 -113.5l-171 -150h311v-132z" />
    <glyph glyph-name="three" unicode="3" horiz-adv-x="630" 
d="M308 -12c-108.667 0 -199.665 36.668 -272.998 110.001l94 110c30.667 -28 59.667 -49 87 -63s58.666 -21 93.999 -21c32.667 0 59.5 8.5 80.5 25.5s31.5 40.167 31.5 69.5v2c0 62.667 -48.333 94 -145 94h-69l-27 94l191 188h-298v131h486v-118l-196 -187
c138.667 -16.667 208 -81.667 208 -195v-3c0 -68.667 -24.333 -125.334 -73 -170.001s-112.334 -67 -191.001 -67z" />
    <glyph glyph-name="four" unicode="4" horiz-adv-x="630" 
d="M376 0v153h-324l-25 140l317 439h171v-460h89v-119h-89v-153h-139zM378 270v303l-218 -303h218z" />
    <glyph glyph-name="five" unicode="5" horiz-adv-x="630" 
d="M301 -12c-98 0 -186 33.333 -264 100l84 113c66.667 -53.333 127.667 -80 183 -80c38 0 68.5 9.16699 91.5 27.5s34.5 44.833 34.5 79.5v3c0 32.667 -11.5 58 -34.5 76s-56.167 27 -99.5 27c-46 0 -88.667 -9 -128 -27l-89 58l24 363h442v-134h-318l-10 -145
c32 9.33301 66.667 14 104 14c74 0 135.333 -19 184 -57s73 -94.667 73 -170v-2c0 -74 -25.667 -133.5 -77 -178.5s-118 -67.5 -200 -67.5z" />
    <glyph glyph-name="six" unicode="6" horiz-adv-x="630" 
d="M350 471c65.333 0 120.001 -20 164.001 -60s66 -96 66 -168v-4c0 -73.333 -24.667 -133.5 -74 -180.5s-110.333 -70.5 -183 -70.5c-76 0 -137.333 22.667 -184 68c-28.667 28.667 -50.167 64.5 -64.5 107.5s-21.5 101.833 -21.5 176.5v4c0 123.333 25 220.166 75 290.499
s124 105.5 222 105.5c79.333 0 146.666 -23.333 201.999 -70l-67 -118c-48.667 35.333 -94.667 53 -138 53c-26 0 -48.5 -5.83301 -67.5 -17.5s-33.667 -27 -44 -46s-18 -38.167 -23 -57.5s-8.16699 -39.666 -9.5 -60.999h1c40 32 88.667 48 146 48zM317.001 114
c34.667 0 62.832 10.9971 84.499 32.9971s32.5 50.333 32.5 85v1c0 34.667 -10.667 62.834 -32 84.501s-49.666 32.167 -84.999 31.5c-36 0 -64.5 -10.667 -85.5 -32s-31.5 -49.666 -31.5 -84.999v-1c0 -34 11 -62.167 33 -84.5s50 -33.166 84 -32.499z" />
    <glyph glyph-name="seven" unicode="7" horiz-adv-x="630" 
d="M408 592h-340v136h511v-118l-311 -610h-170z" />
    <glyph glyph-name="eight" unicode="8" horiz-adv-x="630" 
d="M315 -10c-77.333 0 -140.999 19.332 -190.999 57.999s-75 89 -75 151v3c0 82 38 140.667 114 176c-63.333 39.333 -95 92.666 -95 159.999v2c0 56.667 23.167 103.834 69.5 141.501s105.5 56.5 177.5 56.5c71.333 0 130.166 -18.833 176.499 -56.5
s69.5 -84.834 69.5 -141.501v-2c0 -67.333 -31.667 -120.666 -95 -159.999c38 -18.667 66.5 -41.667 85.5 -69s28.5 -62 28.5 -104v-2c0 -65.333 -24.833 -117.166 -74.5 -155.499s-113.167 -57.5 -190.5 -57.5zM315.001 427.999c30.667 0 55.667 8.66699 75 26
s29 40.333 29 69v2c0 26 -9.5 47.667 -28.5 65s-44.167 26 -75.5 26s-56.666 -8.5 -75.999 -25.5s-29 -38.5 -29 -64.5v-3c0 -28 9.66699 -50.833 29 -68.5s44.666 -26.5 75.999 -26.5zM315.001 111.999c37.333 0 66.666 9 87.999 27s32 42 32 72v2
c0 30 -11.167 53.667 -33.5 71s-51.166 26 -86.499 26c-36 0 -65.167 -8.66699 -87.5 -26s-33.5 -41 -33.5 -71v-2c0 -30 10.667 -54 32 -72s51 -27 89 -27z" />
    <glyph glyph-name="nine" unicode="9" horiz-adv-x="630" 
d="M280 250c-65.333 0 -120.001 20.499 -164.001 61.499s-66 97.833 -66 170.5v4c0 74.667 24.5 135.667 73.5 183s110.167 71 183.5 71c76 0 137.333 -22.667 184 -68c28.667 -28.667 50.167 -64.667 64.5 -108s21.5 -102 21.5 -176v-4
c0 -123.333 -25 -220.166 -75 -290.499s-124 -105.5 -222 -105.5c-82.667 0 -153.667 24.667 -213 74l68 119c53.333 -38.667 102.666 -58 147.999 -58c46.667 0 81.334 17.833 104.001 53.5s35.667 76.167 39 121.5h-1c-37.333 -32 -85.666 -48 -144.999 -48z
M312.999 613.999c-34.667 0 -62.832 -11.166 -84.499 -33.499s-32.5 -51.5 -32.5 -87.5v-1c0 -36 10.5 -65 31.5 -87s49.5 -32.667 85.5 -32c36 0 64.5 11 85.5 33s31.5 51 31.5 87v1c0 35.333 -10.833 64.166 -32.5 86.499s-49.834 33.5 -84.501 33.5z" />
    <glyph glyph-name="colon" unicode=":" horiz-adv-x="315" 
d="M76 393v163h164v-163h-164zM76 0v162h164v-162h-164z" />
    <glyph glyph-name="semicolon" unicode=";" horiz-adv-x="315" 
d="M76 393v163h164v-163h-164zM53 -165l-13 62.999c71.333 8 104.333 42 99 102h-63v162h164v-137c0 -64.667 -15.667 -112.167 -47 -142.5s-78 -46.166 -140 -47.499z" />
    <glyph glyph-name="less" unicode="&#x3c;" horiz-adv-x="630" 
d="M542 76l-473 221v138l473 221v-142l-333 -147l333 -147v-144z" />
    <glyph glyph-name="equal" unicode="=" horiz-adv-x="630" 
d="M549 430h-468v133h468v-133zM549 169h-468v133h468v-133z" />
    <glyph glyph-name="greater" unicode="&#x3e;" horiz-adv-x="630" 
d="M561 297l-473 -221v142l333 147l-333 147v144l473 -221v-138z" />
    <glyph glyph-name="question" unicode="?" horiz-adv-x="573" 
d="M211 244l-23.001 169l5 5c122.667 4.66699 184 37.667 184 99v2c0 24.667 -8.66699 44 -26 58s-42 21 -74 21c-58 0 -111 -24.667 -159 -74l-92 100c66.667 75.333 151.334 113 254.001 113c76 0 136.667 -18.833 182 -56.5s68 -90.167 68 -157.5v-2
c0 -114 -68.667 -183.667 -206 -209l-11 -68h-102zM177.999 0v162h162v-162h-162z" />
    <glyph glyph-name="at" unicode="@" horiz-adv-x="1027" 
d="M523 -168c-132 0 -242.333 44.1689 -331 132.502s-133 195.166 -133 320.499s44.333 232.5 133 321.5s196.334 133.5 323.001 133.5c82 0 158.167 -19.5 228.5 -58.5s125.333 -90 165 -153s59.5 -129.5 59.5 -199.5c0 -82.667 -19.5 -146.834 -58.5 -192.501
s-88.167 -68.5 -147.5 -68.5c-68.667 0 -121.334 21.667 -158.001 65c-44.667 -43.333 -96.334 -65 -155.001 -65c-54 0 -99.167 18.333 -135.5 55s-54.5 85 -54.5 145c0 72 23.333 133.5 70 184.5s101 76.5 163 76.5s110.333 -24 145 -72l11 56l119 -19l-49 -276
c-2 -8 -3 -19.667 -3 -35c0 -20 6.83301 -36.167 20.5 -48.5s32.5 -18.5 56.5 -18.5c38.667 0 70.5 18.667 95.5 56s37.5 89.666 37.5 156.999c0 98.667 -39.667 185 -119 259s-176.333 111 -291 111c-77.333 0 -147.666 -18.5 -210.999 -55.5
s-112.833 -87.167 -148.5 -150.5s-53.5 -132.666 -53.5 -207.999c0 -116 39.833 -213.667 119.5 -293s180.167 -119 301.5 -119c90 0 175 23 255 69l21 -32c-86 -52 -178 -78 -276 -78zM483 172.002c31.333 0 58.668 11.667 82.001 35c30.667 30.667 46 70 46 118
c0 30 -9.33301 54.167 -28 72.5s-42.334 27.5 -71.001 27.5c-30.667 0 -58.667 -12 -84 -36c-30 -30 -45 -68 -45 -114c0 -32.667 9.16699 -58 27.5 -76s42.5 -27 72.5 -27z" />
    <glyph glyph-name="A" unicode="A" horiz-adv-x="830" 
d="M30 0l314 733h142l313 -733h-161l-68 166h-315l-68 -166h-157zM310 302h205l-102 247z" />
    <glyph glyph-name="B" unicode="B" horiz-adv-x="759" 
d="M93 0l-0.00195312 728h335c82.667 0 146.334 -21.333 191.001 -64c32.667 -32.667 49 -74 49 -124v-2c0 -68 -32.333 -120.667 -97 -158c44.667 -16.667 78.834 -39 102.501 -67s35.5 -65 35.5 -111v-2c0 -65.333 -24.333 -115 -73 -149s-115 -51 -199 -51h-344z
M514.998 513v1.99902c0 24.667 -9.33301 43.834 -28 57.501s-45.667 20.5 -81 20.5h-164v-162h154c79.333 0 119 27.333 119 82zM555.998 217.999v2c0 55.333 -41.667 83 -125 83h-189v-168h195c79.333 0 119 27.667 119 83z" />
    <glyph glyph-name="C" unicode="C" horiz-adv-x="776" 
d="M433 -12c-106.667 0 -195.501 36.002 -266.501 108.002s-106.5 160.667 -106.5 266v2c0 105.333 35.667 194.333 107 267s162 109 272 109c64.667 0 119.167 -9.5 163.5 -28.5s85.5 -46.833 123.5 -83.5l-98 -113c-61.333 56 -124.666 84 -189.999 84
c-62 0 -113.667 -22.667 -155 -68s-62 -100.333 -62 -165v-2c0 -65.333 20.5 -120.833 61.5 -166.5s92.833 -68.5 155.5 -68.5c39.333 0 73.5 7.16699 102.5 21.5s59.833 36.166 92.5 65.499l98 -99c-40 -42.667 -83.167 -74.834 -129.5 -96.501s-102.5 -32.5 -168.5 -32.5z
" />
    <glyph glyph-name="D" unicode="D" horiz-adv-x="821" 
d="M93 0v728h281c112.667 0 205.334 -34.5 278.001 -103.5s109 -155.167 109 -258.5v-2c0 -103.333 -36.333 -189.833 -109 -259.5s-165.334 -104.5 -278.001 -104.5h-281zM374 589h-128v-450h128c67.333 0 121.833 20.667 163.5 62s62.5 95 62.5 161v2
c0 66 -20.833 120 -62.5 162s-96.167 63 -163.5 63z" />
    <glyph glyph-name="E" unicode="E" horiz-adv-x="705" 
d="M93 0v728h547v-137h-395v-156h348v-137h-348v-161h400v-137h-552z" />
    <glyph glyph-name="F" unicode="F" horiz-adv-x="690" 
d="M93 0v728h551v-140h-398v-163h352v-140h-352v-285h-153z" />
    <glyph glyph-name="G" unicode="G" horiz-adv-x="823" 
d="M442 -12c-112.667 0 -204.502 35.1689 -275.502 105.502s-106.5 159.833 -106.5 268.5v2c0 104 36.333 192.667 109 266s163.334 110 272.001 110c62.667 0 115.667 -8 159 -24s85.333 -41 126 -75l-97 -117c-29.333 25.333 -58.833 44.166 -88.5 56.499
s-64.5 18.5 -104.5 18.5c-60 0 -110.833 -22.833 -152.5 -68.5s-62.5 -100.5 -62.5 -164.5v-2c0 -68.667 21.167 -125.334 63.5 -170.001s96.5 -67 162.5 -67c61.333 0 113.333 15.333 156 46v111h-166v133h315v-314c-91.333 -76.667 -194.666 -115 -309.999 -115z" />
    <glyph glyph-name="H" unicode="H" horiz-adv-x="798" 
d="M93 0v728h153v-291h306v291h154v-728h-154v295h-306v-295h-153z" />
    <glyph glyph-name="I" unicode="I" horiz-adv-x="354" 
d="M100 0v728h154v-728h-154z" />
    <glyph glyph-name="J" unicode="J" horiz-adv-x="594" 
d="M257 -10c-96.667 0 -175.667 36.667 -237 110l98 108c43.333 -50.667 88.333 -76 135 -76c68 0 102 41.667 102 125v471h157v-477c0 -84 -22.667 -148.667 -68 -194c-44 -44.667 -106.333 -67 -187 -67z" />
    <glyph glyph-name="K" unicode="K" horiz-adv-x="766" 
d="M93 0v728h153v-328l304 328h189l-299 -310l312 -418h-185l-231 313l-90 -93v-220h-153z" />
    <glyph glyph-name="L" unicode="L" horiz-adv-x="651" 
d="M93 0v728h153v-588h367v-140h-520z" />
    <glyph glyph-name="M" unicode="M" horiz-adv-x="911" 
d="M93 0v728h165l197 -315l198 315h165v-728h-153v485l-210 -318h-4l-208 315v-482h-150z" />
    <glyph glyph-name="N" unicode="N" horiz-adv-x="830" 
d="M93 0v728h141l351 -459v459h152v-728h-131l-362 474v-474h-151z" />
    <glyph glyph-name="O" unicode="O" horiz-adv-x="892" 
d="M445 -12c-110.667 0 -202.5 36.167 -275.5 108.5s-109.5 160.833 -109.5 265.5v2c0 104 36.833 192.667 110.5 266s165.834 110 276.501 110s202.5 -36.167 275.5 -108.5s109.5 -160.833 109.5 -265.5v-2c0 -104 -36.833 -192.667 -110.5 -266
s-165.834 -110 -276.501 -110zM447 129c64.667 0 118.167 22.5 160.5 67.5s63.5 100.167 63.5 165.5v2c0 64.667 -21.5 120 -64.5 166s-96.833 69 -161.5 69s-118.167 -22.5 -160.5 -67.5s-63.5 -100.167 -63.5 -165.5v-2c0 -65.333 21.333 -120.833 64 -166.5
s96.667 -68.5 162 -68.5z" />
    <glyph glyph-name="P" unicode="P" horiz-adv-x="703" 
d="M93 0v728h295c85.333 0 153 -23 203 -69s75 -106.333 75 -181v-2c0 -80.667 -27.667 -143.167 -83 -187.5s-125.333 -66.5 -210 -66.5h-127v-222h-153zM246 359h132c41.333 0 73.833 10.667 97.5 32s35.5 48.666 35.5 81.999v2c0 36.667 -12 64.834 -36 84.501
s-57.333 29.5 -100 29.5h-129v-230z" />
    <glyph glyph-name="Q" unicode="Q" horiz-adv-x="892" 
d="M842 87l-98.002 -108.999l-82 74c-65.333 -42.667 -137.666 -64 -216.999 -64c-110.667 0 -202.5 36.167 -275.5 108.5s-109.5 160.833 -109.5 265.5v2c0 104 36.833 192.667 110.5 266s165.834 110 276.501 110s202.5 -36.167 275.5 -108.5s109.5 -160.833 109.5 -265.5
v-2c0 -78.667 -22 -149.334 -66 -212.001zM446.998 129.001c38 0 72 7.33301 102 22l-120 103l98 110l121 -110c15.333 34 23 70 23 108v2c0 64.667 -21.5 120 -64.5 166s-96.833 69 -161.5 69s-118.167 -22.5 -160.5 -67.5s-63.5 -100.167 -63.5 -165.5v-2
c0 -65.333 21.333 -120.833 64 -166.5s96.667 -68.5 162 -68.5z" />
    <glyph glyph-name="R" unicode="R" horiz-adv-x="760" 
d="M93 0l-0.000976562 728.001h331c92 0 162.667 -24.667 212 -74c40.667 -40.667 61 -95.334 61 -164.001v-2c0 -57.333 -14.167 -104.833 -42.5 -142.5s-67.166 -65.167 -116.499 -82.5l182 -263h-180l-161 237h-133v-237h-153zM245.999 373.001h168
c39.333 0 70.5 9.66699 93.5 29s34.5 45.333 34.5 78v2c0 34.667 -11.5 61.167 -34.5 79.5s-55.167 27.5 -96.5 27.5h-165v-216z" />
    <glyph glyph-name="S" unicode="S" horiz-adv-x="674" 
d="M351 -10c-119.333 0 -222 38.666 -308 115.999l91 109c72 -60 145.333 -90 220 -90c34 0 60.833 6.66699 80.5 20s29.5 31.333 29.5 54v2c0 22.667 -9.83301 40.334 -29.5 53.001s-59.834 27 -120.501 43c-41.333 10.667 -75 21 -101 31s-50.667 23.167 -74 39.5
s-40.333 36.833 -51 61.5s-16 54.667 -16 90v2c0 64.667 23.667 117 71 157s108.333 60 183 60c102.667 0 192.334 -30.667 269.001 -92l-81 -116c-66 48.667 -129.667 73 -191 73c-30.667 0 -54.667 -6.5 -72 -19.5s-26 -29.167 -26 -48.5v-2
c0 -24.667 10.5 -43.5 31.5 -56.5s63.833 -27.5 128.5 -43.5c78.667 -20 137 -46.333 175 -79s57 -78.667 57 -138v-2c0 -70 -24.333 -124.833 -73 -164.5s-113 -59.5 -193 -59.5z" />
    <glyph glyph-name="T" unicode="T" horiz-adv-x="681" 
d="M264 0v586h-224v142h601v-142h-223v-586h-154z" />
    <glyph glyph-name="U" unicode="U" horiz-adv-x="794" 
d="M395 -11c-98.667 0 -175.666 27.5 -230.999 82.5s-83 134.833 -83 239.5v417h154v-412c0 -60.667 14.167 -106.834 42.5 -138.501s68.166 -47.5 119.499 -47.5s91.333 15.333 120 46s43 75.334 43 134.001v418h153v-411c0 -108 -28 -189.667 -84 -245s-134 -83 -234 -83z
" />
    <glyph glyph-name="V" unicode="V" horiz-adv-x="788" 
d="M326 -5l-296 733h170l196 -522l196 522h166l-296 -733h-136z" />
    <glyph glyph-name="W" unicode="W" horiz-adv-x="1174" 
d="M286 -5l-250 733h165l156 -502l166 504h132l166 -504l155 502h161l-249 -733h-134l-167 485l-167 -485h-134z" />
    <glyph glyph-name="X" unicode="X" horiz-adv-x="769" 
d="M546 728h175l-245 -355l255 -373h-180l-169 256l-170 -256h-175l256 370l-245 358h180l158 -242z" />
    <glyph glyph-name="Y" unicode="Y" horiz-adv-x="753" 
d="M299 0v287l-281 441h180l179 -298l183 298h175l-282 -438v-290h-154z" />
    <glyph glyph-name="Z" unicode="Z" horiz-adv-x="743" 
d="M70 0v116l406 477h-393v135h591v-116l-406 -477h406v-135h-604z" />
    <glyph glyph-name="bracketleft" unicode="[" horiz-adv-x="489" 
d="M91 -135v863h333v-119h-187v-625h187v-119h-333z" />
    <glyph glyph-name="backslash" unicode="\" horiz-adv-x="557" 
d="M453 -133l-463 963h129l463 -963h-129z" />
    <glyph glyph-name="bracketright" unicode="]" horiz-adv-x="489" 
d="M65 -135v119h188v625h-188v119h333v-863h-333z" />
    <glyph glyph-name="asciicircum" unicode="^" 
d="M57 513l155 215h104l155 -215h-111l-97 125l-97 -125h-109z" />
    <glyph glyph-name="underscore" unicode="_" horiz-adv-x="630" 
d="M1 -166v116h628v-116h-628z" />
    <glyph glyph-name="grave" unicode="`" 
d="M255 619l-134 124l132 57l114 -181h-112z" />
    <glyph glyph-name="a" unicode="a" horiz-adv-x="623" 
d="M235 -11c-54.667 0 -100.5 15.167 -137.5 45.5s-55.5 72.166 -55.5 125.499v2c0 58.667 20.333 102.834 61 132.501s95.334 44.5 164.001 44.5c47.333 0 93.666 -7.33301 138.999 -22v10c0 70 -41 105 -123 105c-48 0 -99.667 -10.333 -155 -31l-38 116
c68 30 139.667 45 215 45c82 0 144.333 -20.667 187 -62c40 -40 60 -98.667 60 -176v-324h-147v62c-44 -48.667 -100.667 -73 -170 -73zM280 95c38 0 68.833 9.5 92.5 28.5s35.5 43.5 35.5 73.5v30c-32.667 14 -68 21 -106 21c-35.333 0 -63 -7 -83 -21s-30 -33.667 -30 -59
v-2c0 -22 8.33301 -39.333 25 -52s38.667 -19 66 -19z" />
    <glyph glyph-name="b" unicode="b" horiz-adv-x="709" 
d="M404 -11c-70 0 -128.667 28.668 -176 86.001v-75h-152v759h152v-286c45.333 62 104 93 176 93c69.333 0 129 -25.833 179 -77.5s75 -121.5 75 -209.5v-2c0 -88.667 -24.833 -158.834 -74.5 -210.501s-109.5 -77.5 -179.5 -77.5zM366 119.001
c39.333 0 72.5 14.5 99.5 43.5s40.5 67.167 40.5 114.5v2c0 46.667 -13.667 84.667 -41 114s-60.333 44 -99 44s-71.667 -14.667 -99 -44s-41 -67.333 -41 -114v-2c0 -46.667 13.667 -84.667 41 -114s60.333 -44 99 -44z" />
    <glyph glyph-name="c" unicode="c" horiz-adv-x="602" 
d="M338 -12c-83.333 0 -152.334 27.667 -207.001 83s-82 123.333 -82 204v2c0 80 27.5 148.167 82.5 204.5s124.5 84.5 208.5 84.5c92.667 0 166.667 -31.333 222 -94l-94 -100c-38.667 42 -81.667 63 -129 63c-40.667 0 -74.167 -15.167 -100.5 -45.5
s-39.5 -67.166 -39.5 -110.499v-2c0 -44.667 13.5 -82.334 40.5 -113.001s62.167 -46 105.5 -46c44.667 0 88.334 20.333 131.001 61l89 -89c-60 -68 -135.667 -102 -227 -102z" />
    <glyph glyph-name="d" unicode="d" horiz-adv-x="709" 
d="M305 -11c-69.333 0 -129 25.832 -179 77.499s-75 121.834 -75 210.501v2c0 88 24.833 157.833 74.5 209.5s109.5 77.5 179.5 77.5s128.667 -28.333 176 -85v278h152v-759h-152v82c-45.333 -62 -104 -93 -176 -93zM343 118.999c38.667 0 71.667 14.667 99 44
s41 67.333 41 114v2c0 46.667 -13.667 84.667 -41 114s-60.333 44 -99 44c-39.333 0 -72.5 -14.5 -99.5 -43.5s-40.5 -67.167 -40.5 -114.5v-2c0 -46.667 13.667 -84.667 41 -114s60.333 -44 99 -44z" />
    <glyph glyph-name="e" unicode="e" horiz-adv-x="644" 
d="M338 -12c-83.333 0 -152.331 26.833 -206.998 80.5s-82 122.5 -82 206.5v2c0 80.667 25.833 149 77.5 205s117.167 84 196.5 84c58.667 0 109 -14.5 151 -43.5s72.333 -65.667 91 -110s28 -93.5 28 -147.5c0 -6.66699 -0.666992 -20 -2 -40h-391
c7.33301 -37.333 23.166 -65.833 47.499 -85.5s55.166 -29.5 92.499 -29.5c50.667 0 96.667 19.333 138 58l87 -77c-56 -68.667 -131.667 -103 -227 -103zM198.002 320h247c-6 38 -19.333 68.167 -40 90.5s-48 33.5 -82 33.5c-33.333 0 -61 -11 -83 -33s-36 -52.333 -42 -91
z" />
    <glyph glyph-name="f" unicode="f" horiz-adv-x="404" 
d="M104 0v426.001h-67v125h67v36c0 59.333 14.667 104.666 44 135.999c28.667 28.667 71 43 127 43c42 0 79 -5 111 -15v-126c-26 8.66699 -50.333 13 -73 13c-40 0 -60 -21.333 -60 -64v-24h132v-124h-130v-426h-151z" />
    <glyph glyph-name="g" unicode="g" horiz-adv-x="709" 
d="M325 -168c-92.667 0 -174.668 19.667 -246.001 59l52 114c62 -34.667 125.333 -52 190 -52c108 0 162 51.667 162 155v30c-25.333 -30.667 -52.333 -53.834 -81 -69.501s-63 -23.5 -103 -23.5c-68.667 0 -127.167 23.5 -175.5 70.5s-72.5 110.167 -72.5 189.5v2
c0 78.667 24.333 141.5 73 188.5s107 70.5 175 70.5c70.667 0 131.334 -28.333 182.001 -85v75h152v-433c0 -97.333 -23.667 -169.666 -71 -216.999c-49.333 -49.333 -128.333 -74 -237 -74zM341.999 171c40 0 73.5 12.5 100.5 37.5s40.5 57.167 40.5 96.5v2
c0 39.333 -13.5 71.333 -40.5 96s-60.5 37 -100.5 37s-73.167 -12.333 -99.5 -37s-39.5 -56.667 -39.5 -96v-2c0 -39.333 13.167 -71.5 39.5 -96.5s59.5 -37.5 99.5 -37.5z" />
    <glyph glyph-name="h" unicode="h" horiz-adv-x="655" 
d="M76 0v759.001h152v-283c43.333 60 98.333 90 165 90c60 0 106.833 -18.333 140.5 -55s50.5 -87.334 50.5 -152.001v-359h-152v311c0 38 -8.66699 67.167 -26 87.5s-42 30.5 -74 30.5c-32.667 0 -58.167 -10.167 -76.5 -30.5s-27.5 -49.5 -27.5 -87.5v-311h-152z" />
    <glyph glyph-name="i" unicode="i" horiz-adv-x="319" 
d="M79 622v136h160v-136h-160zM84 0v556h151v-556h-151z" />
    <glyph glyph-name="j" unicode="j" horiz-adv-x="319" 
d="M79 622v136h160v-136h-160zM60 -170c-23.333 0 -45.666 2.33301 -66.999 7v119c11.333 -2.66699 22.666 -4 33.999 -4c38 0 57 22 57 66v538h151v-550c0 -117.333 -58.333 -176 -175 -176z" />
    <glyph glyph-name="k" unicode="k" horiz-adv-x="622" 
d="M76 0v759h152v-414l194 211h182l-214 -221l221 -335h-176l-147 231l-60 -64v-167h-152z" />
    <glyph glyph-name="l" unicode="l" horiz-adv-x="319" 
d="M84 0v759h151v-759h-151z" />
    <glyph glyph-name="m" unicode="m" horiz-adv-x="996" 
d="M76 0v556h152v-80c43.333 60 98.333 90 165 90c74.667 0 127.334 -30 158.001 -90c48.667 60 110 90 184 90c60 0 106.5 -17.5 139.5 -52.5s49.5 -86.167 49.5 -153.5v-360h-152v311c0 78.667 -32 118 -96 118c-31.333 0 -55.833 -10.167 -73.5 -30.5
s-26.5 -49.5 -26.5 -87.5v-311h-152v311c0 38 -8.33301 67.167 -25 87.5s-40.334 30.5 -71.001 30.5s-55 -10.333 -73 -31s-27 -49.667 -27 -87v-311h-152z" />
    <glyph glyph-name="n" unicode="n" horiz-adv-x="655" 
d="M76 0v556.001h152v-80c43.333 60 98.333 90 165 90c60 0 106.833 -18.333 140.5 -55s50.5 -87.334 50.5 -152.001v-359h-152v311c0 38 -8.66699 67.167 -26 87.5s-42 30.5 -74 30.5c-32.667 0 -58.167 -10.167 -76.5 -30.5s-27.5 -49.5 -27.5 -87.5v-311h-152z" />
    <glyph glyph-name="o" unicode="o" horiz-adv-x="697" 
d="M347 -12c-84.667 0 -155.5 27.667 -212.5 83s-85.5 123.333 -85.5 204v2c0 80 28.833 148.167 86.5 204.5s129.167 84.5 214.5 84.5c84.667 0 155.5 -27.833 212.5 -83.5s85.5 -123.5 85.5 -203.5v-2c0 -80.667 -28.667 -149 -86 -205s-129 -84 -215 -84zM350 118
c44.667 0 80.5 15.166 107.5 45.499s40.5 67.5 40.5 111.5v2c0 43.333 -14.167 80.5 -42.5 111.5s-64.5 46.5 -108.5 46.5c-44.667 0 -80.5 -15 -107.5 -45s-40.5 -67 -40.5 -111v-2c0 -43.333 14.167 -80.666 42.5 -111.999s64.5 -47 108.5 -47z" />
    <glyph glyph-name="p" unicode="p" horiz-adv-x="709" 
d="M76 -166v722.001h152v-83c45.333 62 104 93 176 93c69.333 0 129 -25.833 179 -77.5s75 -121.5 75 -209.5v-2c0 -88.667 -24.833 -158.834 -74.5 -210.501s-109.5 -77.5 -179.5 -77.5s-128.667 28.667 -176 86v-241h-152zM366 119.001c39.333 0 72.5 14.5 99.5 43.5
s40.5 67.167 40.5 114.5v2c0 46.667 -13.667 84.667 -41 114s-60.333 44 -99 44s-71.667 -14.667 -99 -44s-41 -67.333 -41 -114v-2c0 -46.667 13.667 -84.667 41 -114s60.333 -44 99 -44z" />
    <glyph glyph-name="q" unicode="q" horiz-adv-x="709" 
d="M481 -166v247.999c-45.333 -62 -104 -93 -176 -93c-69.333 0 -129 25.833 -179 77.5s-75 121.834 -75 210.501v2c0 88 24.833 157.833 74.5 209.5s109.5 77.5 179.5 77.5s128.667 -28.333 176 -85v75h152v-722h-152zM343 118.999c38.667 0 71.667 14.667 99 44
s41 67.333 41 114v2c0 46.667 -13.667 84.667 -41 114s-60.333 44 -99 44c-39.333 0 -72.5 -14.5 -99.5 -43.5s-40.5 -67.167 -40.5 -114.5v-2c0 -46.667 13.667 -84.667 41 -114s60.333 -44 99 -44z" />
    <glyph glyph-name="r" unicode="r" horiz-adv-x="442" 
d="M76 0v555.999h152v-115c36 86.667 96.333 128.334 181 125.001v-159h-8c-54.667 0 -97.167 -16.667 -127.5 -50s-45.5 -83.333 -45.5 -150v-207h-152z" />
    <glyph glyph-name="s" unicode="s" horiz-adv-x="530" 
d="M270 -10c-88 0 -167.333 27.668 -238 83.001l66 101c60.667 -44.667 119.334 -67 176.001 -67c47.333 0 71 15 71 45v2c0 10 -5 19 -15 27s-21 14.167 -33 18.5s-29.333 9.83301 -52 16.5l-6 1.5c-1.33301 0.333008 -3 0.833008 -5 1.5l-6 2
c-24.667 7.33301 -45.167 14.5 -61.5 21.5s-33.5 16.833 -51.5 29.5s-31.667 28.5 -41 47.5s-14 41.5 -14 67.5v2c0 54 19.333 96.667 58 128s87 47 145 47c73.333 0 142 -21.333 206 -64l-58 -105c-60.667 34.667 -111.334 52 -152.001 52
c-19.333 0 -34.5 -3.83301 -45.5 -11.5s-16.5 -17.834 -16.5 -30.501v-2c0 -13.333 8 -24.333 24 -33s40.667 -18.667 74 -30l18 -6c23.333 -7.33301 43.333 -14.833 60 -22.5s34.167 -17.667 52.5 -30s32.333 -28 42 -47s14.5 -40.5 14.5 -64.5v-2
c0 -58.667 -19.5 -103 -58.5 -133s-90.167 -45 -153.5 -45z" />
    <glyph glyph-name="t" unicode="t" horiz-adv-x="439" 
d="M264 -9c-52 0 -92 12.5 -120 37.5s-42 67.833 -42 128.5v269h-67v130h67v144h152v-144h134v-130h-134v-244c0 -38 18 -57 54 -57c28.667 0 54.667 6.33301 78 19v-122c-36 -20.667 -76.667 -31 -122 -31z" />
    <glyph glyph-name="u" unicode="u" horiz-adv-x="655" 
d="M262 -11c-60 0 -106.667 18.5 -140 55.5s-50 87.833 -50 152.5v359h151v-311c0 -38 8.66699 -67.167 26 -87.5s42 -30.5 74 -30.5c32.667 0 58.167 10.167 76.5 30.5s27.5 49.5 27.5 87.5v311h152v-556h-152v80c-46.667 -60.667 -101.667 -91 -165 -91z" />
    <glyph glyph-name="v" unicode="v" horiz-adv-x="631" 
d="M247 -4l-221 560h161l129 -380l131 380h158l-221 -560h-137z" />
    <glyph glyph-name="w" unicode="w" horiz-adv-x="903" 
d="M203 -4l-172 560h154l93 -346l109 348h130l109 -349l96 347h151l-175 -560h-137l-110 349l-112 -349h-136z" />
    <glyph glyph-name="x" unicode="x" horiz-adv-x="614" 
d="M200 556l108 -167l110 167h159l-189 -271l197 -285h-163l-117 179l-117 -179h-159l197 283l-189 273h163z" />
    <glyph glyph-name="y" unicode="y" horiz-adv-x="631" 
d="M319 171l126 384.999h158l-215 -570c-22 -57.333 -46.333 -97.666 -73 -120.999s-63.334 -35 -110.001 -35c-48 0 -94 12.667 -138 38l51 110c24.667 -14 47.667 -21 69 -21c14.667 0 26.334 2.83301 35.001 8.5s17 16.5 25 32.5l-221 558h161z" />
    <glyph glyph-name="z" unicode="z" horiz-adv-x="593" 
d="M56 0v106l294 327h-284v123h474v-107l-295 -326h295v-123h-484z" />
    <glyph glyph-name="braceleft" unicode="{" horiz-adv-x="517" 
d="M463 -46l-25.999 -101.005c-91.333 16.667 -154.5 41.334 -189.5 74.001s-52.5 77 -52.5 133c0 4.66699 0.5 16.167 1.5 34.5s1.5 30.833 1.5 37.5c0 40 -8.66699 68.167 -26 84.5s-47 24.5 -89 24.5h-27v115h27c42 0 71.667 8.16699 89 24.5s26 44.5 26 84.5
c0 6.66699 -0.5 19.167 -1.5 37.5s-1.5 29.833 -1.5 34.5c0 56 17.5 100.333 52.5 133s98.167 57.334 189.5 74.001l26 -101c-54 -15.333 -89 -31.666 -105 -48.999s-24 -43.666 -24 -78.999c0 -6.66699 0.5 -19.167 1.5 -37.5s1.5 -31.5 1.5 -39.5
c0 -70 -36.333 -116.667 -109 -140c36.667 -12 64 -29 82 -51s27 -51.667 27 -89c0 -6.66699 -0.5 -19.5 -1.5 -38.5s-1.5 -31.833 -1.5 -38.5c0 -34.667 8.16699 -60.667 24.5 -78s51.166 -33.666 104.499 -48.999z" />
    <glyph glyph-name="bar" unicode="|" horiz-adv-x="315" 
d="M98 -133v963h120v-963h-120z" />
    <glyph glyph-name="braceright" unicode="}" horiz-adv-x="517" 
d="M80 -147l-25.999 101.005c53.333 15.333 88.166 31.666 104.499 48.999s24.5 43.333 24.5 78c0 6.66699 -0.5 19.5 -1.5 38.5s-1.5 31.833 -1.5 38.5c0 37.333 9 67 27 89s45.333 39 82 51c-72.667 23.333 -109 70 -109 140c0 8 0.5 21.167 1.5 39.5s1.5 30.833 1.5 37.5
c0 35.333 -8 61.666 -24 78.999s-51 33.666 -105 48.999l26 101c91.333 -16.667 154.5 -41.334 189.5 -74.001s52.5 -77 52.5 -133c0 -4.66699 -0.5 -16.167 -1.5 -34.5s-1.5 -30.833 -1.5 -37.5c0 -40 8.66699 -68.167 26 -84.5s47 -24.5 89 -24.5h27v-115h-27
c-42 0 -71.667 -8.16699 -89 -24.5s-26 -44.5 -26 -84.5c0 -6.66699 0.5 -19.167 1.5 -37.5s1.5 -29.833 1.5 -34.5c0 -56 -17.5 -100.333 -52.5 -133s-98.167 -57.334 -189.5 -74.001z" />
    <glyph glyph-name="asciitilde" unicode="~" horiz-adv-x="535" 
d="M352 244c-24.667 0 -55.666 7.66504 -92.999 22.998c-26 12 -46.667 18 -62 18s-27 -3.83301 -35 -11.5s-16 -20.834 -24 -39.501l-81 25c12.667 46.667 28.667 81.834 48 105.501s45.333 35.5 78 35.5c25.333 0 56.666 -7.66699 93.999 -23c30.667 -12 51 -18 61 -18
c15.333 0 27 3.83301 35 11.5s16 20.834 24 39.501l81 -25c-12.667 -47.333 -28.5 -82.666 -47.5 -105.999s-45.167 -35 -78.5 -35z" />
    <glyph glyph-name="exclamdown" unicode="&#xa1;" horiz-adv-x="340" 
d="M89 566v162h162v-162h-162zM81 0v24l47 460h84l47 -460v-24h-178z" />
    <glyph glyph-name="cent" unicode="&#xa2;" horiz-adv-x="630" 
d="M478 734l-20 -99c42.667 -14 80.667 -40 114 -78l-81 -90c-20.667 22 -41 37.667 -61 47l-60 -305h1c42 4.66699 82.667 26 122 64l79 -80c-58.667 -66.667 -131.667 -101.334 -219 -104.001h-1l-19 -95h-105l22 110c-54.667 18 -99.167 50.167 -133.5 96.5
s-51.5 100.5 -51.5 162.5v2c0 80.667 27.167 148.334 81.5 203.001s122.5 82 204.5 82h6l17 84h104zM200 363v-1.99902c0 -66.667 26 -112.667 78 -138l61 307h-1c-40 -2.66699 -73 -18.834 -99 -48.501s-39 -69.167 -39 -118.5z" />
    <glyph glyph-name="sterling" unicode="&#xa3;" horiz-adv-x="630" 
d="M134 407l0.000976562 84c0 78.667 22.333 140 67 184c42 42 99.667 63 173 63c88.667 0 158.667 -34 210 -102l-100 -98c-32.667 40.667 -68.334 61 -107.001 61c-26 0 -47.667 -8.66699 -65 -26c-18 -18 -27 -45.667 -27 -83v-83h222v-124h-222v-153h297v-130h-523v97
l75 26v160h-74v124h74z" />
    <glyph glyph-name="yen" unicode="&#xa5;" horiz-adv-x="630" 
d="M82 196h162v78h-162v98h138l-210 356h163l144 -269l144 269h159l-211 -356h139v-98h-161v-78h161v-99h-161v-97h-143v97h-162v99z" />
    <glyph glyph-name="section" unicode="&#xa7;" horiz-adv-x="630" 
d="M319 -10c-93.333 0 -169.002 28.001 -227.002 84.001l73 90c50.667 -42.667 101.334 -64 152.001 -64c42 0 63 13.667 63 41v1c0 12.667 -7.16699 23.167 -21.5 31.5s-46.166 19.833 -95.499 34.5c-79.333 22 -134.5 44 -165.5 66s-46.5 52 -46.5 90v1
c0 30.667 9.83301 56 29.5 76s46.167 34.333 79.5 43c-32.667 28 -49 62.667 -49 104v1c0 41.333 18.333 76.5 55 105.5s85 43.5 145 43.5c93.333 0 169 -28 227 -84l-73 -90c-50.667 42.667 -101.334 64 -152.001 64c-42 0 -63 -13.667 -63 -41v-1
c0 -12.667 7.83301 -23.834 23.5 -33.501s46.834 -20.5 93.501 -32.5c80.667 -24 136.167 -46.5 166.5 -67.5s45.5 -50.5 45.5 -88.5v-1c0 -30.667 -9.83301 -56 -29.5 -76s-46.167 -34.333 -79.5 -43c32.667 -28 49 -62.667 49 -104v-1c0 -41.333 -18.333 -76.5 -55 -105.5
s-85 -43.5 -145 -43.5zM233.998 432.001c-16.667 0 -30 -4 -40 -12s-15 -19 -15 -33v-1c0 -14 6.83301 -25.5 20.5 -34.5s38.5 -18.167 74.5 -27.5c64.667 -18.667 105.334 -28 122.001 -28s30 4 40 12s15 19 15 33v1c0 14 -6.83301 25.5 -20.5 34.5
s-38.5 18.167 -74.5 27.5c-64.667 18.667 -105.334 28 -122.001 28z" />
    <glyph glyph-name="dieresis" unicode="&#xa8;" 
d="M297 619v137h147v-137h-147zM84 619v137h147v-137h-147z" />
    <glyph glyph-name="copyright" unicode="&#xa9;" horiz-adv-x="871" 
d="M435 -12c-105.333 0 -194.335 36.5 -267.002 109.5s-109 161.167 -109 264.5v2c0 103.333 36.833 191.833 110.5 265.5s162.834 110.5 267.501 110.5s193.334 -36.5 266.001 -109.5s109 -161.167 109 -264.5v-2c0 -103.333 -36.5 -191.833 -109.5 -265.5
s-162.167 -110.5 -267.5 -110.5zM434.998 28c94 0 173.167 32.833 237.5 98.5s96.5 144.834 96.5 237.501v2c0 92.667 -32 171.5 -96 236.5s-142.667 97.5 -236 97.5c-94.667 0 -174.167 -32.833 -238.5 -98.5s-96.5 -144.834 -96.5 -237.501v-2
c0 -93.333 32 -172.333 96 -237s143 -97 237 -97zM439.998 163c-58 0 -106.501 19.668 -145.501 59.001s-58.5 87.666 -58.5 144.999v2c0 58 19.333 107 58 147s88.334 60 149.001 60c63.333 0 115.666 -20.667 156.999 -62l-55 -64c-34.667 30 -68.667 45 -102 45
s-61 -12.167 -83 -36.5s-33 -53.833 -33 -88.5v-2c0 -34 10.833 -63.167 32.5 -87.5s49.5 -36.5 83.5 -36.5c34.667 0 69.334 15.667 104.001 47l56 -57c-44 -47.333 -98.333 -71 -163 -71z" />
    <glyph glyph-name="ordfeminine" unicode="&#xaa;" horiz-adv-x="414" 
d="M164 416c-30.667 0 -55.833 8.16797 -75.5 24.501s-29.5 39.166 -29.5 68.499v2c0 32.667 11.167 57.167 33.5 73.5s52.5 24.5 90.5 24.5c24.667 0 50 -4 76 -12v5c0 38 -22.667 57 -68 57c-28 0 -56.333 -5.66699 -85 -17l-21 64c36.667 16.667 76 25 118 25
c46 0 80.333 -11.333 103 -34c22 -22 33 -54.333 33 -97v-178h-81v34c-22.667 -26.667 -54 -40 -94 -40zM189.001 475.001c20.667 0 37.666 5.16699 50.999 15.5s20 23.5 20 39.5v17c-18 7.33301 -37.667 11 -59 11c-40 0 -60 -14.333 -60 -43v-2
c0 -11.333 4.33301 -20.5 13 -27.5s20.334 -10.5 35.001 -10.5zM56 289.001v67h287v-67h-287z" />
    <glyph glyph-name="guillemotleft" unicode="&#xab;" horiz-adv-x="671" 
d="M510 44l-184 230v8l184 230l106 -52l-126 -181l126 -181zM231 44l-184 230v8l184 230l106 -52l-126 -181l126 -181z" />
    <glyph glyph-name="registered" unicode="&#xae;" horiz-adv-x="394" 
d="M197 374c-50 0 -92.667 17.667 -128 53s-53 78 -53 128v1c0 50 17.667 92.833 53 128.5s78 53.5 128 53.5s92.667 -17.667 128 -53s53 -78 53 -128v-1c0 -50 -17.667 -92.833 -53 -128.5s-78 -53.5 -128 -53.5zM197 394c44.667 0 82.5 15.8311 113.5 47.498
s46.5 69.834 46.5 114.501v1c0 44.667 -15.333 82.834 -46 114.501s-68.667 47.5 -114 47.5s-83.333 -15.833 -114 -47.5s-46 -70.167 -46 -115.5v-1c0 -44.667 15.333 -82.667 46 -114s68.667 -47 114 -47zM119 463.998v191h90c24.667 0 44.167 -5.33301 58.5 -16
s21.5 -26.667 21.5 -48v-1c0 -14 -3.66699 -26.333 -11 -37s-17 -18 -29 -22l46 -67h-61l-39 58h-24v-58h-52zM171 562.998l34.999 0.000976562c20 0 30 8 30 24v1c0 6.66699 -2.66699 12.167 -8 16.5s-12.666 6.16602 -21.999 5.49902h-35v-47z" />
    <glyph glyph-name="overscore" unicode="&#xaf;" 
d="M79 625v106h370v-106h-370z" />
    <glyph glyph-name="degree" unicode="&#xb0;" horiz-adv-x="630" 
d="M314 311c-58.667 0 -109.499 21.167 -152.499 63.5s-64.5 92.5 -64.5 150.5v1c0 57.333 22 107 66 149s95 63 153 63c58.667 0 109.5 -21 152.5 -63s64.5 -92 64.5 -150v-1c0 -58 -21.833 -108 -65.5 -150s-94.834 -63 -153.501 -63zM316.001 395
c37.333 0 67.833 12.501 91.5 37.501s35.5 55.833 35.5 92.5v1c0 35.333 -12.167 65.5 -36.5 90.5s-55.166 37.5 -92.499 37.5s-67.833 -12.333 -91.5 -37s-35.5 -55.334 -35.5 -92.001v-1c0 -36 12.167 -66.5 36.5 -91.5s55.166 -37.5 92.499 -37.5z" />
    <glyph glyph-name="plusminus" unicode="&#xb1;" horiz-adv-x="630" 
d="M566 393l-184 1l1 -181h-136l1 181l-184 -1v132l184 -1l-1 181h136l-1 -181l184 1v-132zM566 0h-502v126h502v-126z" />
    <glyph glyph-name="acute" unicode="&#xb4;" 
d="M161 619l114 181l132 -57l-134 -124h-112z" />
    <glyph glyph-name="mu" unicode="&#xb5;" horiz-adv-x="704" 
d="M676 122l-0.000976562 -117c-22 -7.33301 -49.333 -11 -82 -11c-67.333 0 -112 23 -134 69c-30 -46.667 -71.333 -70 -124 -70c-27.333 0 -53.166 6.5 -77.499 19.5s-41.5 31.833 -51.5 56.5h-2c13.333 -58 20 -99.333 20 -124v-111h-149v722h152v-315
c0 -38 9 -67.333 27 -88s43 -31 75 -31c32.667 0 58.5 10.333 77.5 31s28.5 50 28.5 88v315h152v-385c1.33301 -19.333 6.33301 -32.833 15 -40.5s22 -11.5 40 -11.5c12.667 0 23.667 1 33 3z" />
    <glyph glyph-name="paragraph" unicode="&#xb6;" horiz-adv-x="630" 
d="M379 0l0.000976562 242.001h-29c-90.667 0 -163.834 20.667 -219.501 62s-83.5 101.333 -83.5 180v1c0 75.333 26.167 134.666 78.5 177.999s121.833 65 208.5 65h198v-728h-153z" />
    <glyph glyph-name="middot" unicode="&#xb7;" horiz-adv-x="315" 
d="M74 238v167h168v-167h-168z" />
    <glyph glyph-name="cedilla" unicode="&#xb8;" 
d="M257 -178l-128 53l100 145h109z" />
    <glyph glyph-name="ordmasculine" unicode="&#xba;" horiz-adv-x="414" 
d="M206 415c-45.333 0 -83.167 15.167 -113.5 45.5s-45.5 67.5 -45.5 111.5v2c0 44 15.5 81.5 46.5 112.5s69.167 46.5 114.5 46.5s83 -15.167 113 -45.5s45 -67.5 45 -111.5v-3c0 -44.667 -15.333 -82.167 -46 -112.5s-68.667 -45.5 -114 -45.5zM56.999 289v67h300v-67
h-300zM207.999 488c22.667 0 40.832 8.16699 54.499 24.5s20.5 36.166 20.5 59.499v2c0 24 -7.16699 44.333 -21.5 61s-32.833 25 -55.5 25s-41 -8.16699 -55 -24.5s-21 -36.166 -21 -59.499v-3c0 -23.333 7.33301 -43.333 22 -60s33.334 -25 56.001 -25z" />
    <glyph glyph-name="guillemotright" unicode="&#xbb;" horiz-adv-x="671" 
d="M439 44l-106 52l126 181l-126 181l106 54l184 -230v-8zM161 44l-106 52l126 181l-126 181l106 54l184 -230v-8z" />
    <glyph glyph-name="onequarter" unicode="&#xbc;" horiz-adv-x="945" 
d="M368 323h-296v76h110v242l-94 -36l-25 73l141 55h65v-334h99v-76zM209 0l264 381l230 347h84l-264 -381l-230 -347h-84zM849 84v-86h-80v86h-196l-8 83l196 243h88v-257h55v-69h-55zM770 152v162l-129 -162h129z" />
    <glyph glyph-name="onehalf" unicode="&#xbd;" horiz-adv-x="945" 
d="M368 323h-296v76h110v242l-94 -36l-25 73l141 55h65v-334h99v-76zM589 0v75.0029l139 114c26 21.333 44.167 38.666 54.5 51.999s15.5 28 15.5 44c0 15.333 -5.33301 27.333 -16 36s-24 13 -40 13c-30.667 0 -60.667 -18.667 -90 -56l-63 51
c21.333 29.333 44 51.166 68 65.499s54 21.5 90 21.5c43.333 0 78 -11.333 104 -34s39 -52.334 39 -89.001c0 -28 -6.33301 -52 -19 -72s-35 -42.667 -67 -68l-96 -76h184v-77h-303zM204 0.00292969l264 381l230 347h84l-264 -381l-230 -347h-84z" />
    <glyph glyph-name="threequarters" unicode="&#xbe;" horiz-adv-x="945" 
d="M849 84v-86h-80v86h-196l-8 83l196 243h88v-257h55v-69h-55zM770 152v162l-129 -162h129zM204 0l264 381l230 347h84l-264 -381l-230 -347h-84zM208 312c-60 0 -113.665 21.334 -160.998 64.001l51 65c36 -32.667 73 -49 111 -49c17.333 0 32.166 4.83301 44.499 14.5
s18.5 22.167 18.5 37.5c0 34.667 -25.667 52 -77 52h-48l-14 55l110 98h-169v79h280v-68l-117 -101c36.667 -2.66699 66.5 -13.5 89.5 -32.5s34.5 -45.5 34.5 -79.5c0 -40.667 -13.833 -73.334 -41.5 -98.001s-64.834 -37 -111.501 -37z" />
    <glyph glyph-name="questiondown" unicode="&#xbf;" horiz-adv-x="573" 
d="M233 566v162h163v-162h-163zM294 -9c-75.333 0 -136 18.833 -182 56.5s-69 90.167 -69 157.5v2c0 114 68.667 183.667 206 209l12 68h101l24 -169l-6 -5c-122.667 -4.66699 -184 -37.667 -184 -99v-2c0 -24.667 8.83301 -44 26.5 -58s42.5 -21 74.5 -21
c57.333 0 110 24.667 158 74l92 -100c-66.667 -75.333 -151 -113 -253 -113z" />
    <glyph glyph-name="Agrave" unicode="&#xc0;" horiz-adv-x="830" 
d="M30 0l314 733h142l313 -733h-161l-68 166h-315l-68 -166h-157zM310 302h205l-102 247zM476 796h-116l-140 103l132 58z" />
    <glyph glyph-name="Aacute" unicode="&#xc1;" horiz-adv-x="830" 
d="M30 0l314 733h142l313 -733h-161l-68 166h-315l-68 -166h-157zM310 302h205l-102 247zM353 796l124 161l132 -58l-140 -103h-116z" />
    <glyph glyph-name="Acircumflex" unicode="&#xc2;" horiz-adv-x="830" 
d="M30 0l314 733h142l313 -733h-161l-68 166h-315l-68 -166h-157zM310 302h205l-102 247zM212 792l131 150h144l131 -150h-122l-82 58l-82 -58h-120z" />
    <glyph glyph-name="Atilde" unicode="&#xc3;" horiz-adv-x="830" 
d="M30 0l314 733h142l313 -733h-161l-68 166h-315l-68 -166h-157zM310 302h205l-102 247zM507 796c-24.667 0 -57.6689 8.00098 -99.002 24.001c-29.333 10.667 -49.666 16 -60.999 16c-15.333 0 -27.166 -3.83301 -35.499 -11.5s-16.5 -20.834 -24.5 -39.501l-82 26
c13.333 46.667 29.5 81.667 48.5 105s45.5 35 79.5 35c24.667 0 57.667 -8 99 -24c31.333 -11.333 51.666 -17 60.999 -17c14.667 0 26.334 4 35.001 12s17 21 25 39l81 -25c-12.667 -46.667 -28.5 -81.667 -47.5 -105s-45.5 -35 -79.5 -35z" />
    <glyph glyph-name="Adieresis" unicode="&#xc4;" horiz-adv-x="830" 
d="M30 0l314 733h142l313 -733h-161l-68 166h-315l-68 -166h-157zM310 302h205l-102 247zM453 796v129h148v-129h-148zM229 796v129h148v-129h-148z" />
    <glyph glyph-name="Aring" unicode="&#xc5;" horiz-adv-x="830" 
d="M30 0l295 690c-25.333 21.333 -38 48.666 -38 81.999c0 32.667 12.667 59.834 38 81.501s55.333 32.5 90 32.5s64.667 -10.833 90 -32.5s38 -48.834 38 -81.501c0 -33.333 -13 -60.666 -39 -81.999l295 -690h-161l-68 166h-315l-68 -166h-157zM310 302h205l-102 247z
M415 714c19.333 0 35.166 5.66699 47.499 17s18.5 25 18.5 41c0 16.667 -6.16699 30.667 -18.5 42s-28.166 17 -47.499 17s-35.166 -5.66699 -47.499 -17s-18.5 -25.333 -18.5 -42s6.16699 -30.5 18.5 -41.5s28.166 -16.5 47.499 -16.5z" />
    <glyph glyph-name="AE" unicode="&#xc6;" horiz-adv-x="1095" 
d="M14 0l395 728h621v-137h-369v-156h322v-137h-322v-161h374v-137h-527v166h-248l-89 -166h-157zM332 302h176v293h-19z" />
    <glyph glyph-name="Ccedilla" unicode="&#xc7;" horiz-adv-x="776" 
d="M391 -178l-128.001 53.002l84 122c-84.667 19.333 -153.667 62.5 -207 129.5s-80 145.5 -80 235.5v2c0 105.333 35.667 194.333 107 267s162 109 272 109c64.667 0 119.167 -9.5 163.5 -28.5s85.5 -46.833 123.5 -83.5l-98 -113c-61.333 56 -124.666 84 -189.999 84
c-62 0 -113.667 -22.667 -155 -68s-62 -100.333 -62 -165v-2c0 -65.333 20.5 -120.833 61.5 -166.5s92.833 -68.5 155.5 -68.5c39.333 0 73.5 7.16699 102.5 21.5s59.833 36.166 92.5 65.499l98 -99c-75.333 -80.667 -166 -123.334 -272 -128.001z" />
    <glyph glyph-name="Egrave" unicode="&#xc8;" horiz-adv-x="705" 
d="M430 786h-116l-140 103l132 58zM93 0v728h547v-137h-395v-156h348v-137h-348v-161h400v-137h-552z" />
    <glyph glyph-name="Eacute" unicode="&#xc9;" horiz-adv-x="705" 
d="M307 786l124 161l132 -58l-140 -103h-116zM93 0v728h547v-137h-395v-156h348v-137h-348v-161h400v-137h-552z" />
    <glyph glyph-name="Ecircumflex" unicode="&#xca;" horiz-adv-x="705" 
d="M93 0v728h547v-137h-395v-156h348v-137h-348v-161h400v-137h-552zM165 786l131 150h144l131 -150h-122l-82 58l-82 -58h-120z" />
    <glyph glyph-name="Edieresis" unicode="&#xcb;" horiz-adv-x="705" 
d="M406 786v129h148v-129h-148zM182 786v129h148v-129h-148zM93 0v728h547v-137h-395v-156h348v-137h-348v-161h400v-137h-552z" />
    <glyph glyph-name="Igrave" unicode="&#xcc;" horiz-adv-x="354" 
d="M100 0v728h154v-728h-154zM239 786h-116l-140 103l132 58z" />
    <glyph glyph-name="Iacute" unicode="&#xcd;" horiz-adv-x="354" 
d="M100 0v728h154v-728h-154zM116 786l124 161l132 -58l-140 -103h-116z" />
    <glyph glyph-name="Icircumflex" unicode="&#xce;" horiz-adv-x="354" 
d="M100 0v728h154v-728h-154zM-25 786l131 150h144l131 -150h-122l-82 58l-82 -58h-120z" />
    <glyph glyph-name="Idieresis" unicode="&#xcf;" horiz-adv-x="354" 
d="M100 0v728h154v-728h-154zM216 786v129h148v-129h-148zM-8 786v129h148v-129h-148z" />
    <glyph glyph-name="Eth" unicode="&#xd0;" horiz-adv-x="852" 
d="M124 0v313h-78v106h78v309h281c112.667 0 205.334 -34.5 278.001 -103.5s109 -155.167 109 -258.5v-2c0 -103.333 -36.333 -189.833 -109 -259.5s-165.334 -104.5 -278.001 -104.5h-281zM439 313l-161 -0.000976562v-174h127c68 0 122.667 20.667 164 62s62 95 62 161v2
c0 66.667 -20.833 120.834 -62.5 162.501s-96.167 62.5 -163.5 62.5h-127v-170h161v-106z" />
    <glyph glyph-name="Ntilde" unicode="&#xd1;" horiz-adv-x="830" 
d="M507 786c-24.667 0 -57.6689 8.00098 -99.002 24.001c-29.333 10.667 -49.666 16 -60.999 16c-15.333 0 -27.166 -3.83301 -35.499 -11.5s-16.5 -20.834 -24.5 -39.501l-82 26c13.333 46.667 29.5 81.667 48.5 105s45.5 35 79.5 35c24.667 0 57.667 -8 99 -24
c31.333 -11.333 51.666 -17 60.999 -17c14.667 0 26.334 4 35.001 12s17 21 25 39l81 -25c-12.667 -46.667 -28.5 -81.667 -47.5 -105s-45.5 -35 -79.5 -35zM92.998 0.000976562v728h141l351 -459v459h152v-728h-131l-362 474v-474h-151z" />
    <glyph glyph-name="Ograve" unicode="&#xd2;" horiz-adv-x="892" 
d="M508 796h-116l-140 103l132 58zM445 -12c-110.667 0 -202.5 36.167 -275.5 108.5s-109.5 160.833 -109.5 265.5v2c0 104 36.833 192.667 110.5 266s165.834 110 276.501 110s202.5 -36.167 275.5 -108.5s109.5 -160.833 109.5 -265.5v-2
c0 -104 -36.833 -192.667 -110.5 -266s-165.834 -110 -276.501 -110zM447 129c64.667 0 118.167 22.5 160.5 67.5s63.5 100.167 63.5 165.5v2c0 64.667 -21.5 120 -64.5 166s-96.833 69 -161.5 69s-118.167 -22.5 -160.5 -67.5s-63.5 -100.167 -63.5 -165.5v-2
c0 -65.333 21.333 -120.833 64 -166.5s96.667 -68.5 162 -68.5z" />
    <glyph glyph-name="Oacute" unicode="&#xd3;" horiz-adv-x="892" 
d="M384 796l124 161l132 -58l-140 -103h-116zM445 -12c-110.667 0 -202.5 36.167 -275.5 108.5s-109.5 160.833 -109.5 265.5v2c0 104 36.833 192.667 110.5 266s165.834 110 276.501 110s202.5 -36.167 275.5 -108.5s109.5 -160.833 109.5 -265.5v-2
c0 -104 -36.833 -192.667 -110.5 -266s-165.834 -110 -276.501 -110zM447 129c64.667 0 118.167 22.5 160.5 67.5s63.5 100.167 63.5 165.5v2c0 64.667 -21.5 120 -64.5 166s-96.833 69 -161.5 69s-118.167 -22.5 -160.5 -67.5s-63.5 -100.167 -63.5 -165.5v-2
c0 -65.333 21.333 -120.833 64 -166.5s96.667 -68.5 162 -68.5z" />
    <glyph glyph-name="Ocircumflex" unicode="&#xd4;" horiz-adv-x="892" 
d="M445 -12c-110.667 0 -202.5 36.167 -275.5 108.5s-109.5 160.833 -109.5 265.5v2c0 104 36.833 192.667 110.5 266s165.834 110 276.501 110s202.5 -36.167 275.5 -108.5s109.5 -160.833 109.5 -265.5v-2c0 -104 -36.833 -192.667 -110.5 -266
s-165.834 -110 -276.501 -110zM447 129c64.667 0 118.167 22.5 160.5 67.5s63.5 100.167 63.5 165.5v2c0 64.667 -21.5 120 -64.5 166s-96.833 69 -161.5 69s-118.167 -22.5 -160.5 -67.5s-63.5 -100.167 -63.5 -165.5v-2c0 -65.333 21.333 -120.833 64 -166.5
s96.667 -68.5 162 -68.5zM243 796l131 150h144l131 -150h-122l-82 58l-82 -58h-120z" />
    <glyph glyph-name="Otilde" unicode="&#xd5;" horiz-adv-x="892" 
d="M538 796c-24.667 0 -57.6689 8.00098 -99.002 24.001c-29.333 10.667 -49.666 16 -60.999 16c-15.333 0 -27.166 -3.83301 -35.499 -11.5s-16.5 -20.834 -24.5 -39.501l-82 26c13.333 46.667 29.5 81.667 48.5 105s45.5 35 79.5 35c24.667 0 57.667 -8 99 -24
c31.333 -11.333 51.666 -17 60.999 -17c14.667 0 26.334 4 35.001 12s17 21 25 39l81 -25c-12.667 -46.667 -28.5 -81.667 -47.5 -105s-45.5 -35 -79.5 -35zM444.998 -11.999c-110.667 0 -202.5 36.167 -275.5 108.5s-109.5 160.833 -109.5 265.5v2
c0 104 36.833 192.667 110.5 266s165.834 110 276.501 110s202.5 -36.167 275.5 -108.5s109.5 -160.833 109.5 -265.5v-2c0 -104 -36.833 -192.667 -110.5 -266s-165.834 -110 -276.501 -110zM446.998 129.001c64.667 0 118.167 22.5 160.5 67.5s63.5 100.167 63.5 165.5v2
c0 64.667 -21.5 120 -64.5 166s-96.833 69 -161.5 69s-118.167 -22.5 -160.5 -67.5s-63.5 -100.167 -63.5 -165.5v-2c0 -65.333 21.333 -120.833 64 -166.5s96.667 -68.5 162 -68.5z" />
    <glyph glyph-name="Odieresis" unicode="&#xd6;" horiz-adv-x="892" 
d="M484 796v129h148v-129h-148zM260 796v129h148v-129h-148zM445 -12c-110.667 0 -202.5 36.167 -275.5 108.5s-109.5 160.833 -109.5 265.5v2c0 104 36.833 192.667 110.5 266s165.834 110 276.501 110s202.5 -36.167 275.5 -108.5s109.5 -160.833 109.5 -265.5v-2
c0 -104 -36.833 -192.667 -110.5 -266s-165.834 -110 -276.501 -110zM447 129c64.667 0 118.167 22.5 160.5 67.5s63.5 100.167 63.5 165.5v2c0 64.667 -21.5 120 -64.5 166s-96.833 69 -161.5 69s-118.167 -22.5 -160.5 -67.5s-63.5 -100.167 -63.5 -165.5v-2
c0 -65.333 21.333 -120.833 64 -166.5s96.667 -68.5 162 -68.5z" />
    <glyph glyph-name="multiply" unicode="&#xd7;" horiz-adv-x="630" 
d="M467 119l-153 157l-153 -157l-93 93l157 153l-157 153l95 95l153 -157l153 157l93 -93l-157 -153l157 -153z" />
    <glyph glyph-name="Oslash" unicode="&#xd8;" horiz-adv-x="892" 
d="M693 733h146.999l-102 -118c62.667 -70 94 -153 94 -249v-2c0 -104 -36.833 -192.667 -110.5 -266s-165.834 -110 -276.501 -110c-76.667 0 -144.667 17.667 -204 53l-42 -46h-147l102 118c-62.667 70 -94 153 -94 249v2c0 104 36.833 192.667 110.5 266
s165.834 110 276.501 110c74.667 0 142.334 -18 203.001 -54zM217.999 366l0.000976562 -2c0 -49.333 13 -94.333 39 -135l298 345c-32.667 18.667 -69.334 28 -110.001 28c-65.333 0 -119.5 -23 -162.5 -69s-64.5 -101.667 -64.5 -167zM447 126
c65.333 0 119.499 22.999 162.499 68.999s64.5 101.667 64.5 167v2c0 50.667 -13 95.334 -39 134.001l-298 -344c32.667 -18.667 69.334 -28 110.001 -28z" />
    <glyph glyph-name="Ugrave" unicode="&#xd9;" horiz-adv-x="794" 
d="M459 786h-116l-140 103l132 58zM395 -11c-98.667 0 -175.666 27.5 -230.999 82.5s-83 134.833 -83 239.5v417h154v-412c0 -60.667 14.167 -106.834 42.5 -138.501s68.166 -47.5 119.499 -47.5s91.333 15.333 120 46s43 75.334 43 134.001v418h153v-411
c0 -108 -28 -189.667 -84 -245s-134 -83 -234 -83z" />
    <glyph glyph-name="Uacute" unicode="&#xda;" horiz-adv-x="794" 
d="M336 786l124 161l132 -58l-140 -103h-116zM395 -11c-98.667 0 -175.666 27.5 -230.999 82.5s-83 134.833 -83 239.5v417h154v-412c0 -60.667 14.167 -106.834 42.5 -138.501s68.166 -47.5 119.499 -47.5s91.333 15.333 120 46s43 75.334 43 134.001v418h153v-411
c0 -108 -28 -189.667 -84 -245s-134 -83 -234 -83z" />
    <glyph glyph-name="Ucircumflex" unicode="&#xdb;" horiz-adv-x="794" 
d="M395 -11c-98.667 0 -175.666 27.5 -230.999 82.5s-83 134.833 -83 239.5v417h154v-412c0 -60.667 14.167 -106.834 42.5 -138.501s68.166 -47.5 119.499 -47.5s91.333 15.333 120 46s43 75.334 43 134.001v418h153v-411c0 -108 -28 -189.667 -84 -245s-134 -83 -234 -83z
M194.001 786l131 150h144l131 -150h-122l-82 58l-82 -58h-120z" />
    <glyph glyph-name="Udieresis" unicode="&#xdc;" horiz-adv-x="794" 
d="M435 786v129h148v-129h-148zM211 786v129h148v-129h-148zM395 -11c-98.667 0 -175.666 27.5 -230.999 82.5s-83 134.833 -83 239.5v417h154v-412c0 -60.667 14.167 -106.834 42.5 -138.501s68.166 -47.5 119.499 -47.5s91.333 15.333 120 46s43 75.334 43 134.001v418
h153v-411c0 -108 -28 -189.667 -84 -245s-134 -83 -234 -83z" />
    <glyph glyph-name="Yacute" unicode="&#xdd;" horiz-adv-x="753" 
d="M299 0v287l-281 441h180l179 -298l183 298h175l-282 -438v-290h-154zM315 786l124 161l132 -58l-140 -103h-116z" />
    <glyph glyph-name="Thorn" unicode="&#xde;" horiz-adv-x="708" 
d="M93 0v728h153v-108h142c85.333 0 153 -22.833 203 -68.5s75 -106.167 75 -181.5v-2c0 -80.667 -27.667 -143.167 -83 -187.5s-125.333 -66.5 -210 -66.5h-127v-114h-153zM246 251l132 0.00195312c41.333 0 73.833 10.667 97.5 32s35.5 48.666 35.5 81.999v2
c0 37.333 -12 65.666 -36 84.999s-57.333 29 -100 29h-129v-230z" />
    <glyph glyph-name="germandbls" unicode="&#xdf;" horiz-adv-x="653" 
d="M314 -2v113.998c44.667 2 79 11.5 103 28.5s36 40.5 36 70.5v2c0 28.667 -12.667 51.834 -38 69.501s-59 29.5 -101 35.5v100c64.667 37.333 97 81.333 97 132v2c0 27.333 -7.83301 48.5 -23.5 63.5s-37.167 22.5 -64.5 22.5c-28.667 0 -51.834 -9.83301 -69.501 -29.5
s-26.5 -46.167 -26.5 -79.5v-529h-151v523c0 76 22.833 135.5 68.5 178.5s107.5 64.5 185.5 64.5c72 0 128.5 -18.833 169.5 -56.5s61.5 -85.5 61.5 -143.5v-2c0 -41.333 -8.66699 -75.166 -26 -101.499s-41.666 -49.5 -72.999 -69.5c94 -38 141 -99.667 141 -185v-2
c0 -68 -26.167 -120.667 -78.5 -158s-122.5 -54 -210.5 -50z" />
    <glyph glyph-name="agrave" unicode="&#xe0;" horiz-adv-x="623" 
d="M235 -11c-54.667 0 -100.5 15.167 -137.5 45.5s-55.5 72.166 -55.5 125.499v2c0 58.667 20.333 102.834 61 132.501s95.334 44.5 164.001 44.5c47.333 0 93.666 -7.33301 138.999 -22v10c0 70 -41 105 -123 105c-48 0 -99.667 -10.333 -155 -31l-38 116
c68 30 139.667 45 215 45c82 0 144.333 -20.667 187 -62c40 -40 60 -98.667 60 -176v-324h-147v62c-44 -48.667 -100.667 -73 -170 -73zM280 95c38 0 68.833 9.5 92.5 28.5s35.5 43.5 35.5 73.5v30c-32.667 14 -68 21 -106 21c-35.333 0 -63 -7 -83 -21s-30 -33.667 -30 -59
v-2c0 -22 8.33301 -39.333 25 -52s38.667 -19 66 -19zM261 619l-134 124l132 57l114 -181h-112z" />
    <glyph glyph-name="aacute" unicode="&#xe1;" horiz-adv-x="623" 
d="M235 -11c-54.667 0 -100.5 15.167 -137.5 45.5s-55.5 72.166 -55.5 125.499v2c0 58.667 20.333 102.834 61 132.501s95.334 44.5 164.001 44.5c47.333 0 93.666 -7.33301 138.999 -22v10c0 70 -41 105 -123 105c-48 0 -99.667 -10.333 -155 -31l-38 116
c68 30 139.667 45 215 45c82 0 144.333 -20.667 187 -62c40 -40 60 -98.667 60 -176v-324h-147v62c-44 -48.667 -100.667 -73 -170 -73zM280 95c38 0 68.833 9.5 92.5 28.5s35.5 43.5 35.5 73.5v30c-32.667 14 -68 21 -106 21c-35.333 0 -63 -7 -83 -21s-30 -33.667 -30 -59
v-2c0 -22 8.33301 -39.333 25 -52s38.667 -19 66 -19zM253 619l114 181l132 -57l-134 -124h-112z" />
    <glyph glyph-name="acircumflex" unicode="&#xe2;" horiz-adv-x="623" 
d="M235 -11c-54.667 0 -100.5 15.167 -137.5 45.5s-55.5 72.166 -55.5 125.499v2c0 58.667 20.333 102.834 61 132.501s95.334 44.5 164.001 44.5c47.333 0 93.666 -7.33301 138.999 -22v10c0 70 -41 105 -123 105c-48 0 -99.667 -10.333 -155 -31l-38 116
c68 30 139.667 45 215 45c82 0 144.333 -20.667 187 -62c40 -40 60 -98.667 60 -176v-324h-147v62c-44 -48.667 -100.667 -73 -170 -73zM280 95c38 0 68.833 9.5 92.5 28.5s35.5 43.5 35.5 73.5v30c-32.667 14 -68 21 -106 21c-35.333 0 -63 -7 -83 -21s-30 -33.667 -30 -59
v-2c0 -22 8.33301 -39.333 25 -52s38.667 -19 66 -19zM115 619l126 161h144l126 -161h-117l-82 69l-82 -69h-115z" />
    <glyph glyph-name="atilde" unicode="&#xe3;" horiz-adv-x="623" 
d="M235 -11c-54.667 0 -100.5 15.167 -137.5 45.5s-55.5 72.166 -55.5 125.499v2c0 58.667 20.333 102.834 61 132.501s95.334 44.5 164.001 44.5c47.333 0 93.666 -7.33301 138.999 -22v10c0 70 -41 105 -123 105c-48 0 -99.667 -10.333 -155 -31l-38 116
c68 30 139.667 45 215 45c82 0 144.333 -20.667 187 -62c40 -40 60 -98.667 60 -176v-324h-147v62c-44 -48.667 -100.667 -73 -170 -73zM280 95c38 0 68.833 9.5 92.5 28.5s35.5 43.5 35.5 73.5v30c-32.667 14 -68 21 -106 21c-35.333 0 -63 -7 -83 -21s-30 -33.667 -30 -59
v-2c0 -22 8.33301 -39.333 25 -52s38.667 -19 66 -19zM402 619c-24.667 0 -55.667 7.66797 -93 23.001c-30 11.333 -50.333 17 -61 17c-15.333 0 -27 -3.83301 -35 -11.5s-16 -20.834 -24 -39.501l-82 25c13.333 47.333 29.5 82.666 48.5 105.999s45.167 35 78.5 35
c24.667 0 55.667 -7.66699 93 -23c32 -12 52.333 -18 61 -18c15.333 0 27 3.83301 35 11.5s16 21.167 24 40.5l82 -25c-13.333 -47.333 -29.5 -82.666 -48.5 -105.999s-45.167 -35 -78.5 -35z" />
    <glyph glyph-name="adieresis" unicode="&#xe4;" horiz-adv-x="623" 
d="M235 -11c-54.667 0 -100.5 15.167 -137.5 45.5s-55.5 72.166 -55.5 125.499v2c0 58.667 20.333 102.834 61 132.501s95.334 44.5 164.001 44.5c47.333 0 93.666 -7.33301 138.999 -22v10c0 70 -41 105 -123 105c-48 0 -99.667 -10.333 -155 -31l-38 116
c68 30 139.667 45 215 45c82 0 144.333 -20.667 187 -62c40 -40 60 -98.667 60 -176v-324h-147v62c-44 -48.667 -100.667 -73 -170 -73zM280 95c38 0 68.833 9.5 92.5 28.5s35.5 43.5 35.5 73.5v30c-32.667 14 -68 21 -106 21c-35.333 0 -63 -7 -83 -21s-30 -33.667 -30 -59
v-2c0 -22 8.33301 -39.333 25 -52s38.667 -19 66 -19zM346 619v137h147v-137h-147zM133 619v137h147v-137h-147z" />
    <glyph glyph-name="aring" unicode="&#xe5;" horiz-adv-x="623" 
d="M235 -11c-54.667 0 -100.5 15.167 -137.5 45.5s-55.5 72.166 -55.5 125.499v2c0 58.667 20.333 102.834 61 132.501s95.334 44.5 164.001 44.5c47.333 0 93.666 -7.33301 138.999 -22v10c0 70 -41 105 -123 105c-48 0 -99.667 -10.333 -155 -31l-38 116
c68 30 139.667 45 215 45c82 0 144.333 -20.667 187 -62c40 -40 60 -98.667 60 -176v-324h-147v62c-44 -48.667 -100.667 -73 -170 -73zM280 95c38 0 68.833 9.5 92.5 28.5s35.5 43.5 35.5 73.5v30c-32.667 14 -68 21 -106 21c-35.333 0 -63 -7 -83 -21s-30 -33.667 -30 -59
v-2c0 -22 8.33301 -39.333 25 -52s38.667 -19 66 -19zM313 617c-34 0 -63.333 11.667 -88 35s-37 51.666 -37 84.999s12.333 61.833 37 85.5s54 35.5 88 35.5s63.333 -11.833 88 -35.5s37 -52.167 37 -85.5s-12.333 -61.666 -37 -84.999s-54 -35 -88 -35zM313 668
c19.333 0 35.666 6.83301 48.999 20.5s20 29.834 20 48.501c0 19.333 -6.66699 35.666 -20 48.999s-29.666 20 -48.999 20s-35.666 -6.66699 -48.999 -20s-20 -29.666 -20 -48.999c0 -18.667 6.66699 -34.834 20 -48.501s29.666 -20.5 48.999 -20.5z" />
    <glyph glyph-name="ae" unicode="&#xe6;" horiz-adv-x="997" 
d="M252 -11c-61.333 0 -111.666 15.3311 -150.999 45.998s-59 72.334 -59 125.001v2c0 58.667 20.333 102.834 61 132.501s95.334 44.5 164.001 44.5c46.667 0 92.667 -7.33301 138 -22v10c0 70 -40.667 105 -122 105c-48 0 -99.667 -10.333 -155 -31l-38 116
c65.333 30 136.666 45 213.999 45c89.333 0 152.666 -24.667 189.999 -74c50 52 112 78 186 78c84.667 0 150.167 -29.167 196.5 -87.5s69.5 -129.5 69.5 -213.5c0 -6.66699 -0.666992 -20 -2 -40h-391c7.33301 -37.333 23.333 -65.833 48 -85.5s55.667 -29.5 93 -29.5
c50.667 0 96.667 19.333 138 58l87 -77c-56 -68.667 -131.667 -103 -227 -103c-88.667 0 -159.667 28.667 -213 86c-75.333 -56.667 -151 -85 -227 -85zM551 319.998h247c-4.66699 38 -17.5 68.167 -38.5 90.5s-48.833 33.5 -83.5 33.5c-33.333 0 -61 -11 -83 -33
s-36 -52.333 -42 -91zM279 96.998c53.333 0 102.334 18.668 147.001 56.001c-10 22 -16.667 47 -20 75c-34 13.333 -68.667 20 -104 20s-63 -7 -83 -21s-30 -33.667 -30 -59v-2c0 -20.667 8.66699 -37.334 26 -50.001s38.666 -19 63.999 -19z" />
    <glyph glyph-name="ccedilla" unicode="&#xe7;" horiz-adv-x="602" 
d="M295 -178l-128.002 53.001l86 125c-61.333 17.333 -110.666 51 -147.999 101s-56 108 -56 174v2c0 80 27.5 148.167 82.5 204.5s124.5 84.5 208.5 84.5c92.667 0 166.667 -31.333 222 -94l-94 -100c-38.667 42 -81.667 63 -129 63
c-40.667 0 -74.167 -15.167 -100.5 -45.5s-39.5 -67.166 -39.5 -110.499v-2c0 -44.667 13.5 -82.334 40.5 -113.001s62.167 -46 105.5 -46c44.667 0 88.334 20.333 131.001 61l89 -89c-28 -30.667 -57.333 -54.334 -88 -71.001s-68.667 -26.667 -114 -30z" />
    <glyph glyph-name="egrave" unicode="&#xe8;" horiz-adv-x="644" 
d="M338 -12c-83.333 0 -152.331 26.833 -206.998 80.5s-82 122.5 -82 206.5v2c0 80.667 25.833 149 77.5 205s117.167 84 196.5 84c58.667 0 109 -14.5 151 -43.5s72.333 -65.667 91 -110s28 -93.5 28 -147.5c0 -6.66699 -0.666992 -20 -2 -40h-391
c7.33301 -37.333 23.166 -65.833 47.499 -85.5s55.166 -29.5 92.499 -29.5c50.667 0 96.667 19.333 138 58l87 -77c-56 -68.667 -131.667 -103 -227 -103zM198.002 320h247c-6 38 -19.333 68.167 -40 90.5s-48 33.5 -82 33.5c-33.333 0 -61 -11 -83 -33s-36 -52.333 -42 -91
zM269.002 619l-134 124l132 57l114 -181h-112z" />
    <glyph glyph-name="eacute" unicode="&#xe9;" horiz-adv-x="644" 
d="M261 619l114 181l132 -57l-134 -124h-112zM338 -12c-83.333 0 -152.331 26.833 -206.998 80.5s-82 122.5 -82 206.5v2c0 80.667 25.833 149 77.5 205s117.167 84 196.5 84c58.667 0 109 -14.5 151 -43.5s72.333 -65.667 91 -110s28 -93.5 28 -147.5
c0 -6.66699 -0.666992 -20 -2 -40h-391c7.33301 -37.333 23.166 -65.833 47.499 -85.5s55.166 -29.5 92.499 -29.5c50.667 0 96.667 19.333 138 58l87 -77c-56 -68.667 -131.667 -103 -227 -103zM198.002 320h247c-6 38 -19.333 68.167 -40 90.5s-48 33.5 -82 33.5
c-33.333 0 -61 -11 -83 -33s-36 -52.333 -42 -91z" />
    <glyph glyph-name="ecircumflex" unicode="&#xea;" horiz-adv-x="644" 
d="M123 619l126 161h144l126 -161h-117l-82 69l-82 -69h-115zM338 -12c-83.333 0 -152.331 26.833 -206.998 80.5s-82 122.5 -82 206.5v2c0 80.667 25.833 149 77.5 205s117.167 84 196.5 84c58.667 0 109 -14.5 151 -43.5s72.333 -65.667 91 -110s28 -93.5 28 -147.5
c0 -6.66699 -0.666992 -20 -2 -40h-391c7.33301 -37.333 23.166 -65.833 47.499 -85.5s55.166 -29.5 92.499 -29.5c50.667 0 96.667 19.333 138 58l87 -77c-56 -68.667 -131.667 -103 -227 -103zM198.002 320h247c-6 38 -19.333 68.167 -40 90.5s-48 33.5 -82 33.5
c-33.333 0 -61 -11 -83 -33s-36 -52.333 -42 -91z" />
    <glyph glyph-name="edieresis" unicode="&#xeb;" horiz-adv-x="644" 
d="M354 619v137h147v-137h-147zM141 619v137h147v-137h-147zM338 -12c-83.333 0 -152.331 26.833 -206.998 80.5s-82 122.5 -82 206.5v2c0 80.667 25.833 149 77.5 205s117.167 84 196.5 84c58.667 0 109 -14.5 151 -43.5s72.333 -65.667 91 -110s28 -93.5 28 -147.5
c0 -6.66699 -0.666992 -20 -2 -40h-391c7.33301 -37.333 23.166 -65.833 47.499 -85.5s55.166 -29.5 92.499 -29.5c50.667 0 96.667 19.333 138 58l87 -77c-56 -68.667 -131.667 -103 -227 -103zM198.002 320h247c-6 38 -19.333 68.167 -40 90.5s-48 33.5 -82 33.5
c-33.333 0 -61 -11 -83 -33s-36 -52.333 -42 -91z" />
    <glyph glyph-name="igrave" unicode="&#xec;" horiz-adv-x="319" 
d="M84 0v556h151v-556h-151zM108 619l-134 124l132 57l114 -181h-112z" />
    <glyph glyph-name="iacute" unicode="&#xed;" horiz-adv-x="319" 
d="M101 619l114 181l132 -57l-134 -124h-112zM84 0v556h151v-556h-151z" />
    <glyph glyph-name="icircumflex" unicode="&#xee;" horiz-adv-x="319" 
d="M-38 619l126 161h144l126 -161h-117l-82 69l-82 -69h-115zM84 0v556h151v-556h-151z" />
    <glyph glyph-name="idieresis" unicode="&#xef;" horiz-adv-x="319" 
d="M193 619v137h147v-137h-147zM-20 619v137h147v-137h-147zM84 0v556h151v-556h-151z" />
    <glyph glyph-name="eth" unicode="&#xf0;" horiz-adv-x="698" 
d="M560 682l-78.002 -20.999c110 -116 165 -235 165 -357v-2c0 -88.667 -27.167 -163.167 -81.5 -223.5s-127.166 -90.5 -218.499 -90.5c-85.333 0 -156.333 28.167 -213 84.5s-85 126.5 -85 210.5v2c0 75.333 24 139 72 191s106.667 78 176 78
c47.333 0 91.333 -13.333 132 -40c-23.333 35.333 -53.666 71.666 -90.999 108.999l-129 -34l-27 81l81 21c-44 34 -74.333 56.667 -91 68h202l36 -30l124 32zM349.998 118.001c44.667 0 80.5 15.001 107.5 45.001s40.5 66.667 40.5 110v2
c0 43.333 -14.167 80.166 -42.5 110.499s-64.5 45.5 -108.5 45.5c-45.333 0 -81.333 -14.667 -108 -44s-40 -66 -40 -110v-2c0 -43.333 14.167 -80.333 42.5 -111s64.5 -46 108.5 -46z" />
    <glyph glyph-name="ntilde" unicode="&#xf1;" horiz-adv-x="655" 
d="M76 0v556.001h152v-80c43.333 60 98.333 90 165 90c60 0 106.833 -18.333 140.5 -55s50.5 -87.334 50.5 -152.001v-359h-152v311c0 38 -8.66699 67.167 -26 87.5s-42 30.5 -74 30.5c-32.667 0 -58.167 -10.167 -76.5 -30.5s-27.5 -49.5 -27.5 -87.5v-311h-152z
M418 619.001c-24.667 0 -55.667 7.66797 -93 23.001c-30 11.333 -50.333 17 -61 17c-15.333 0 -27 -3.83301 -35 -11.5s-16 -20.834 -24 -39.501l-82 25c13.333 47.333 29.5 82.666 48.5 105.999s45.167 35 78.5 35c24.667 0 55.667 -7.66699 93 -23
c32 -12 52.333 -18 61 -18c15.333 0 27 3.83301 35 11.5s16 21.167 24 40.5l82 -25c-13.333 -47.333 -29.5 -82.666 -48.5 -105.999s-45.167 -35 -78.5 -35z" />
    <glyph glyph-name="ograve" unicode="&#xf2;" horiz-adv-x="697" 
d="M347 -12c-84.667 0 -155.5 27.667 -212.5 83s-85.5 123.333 -85.5 204v2c0 80 28.833 148.167 86.5 204.5s129.167 84.5 214.5 84.5c84.667 0 155.5 -27.833 212.5 -83.5s85.5 -123.5 85.5 -203.5v-2c0 -80.667 -28.667 -149 -86 -205s-129 -84 -215 -84zM350 118
c44.667 0 80.5 15.166 107.5 45.499s40.5 67.5 40.5 111.5v2c0 43.333 -14.167 80.5 -42.5 111.5s-64.5 46.5 -108.5 46.5c-44.667 0 -80.5 -15 -107.5 -45s-40.5 -67 -40.5 -111v-2c0 -43.333 14.167 -80.666 42.5 -111.999s64.5 -47 108.5 -47zM296 618.999l-134 124
l132 57l114 -181h-112z" />
    <glyph glyph-name="oacute" unicode="&#xf3;" horiz-adv-x="697" 
d="M289 619l114 181l132 -57l-134 -124h-112zM347 -12c-84.667 0 -155.5 27.667 -212.5 83s-85.5 123.333 -85.5 204v2c0 80 28.833 148.167 86.5 204.5s129.167 84.5 214.5 84.5c84.667 0 155.5 -27.833 212.5 -83.5s85.5 -123.5 85.5 -203.5v-2
c0 -80.667 -28.667 -149 -86 -205s-129 -84 -215 -84zM350 118c44.667 0 80.5 15.166 107.5 45.499s40.5 67.5 40.5 111.5v2c0 43.333 -14.167 80.5 -42.5 111.5s-64.5 46.5 -108.5 46.5c-44.667 0 -80.5 -15 -107.5 -45s-40.5 -67 -40.5 -111v-2
c0 -43.333 14.167 -80.666 42.5 -111.999s64.5 -47 108.5 -47z" />
    <glyph glyph-name="ocircumflex" unicode="&#xf4;" horiz-adv-x="697" 
d="M151 619l126 161h144l126 -161h-117l-82 69l-82 -69h-115zM347 -12c-84.667 0 -155.5 27.667 -212.5 83s-85.5 123.333 -85.5 204v2c0 80 28.833 148.167 86.5 204.5s129.167 84.5 214.5 84.5c84.667 0 155.5 -27.833 212.5 -83.5s85.5 -123.5 85.5 -203.5v-2
c0 -80.667 -28.667 -149 -86 -205s-129 -84 -215 -84zM350 118c44.667 0 80.5 15.166 107.5 45.499s40.5 67.5 40.5 111.5v2c0 43.333 -14.167 80.5 -42.5 111.5s-64.5 46.5 -108.5 46.5c-44.667 0 -80.5 -15 -107.5 -45s-40.5 -67 -40.5 -111v-2
c0 -43.333 14.167 -80.666 42.5 -111.999s64.5 -47 108.5 -47z" />
    <glyph glyph-name="otilde" unicode="&#xf5;" horiz-adv-x="697" 
d="M347 -12c-84.667 0 -155.5 27.667 -212.5 83s-85.5 123.333 -85.5 204v2c0 80 28.833 148.167 86.5 204.5s129.167 84.5 214.5 84.5c84.667 0 155.5 -27.833 212.5 -83.5s85.5 -123.5 85.5 -203.5v-2c0 -80.667 -28.667 -149 -86 -205s-129 -84 -215 -84zM350 118
c44.667 0 80.5 15.166 107.5 45.499s40.5 67.5 40.5 111.5v2c0 43.333 -14.167 80.5 -42.5 111.5s-64.5 46.5 -108.5 46.5c-44.667 0 -80.5 -15 -107.5 -45s-40.5 -67 -40.5 -111v-2c0 -43.333 14.167 -80.666 42.5 -111.999s64.5 -47 108.5 -47zM438 618.999
c-24.667 0 -55.667 7.66797 -93 23.001c-30 11.333 -50.333 17 -61 17c-15.333 0 -27 -3.83301 -35 -11.5s-16 -20.834 -24 -39.501l-82 25c13.333 47.333 29.5 82.666 48.5 105.999s45.167 35 78.5 35c24.667 0 55.667 -7.66699 93 -23c32 -12 52.333 -18 61 -18
c15.333 0 27 3.83301 35 11.5s16 21.167 24 40.5l82 -25c-13.333 -47.333 -29.5 -82.666 -48.5 -105.999s-45.167 -35 -78.5 -35z" />
    <glyph glyph-name="odieresis" unicode="&#xf6;" horiz-adv-x="697" 
d="M382 619v137h147v-137h-147zM169 619v137h147v-137h-147zM347 -12c-84.667 0 -155.5 27.667 -212.5 83s-85.5 123.333 -85.5 204v2c0 80 28.833 148.167 86.5 204.5s129.167 84.5 214.5 84.5c84.667 0 155.5 -27.833 212.5 -83.5s85.5 -123.5 85.5 -203.5v-2
c0 -80.667 -28.667 -149 -86 -205s-129 -84 -215 -84zM350 118c44.667 0 80.5 15.166 107.5 45.499s40.5 67.5 40.5 111.5v2c0 43.333 -14.167 80.5 -42.5 111.5s-64.5 46.5 -108.5 46.5c-44.667 0 -80.5 -15 -107.5 -45s-40.5 -67 -40.5 -111v-2
c0 -43.333 14.167 -80.666 42.5 -111.999s64.5 -47 108.5 -47z" />
    <glyph glyph-name="divide" unicode="&#xf7;" horiz-adv-x="630" 
d="M236 515v146h158v-146h-158zM566 302h-502v128h502v-128zM236 71v146h158v-146h-158z" />
    <glyph glyph-name="oslash" unicode="&#xf8;" horiz-adv-x="697" 
d="M530 561h133.999l-85 -97c46 -54.667 69 -116.334 69 -185.001v-2c0 -80.667 -28.667 -149 -86 -205s-129 -84 -215 -84c-57.333 0 -107.666 12.333 -150.999 37l-29 -30h-134l83 95c-44.667 50.667 -67 112.334 -67 185.001v2c0 80 28.833 148.167 86.5 204.5
s129.167 84.5 214.5 84.5c56.667 0 106.667 -12.333 150 -37zM349.999 114c46 0 82.832 15.5 110.499 46.5s41.5 69.167 41.5 114.5v2c0 28 -6.33301 54.333 -19 79l-198 -228c20.667 -9.33301 42.334 -14 65.001 -14zM194.998 279v-2c0 -28.667 6 -55 18 -79l199 227
c-22 9.33301 -43.667 14 -65 14c-46 0 -82.833 -15.333 -110.5 -46s-41.5 -68.667 -41.5 -114z" />
    <glyph glyph-name="ugrave" unicode="&#xf9;" horiz-adv-x="655" 
d="M262 -11c-60 0 -106.667 18.5 -140 55.5s-50 87.833 -50 152.5v359h151v-311c0 -38 8.66699 -67.167 26 -87.5s42 -30.5 74 -30.5c32.667 0 58.167 10.167 76.5 30.5s27.5 49.5 27.5 87.5v311h152v-556h-152v80c-46.667 -60.667 -101.667 -91 -165 -91zM273 619l-134 124
l132 57l114 -181h-112z" />
    <glyph glyph-name="uacute" unicode="&#xfa;" horiz-adv-x="655" 
d="M265 619l114 181l132 -57l-134 -124h-112zM262 -11c-60 0 -106.667 18.5 -140 55.5s-50 87.833 -50 152.5v359h151v-311c0 -38 8.66699 -67.167 26 -87.5s42 -30.5 74 -30.5c32.667 0 58.167 10.167 76.5 30.5s27.5 49.5 27.5 87.5v311h152v-556h-152v80
c-46.667 -60.667 -101.667 -91 -165 -91z" />
    <glyph glyph-name="ucircumflex" unicode="&#xfb;" horiz-adv-x="655" 
d="M127 619l126 161h144l126 -161h-117l-82 69l-82 -69h-115zM262 -11c-60 0 -106.667 18.5 -140 55.5s-50 87.833 -50 152.5v359h151v-311c0 -38 8.66699 -67.167 26 -87.5s42 -30.5 74 -30.5c32.667 0 58.167 10.167 76.5 30.5s27.5 49.5 27.5 87.5v311h152v-556h-152v80
c-46.667 -60.667 -101.667 -91 -165 -91z" />
    <glyph glyph-name="udieresis" unicode="&#xfc;" horiz-adv-x="655" 
d="M358 619v137h147v-137h-147zM145 619v137h147v-137h-147zM262 -11c-60 0 -106.667 18.5 -140 55.5s-50 87.833 -50 152.5v359h151v-311c0 -38 8.66699 -67.167 26 -87.5s42 -30.5 74 -30.5c32.667 0 58.167 10.167 76.5 30.5s27.5 49.5 27.5 87.5v311h152v-556h-152v80
c-46.667 -60.667 -101.667 -91 -165 -91z" />
    <glyph glyph-name="yacute" unicode="&#xfd;" horiz-adv-x="631" 
d="M319 171l126 384.999h158l-215 -570c-22 -57.333 -46.333 -97.666 -73 -120.999s-63.334 -35 -110.001 -35c-48 0 -94 12.667 -138 38l51 110c24.667 -14 47.667 -21 69 -21c14.667 0 26.334 2.83301 35.001 8.5s17 16.5 25 32.5l-221 558h161zM255 618.999l114 181
l132 -57l-134 -124h-112z" />
    <glyph glyph-name="thorn" unicode="&#xfe;" horiz-adv-x="709" 
d="M76 -166v925.001h152v-286c45.333 62 104 93 176 93c69.333 0 129 -25.833 179 -77.5s75 -121.5 75 -209.5v-2c0 -88.667 -24.833 -158.834 -74.5 -210.501s-109.5 -77.5 -179.5 -77.5s-128.667 28.667 -176 86v-241h-152zM366 119.001c39.333 0 72.5 14.5 99.5 43.5
s40.5 67.167 40.5 114.5v2c0 46.667 -13.667 84.667 -41 114s-60.333 44 -99 44s-71.667 -14.667 -99 -44s-41 -67.333 -41 -114v-2c0 -46.667 13.667 -84.667 41 -114s60.333 -44 99 -44z" />
    <glyph glyph-name="ydieresis" unicode="&#xff;" horiz-adv-x="631" 
d="M319 171l126 384.999h158l-215 -570c-22 -57.333 -46.333 -97.666 -73 -120.999s-63.334 -35 -110.001 -35c-48 0 -94 12.667 -138 38l51 110c24.667 -14 47.667 -21 69 -21c14.667 0 26.334 2.83301 35.001 8.5s17 16.5 25 32.5l-221 558h161zM348 618.999v137h147v-137
h-147zM135 618.999v137h147v-137h-147z" />
    <glyph glyph-name="Amacron" unicode="&#x100;" horiz-adv-x="830" 
d="M30 0l314 733h142l313 -733h-161l-68 166h-315l-68 -166h-157zM310 302h205l-102 247zM220 802v108h390v-108h-390z" />
    <glyph glyph-name="amacron" unicode="&#x101;" horiz-adv-x="623" 
d="M235 -11c-54.667 0 -100.5 15.167 -137.5 45.5s-55.5 72.166 -55.5 125.499v2c0 58.667 20.333 102.834 61 132.501s95.334 44.5 164.001 44.5c47.333 0 93.666 -7.33301 138.999 -22v10c0 70 -41 105 -123 105c-48 0 -99.667 -10.333 -155 -31l-38 116
c68 30 139.667 45 215 45c82 0 144.333 -20.667 187 -62c40 -40 60 -98.667 60 -176v-324h-147v62c-44 -48.667 -100.667 -73 -170 -73zM280 95c38 0 68.833 9.5 92.5 28.5s35.5 43.5 35.5 73.5v30c-32.667 14 -68 21 -106 21c-35.333 0 -63 -7 -83 -21s-30 -33.667 -30 -59
v-2c0 -22 8.33301 -39.333 25 -52s38.667 -19 66 -19zM128 625v106h370v-106h-370z" />
    <glyph glyph-name="Abreve" unicode="&#x102;" horiz-adv-x="830" 
d="M30 0l314 733h142l313 -733h-161l-68 166h-315l-68 -166h-157zM310 302h205l-102 247zM415 794c-55.333 0 -100.331 13.167 -134.998 39.5s-54.334 63.833 -59.001 112.5h104c13.333 -34.667 43.333 -52 90 -52s76.667 17.333 90 52h104
c-4.66699 -48.667 -24.334 -86.167 -59.001 -112.5s-79.667 -39.5 -135 -39.5z" />
    <glyph glyph-name="abreve" unicode="&#x103;" horiz-adv-x="623" 
d="M235 -11c-54.667 0 -100.5 15.167 -137.5 45.5s-55.5 72.166 -55.5 125.499v2c0 58.667 20.333 102.834 61 132.501s95.334 44.5 164.001 44.5c47.333 0 93.666 -7.33301 138.999 -22v10c0 70 -41 105 -123 105c-48 0 -99.667 -10.333 -155 -31l-38 116
c68 30 139.667 45 215 45c82 0 144.333 -20.667 187 -62c40 -40 60 -98.667 60 -176v-324h-147v62c-44 -48.667 -100.667 -73 -170 -73zM280 95c38 0 68.833 9.5 92.5 28.5s35.5 43.5 35.5 73.5v30c-32.667 14 -68 21 -106 21c-35.333 0 -63 -7 -83 -21s-30 -33.667 -30 -59
v-2c0 -22 8.33301 -39.333 25 -52s38.667 -19 66 -19zM313 617c-54.667 0 -99.167 14.167 -133.5 42.5s-53.833 68.166 -58.5 119.499h102c14.667 -42 44.667 -63 90 -63s75.333 21 90 63h102c-4.66699 -51.333 -24.167 -91.166 -58.5 -119.499s-78.833 -42.5 -133.5 -42.5z
" />
    <glyph glyph-name="Aogonek" unicode="&#x104;" horiz-adv-x="830" 
d="M807 -103v-68c-7.33301 -1.33301 -22 -2 -44 -2c-44 0 -78.167 8.16699 -102.5 24.5s-36.5 37.833 -36.5 64.5c0 28 12 56 36 84h-22l-68 166h-315l-68 -166h-157l314 733h142l313 -733h-38c-18 -20.667 -27 -40.667 -27 -60c0 -30 24.333 -44.333 73 -43zM310 302h205
l-102 247z" />
    <glyph glyph-name="aogonek" unicode="&#x105;" horiz-adv-x="623" 
d="M556 -103v-68c-7.33301 -1.33301 -22 -2 -44 -2c-44 0 -78.167 8.16699 -102.5 24.5s-36.5 37.833 -36.5 64.5c0 28 12 56 36 84h-4v62c-44 -48.667 -100.667 -73 -170 -73c-54.667 0 -100.5 15.167 -137.5 45.5s-55.5 72.166 -55.5 125.499v2
c0 58.667 20.333 102.834 61 132.501s95.334 44.5 164.001 44.5c47.333 0 93.666 -7.33301 138.999 -22v10c0 70 -41 105 -123 105c-48 0 -99.667 -10.333 -155 -31l-38 116c68 30 139.667 45 215 45c82 0 144.333 -20.667 187 -62c40 -40 60 -98.667 60 -176v-324h-42
c-18 -20.667 -27 -40.667 -27 -60c0 -30 24.333 -44.333 73 -43zM280 95c38 0 68.833 9.5 92.5 28.5s35.5 43.5 35.5 73.5v30c-32.667 14 -68 21 -106 21c-35.333 0 -63 -7 -83 -21s-30 -33.667 -30 -59v-2c0 -22 8.33301 -39.333 25 -52s38.667 -19 66 -19z" />
    <glyph glyph-name="Cacute" unicode="&#x106;" horiz-adv-x="776" 
d="M433 -12c-106.667 0 -195.501 36.002 -266.501 108.002s-106.5 160.667 -106.5 266v2c0 105.333 35.667 194.333 107 267s162 109 272 109c64.667 0 119.167 -9.5 163.5 -28.5s85.5 -46.833 123.5 -83.5l-98 -113c-61.333 56 -124.666 84 -189.999 84
c-62 0 -113.667 -22.667 -155 -68s-62 -100.333 -62 -165v-2c0 -65.333 20.5 -120.833 61.5 -166.5s92.833 -68.5 155.5 -68.5c39.333 0 73.5 7.16699 102.5 21.5s59.833 36.166 92.5 65.499l98 -99c-40 -42.667 -83.167 -74.834 -129.5 -96.501s-102.5 -32.5 -168.5 -32.5z
M363.999 796.002l124 161l132 -58l-140 -103h-116z" />
    <glyph glyph-name="cacute" unicode="&#x107;" horiz-adv-x="602" 
d="M274 619l114 181l132 -57l-134 -124h-112zM338 -12c-83.333 0 -152.334 27.667 -207.001 83s-82 123.333 -82 204v2c0 80 27.5 148.167 82.5 204.5s124.5 84.5 208.5 84.5c92.667 0 166.667 -31.333 222 -94l-94 -100c-38.667 42 -81.667 63 -129 63
c-40.667 0 -74.167 -15.167 -100.5 -45.5s-39.5 -67.166 -39.5 -110.499v-2c0 -44.667 13.5 -82.334 40.5 -113.001s62.167 -46 105.5 -46c44.667 0 88.334 20.333 131.001 61l89 -89c-60 -68 -135.667 -102 -227 -102z" />
    <glyph glyph-name="Cdotaccent" unicode="&#x10a;" horiz-adv-x="776" 
d="M350 796v129h152v-129h-152zM433 -12c-106.667 0 -195.501 36.002 -266.501 108.002s-106.5 160.667 -106.5 266v2c0 105.333 35.667 194.333 107 267s162 109 272 109c64.667 0 119.167 -9.5 163.5 -28.5s85.5 -46.833 123.5 -83.5l-98 -113
c-61.333 56 -124.666 84 -189.999 84c-62 0 -113.667 -22.667 -155 -68s-62 -100.333 -62 -165v-2c0 -65.333 20.5 -120.833 61.5 -166.5s92.833 -68.5 155.5 -68.5c39.333 0 73.5 7.16699 102.5 21.5s59.833 36.166 92.5 65.499l98 -99
c-40 -42.667 -83.167 -74.834 -129.5 -96.501s-102.5 -32.5 -168.5 -32.5z" />
    <glyph glyph-name="cdotaccent" unicode="&#x10b;" horiz-adv-x="602" 
d="M338 -12c-83.333 0 -152.334 27.667 -207.001 83s-82 123.333 -82 204v2c0 80 27.5 148.167 82.5 204.5s124.5 84.5 208.5 84.5c92.667 0 166.667 -31.333 222 -94l-94 -100c-38.667 42 -81.667 63 -129 63c-40.667 0 -74.167 -15.167 -100.5 -45.5
s-39.5 -67.166 -39.5 -110.499v-2c0 -44.667 13.5 -82.334 40.5 -113.001s62.167 -46 105.5 -46c44.667 0 88.334 20.333 131.001 61l89 -89c-60 -68 -135.667 -102 -227 -102zM256.999 619v137h152v-137h-152z" />
    <glyph glyph-name="Ccaron" unicode="&#x10c;" horiz-adv-x="776" 
d="M433 -12c-106.667 0 -195.501 36.002 -266.501 108.002s-106.5 160.667 -106.5 266v2c0 105.333 35.667 194.333 107 267s162 109 272 109c64.667 0 119.167 -9.5 163.5 -28.5s85.5 -46.833 123.5 -83.5l-98 -113c-61.333 56 -124.666 84 -189.999 84
c-62 0 -113.667 -22.667 -155 -68s-62 -100.333 -62 -165v-2c0 -65.333 20.5 -120.833 61.5 -166.5s92.833 -68.5 155.5 -68.5c39.333 0 73.5 7.16699 102.5 21.5s59.833 36.166 92.5 65.499l98 -99c-40 -42.667 -83.167 -74.834 -129.5 -96.501s-102.5 -32.5 -168.5 -32.5z
M628.999 946.002l-131 -150h-144l-131 150h122l82 -58l82 58h120z" />
    <glyph glyph-name="ccaron" unicode="&#x10d;" horiz-adv-x="602" 
d="M531 780l-126 -161h-144l-126 161h117l82 -69l82 69h115zM338 -12c-83.333 0 -152.334 27.667 -207.001 83s-82 123.333 -82 204v2c0 80 27.5 148.167 82.5 204.5s124.5 84.5 208.5 84.5c92.667 0 166.667 -31.333 222 -94l-94 -100c-38.667 42 -81.667 63 -129 63
c-40.667 0 -74.167 -15.167 -100.5 -45.5s-39.5 -67.166 -39.5 -110.499v-2c0 -44.667 13.5 -82.334 40.5 -113.001s62.167 -46 105.5 -46c44.667 0 88.334 20.333 131.001 61l89 -89c-60 -68 -135.667 -102 -227 -102z" />
    <glyph glyph-name="Dcaron" unicode="&#x10e;" horiz-adv-x="821" 
d="M600 936l-131 -150h-144l-131 150h122l82 -58l82 58h120zM93 0v728h281c112.667 0 205.334 -34.5 278.001 -103.5s109 -155.167 109 -258.5v-2c0 -103.333 -36.333 -189.833 -109 -259.5s-165.334 -104.5 -278.001 -104.5h-281zM374 589h-128v-450h128
c67.333 0 121.833 20.667 163.5 62s62.5 95 62.5 161v2c0 66 -20.833 120 -62.5 162s-96.167 63 -163.5 63z" />
    <glyph glyph-name="dcaron" unicode="&#x10f;" horiz-adv-x="709" 
d="M686 548l11 213h110v-3l-61 -210h-60zM305 -11c-69.333 0 -129 25.832 -179 77.499s-75 121.834 -75 210.501v2c0 88 24.833 157.833 74.5 209.5s109.5 77.5 179.5 77.5s128.667 -28.333 176 -85v278h152v-759h-152v82c-45.333 -62 -104 -93 -176 -93zM343 118.999
c38.667 0 71.667 14.667 99 44s41 67.333 41 114v2c0 46.667 -13.667 84.667 -41 114s-60.333 44 -99 44c-39.333 0 -72.5 -14.5 -99.5 -43.5s-40.5 -67.167 -40.5 -114.5v-2c0 -46.667 13.667 -84.667 41 -114s60.333 -44 99 -44z" />
    <glyph glyph-name="Dcroat" unicode="&#x110;" horiz-adv-x="852" 
d="M124 0v313h-78v106h78v309h281c112.667 0 205.334 -34.5 278.001 -103.5s109 -155.167 109 -258.5v-2c0 -103.333 -36.333 -189.833 -109 -259.5s-165.334 -104.5 -278.001 -104.5h-281zM439 313l-161 -0.000976562v-174h127c68 0 122.667 20.667 164 62s62 95 62 161v2
c0 66.667 -20.833 120.834 -62.5 162.501s-96.167 62.5 -163.5 62.5h-127v-170h161v-106z" />
    <glyph glyph-name="dslash" unicode="&#x111;" horiz-adv-x="709" 
d="M318 618v85.999h163v55h152v-55h71v-86h-71v-618h-152v82c-45.333 -62 -104 -93 -176 -93c-69.333 0 -129 25.833 -179 77.5s-75 121.834 -75 210.501v2c0 88 24.833 157.833 74.5 209.5s109.5 77.5 179.5 77.5s128.667 -28.333 176 -85v137h-163zM343 118.999
c38.667 0 71.667 14.667 99 44s41 67.333 41 114v2c0 46.667 -13.667 84.667 -41 114s-60.333 44 -99 44c-39.333 0 -72.5 -14.5 -99.5 -43.5s-40.5 -67.167 -40.5 -114.5v-2c0 -46.667 13.667 -84.667 41 -114s60.333 -44 99 -44z" />
    <glyph glyph-name="Emacron" unicode="&#x112;" horiz-adv-x="705" 
d="M173 792v108h390v-108h-390zM93 0v728h547v-137h-395v-156h348v-137h-348v-161h400v-137h-552z" />
    <glyph glyph-name="emacron" unicode="&#x113;" horiz-adv-x="644" 
d="M338 -12c-83.333 0 -152.331 26.833 -206.998 80.5s-82 122.5 -82 206.5v2c0 80.667 25.833 149 77.5 205s117.167 84 196.5 84c58.667 0 109 -14.5 151 -43.5s72.333 -65.667 91 -110s28 -93.5 28 -147.5c0 -6.66699 -0.666992 -20 -2 -40h-391
c7.33301 -37.333 23.166 -65.833 47.499 -85.5s55.166 -29.5 92.499 -29.5c50.667 0 96.667 19.333 138 58l87 -77c-56 -68.667 -131.667 -103 -227 -103zM198.002 320h247c-6 38 -19.333 68.167 -40 90.5s-48 33.5 -82 33.5c-33.333 0 -61 -11 -83 -33s-36 -52.333 -42 -91
zM136.002 625v106h370v-106h-370z" />
    <glyph glyph-name="Ebreve" unicode="&#x114;" horiz-adv-x="705" 
d="M368 784c-55.333 0 -100.331 13.167 -134.998 39.5s-54.334 63.833 -59.001 112.5h104c13.333 -34.667 43.333 -52 90 -52s76.667 17.333 90 52h104c-4.66699 -48.667 -24.334 -86.167 -59.001 -112.5s-79.667 -39.5 -135 -39.5zM93.002 0v728h547v-137h-395v-156h348
v-137h-348v-161h400v-137h-552z" />
    <glyph glyph-name="ebreve" unicode="&#x115;" horiz-adv-x="644" 
d="M338 -12c-83.333 0 -152.331 26.833 -206.998 80.5s-82 122.5 -82 206.5v2c0 80.667 25.833 149 77.5 205s117.167 84 196.5 84c58.667 0 109 -14.5 151 -43.5s72.333 -65.667 91 -110s28 -93.5 28 -147.5c0 -6.66699 -0.666992 -20 -2 -40h-391
c7.33301 -37.333 23.166 -65.833 47.499 -85.5s55.166 -29.5 92.499 -29.5c50.667 0 96.667 19.333 138 58l87 -77c-56 -68.667 -131.667 -103 -227 -103zM198.002 320h247c-6 38 -19.333 68.167 -40 90.5s-48 33.5 -82 33.5c-33.333 0 -61 -11 -83 -33s-36 -52.333 -42 -91
zM321.002 617c-54.667 0 -99.167 14.167 -133.5 42.5s-53.833 68.166 -58.5 119.499h102c14.667 -42 44.667 -63 90 -63s75.333 21 90 63h102c-4.66699 -51.333 -24.167 -91.166 -58.5 -119.499s-78.833 -42.5 -133.5 -42.5z" />
    <glyph glyph-name="Edotaccent" unicode="&#x116;" horiz-adv-x="705" 
d="M292 786v129h152v-129h-152zM93 0v728h547v-137h-395v-156h348v-137h-348v-161h400v-137h-552z" />
    <glyph glyph-name="edotaccent" unicode="&#x117;" horiz-adv-x="644" 
d="M338 -12c-83.333 0 -152.331 26.833 -206.998 80.5s-82 122.5 -82 206.5v2c0 80.667 25.833 149 77.5 205s117.167 84 196.5 84c58.667 0 109 -14.5 151 -43.5s72.333 -65.667 91 -110s28 -93.5 28 -147.5c0 -6.66699 -0.666992 -20 -2 -40h-391
c7.33301 -37.333 23.166 -65.833 47.499 -85.5s55.166 -29.5 92.499 -29.5c50.667 0 96.667 19.333 138 58l87 -77c-56 -68.667 -131.667 -103 -227 -103zM198.002 320h247c-6 38 -19.333 68.167 -40 90.5s-48 33.5 -82 33.5c-33.333 0 -61 -11 -83 -33s-36 -52.333 -42 -91
zM245.002 619v137h152v-137h-152z" />
    <glyph glyph-name="Eogonek" unicode="&#x118;" horiz-adv-x="705" 
d="M93 0v728h547v-137h-395v-156h348v-137h-348v-161h400v-137h-46c-18 -20.667 -27 -40.667 -27 -60c0 -30 24.333 -44.333 73 -43v-68c-7.33301 -1.33301 -22 -2 -44 -2c-44 0 -78.167 8.16699 -102.5 24.5s-36.5 37.833 -36.5 64.5c0 28 12 56 36 84h-405z" />
    <glyph glyph-name="eogonek" unicode="&#x119;" horiz-adv-x="644" 
d="M198 320h247c-6 38 -19.333 68.167 -40 90.5s-48 33.5 -82 33.5c-33.333 0 -61 -11 -83 -33s-36 -52.333 -42 -91zM478 168l87.002 -77c-24.667 -26.667 -45.667 -47.667 -63 -63c-32.667 -30 -49 -57.333 -49 -82c0 -34 24.333 -50.333 73 -49v-68
c-7.33301 -1.33301 -22.333 -2 -45 -2c-44 0 -78 8 -102 24s-36 36.333 -36 61c0 22.667 11.333 48.667 34 78c-14.667 -1.33301 -27.667 -2 -39 -2c-83.333 0 -152.333 26.833 -207 80.5s-82 122.5 -82 206.5v2c0 80.667 25.833 149 77.5 205s117.167 84 196.5 84
c58.667 0 109 -14.5 151 -43.5s72.333 -65.667 91 -110s28 -93.5 28 -147.5c0 -6.66699 -0.666992 -20 -2 -40h-391c7.33301 -37.333 23.166 -65.833 47.499 -85.5s55.166 -29.5 92.499 -29.5c50.667 0 96.667 19.333 138 58z" />
    <glyph glyph-name="Ecaron" unicode="&#x11a;" horiz-adv-x="705" 
d="M571 936l-131 -150h-144l-131 150h122l82 -58l82 58h120zM93 0v728h547v-137h-395v-156h348v-137h-348v-161h400v-137h-552z" />
    <glyph glyph-name="ecaron" unicode="&#x11b;" horiz-adv-x="644" 
d="M519 780l-126 -161h-144l-126 161h117l82 -69l82 69h115zM338 -12c-83.333 0 -152.331 26.833 -206.998 80.5s-82 122.5 -82 206.5v2c0 80.667 25.833 149 77.5 205s117.167 84 196.5 84c58.667 0 109 -14.5 151 -43.5s72.333 -65.667 91 -110s28 -93.5 28 -147.5
c0 -6.66699 -0.666992 -20 -2 -40h-391c7.33301 -37.333 23.166 -65.833 47.499 -85.5s55.166 -29.5 92.499 -29.5c50.667 0 96.667 19.333 138 58l87 -77c-56 -68.667 -131.667 -103 -227 -103zM198.002 320h247c-6 38 -19.333 68.167 -40 90.5s-48 33.5 -82 33.5
c-33.333 0 -61 -11 -83 -33s-36 -52.333 -42 -91z" />
    <glyph glyph-name="Gbreve" unicode="&#x11e;" horiz-adv-x="823" 
d="M432 794c-55.333 0 -100.331 13.167 -134.998 39.5s-54.334 63.833 -59.001 112.5h104c13.333 -34.667 43.333 -52 90 -52s76.667 17.333 90 52h104c-4.66699 -48.667 -24.334 -86.167 -59.001 -112.5s-79.667 -39.5 -135 -39.5zM442.002 -12
c-112.667 0 -204.502 35.1689 -275.502 105.502s-106.5 159.833 -106.5 268.5v2c0 104 36.333 192.667 109 266s163.334 110 272.001 110c62.667 0 115.667 -8 159 -24s85.333 -41 126 -75l-97 -117c-29.333 25.333 -58.833 44.166 -88.5 56.499s-64.5 18.5 -104.5 18.5
c-60 0 -110.833 -22.833 -152.5 -68.5s-62.5 -100.5 -62.5 -164.5v-2c0 -68.667 21.167 -125.334 63.5 -170.001s96.5 -67 162.5 -67c61.333 0 113.333 15.333 156 46v111h-166v133h315v-314c-91.333 -76.667 -194.666 -115 -309.999 -115z" />
    <glyph glyph-name="gbreve" unicode="&#x11f;" horiz-adv-x="709" 
d="M325 -168c-92.667 0 -174.668 19.667 -246.001 59l52 114c62 -34.667 125.333 -52 190 -52c108 0 162 51.667 162 155v30c-25.333 -30.667 -52.333 -53.834 -81 -69.501s-63 -23.5 -103 -23.5c-68.667 0 -127.167 23.5 -175.5 70.5s-72.5 110.167 -72.5 189.5v2
c0 78.667 24.333 141.5 73 188.5s107 70.5 175 70.5c70.667 0 131.334 -28.333 182.001 -85v75h152v-433c0 -97.333 -23.667 -169.666 -71 -216.999c-49.333 -49.333 -128.333 -74 -237 -74zM341.999 171c40 0 73.5 12.5 100.5 37.5s40.5 57.167 40.5 96.5v2
c0 39.333 -13.5 71.333 -40.5 96s-60.5 37 -100.5 37s-73.167 -12.333 -99.5 -37s-39.5 -56.667 -39.5 -96v-2c0 -39.333 13.167 -71.5 39.5 -96.5s59.5 -37.5 99.5 -37.5zM361.999 617c-54.667 0 -99.167 14.167 -133.5 42.5s-53.833 68.166 -58.5 119.499h102
c14.667 -42 44.667 -63 90 -63s75.333 21 90 63h102c-4.66699 -51.333 -24.167 -91.166 -58.5 -119.499s-78.833 -42.5 -133.5 -42.5z" />
    <glyph glyph-name="Gdotaccent" unicode="&#x120;" horiz-adv-x="823" 
d="M356 796v129h152v-129h-152zM442 -12c-112.667 0 -204.502 35.1689 -275.502 105.502s-106.5 159.833 -106.5 268.5v2c0 104 36.333 192.667 109 266s163.334 110 272.001 110c62.667 0 115.667 -8 159 -24s85.333 -41 126 -75l-97 -117
c-29.333 25.333 -58.833 44.166 -88.5 56.499s-64.5 18.5 -104.5 18.5c-60 0 -110.833 -22.833 -152.5 -68.5s-62.5 -100.5 -62.5 -164.5v-2c0 -68.667 21.167 -125.334 63.5 -170.001s96.5 -67 162.5 -67c61.333 0 113.333 15.333 156 46v111h-166v133h315v-314
c-91.333 -76.667 -194.666 -115 -309.999 -115z" />
    <glyph glyph-name="gdotaccent" unicode="&#x121;" horiz-adv-x="709" 
d="M325 -168c-92.667 0 -174.668 19.667 -246.001 59l52 114c62 -34.667 125.333 -52 190 -52c108 0 162 51.667 162 155v30c-25.333 -30.667 -52.333 -53.834 -81 -69.501s-63 -23.5 -103 -23.5c-68.667 0 -127.167 23.5 -175.5 70.5s-72.5 110.167 -72.5 189.5v2
c0 78.667 24.333 141.5 73 188.5s107 70.5 175 70.5c70.667 0 131.334 -28.333 182.001 -85v75h152v-433c0 -97.333 -23.667 -169.666 -71 -216.999c-49.333 -49.333 -128.333 -74 -237 -74zM341.999 171c40 0 73.5 12.5 100.5 37.5s40.5 57.167 40.5 96.5v2
c0 39.333 -13.5 71.333 -40.5 96s-60.5 37 -100.5 37s-73.167 -12.333 -99.5 -37s-39.5 -56.667 -39.5 -96v-2c0 -39.333 13.167 -71.5 39.5 -96.5s59.5 -37.5 99.5 -37.5zM285.999 619v137h152v-137h-152z" />
    <glyph glyph-name="Gcommaaccent" unicode="&#x122;" horiz-adv-x="823" 
d="M442 -12c-112.667 0 -204.502 35.1689 -275.502 105.502s-106.5 159.833 -106.5 268.5v2c0 104 36.333 192.667 109 266s163.334 110 272.001 110c62.667 0 115.667 -8 159 -24s85.333 -41 126 -75l-97 -117c-29.333 25.333 -58.833 44.166 -88.5 56.499
s-64.5 18.5 -104.5 18.5c-60 0 -110.833 -22.833 -152.5 -68.5s-62.5 -100.5 -62.5 -164.5v-2c0 -68.667 21.167 -125.334 63.5 -170.001s96.5 -67 162.5 -67c61.333 0 113.333 15.333 156 46v111h-166v133h315v-314c-91.333 -76.667 -194.666 -115 -309.999 -115z
M356.998 -302.998l-8 46c27.333 2.66699 47.5 10.167 60.5 22.5s18.833 29.5 17.5 51.5h-65v117h140v-99c0 -47.333 -12 -81.833 -36 -103.5s-60.333 -33.167 -109 -34.5z" />
    <glyph glyph-name="gcommaaccent" unicode="&#x123;" horiz-adv-x="709" 
d="M325 -168c-92.667 0 -174.668 19.667 -246.001 59l52 114c62 -34.667 125.333 -52 190 -52c108 0 162 51.667 162 155v30c-25.333 -30.667 -52.333 -53.834 -81 -69.501s-63 -23.5 -103 -23.5c-68.667 0 -127.167 23.5 -175.5 70.5s-72.5 110.167 -72.5 189.5v2
c0 78.667 24.333 141.5 73 188.5s107 70.5 175 70.5c70.667 0 131.334 -28.333 182.001 -85v75h152v-433c0 -97.333 -23.667 -169.666 -71 -216.999c-49.333 -49.333 -128.333 -74 -237 -74zM341.999 171c40 0 73.5 12.5 100.5 37.5s40.5 57.167 40.5 96.5v2
c0 39.333 -13.5 71.333 -40.5 96s-60.5 37 -100.5 37s-73.167 -12.333 -99.5 -37s-39.5 -56.667 -39.5 -96v-2c0 -39.333 13.167 -71.5 39.5 -96.5s59.5 -37.5 99.5 -37.5zM433.999 856l8 -45.999c-27.333 -2.66699 -47.5 -10.334 -60.5 -23.001s-18.833 -29.667 -17.5 -51
h65v-117h-140v98c0 47.333 12 82 36 104s60.333 33.667 109 35z" />
    <glyph glyph-name="Hbar" unicode="&#x126;" horiz-adv-x="802" 
d="M21 532v106h73v90h154v-90h306v90h154v-90h73v-106h-73v-532h-154v295h-306v-295h-154v532h-73zM248 437h306v97h-306v-97z" />
    <glyph glyph-name="hbar" unicode="&#x127;" horiz-adv-x="655" 
d="M391 618l-163 0.000976562v-142c43.333 60 98.333 90 165 90c60 0 106.833 -18.333 140.5 -55s50.5 -87.334 50.5 -152.001v-359h-152v311c0 38 -8.66699 67.167 -26 87.5s-42 30.5 -74 30.5c-32.667 0 -58.167 -10.167 -76.5 -30.5s-27.5 -49.5 -27.5 -87.5v-311h-152
v618h-71v86h71v55h152v-55h163v-86z" />
    <glyph glyph-name="Imacron" unicode="&#x12a;" horiz-adv-x="354" 
d="M100 0v728h154v-728h-154zM-17 792v108h390v-108h-390z" />
    <glyph glyph-name="imacron" unicode="&#x12b;" horiz-adv-x="319" 
d="M84 0v556h151v-556h-151zM-25 625v106h370v-106h-370z" />
    <glyph glyph-name="Ibreve" unicode="&#x12c;" horiz-adv-x="354" 
d="M100 0v728h154v-728h-154zM178 784c-55.333 0 -100.331 13.167 -134.998 39.5s-54.334 63.833 -59.001 112.5h104c13.333 -34.667 43.333 -52 90 -52s76.667 17.333 90 52h104c-4.66699 -48.667 -24.334 -86.167 -59.001 -112.5s-79.667 -39.5 -135 -39.5z" />
    <glyph glyph-name="ibreve" unicode="&#x12d;" horiz-adv-x="319" 
d="M84 0v556h151v-556h-151zM160 617c-54.667 0 -99.167 14.167 -133.5 42.5s-53.833 68.166 -58.5 119.499h102c14.667 -42 44.667 -63 90 -63s75.333 21 90 63h102c-4.66699 -51.333 -24.167 -91.166 -58.5 -119.499s-78.833 -42.5 -133.5 -42.5z" />
    <glyph glyph-name="Iogonek" unicode="&#x12e;" horiz-adv-x="354" 
d="M100 0v728h154v-728h-30c-18 -20.667 -27 -40.667 -27 -60c0 -30 24.333 -44.333 73 -43v-68c-7.33301 -1.33301 -22 -2 -44 -2c-44 0 -78.167 8.16699 -102.5 24.5s-36.5 37.833 -36.5 64.5c0 28 12 56 36 84h-23z" />
    <glyph glyph-name="iogonek" unicode="&#x12f;" horiz-adv-x="319" 
d="M84 0v556h151v-556h-28c-18 -20.667 -27 -40.667 -27 -60c0 -30 24.333 -44.333 73 -43v-68c-7.33301 -1.33301 -22 -2 -44 -2c-44 0 -78.167 8.16699 -102.5 24.5s-36.5 37.833 -36.5 64.5c0 28 12 56 36 84h-22zM79 622v136h160v-136h-160z" />
    <glyph glyph-name="Idot" unicode="&#x130;" horiz-adv-x="354" 
d="M100 0v728h154v-728h-154zM102 786v129h152v-129h-152z" />
    <glyph glyph-name="dotlessi" unicode="&#x131;" horiz-adv-x="319" 
d="M84 0v556h151v-556h-151z" />
    <glyph glyph-name="Kcommaaccent" unicode="&#x136;" horiz-adv-x="766" 
d="M93 0v728h153v-328l304 328h189l-299 -310l312 -418h-185l-231 313l-90 -93v-220h-153zM309 -294l-8 46c27.333 2.66699 47.5 10.167 60.5 22.5s18.833 29.5 17.5 51.5h-65v117h140v-99c0 -47.333 -12 -81.833 -36 -103.5s-60.333 -33.167 -109 -34.5z" />
    <glyph glyph-name="kcommaaccent" unicode="&#x137;" horiz-adv-x="622" 
d="M248 -299l-8 46c27.333 2.66699 47.5 10.167 60.5 22.5s18.833 29.5 17.5 51.5h-65v117h140v-99c0 -47.333 -12 -81.833 -36 -103.5s-60.333 -33.167 -109 -34.5zM76 0v759h152v-414l194 211h182l-214 -221l221 -335h-176l-147 231l-60 -64v-167h-152z" />
    <glyph glyph-name="Lacute" unicode="&#x139;" horiz-adv-x="651" 
d="M129 786l124 161l132 -58l-140 -103h-116zM93 0v728h153v-588h367v-140h-520z" />
    <glyph glyph-name="lacute" unicode="&#x13a;" horiz-adv-x="319" 
d="M103 802l124 161l132 -58l-140 -103h-116zM84 0v759h151v-759h-151z" />
    <glyph glyph-name="Lcommaaccent" unicode="&#x13b;" horiz-adv-x="651" 
d="M93 0v728h153v-588h367v-140h-520zM277 -299l-8 46c27.333 2.66699 47.5 10.167 60.5 22.5s18.833 29.5 17.5 51.5h-65v117h140v-99c0 -47.333 -12 -81.833 -36 -103.5s-60.333 -33.167 -109 -34.5z" />
    <glyph glyph-name="lcommaaccent" unicode="&#x13c;" horiz-adv-x="319" 
d="M85 -299l-8 46c27.333 2.66699 47.5 10.167 60.5 22.5s18.833 29.5 17.5 51.5h-65v117h140v-99c0 -47.333 -12 -81.833 -36 -103.5s-60.333 -33.167 -109 -34.5zM84 0v759h151v-759h-151z" />
    <glyph glyph-name="Lcaron" unicode="&#x13d;" horiz-adv-x="651" 
d="M93 0v728h153v-588h367v-140h-520zM320 516l11 213h110v-3l-61 -210h-60z" />
    <glyph glyph-name="lcaron" unicode="&#x13e;" horiz-adv-x="319" 
d="M289 548l11 213h110v-3l-61 -210h-60zM84 0v759h151v-759h-151z" />
    <glyph glyph-name="Ldot" unicode="&#x13f;" horiz-adv-x="651" 
d="M432 328v137h145v-137h-145zM93 0v728h153v-588h367v-140h-520z" />
    <glyph glyph-name="ldot" unicode="&#x140;" horiz-adv-x="411" 
d="M300 329v127h122v-127h-122zM84 0v759h151v-759h-151z" />
    <glyph glyph-name="Lslash" unicode="&#x141;" horiz-adv-x="683" 
d="M433 393l-157 -70v-183h368v-140h-520v256l-78 -34v144l78 34v328h152v-261l157 70v-144z" />
    <glyph glyph-name="lslash" unicode="&#x142;" horiz-adv-x="381" 
d="M344 393l-79 -39v-354h-149v279l-79 -39v143l79 39v337h149v-262l79 39v-143z" />
    <glyph glyph-name="Nacute" unicode="&#x143;" horiz-adv-x="830" 
d="M353 786l124 161l132 -58l-140 -103h-116zM93 0v728h141l351 -459v459h152v-728h-131l-362 474v-474h-151z" />
    <glyph glyph-name="nacute" unicode="&#x144;" horiz-adv-x="655" 
d="M270 619l114 181l132 -57l-134 -124h-112zM76 0v556.001h152v-80c43.333 60 98.333 90 165 90c60 0 106.833 -18.333 140.5 -55s50.5 -87.334 50.5 -152.001v-359h-152v311c0 38 -8.66699 67.167 -26 87.5s-42 30.5 -74 30.5c-32.667 0 -58.167 -10.167 -76.5 -30.5
s-27.5 -49.5 -27.5 -87.5v-311h-152z" />
    <glyph glyph-name="Ncommaaccent" unicode="&#x145;" horiz-adv-x="830" 
d="M340 -294l-8 46c27.333 2.66699 47.5 10.167 60.5 22.5s18.833 29.5 17.5 51.5h-65v117h140v-99c0 -47.333 -12 -81.833 -36 -103.5s-60.333 -33.167 -109 -34.5zM93 0v728h141l351 -459v459h152v-728h-131l-362 474v-474h-151z" />
    <glyph glyph-name="ncommaaccent" unicode="&#x146;" horiz-adv-x="655" 
d="M254 -299l-8 46c27.333 2.66699 47.5 10.167 60.5 22.5s18.833 29.5 17.5 51.5h-65v117h140v-99c0 -47.333 -12 -81.833 -36 -103.5s-60.333 -33.167 -109 -34.5zM76 0v556.001h152v-80c43.333 60 98.333 90 165 90c60 0 106.833 -18.333 140.5 -55
s50.5 -87.334 50.5 -152.001v-359h-152v311c0 38 -8.66699 67.167 -26 87.5s-42 30.5 -74 30.5c-32.667 0 -58.167 -10.167 -76.5 -30.5s-27.5 -49.5 -27.5 -87.5v-311h-152z" />
    <glyph glyph-name="Ncaron" unicode="&#x147;" horiz-adv-x="830" 
d="M618 936l-131 -150h-144l-131 150h122l82 -58l82 58h120zM93 0v728h141l351 -459v459h152v-728h-131l-362 474v-474h-151z" />
    <glyph glyph-name="ncaron" unicode="&#x148;" horiz-adv-x="655" 
d="M527 780l-126 -161h-144l-126 161h117l82 -69l82 69h115zM76 0v556.001h152v-80c43.333 60 98.333 90 165 90c60 0 106.833 -18.333 140.5 -55s50.5 -87.334 50.5 -152.001v-359h-152v311c0 38 -8.66699 67.167 -26 87.5s-42 30.5 -74 30.5
c-32.667 0 -58.167 -10.167 -76.5 -30.5s-27.5 -49.5 -27.5 -87.5v-311h-152z" />
    <glyph glyph-name="Omacron" unicode="&#x14c;" horiz-adv-x="892" 
d="M251 802v108h390v-108h-390zM445 -12c-110.667 0 -202.5 36.167 -275.5 108.5s-109.5 160.833 -109.5 265.5v2c0 104 36.833 192.667 110.5 266s165.834 110 276.501 110s202.5 -36.167 275.5 -108.5s109.5 -160.833 109.5 -265.5v-2
c0 -104 -36.833 -192.667 -110.5 -266s-165.834 -110 -276.501 -110zM447 129c64.667 0 118.167 22.5 160.5 67.5s63.5 100.167 63.5 165.5v2c0 64.667 -21.5 120 -64.5 166s-96.833 69 -161.5 69s-118.167 -22.5 -160.5 -67.5s-63.5 -100.167 -63.5 -165.5v-2
c0 -65.333 21.333 -120.833 64 -166.5s96.667 -68.5 162 -68.5z" />
    <glyph glyph-name="omacron" unicode="&#x14d;" horiz-adv-x="697" 
d="M164 625v106h370v-106h-370zM347 -12c-84.667 0 -155.5 27.667 -212.5 83s-85.5 123.333 -85.5 204v2c0 80 28.833 148.167 86.5 204.5s129.167 84.5 214.5 84.5c84.667 0 155.5 -27.833 212.5 -83.5s85.5 -123.5 85.5 -203.5v-2c0 -80.667 -28.667 -149 -86 -205
s-129 -84 -215 -84zM350 118c44.667 0 80.5 15.166 107.5 45.499s40.5 67.5 40.5 111.5v2c0 43.333 -14.167 80.5 -42.5 111.5s-64.5 46.5 -108.5 46.5c-44.667 0 -80.5 -15 -107.5 -45s-40.5 -67 -40.5 -111v-2c0 -43.333 14.167 -80.666 42.5 -111.999s64.5 -47 108.5 -47
z" />
    <glyph glyph-name="Obreve" unicode="&#x14e;" horiz-adv-x="892" 
d="M446 794c-55.333 0 -100.331 13.167 -134.998 39.5s-54.334 63.833 -59.001 112.5h104c13.333 -34.667 43.333 -52 90 -52s76.667 17.333 90 52h104c-4.66699 -48.667 -24.334 -86.167 -59.001 -112.5s-79.667 -39.5 -135 -39.5zM445.002 -12
c-110.667 0 -202.5 36.167 -275.5 108.5s-109.5 160.833 -109.5 265.5v2c0 104 36.833 192.667 110.5 266s165.834 110 276.501 110s202.5 -36.167 275.5 -108.5s109.5 -160.833 109.5 -265.5v-2c0 -104 -36.833 -192.667 -110.5 -266s-165.834 -110 -276.501 -110z
M447.002 129c64.667 0 118.167 22.5 160.5 67.5s63.5 100.167 63.5 165.5v2c0 64.667 -21.5 120 -64.5 166s-96.833 69 -161.5 69s-118.167 -22.5 -160.5 -67.5s-63.5 -100.167 -63.5 -165.5v-2c0 -65.333 21.333 -120.833 64 -166.5s96.667 -68.5 162 -68.5z" />
    <glyph glyph-name="obreve" unicode="&#x14f;" horiz-adv-x="697" 
d="M347 -12c-84.667 0 -155.5 27.667 -212.5 83s-85.5 123.333 -85.5 204v2c0 80 28.833 148.167 86.5 204.5s129.167 84.5 214.5 84.5c84.667 0 155.5 -27.833 212.5 -83.5s85.5 -123.5 85.5 -203.5v-2c0 -80.667 -28.667 -149 -86 -205s-129 -84 -215 -84zM350 118
c44.667 0 80.5 15.166 107.5 45.499s40.5 67.5 40.5 111.5v2c0 43.333 -14.167 80.5 -42.5 111.5s-64.5 46.5 -108.5 46.5c-44.667 0 -80.5 -15 -107.5 -45s-40.5 -67 -40.5 -111v-2c0 -43.333 14.167 -80.666 42.5 -111.999s64.5 -47 108.5 -47zM349 616.999
c-54.667 0 -99.167 14.167 -133.5 42.5s-53.833 68.166 -58.5 119.499h102c14.667 -42 44.667 -63 90 -63s75.333 21 90 63h102c-4.66699 -51.333 -24.167 -91.166 -58.5 -119.499s-78.833 -42.5 -133.5 -42.5z" />
    <glyph glyph-name="Ohungarumlaut" unicode="&#x150;" horiz-adv-x="892" 
d="M445 -12c-110.667 0 -202.5 36.167 -275.5 108.5s-109.5 160.833 -109.5 265.5v2c0 104 36.833 192.667 110.5 266s165.834 110 276.501 110s202.5 -36.167 275.5 -108.5s109.5 -160.833 109.5 -265.5v-2c0 -104 -36.833 -192.667 -110.5 -266
s-165.834 -110 -276.501 -110zM447 129c64.667 0 118.167 22.5 160.5 67.5s63.5 100.167 63.5 165.5v2c0 64.667 -21.5 120 -64.5 166s-96.833 69 -161.5 69s-118.167 -22.5 -160.5 -67.5s-63.5 -100.167 -63.5 -165.5v-2c0 -65.333 21.333 -120.833 64 -166.5
s96.667 -68.5 162 -68.5zM280 796l124 161l127 -58l-140 -103h-111zM474 796l124 161l127 -58l-139 -103h-112z" />
    <glyph glyph-name="ohungarumlaut" unicode="&#x151;" horiz-adv-x="697" 
d="M377 619l114 181l129 -57l-135 -124h-108zM188 619l112 181l129 -57l-134 -124h-107zM347 -12c-84.667 0 -155.5 27.667 -212.5 83s-85.5 123.333 -85.5 204v2c0 80 28.833 148.167 86.5 204.5s129.167 84.5 214.5 84.5c84.667 0 155.5 -27.833 212.5 -83.5
s85.5 -123.5 85.5 -203.5v-2c0 -80.667 -28.667 -149 -86 -205s-129 -84 -215 -84zM350 118c44.667 0 80.5 15.166 107.5 45.499s40.5 67.5 40.5 111.5v2c0 43.333 -14.167 80.5 -42.5 111.5s-64.5 46.5 -108.5 46.5c-44.667 0 -80.5 -15 -107.5 -45s-40.5 -67 -40.5 -111
v-2c0 -43.333 14.167 -80.666 42.5 -111.999s64.5 -47 108.5 -47z" />
    <glyph glyph-name="OE" unicode="&#x152;" horiz-adv-x="1131" 
d="M1071 0h-624c-112.667 0 -205.334 34.5 -278.001 103.5s-109 155.167 -109 258.5v2c0 103.333 36.333 189.833 109 259.5s165.334 104.5 278.001 104.5h619v-137h-369v-156h322v-137h-322v-161h374v-137zM447 139h97v450h-97c-67.333 0 -121.833 -20.667 -163.5 -62
s-62.5 -95 -62.5 -161v-2c0 -66 20.833 -120 62.5 -162s96.167 -63 163.5 -63z" />
    <glyph glyph-name="oe" unicode="&#x153;" horiz-adv-x="1084" 
d="M339 -12c-80 0 -148.332 27.833 -204.999 83.5s-85 123.5 -85 203.5v2c0 80 28.833 148.167 86.5 204.5s127.5 84.5 209.5 84.5c86.667 0 157.334 -32 212.001 -96c51.333 64 120 96 206 96c58.667 0 109 -14.5 151 -43.5s72.333 -65.667 91 -110s28 -93.5 28 -147.5
c0 -6.66699 -0.666992 -20 -2 -40h-391c7.33301 -37.333 23.166 -65.833 47.499 -85.5s55.166 -29.5 92.499 -29.5c50.667 0 96.667 19.333 138 58l87 -77c-56 -68.667 -131.667 -103 -227 -103c-92.667 0 -167 32.667 -223 98c-55.333 -65.333 -127.333 -98 -216 -98z
M638.001 320h247c-6 38 -19.333 68.167 -40 90.5s-48 33.5 -82 33.5c-33.333 0 -61 -11 -83 -33s-36 -52.333 -42 -91zM345.001 118c43.333 0 78.166 15.165 104.499 45.498s39.5 67.5 39.5 111.5v2c0 43.333 -13.833 80.5 -41.5 111.5s-62.5 46.5 -104.5 46.5
c-43.333 0 -78.166 -15.167 -104.499 -45.5s-39.5 -67.166 -39.5 -110.499v-2c0 -43.333 13.667 -80.666 41 -111.999s62.333 -47 105 -47z" />
    <glyph glyph-name="Racute" unicode="&#x154;" horiz-adv-x="760" 
d="M93 0l-0.000976562 728.001h331c92 0 162.667 -24.667 212 -74c40.667 -40.667 61 -95.334 61 -164.001v-2c0 -57.333 -14.167 -104.833 -42.5 -142.5s-67.166 -65.167 -116.499 -82.5l182 -263h-180l-161 237h-133v-237h-153zM245.999 373.001h168
c39.333 0 70.5 9.66699 93.5 29s34.5 45.333 34.5 78v2c0 34.667 -11.5 61.167 -34.5 79.5s-55.167 27.5 -96.5 27.5h-165v-216zM308.999 786.001l124 161l132 -58l-140 -103h-116z" />
    <glyph glyph-name="racute" unicode="&#x155;" horiz-adv-x="442" 
d="M181 619l114 181l132 -57l-134 -124h-112zM76 0v555.999h152v-115c36 86.667 96.333 128.334 181 125.001v-159h-8c-54.667 0 -97.167 -16.667 -127.5 -50s-45.5 -83.333 -45.5 -150v-207h-152z" />
    <glyph glyph-name="Rcommaaccent" unicode="&#x156;" horiz-adv-x="760" 
d="M93 0l-0.000976562 728.001h331c92 0 162.667 -24.667 212 -74c40.667 -40.667 61 -95.334 61 -164.001v-2c0 -57.333 -14.167 -104.833 -42.5 -142.5s-67.166 -65.167 -116.499 -82.5l182 -263h-180l-161 237h-133v-237h-153zM245.999 373.001h168
c39.333 0 70.5 9.66699 93.5 29s34.5 45.333 34.5 78v2c0 34.667 -11.5 61.167 -34.5 79.5s-55.167 27.5 -96.5 27.5h-165v-216zM295.999 -293.999l-8 46c27.333 2.66699 47.5 10.167 60.5 22.5s18.833 29.5 17.5 51.5h-65v117h140v-99c0 -47.333 -12 -81.833 -36 -103.5
s-60.333 -33.167 -109 -34.5z" />
    <glyph glyph-name="rcommaaccent" unicode="&#x157;" horiz-adv-x="442" 
d="M84 -299l-8 46c27.333 2.66699 47.5 10.167 60.5 22.5s18.833 29.5 17.5 51.5h-65v117h140v-99c0 -47.333 -12 -81.833 -36 -103.5s-60.333 -33.167 -109 -34.5zM76 0v555.999h152v-115c36 86.667 96.333 128.334 181 125.001v-159h-8
c-54.667 0 -97.167 -16.667 -127.5 -50s-45.5 -83.333 -45.5 -150v-207h-152z" />
    <glyph glyph-name="Rcaron" unicode="&#x158;" horiz-adv-x="760" 
d="M574 936l-131 -150h-144l-131 150h122l82 -58l82 58h120zM93 0l-0.000976562 728.001h331c92 0 162.667 -24.667 212 -74c40.667 -40.667 61 -95.334 61 -164.001v-2c0 -57.333 -14.167 -104.833 -42.5 -142.5s-67.166 -65.167 -116.499 -82.5l182 -263h-180l-161 237
h-133v-237h-153zM245.999 373.001h168c39.333 0 70.5 9.66699 93.5 29s34.5 45.333 34.5 78v2c0 34.667 -11.5 61.167 -34.5 79.5s-55.167 27.5 -96.5 27.5h-165v-216z" />
    <glyph glyph-name="rcaron" unicode="&#x159;" horiz-adv-x="442" 
d="M440 780l-126 -161h-144l-126 161h117l82 -69l82 69h115zM76 0v555.999h152v-115c36 86.667 96.333 128.334 181 125.001v-159h-8c-54.667 0 -97.167 -16.667 -127.5 -50s-45.5 -83.333 -45.5 -150v-207h-152z" />
    <glyph glyph-name="Sacute" unicode="&#x15a;" horiz-adv-x="674" 
d="M351 -10c-119.333 0 -222 38.666 -308 115.999l91 109c72 -60 145.333 -90 220 -90c34 0 60.833 6.66699 80.5 20s29.5 31.333 29.5 54v2c0 22.667 -9.83301 40.334 -29.5 53.001s-59.834 27 -120.501 43c-41.333 10.667 -75 21 -101 31s-50.667 23.167 -74 39.5
s-40.333 36.833 -51 61.5s-16 54.667 -16 90v2c0 64.667 23.667 117 71 157s108.333 60 183 60c102.667 0 192.334 -30.667 269.001 -92l-81 -116c-66 48.667 -129.667 73 -191 73c-30.667 0 -54.667 -6.5 -72 -19.5s-26 -29.167 -26 -48.5v-2
c0 -24.667 10.5 -43.5 31.5 -56.5s63.833 -27.5 128.5 -43.5c78.667 -20 137 -46.333 175 -79s57 -78.667 57 -138v-2c0 -70 -24.333 -124.833 -73 -164.5s-113 -59.5 -193 -59.5zM280 795.999l124 161l132 -58l-140 -103h-116z" />
    <glyph glyph-name="sacute" unicode="&#x15b;" horiz-adv-x="530" 
d="M208 619l114 181l132 -57l-134 -124h-112zM270 -10c-88 0 -167.333 27.668 -238 83.001l66 101c60.667 -44.667 119.334 -67 176.001 -67c47.333 0 71 15 71 45v2c0 10 -5 19 -15 27s-21 14.167 -33 18.5s-29.333 9.83301 -52 16.5l-6 1.5
c-1.33301 0.333008 -3 0.833008 -5 1.5l-6 2c-24.667 7.33301 -45.167 14.5 -61.5 21.5s-33.5 16.833 -51.5 29.5s-31.667 28.5 -41 47.5s-14 41.5 -14 67.5v2c0 54 19.333 96.667 58 128s87 47 145 47c73.333 0 142 -21.333 206 -64l-58 -105
c-60.667 34.667 -111.334 52 -152.001 52c-19.333 0 -34.5 -3.83301 -45.5 -11.5s-16.5 -17.834 -16.5 -30.501v-2c0 -13.333 8 -24.333 24 -33s40.667 -18.667 74 -30l18 -6c23.333 -7.33301 43.333 -14.833 60 -22.5s34.167 -17.667 52.5 -30s32.333 -28 42 -47
s14.5 -40.5 14.5 -64.5v-2c0 -58.667 -19.5 -103 -58.5 -133s-90.167 -45 -153.5 -45z" />
    <glyph glyph-name="Scedilla" unicode="&#x15e;" horiz-adv-x="674" 
d="M330 -178l-128.001 52.999l82 120c-93.333 12 -173.666 49 -240.999 111l91 109c72 -60 145.333 -90 220 -90c34 0 60.833 6.66699 80.5 20s29.5 31.333 29.5 54v2c0 22.667 -9.83301 40.334 -29.5 53.001s-59.834 27 -120.501 43c-41.333 10.667 -75 21 -101 31
s-50.667 23.167 -74 39.5s-40.333 36.833 -51 61.5s-16 54.667 -16 90v2c0 64.667 23.667 117 71 157s108.333 60 183 60c102.667 0 192.334 -30.667 269.001 -92l-81 -116c-66 48.667 -129.667 73 -191 73c-30.667 0 -54.667 -6.5 -72 -19.5s-26 -29.167 -26 -48.5v-2
c0 -24.667 10.5 -43.5 31.5 -56.5s63.833 -27.5 128.5 -43.5c78.667 -20 137 -46.333 175 -79s57 -78.667 57 -138v-2c0 -62.667 -19.667 -113.167 -59 -151.5s-92 -61.5 -158 -69.5z" />
    <glyph glyph-name="scedilla" unicode="&#x15f;" horiz-adv-x="530" 
d="M247 -178l-127.999 53l83 121c-63.333 12 -120 37.667 -170 77l66 101c60.667 -44.667 119.334 -67 176.001 -67c47.333 0 71 15 71 45v2c0 10 -5 19 -15 27s-21 14.167 -33 18.5s-29.333 9.83301 -52 16.5l-6 1.5c-1.33301 0.333008 -3 0.833008 -5 1.5l-6 2
c-24.667 7.33301 -45.167 14.5 -61.5 21.5s-33.5 16.833 -51.5 29.5s-31.667 28.5 -41 47.5s-14 41.5 -14 67.5v2c0 54 19.333 96.667 58 128s87 47 145 47c73.333 0 142 -21.333 206 -64l-58 -105c-60.667 34.667 -111.334 52 -152.001 52
c-19.333 0 -34.5 -3.83301 -45.5 -11.5s-16.5 -17.834 -16.5 -30.501v-2c0 -13.333 8 -24.333 24 -33s40.667 -18.667 74 -30l18 -6c23.333 -7.33301 43.333 -14.833 60 -22.5s34.167 -17.667 52.5 -30s32.333 -28 42 -47s14.5 -40.5 14.5 -64.5v-2
c0 -51.333 -14.833 -91.666 -44.5 -120.999s-69.834 -47.333 -120.501 -54z" />
    <glyph glyph-name="Scaron" unicode="&#x160;" horiz-adv-x="674" 
d="M351 -10c-119.333 0 -222 38.666 -308 115.999l91 109c72 -60 145.333 -90 220 -90c34 0 60.833 6.66699 80.5 20s29.5 31.333 29.5 54v2c0 22.667 -9.83301 40.334 -29.5 53.001s-59.834 27 -120.501 43c-41.333 10.667 -75 21 -101 31s-50.667 23.167 -74 39.5
s-40.333 36.833 -51 61.5s-16 54.667 -16 90v2c0 64.667 23.667 117 71 157s108.333 60 183 60c102.667 0 192.334 -30.667 269.001 -92l-81 -116c-66 48.667 -129.667 73 -191 73c-30.667 0 -54.667 -6.5 -72 -19.5s-26 -29.167 -26 -48.5v-2
c0 -24.667 10.5 -43.5 31.5 -56.5s63.833 -27.5 128.5 -43.5c78.667 -20 137 -46.333 175 -79s57 -78.667 57 -138v-2c0 -70 -24.333 -124.833 -73 -164.5s-113 -59.5 -193 -59.5zM544 945.999l-131 -150h-144l-131 150h122l82 -58l82 58h120z" />
    <glyph glyph-name="scaron" unicode="&#x161;" horiz-adv-x="530" 
d="M466 780l-126 -161h-144l-126 161h117l82 -69l82 69h115zM270 -10c-88 0 -167.333 27.668 -238 83.001l66 101c60.667 -44.667 119.334 -67 176.001 -67c47.333 0 71 15 71 45v2c0 10 -5 19 -15 27s-21 14.167 -33 18.5s-29.333 9.83301 -52 16.5l-6 1.5
c-1.33301 0.333008 -3 0.833008 -5 1.5l-6 2c-24.667 7.33301 -45.167 14.5 -61.5 21.5s-33.5 16.833 -51.5 29.5s-31.667 28.5 -41 47.5s-14 41.5 -14 67.5v2c0 54 19.333 96.667 58 128s87 47 145 47c73.333 0 142 -21.333 206 -64l-58 -105
c-60.667 34.667 -111.334 52 -152.001 52c-19.333 0 -34.5 -3.83301 -45.5 -11.5s-16.5 -17.834 -16.5 -30.501v-2c0 -13.333 8 -24.333 24 -33s40.667 -18.667 74 -30l18 -6c23.333 -7.33301 43.333 -14.833 60 -22.5s34.167 -17.667 52.5 -30s32.333 -28 42 -47
s14.5 -40.5 14.5 -64.5v-2c0 -58.667 -19.5 -103 -58.5 -133s-90.167 -45 -153.5 -45z" />
    <glyph glyph-name="Tcommaaccent" unicode="&#x162;" horiz-adv-x="681" 
d="M264 0v586h-224v142h601v-142h-223v-586h-154zM266 -299l-8 46c27.333 2.66699 47.5 10.167 60.5 22.5s18.833 29.5 17.5 51.5h-65v117h140v-99c0 -47.333 -12 -81.833 -36 -103.5s-60.333 -33.167 -109 -34.5z" />
    <glyph glyph-name="Tcommaaccent" unicode="&#x21a;" horiz-adv-x="681" 
d="M264 0v586h-224v142h601v-142h-223v-586h-154zM266 -299l-8 46c27.333 2.66699 47.5 10.167 60.5 22.5s18.833 29.5 17.5 51.5h-65v117h140v-99c0 -47.333 -12 -81.833 -36 -103.5s-60.333 -33.167 -109 -34.5z" />
    <glyph glyph-name="tcommaaccent" unicode="&#x163;" horiz-adv-x="439" 
d="M161 -299l-8 46c27.333 2.66699 47.5 10.167 60.5 22.5s18.833 29.5 17.5 51.5h-65v117h140v-99c0 -47.333 -12 -81.833 -36 -103.5s-60.333 -33.167 -109 -34.5zM264 -9c-52 0 -92 12.5 -120 37.5s-42 67.833 -42 128.5v269h-67v130h67v144h152v-144h134v-130h-134v-244
c0 -38 18 -57 54 -57c28.667 0 54.667 6.33301 78 19v-122c-36 -20.667 -76.667 -31 -122 -31z" />
    <glyph glyph-name="tcommaaccent" unicode="&#x21b;" horiz-adv-x="439" 
d="M161 -299l-8 46c27.333 2.66699 47.5 10.167 60.5 22.5s18.833 29.5 17.5 51.5h-65v117h140v-99c0 -47.333 -12 -81.833 -36 -103.5s-60.333 -33.167 -109 -34.5zM264 -9c-52 0 -92 12.5 -120 37.5s-42 67.833 -42 128.5v269h-67v130h67v144h152v-144h134v-130h-134v-244
c0 -38 18 -57 54 -57c28.667 0 54.667 6.33301 78 19v-122c-36 -20.667 -76.667 -31 -122 -31z" />
    <glyph glyph-name="Tcaron" unicode="&#x164;" horiz-adv-x="681" 
d="M544 936l-131 -150h-144l-131 150h122l82 -58l82 58h120zM264 0v586h-224v142h601v-142h-223v-586h-154z" />
    <glyph glyph-name="tcaron" unicode="&#x165;" horiz-adv-x="439" 
d="M323 615l11 213h110v-3l-61 -210h-60zM264 -9c-52 0 -92 12.5 -120 37.5s-42 67.833 -42 128.5v269h-67v130h67v144h152v-144h134v-130h-134v-244c0 -38 18 -57 54 -57c28.667 0 54.667 6.33301 78 19v-122c-36 -20.667 -76.667 -31 -122 -31z" />
    <glyph glyph-name="Umacron" unicode="&#x16a;" horiz-adv-x="794" 
d="M202 792v108h390v-108h-390zM395 -11c-98.667 0 -175.666 27.5 -230.999 82.5s-83 134.833 -83 239.5v417h154v-412c0 -60.667 14.167 -106.834 42.5 -138.501s68.166 -47.5 119.499 -47.5s91.333 15.333 120 46s43 75.334 43 134.001v418h153v-411
c0 -108 -28 -189.667 -84 -245s-134 -83 -234 -83z" />
    <glyph glyph-name="umacron" unicode="&#x16b;" horiz-adv-x="655" 
d="M262 -11c-60 0 -106.667 18.5 -140 55.5s-50 87.833 -50 152.5v359h151v-311c0 -38 8.66699 -67.167 26 -87.5s42 -30.5 74 -30.5c32.667 0 58.167 10.167 76.5 30.5s27.5 49.5 27.5 87.5v311h152v-556h-152v80c-46.667 -60.667 -101.667 -91 -165 -91zM140 625v106h370
v-106h-370z" />
    <glyph glyph-name="Ubreve" unicode="&#x16c;" horiz-adv-x="794" 
d="M397 775c-55.333 0 -100.331 13.167 -134.998 39.5s-54.334 63.833 -59.001 112.5h104c13.333 -34.667 43.333 -52 90 -52s76.667 17.333 90 52h104c-4.66699 -48.667 -24.334 -86.167 -59.001 -112.5s-79.667 -39.5 -135 -39.5zM395.002 -11
c-98.667 0 -175.666 27.5 -230.999 82.5s-83 134.833 -83 239.5v417h154v-412c0 -60.667 14.167 -106.834 42.5 -138.501s68.166 -47.5 119.499 -47.5s91.333 15.333 120 46s43 75.334 43 134.001v418h153v-411c0 -108 -28 -189.667 -84 -245s-134 -83 -234 -83z" />
    <glyph glyph-name="ubreve" unicode="&#x16d;" horiz-adv-x="655" 
d="M262 -11c-60 0 -106.667 18.5 -140 55.5s-50 87.833 -50 152.5v359h151v-311c0 -38 8.66699 -67.167 26 -87.5s42 -30.5 74 -30.5c32.667 0 58.167 10.167 76.5 30.5s27.5 49.5 27.5 87.5v311h152v-556h-152v80c-46.667 -60.667 -101.667 -91 -165 -91zM325 617
c-54.667 0 -99.167 14.167 -133.5 42.5s-53.833 68.166 -58.5 119.499h102c14.667 -42 44.667 -63 90 -63s75.333 21 90 63h102c-4.66699 -51.333 -24.167 -91.166 -58.5 -119.499s-78.833 -42.5 -133.5 -42.5z" />
    <glyph glyph-name="Uring" unicode="&#x16e;" horiz-adv-x="794" 
d="M395 -11c-98.667 0 -175.666 27.5 -230.999 82.5s-83 134.833 -83 239.5v417h154v-412c0 -60.667 14.167 -106.834 42.5 -138.501s68.166 -47.5 119.499 -47.5s91.333 15.333 120 46s43 75.334 43 134.001v418h153v-411c0 -108 -28 -189.667 -84 -245s-134 -83 -234 -83z
M397.001 760c-35.333 0 -65.5 10.5 -90.5 31.5s-37.5 48.167 -37.5 81.5c0 32.667 12.667 59.834 38 81.501s55.333 32.5 90 32.5s64.667 -10.833 90 -32.5s38 -48.834 38 -81.501c0 -33.333 -12.5 -60.5 -37.5 -81.5s-55.167 -31.5 -90.5 -31.5zM397.001 815
c19.333 0 35.166 5.5 47.499 16.5s18.5 24.833 18.5 41.5s-6.16699 30.667 -18.5 42s-28.166 17 -47.499 17s-35.166 -5.66699 -47.499 -17s-18.5 -25.333 -18.5 -42s6.16699 -30.5 18.5 -41.5s28.166 -16.5 47.499 -16.5z" />
    <glyph glyph-name="uring" unicode="&#x16f;" horiz-adv-x="655" 
d="M325 603c-34 0 -63.333 11.667 -88 35s-37 51.666 -37 84.999s12.333 61.833 37 85.5s54 35.5 88 35.5s63.333 -11.833 88 -35.5s37 -52.167 37 -85.5s-12.333 -61.666 -37 -84.999s-54 -35 -88 -35zM325 654c19.333 0 35.666 6.83301 48.999 20.5s20 29.834 20 48.501
c0 19.333 -6.66699 35.666 -20 48.999s-29.666 20 -48.999 20s-35.666 -6.66699 -48.999 -20s-20 -29.666 -20 -48.999c0 -18.667 6.66699 -34.834 20 -48.501s29.666 -20.5 48.999 -20.5zM262 -11c-60 0 -106.667 18.5 -140 55.5s-50 87.833 -50 152.5v359h151v-311
c0 -38 8.66699 -67.167 26 -87.5s42 -30.5 74 -30.5c32.667 0 58.167 10.167 76.5 30.5s27.5 49.5 27.5 87.5v311h152v-556h-152v80c-46.667 -60.667 -101.667 -91 -165 -91z" />
    <glyph glyph-name="Uhungarumlaut" unicode="&#x170;" horiz-adv-x="794" 
d="M395 -11c-98.667 0 -175.666 27.5 -230.999 82.5s-83 134.833 -83 239.5v417h154v-412c0 -60.667 14.167 -106.834 42.5 -138.501s68.166 -47.5 119.499 -47.5s91.333 15.333 120 46s43 75.334 43 134.001v418h153v-411c0 -108 -28 -189.667 -84 -245s-134 -83 -234 -83z
M232.001 786l124 161l127 -58l-140 -103h-111zM426.001 786l124 161l127 -58l-139 -103h-112z" />
    <glyph glyph-name="uhungarumlaut" unicode="&#x171;" horiz-adv-x="655" 
d="M262 -11c-60 0 -106.667 18.5 -140 55.5s-50 87.833 -50 152.5v359h151v-311c0 -38 8.66699 -67.167 26 -87.5s42 -30.5 74 -30.5c32.667 0 58.167 10.167 76.5 30.5s27.5 49.5 27.5 87.5v311h152v-556h-152v80c-46.667 -60.667 -101.667 -91 -165 -91zM353 619l114 181
l129 -57l-135 -124h-108zM164 619l112 181l129 -57l-134 -124h-107z" />
    <glyph glyph-name="Uogonek" unicode="&#x172;" horiz-adv-x="794" 
d="M488 -103v-68.001c-7.33301 -1.33301 -22 -2 -44 -2c-44 0 -78.167 8.16699 -102.5 24.5s-36.5 37.833 -36.5 64.5c0 25.333 10.333 51 31 77c-81.333 10 -144.166 41.833 -188.499 95.5s-66.5 127.834 -66.5 222.501v417h154v-412
c0 -60.667 14.167 -106.834 42.5 -138.501s68.166 -47.5 119.499 -47.5s91.333 15.333 120 46s43 75.334 43 134.001v418h153v-411c0 -100.667 -24.333 -178.5 -73 -233.5s-117 -85.833 -205 -92.5c-13.333 -18.667 -20 -35.667 -20 -51c0 -30 24.333 -44.333 73 -43z" />
    <glyph glyph-name="uogonek" unicode="&#x173;" horiz-adv-x="655" 
d="M262 -11c-60 0 -106.667 18.5 -140 55.5s-50 87.833 -50 152.5v359h151v-311c0 -38 8.66699 -67.167 26 -87.5s42 -30.5 74 -30.5c32.667 0 58.167 10.167 76.5 30.5s27.5 49.5 27.5 87.5v311h152v-556h-35c-18 -20.667 -27 -40.667 -27 -60c0 -30 24.333 -44.333 73 -43
v-68c-7.33301 -1.33301 -22 -2 -44 -2c-44 0 -78.167 8.16699 -102.5 24.5s-36.5 37.833 -36.5 64.5c0 28 12 56 36 84h-16v80c-46.667 -60.667 -101.667 -91 -165 -91z" />
    <glyph glyph-name="Wcircumflex" unicode="&#x174;" horiz-adv-x="1174" 
d="M286 -5l-250 733h165l156 -502l166 504h132l166 -504l155 502h161l-249 -733h-134l-167 485l-167 -485h-134zM384 786l131 150h144l131 -150h-122l-82 58l-82 -58h-120z" />
    <glyph glyph-name="wcircumflex" unicode="&#x175;" horiz-adv-x="903" 
d="M253 619l126 161h144l126 -161h-117l-82 69l-82 -69h-115zM203 -4l-172 560h154l93 -346l109 348h130l109 -349l96 347h151l-175 -560h-137l-110 349l-112 -349h-136z" />
    <glyph glyph-name="Ycircumflex" unicode="&#x176;" horiz-adv-x="753" 
d="M299 0v287l-281 441h180l179 -298l183 298h175l-282 -438v-290h-154zM173 786l131 150h144l131 -150h-122l-82 58l-82 -58h-120z" />
    <glyph glyph-name="ycircumflex" unicode="&#x177;" horiz-adv-x="631" 
d="M319 171l126 384.999h158l-215 -570c-22 -57.333 -46.333 -97.666 -73 -120.999s-63.334 -35 -110.001 -35c-48 0 -94 12.667 -138 38l51 110c24.667 -14 47.667 -21 69 -21c14.667 0 26.334 2.83301 35.001 8.5s17 16.5 25 32.5l-221 558h161zM117 618.999l126 161h144
l126 -161h-117l-82 69l-82 -69h-115z" />
    <glyph glyph-name="Ydieresis" unicode="&#x178;" horiz-adv-x="753" 
d="M299 0v287l-281 441h180l179 -298l183 298h175l-282 -438v-290h-154zM414 786v129h148v-129h-148zM190 786v129h148v-129h-148z" />
    <glyph glyph-name="Zacute" unicode="&#x179;" horiz-adv-x="743" 
d="M70 0v116l406 477h-393v135h591v-116l-406 -477h406v-135h-604zM316 786l124 161l132 -58l-140 -103h-116z" />
    <glyph glyph-name="zacute" unicode="&#x17a;" horiz-adv-x="593" 
d="M239 619l114 181l132 -57l-134 -124h-112zM56 0v106l294 327h-284v123h474v-107l-295 -326h295v-123h-484z" />
    <glyph glyph-name="Zdotaccent" unicode="&#x17b;" horiz-adv-x="743" 
d="M302 786v129h152v-129h-152zM70 0v116l406 477h-393v135h591v-116l-406 -477h406v-135h-604z" />
    <glyph glyph-name="zdotaccent" unicode="&#x17c;" horiz-adv-x="593" 
d="M56 0v106l294 327h-284v123h474v-107l-295 -326h295v-123h-484zM222 619v137h152v-137h-152z" />
    <glyph glyph-name="Zcaron" unicode="&#x17d;" horiz-adv-x="743" 
d="M581 936l-131 -150h-144l-131 150h122l82 -58l82 58h120zM70 0v116l406 477h-393v135h591v-116l-406 -477h406v-135h-604z" />
    <glyph glyph-name="zcaron" unicode="&#x17e;" horiz-adv-x="593" 
d="M496 780l-126 -161h-144l-126 161h117l82 -69l82 69h115zM56 0v106l294 327h-284v123h474v-107l-295 -326h295v-123h-484z" />
    <glyph glyph-name="uni018F" unicode="&#x18f;" horiz-adv-x="837" 
d="M194 506l-98.001 99.002c76.667 90 179.667 135 309 135c106.667 0 195.334 -34.833 266.001 -104.5s106 -159.167 106 -268.5v-3c0 -105.333 -34.333 -194.333 -103 -267s-155 -109 -259 -109c-76.667 0 -142.5 18.5 -197.5 55.5s-95 84.5 -120 142.5
s-37.5 122.667 -37.5 194v2c0 7.33301 0.666992 23.666 2 48.999h547c-11.333 53.333 -35.333 94.666 -72 123.999s-80.667 44 -132 44c-80.667 0 -151 -31 -211 -93zM414.999 126.002c50.667 0 93.501 16 128.501 48s57.167 74.333 66.5 127h-385
c6.66699 -52 26.667 -94.167 60 -126.5s76.666 -48.5 129.999 -48.5z" />
    <glyph glyph-name="florin" unicode="&#x192;" horiz-adv-x="564" 
d="M107 -5c-24 0 -44.002 1.66602 -60.002 4.99902v123c12.667 -2 25.667 -3 39 -3c22 0 38.667 4.83301 50 14.5s19 26.167 23 49.5l31 176h-73v125h95l15 81c10 56 30 97.833 60 125.5s74.667 41.5 134 41.5c41.333 0 75 -4 101 -12v-126c-24 6.66699 -47.667 10 -71 10
s-41.166 -5.66699 -53.499 -17s-20.833 -29.666 -25.5 -54.999l-8 -48h122v-125h-144l-36 -199c-10.667 -59.333 -31.667 -101.833 -63 -127.5s-76.666 -38.5 -135.999 -38.5z" />
    <glyph glyph-name="Aringacute" unicode="&#x1fa;" horiz-adv-x="830" 
d="M30 0l295 690c-25.333 21.333 -38 48.666 -38 81.999c0 32.667 12.667 59.834 38 81.501s55.333 32.5 90 32.5s64.667 -10.833 90 -32.5s38 -48.834 38 -81.501c0 -33.333 -13 -60.666 -39 -81.999l295 -690h-161l-68 166h-315l-68 -166h-157zM310 302h205l-102 247z
M415 714c19.333 0 35.166 5.66699 47.499 17s18.5 25 18.5 41c0 16.667 -6.16699 30.667 -18.5 42s-28.166 17 -47.499 17s-35.166 -5.66699 -47.499 -17s-18.5 -25.333 -18.5 -42s6.16699 -30.5 18.5 -41.5s28.166 -16.5 47.499 -16.5zM347 915l130 141l131 -58l-145 -83
h-116z" />
    <glyph glyph-name="aringacute" unicode="&#x1fb;" horiz-adv-x="623" 
d="M235 -11c-54.667 0 -100.5 15.167 -137.5 45.5s-55.5 72.166 -55.5 125.499v2c0 58.667 20.333 102.834 61 132.501s95.334 44.5 164.001 44.5c47.333 0 93.666 -7.33301 138.999 -22v10c0 70 -41 105 -123 105c-48 0 -99.667 -10.333 -155 -31l-38 116
c68 30 139.667 45 215 45c82 0 144.333 -20.667 187 -62c40 -40 60 -98.667 60 -176v-324h-147v62c-44 -48.667 -100.667 -73 -170 -73zM280 95c38 0 68.833 9.5 92.5 28.5s35.5 43.5 35.5 73.5v30c-32.667 14 -68 21 -106 21c-35.333 0 -63 -7 -83 -21s-30 -33.667 -30 -59
v-2c0 -22 8.33301 -39.333 25 -52s38.667 -19 66 -19zM313 617c-34 0 -63.333 11.667 -88 35s-37 51.666 -37 84.999s12.333 61.833 37 85.5s54 35.5 88 35.5s63.333 -11.833 88 -35.5s37 -52.167 37 -85.5s-12.333 -61.666 -37 -84.999s-54 -35 -88 -35zM313 668
c19.333 0 35.666 6.83301 48.999 20.5s20 29.834 20 48.501c0 19.333 -6.66699 35.666 -20 48.999s-29.666 20 -48.999 20s-35.666 -6.66699 -48.999 -20s-20 -29.666 -20 -48.999c0 -18.667 6.66699 -34.834 20 -48.501s29.666 -20.5 48.999 -20.5zM252 893l122 151
l130 -58l-140 -93h-112z" />
    <glyph glyph-name="AEacute" unicode="&#x1fc;" horiz-adv-x="1095" 
d="M584 786l124 161l132 -58l-140 -103h-116zM14 0l395 728h621v-137h-369v-156h322v-137h-322v-161h374v-137h-527v166h-248l-89 -166h-157zM332 302h176v293h-19z" />
    <glyph glyph-name="aeacute" unicode="&#x1fd;" horiz-adv-x="997" 
d="M434 619l114 181l132 -57l-134 -124h-112zM252 -11c-61.333 0 -111.666 15.3311 -150.999 45.998s-59 72.334 -59 125.001v2c0 58.667 20.333 102.834 61 132.501s95.334 44.5 164.001 44.5c46.667 0 92.667 -7.33301 138 -22v10c0 70 -40.667 105 -122 105
c-48 0 -99.667 -10.333 -155 -31l-38 116c65.333 30 136.666 45 213.999 45c89.333 0 152.666 -24.667 189.999 -74c50 52 112 78 186 78c84.667 0 150.167 -29.167 196.5 -87.5s69.5 -129.5 69.5 -213.5c0 -6.66699 -0.666992 -20 -2 -40h-391
c7.33301 -37.333 23.333 -65.833 48 -85.5s55.667 -29.5 93 -29.5c50.667 0 96.667 19.333 138 58l87 -77c-56 -68.667 -131.667 -103 -227 -103c-88.667 0 -159.667 28.667 -213 86c-75.333 -56.667 -151 -85 -227 -85zM551 319.998h247
c-4.66699 38 -17.5 68.167 -38.5 90.5s-48.833 33.5 -83.5 33.5c-33.333 0 -61 -11 -83 -33s-36 -52.333 -42 -91zM279 96.998c53.333 0 102.334 18.668 147.001 56.001c-10 22 -16.667 47 -20 75c-34 13.333 -68.667 20 -104 20s-63 -7 -83 -21s-30 -33.667 -30 -59v-2
c0 -20.667 8.66699 -37.334 26 -50.001s38.666 -19 63.999 -19z" />
    <glyph glyph-name="Oslashacute" unicode="&#x1fe;" horiz-adv-x="892" 
d="M693 733h146.999l-102 -118c62.667 -70 94 -153 94 -249v-2c0 -104 -36.833 -192.667 -110.5 -266s-165.834 -110 -276.501 -110c-76.667 0 -144.667 17.667 -204 53l-42 -46h-147l102 118c-62.667 70 -94 153 -94 249v2c0 104 36.833 192.667 110.5 266
s165.834 110 276.501 110c74.667 0 142.334 -18 203.001 -54zM217.999 366l0.000976562 -2c0 -49.333 13 -94.333 39 -135l298 345c-32.667 18.667 -69.334 28 -110.001 28c-65.333 0 -119.5 -23 -162.5 -69s-64.5 -101.667 -64.5 -167zM447 126
c65.333 0 119.499 22.999 162.499 68.999s64.5 101.667 64.5 167v2c0 50.667 -13 95.334 -39 134.001l-298 -344c32.667 -18.667 69.334 -28 110.001 -28zM383.999 795.999l124 161l132 -58l-140 -103h-116z" />
    <glyph glyph-name="oslashacute" unicode="&#x1ff;" horiz-adv-x="697" 
d="M530 561h133.999l-85 -97c46 -54.667 69 -116.334 69 -185.001v-2c0 -80.667 -28.667 -149 -86 -205s-129 -84 -215 -84c-57.333 0 -107.666 12.333 -150.999 37l-29 -30h-134l83 95c-44.667 50.667 -67 112.334 -67 185.001v2c0 80 28.833 148.167 86.5 204.5
s129.167 84.5 214.5 84.5c56.667 0 106.667 -12.333 150 -37zM349.999 114c46 0 82.832 15.5 110.499 46.5s41.5 69.167 41.5 114.5v2c0 28 -6.33301 54.333 -19 79l-198 -228c20.667 -9.33301 42.334 -14 65.001 -14zM194.998 279v-2c0 -28.667 6 -55 18 -79l199 227
c-22 9.33301 -43.667 14 -65 14c-46 0 -82.833 -15.333 -110.5 -46s-41.5 -68.667 -41.5 -114zM288.998 619l114 181l132 -57l-134 -124h-112z" />
    <glyph glyph-name="Scommaaccent" unicode="&#x218;" horiz-adv-x="674" 
d="M351 -10c-119.333 0 -222 38.666 -308 115.999l91 109c72 -60 145.333 -90 220 -90c34 0 60.833 6.66699 80.5 20s29.5 31.333 29.5 54v2c0 22.667 -9.83301 40.334 -29.5 53.001s-59.834 27 -120.501 43c-41.333 10.667 -75 21 -101 31s-50.667 23.167 -74 39.5
s-40.333 36.833 -51 61.5s-16 54.667 -16 90v2c0 64.667 23.667 117 71 157s108.333 60 183 60c102.667 0 192.334 -30.667 269.001 -92l-81 -116c-66 48.667 -129.667 73 -191 73c-30.667 0 -54.667 -6.5 -72 -19.5s-26 -29.167 -26 -48.5v-2
c0 -24.667 10.5 -43.5 31.5 -56.5s63.833 -27.5 128.5 -43.5c78.667 -20 137 -46.333 175 -79s57 -78.667 57 -138v-2c0 -70 -24.333 -124.833 -73 -164.5s-113 -59.5 -193 -59.5zM266 -303.001l-8 46c27.333 2.66699 47.5 10.167 60.5 22.5s18.833 29.5 17.5 51.5h-65v117
h140v-99c0 -47.333 -12 -81.833 -36 -103.5s-60.333 -33.167 -109 -34.5z" />
    <glyph glyph-name="scommaaccent" unicode="&#x219;" horiz-adv-x="530" 
d="M193 -299l-8 46c27.333 2.66699 47.5 10.167 60.5 22.5s18.833 29.5 17.5 51.5h-65v117h140v-99c0 -47.333 -12 -81.833 -36 -103.5s-60.333 -33.167 -109 -34.5zM270 -10c-88 0 -167.333 27.668 -238 83.001l66 101c60.667 -44.667 119.334 -67 176.001 -67
c47.333 0 71 15 71 45v2c0 10 -5 19 -15 27s-21 14.167 -33 18.5s-29.333 9.83301 -52 16.5l-6 1.5c-1.33301 0.333008 -3 0.833008 -5 1.5l-6 2c-24.667 7.33301 -45.167 14.5 -61.5 21.5s-33.5 16.833 -51.5 29.5s-31.667 28.5 -41 47.5s-14 41.5 -14 67.5v2
c0 54 19.333 96.667 58 128s87 47 145 47c73.333 0 142 -21.333 206 -64l-58 -105c-60.667 34.667 -111.334 52 -152.001 52c-19.333 0 -34.5 -3.83301 -45.5 -11.5s-16.5 -17.834 -16.5 -30.501v-2c0 -13.333 8 -24.333 24 -33s40.667 -18.667 74 -30l18 -6
c23.333 -7.33301 43.333 -14.833 60 -22.5s34.167 -17.667 52.5 -30s32.333 -28 42 -47s14.5 -40.5 14.5 -64.5v-2c0 -58.667 -19.5 -103 -58.5 -133s-90.167 -45 -153.5 -45z" />
    <glyph glyph-name="schwa" unicode="&#x259;" horiz-adv-x="644" 
d="M306 568c83.333 0 152.334 -26.833 207.001 -80.5s82 -122.5 82 -206.5v-2c0 -80.667 -25.833 -149.167 -77.5 -205.5s-117.167 -84.5 -196.5 -84.5c-58.667 0 -109 14.5 -151 43.5s-72.333 65.833 -91 110.5s-28 94 -28 148c0 6.66699 0.666992 20 2 40h391
c-7.33301 37.333 -23.333 65.833 -48 85.5s-55.334 29.5 -92.001 29.5c-50.667 0 -96.667 -19.667 -138 -59l-88 78c56.667 68.667 132.667 103 228 103zM446.001 235l-247 -0.000976562c4.66699 -37.333 17.5 -67.166 38.5 -89.499s48.833 -33.5 83.5 -33.5
c33.333 0 61 11 83 33s36 52 42 90z" />
    <glyph glyph-name="circumflex" unicode="&#x2c6;" 
d="M66 619l126 161h144l126 -161h-117l-82 69l-82 -69h-115z" />
    <glyph glyph-name="caron" unicode="&#x2c7;" 
d="M462 780l-126 -161h-144l-126 161h117l82 -69l82 69h115z" />
    <glyph glyph-name="breve" unicode="&#x2d8;" 
d="M264 617c-54.667 0 -99.167 14.167 -133.5 42.5s-53.833 68.166 -58.5 119.499h102c14.667 -42 44.667 -63 90 -63s75.333 21 90 63h102c-4.66699 -51.333 -24.167 -91.166 -58.5 -119.499s-78.833 -42.5 -133.5 -42.5z" />
    <glyph glyph-name="dotaccent" unicode="&#x2d9;" 
d="M188 619v137h152v-137h-152z" />
    <glyph glyph-name="ring" unicode="&#x2da;" 
d="M264 617c-34 0 -63.333 11.667 -88 35s-37 51.666 -37 84.999s12.333 61.833 37 85.5s54 35.5 88 35.5s63.333 -11.833 88 -35.5s37 -52.167 37 -85.5s-12.333 -61.666 -37 -84.999s-54 -35 -88 -35zM264 668c19.333 0 35.666 6.83301 48.999 20.5s20 29.834 20 48.501
c0 19.333 -6.66699 35.666 -20 48.999s-29.666 20 -48.999 20s-35.666 -6.66699 -48.999 -20s-20 -29.666 -20 -48.999c0 -18.667 6.66699 -34.834 20 -48.501s29.666 -20.5 48.999 -20.5z" />
    <glyph glyph-name="ogonek" unicode="&#x2db;" 
d="M372 -103v-68.001c-7.33301 -1.33301 -22 -2 -44 -2c-44 0 -78.167 8.16699 -102.5 24.5s-36.5 37.833 -36.5 64.5c0 28 15.333 59.667 46 95l101 -1c-24.667 -25.333 -37 -48.666 -37 -69.999c0 -30 24.333 -44.333 73 -43z" />
    <glyph glyph-name="tilde" unicode="&#x2dc;" 
d="M348 619c-24.667 0 -55.667 7.66797 -93 23.001c-30 11.333 -50.333 17 -61 17c-15.333 0 -27 -3.83301 -35 -11.5s-16 -20.834 -24 -39.501l-82 25c13.333 47.333 29.5 82.666 48.5 105.999s45.167 35 78.5 35c24.667 0 55.667 -7.66699 93 -23
c32 -12 52.333 -18 61 -18c15.333 0 27 3.83301 35 11.5s16 21.167 24 40.5l82 -25c-13.333 -47.333 -29.5 -82.666 -48.5 -105.999s-45.167 -35 -78.5 -35z" />
    <glyph glyph-name="hungarumlaut" unicode="&#x2dd;" 
d="M242 619l114 181l129 -57l-135 -124h-108zM53 619l112 181l129 -57l-134 -124h-107z" />
    <glyph glyph-name="commaaccent" unicode="&#x326;" 
d="M189 -299l-8 46c27.333 2.66699 47.5 10.167 60.5 22.5s18.833 29.5 17.5 51.5h-65v117h140v-99c0 -47.333 -12 -81.833 -36 -103.5s-60.333 -33.167 -109 -34.5z" />
    <glyph glyph-name="uni0384" unicode="&#x384;" 
d="M175 619l74 187l128 -57l-104 -130h-98z" />
    <glyph glyph-name="uni0385" unicode="&#x385;" 
d="M361 619v135h129v-135h-129zM38 619v135h129v-135h-129zM194 619l48 213l122 -27l-87 -186h-83z" />
    <glyph glyph-name="uni0386" unicode="&#x386;" horiz-adv-x="830" 
d="M30 0l314 733h142l313 -733h-161l-68 166h-315l-68 -166h-157zM310 302h205l-102 247zM47 512l11 216h146l-79 -216h-78z" />
    <glyph glyph-name="uni0387" unicode="&#x387;" horiz-adv-x="312" 
d="M75 394v162h162v-162h-162z" />
    <glyph glyph-name="uni0388" unicode="&#x388;" horiz-adv-x="705" 
d="M-102 512l11 216h146l-79 -216h-78zM93 0v728h547v-137h-395v-156h348v-137h-348v-161h400v-137h-552z" />
    <glyph glyph-name="uni0389" unicode="&#x389;" horiz-adv-x="798" 
d="M93 0v728h153v-291h306v291h154v-728h-154v295h-306v-295h-153zM-102 512l11 216h146l-79 -216h-78z" />
    <glyph glyph-name="uni038A" unicode="&#x38a;" horiz-adv-x="354" 
d="M100 0v728h154v-728h-154zM-98 512l11 216h146l-79 -216h-78z" />
    <glyph glyph-name="uni038C" unicode="&#x38c;" horiz-adv-x="892" 
d="M-75 512l11 216h146l-79 -216h-78zM445 -12c-110.667 0 -202.5 36.167 -275.5 108.5s-109.5 160.833 -109.5 265.5v2c0 104 36.833 192.667 110.5 266s165.834 110 276.501 110s202.5 -36.167 275.5 -108.5s109.5 -160.833 109.5 -265.5v-2
c0 -104 -36.833 -192.667 -110.5 -266s-165.834 -110 -276.501 -110zM447 129c64.667 0 118.167 22.5 160.5 67.5s63.5 100.167 63.5 165.5v2c0 64.667 -21.5 120 -64.5 166s-96.833 69 -161.5 69s-118.167 -22.5 -160.5 -67.5s-63.5 -100.167 -63.5 -165.5v-2
c0 -65.333 21.333 -120.833 64 -166.5s96.667 -68.5 162 -68.5z" />
    <glyph glyph-name="uni038E" unicode="&#x38e;" horiz-adv-x="753" 
d="M299 0v287l-281 441h180l179 -298l183 298h175l-282 -438v-290h-154zM-152 512l11 216h146l-79 -216h-78z" />
    <glyph glyph-name="uni038F" unicode="&#x38f;" horiz-adv-x="913" 
d="M457 740c114.667 0 205.832 -31.498 273.499 -94.498s101.5 -143.167 101.5 -240.5v-1c0 -107.333 -50.667 -198.333 -152 -273h169v-131h-322v129c29.333 20.667 53.833 41.334 73.5 62.001s36.334 47.667 50.001 81s20.5 70.666 20.5 111.999v1
c0 64 -19.333 115.667 -58 155s-91.334 59 -158.001 59c-65.333 0 -117.166 -19.333 -155.499 -58s-57.5 -89.334 -57.5 -152.001v-1c0 -57.333 12.333 -106.5 37 -147.5s60 -78.167 106 -111.5v-129h-321v131h168c-100.667 75.333 -151 166.666 -151 273.999v1
c0 93.333 34 172.333 102 237s159.333 97 274 97zM-72.002 512.002l11 216h146l-79 -216h-78z" />
    <glyph glyph-name="uni0390" unicode="&#x390;" horiz-adv-x="343" 
d="M252 619v135h129v-135h-129zM-71 619v135h129v-135h-129zM85 619l48 213l122 -27l-87 -186h-83zM74 171l-0.000976562 384.999h152v-378c0 -39.333 18.333 -59 55 -59c14 0 25 1 33 3v-117c-20.667 -7.33301 -48.667 -11 -84 -11c-53.333 0 -92.666 13.833 -117.999 41.5
s-38 72.834 -38 135.501z" />
    <glyph glyph-name="uni0391" unicode="&#x391;" horiz-adv-x="830" 
d="M30 0l314 733h142l313 -733h-161l-68 166h-315l-68 -166h-157zM310 302h205l-102 247z" />
    <glyph glyph-name="uni0392" unicode="&#x392;" horiz-adv-x="759" 
d="M93 0l-0.00195312 728h335c82.667 0 146.334 -21.333 191.001 -64c32.667 -32.667 49 -74 49 -124v-2c0 -68 -32.333 -120.667 -97 -158c44.667 -16.667 78.834 -39 102.501 -67s35.5 -65 35.5 -111v-2c0 -65.333 -24.333 -115 -73 -149s-115 -51 -199 -51h-344z
M514.998 513v1.99902c0 24.667 -9.33301 43.834 -28 57.501s-45.667 20.5 -81 20.5h-164v-162h154c79.333 0 119 27.333 119 82zM555.998 217.999v2c0 55.333 -41.667 83 -125 83h-189v-168h195c79.333 0 119 27.667 119 83z" />
    <glyph glyph-name="uni0393" unicode="&#x393;" horiz-adv-x="651" 
d="M93 0v728h520v-140h-367v-588h-153z" />
    <glyph glyph-name="uni0394" unicode="&#x394;" horiz-adv-x="826" 
d="M62 0l-12 111l283 622h160l283 -622l-12 -111h-702zM411 564l-186 -428h372z" />
    <glyph glyph-name="uni0395" unicode="&#x395;" horiz-adv-x="705" 
d="M93 0v728h547v-137h-395v-156h348v-137h-348v-161h400v-137h-552z" />
    <glyph glyph-name="uni0396" unicode="&#x396;" horiz-adv-x="743" 
d="M70 0v116l406 477h-393v135h591v-116l-406 -477h406v-135h-604z" />
    <glyph glyph-name="uni0397" unicode="&#x397;" horiz-adv-x="798" 
d="M93 0v728h153v-291h306v291h154v-728h-154v295h-306v-295h-153z" />
    <glyph glyph-name="uni0398" unicode="&#x398;" horiz-adv-x="892" 
d="M445 -12c-110.667 0 -202.5 36.167 -275.5 108.5s-109.5 160.833 -109.5 265.5v2c0 104 36.833 192.667 110.5 266s165.834 110 276.501 110s202.5 -36.167 275.5 -108.5s109.5 -160.833 109.5 -265.5v-2c0 -104 -36.833 -192.667 -110.5 -266
s-165.834 -110 -276.501 -110zM447 127c69.333 0 124.833 22 166.5 66s62.5 100.333 62.5 169v2c0 68.667 -21.333 125.334 -64 170.001s-98.334 67 -167.001 67c-69.333 0 -124.833 -22 -166.5 -66s-62.5 -100.333 -62.5 -169v-2c0 -68.667 21.333 -125.334 64 -170.001
s98.334 -67 167.001 -67zM590 437v-141h-288v141h288z" />
    <glyph glyph-name="uni0399" unicode="&#x399;" horiz-adv-x="354" 
d="M100 0v728h154v-728h-154z" />
    <glyph glyph-name="uni039A" unicode="&#x39a;" horiz-adv-x="766" 
d="M93 0v728h153v-328l304 328h189l-299 -310l312 -418h-185l-231 313l-90 -93v-220h-153z" />
    <glyph glyph-name="uni039B" unicode="&#x39b;" horiz-adv-x="809" 
d="M472 733l307 -733h-170l-208 518l-205 -518h-166l306 733h136z" />
    <glyph glyph-name="uni039C" unicode="&#x39c;" horiz-adv-x="911" 
d="M93 0v728h165l197 -315l198 315h165v-728h-153v485l-210 -318h-4l-208 315v-482h-150z" />
    <glyph glyph-name="uni039D" unicode="&#x39d;" horiz-adv-x="830" 
d="M93 0v728h141l351 -459v459h152v-728h-131l-362 474v-474h-151z" />
    <glyph glyph-name="uni039E" unicode="&#x39e;" horiz-adv-x="694" 
d="M629 589h-564v139h564v-139zM603 297h-512v139h512v-139zM634 0h-574v139h574v-139z" />
    <glyph glyph-name="uni039F" unicode="&#x39f;" horiz-adv-x="892" 
d="M445 -12c-110.667 0 -202.5 36.167 -275.5 108.5s-109.5 160.833 -109.5 265.5v2c0 104 36.833 192.667 110.5 266s165.834 110 276.501 110s202.5 -36.167 275.5 -108.5s109.5 -160.833 109.5 -265.5v-2c0 -104 -36.833 -192.667 -110.5 -266
s-165.834 -110 -276.501 -110zM447 129c64.667 0 118.167 22.5 160.5 67.5s63.5 100.167 63.5 165.5v2c0 64.667 -21.5 120 -64.5 166s-96.833 69 -161.5 69s-118.167 -22.5 -160.5 -67.5s-63.5 -100.167 -63.5 -165.5v-2c0 -65.333 21.333 -120.833 64 -166.5
s96.667 -68.5 162 -68.5z" />
    <glyph glyph-name="uni03A0" unicode="&#x3a0;" horiz-adv-x="794" 
d="M93 0v728h608v-728h-154v588h-301v-588h-153z" />
    <glyph glyph-name="uni03A1" unicode="&#x3a1;" horiz-adv-x="703" 
d="M93 0v728h295c85.333 0 153 -23 203 -69s75 -106.333 75 -181v-2c0 -80.667 -27.667 -143.167 -83 -187.5s-125.333 -66.5 -210 -66.5h-127v-222h-153zM246 359h132c41.333 0 73.833 10.667 97.5 32s35.5 48.666 35.5 81.999v2c0 36.667 -12 64.834 -36 84.501
s-57.333 29.5 -100 29.5h-129v-230z" />
    <glyph glyph-name="uni03A3" unicode="&#x3a3;" horiz-adv-x="730" 
d="M521 364l-233 -229h382v-135h-597v114l251 250l-249 250v114h589v-135h-374z" />
    <glyph glyph-name="uni03A4" unicode="&#x3a4;" horiz-adv-x="681" 
d="M264 0v586h-224v142h601v-142h-223v-586h-154z" />
    <glyph glyph-name="uni03A5" unicode="&#x3a5;" horiz-adv-x="753" 
d="M299 0v287l-281 441h180l179 -298l183 298h175l-282 -438v-290h-154z" />
    <glyph glyph-name="uni03A6" unicode="&#x3a6;" horiz-adv-x="1018" 
d="M432 -9v74.002c-117.333 1.33301 -209.5 29.666 -276.5 84.999s-100.5 127 -100.5 215v1c0 88 33.333 159.5 100 214.5s159 83.833 277 86.5v70h154v-70c118 -2.66699 210.333 -31.334 277 -86.001s100 -126 100 -214v-1c0 -87.333 -33.5 -159 -100.5 -215
s-159.167 -84.667 -276.5 -86v-74h-154zM214 366.002v-1c0 -48.667 19 -88.5 57 -119.5s92.667 -46.5 164 -46.5v334c-72 -0.666992 -126.833 -16 -164.5 -46s-56.5 -70.333 -56.5 -121zM803 366.002v1c0 48.667 -18.833 88.5 -56.5 119.5s-92.167 46.5 -163.5 46.5v-334
c71.333 0.666992 125.833 16.167 163.5 46.5s56.5 70.5 56.5 120.5z" />
    <glyph glyph-name="uni03A7" unicode="&#x3a7;" horiz-adv-x="769" 
d="M546 728h175l-245 -355l255 -373h-180l-169 256l-170 -256h-175l256 370l-245 358h180l158 -242z" />
    <glyph glyph-name="uni03A8" unicode="&#x3a8;" horiz-adv-x="896" 
d="M824 728v-258.998c0 -202.667 -100 -308.334 -300 -317.001v-152h-152v152c-96 2.66699 -169.833 30 -221.5 82s-77.5 128.667 -77.5 230v264h151v-260c0 -60.667 11.833 -104.334 35.5 -131.001s61.834 -41 114.501 -43v434h148v-434c51.333 2 89.166 16 113.499 42
s36.5 68.333 36.5 127v265h152z" />
    <glyph glyph-name="uni03A9" unicode="&#x3a9;" horiz-adv-x="913" 
d="M457 740c114.667 0 205.832 -31.498 273.499 -94.498s101.5 -143.167 101.5 -240.5v-1c0 -107.333 -50.667 -198.333 -152 -273h169v-131h-322v129c29.333 20.667 53.833 41.334 73.5 62.001s36.334 47.667 50.001 81s20.5 70.666 20.5 111.999v1
c0 64 -19.333 115.667 -58 155s-91.334 59 -158.001 59c-65.333 0 -117.166 -19.333 -155.499 -58s-57.5 -89.334 -57.5 -152.001v-1c0 -57.333 12.333 -106.5 37 -147.5s60 -78.167 106 -111.5v-129h-321v131h168c-100.667 75.333 -151 166.666 -151 273.999v1
c0 93.333 34 172.333 102 237s159.333 97 274 97z" />
    <glyph glyph-name="uni03AA" unicode="&#x3aa;" horiz-adv-x="354" 
d="M100 0v728h154v-728h-154zM216 786v129h148v-129h-148zM-8 786v129h148v-129h-148z" />
    <glyph glyph-name="uni03AB" unicode="&#x3ab;" horiz-adv-x="753" 
d="M299 0v287l-281 441h180l179 -298l183 298h175l-282 -438v-290h-154zM414 786v129h148v-129h-148zM190 786v129h148v-129h-148z" />
    <glyph glyph-name="uni03AC" unicode="&#x3ac;" horiz-adv-x="750" 
d="M337 619l74 187l128 -57l-104 -130h-98zM721 122l0.000976562 -116.999c-20.667 -7.33301 -48.334 -11 -83.001 -11c-74 0 -120.333 27.667 -139 83c-47.333 -58.667 -109.333 -88 -186 -88c-73.333 0 -135.333 25.667 -186 77s-76 121.666 -76 210.999v2
c0 88 24.833 157.833 74.5 209.5s109.5 77.5 179.5 77.5s128.667 -28.333 176 -85v75h152v-378c0 -39.333 18.333 -59 55 -59c13.333 0 24.333 1 33 3zM343.001 119.001c38.667 0 71.667 14.667 99 44s41 67.333 41 114v2c0 46.667 -13.667 84.667 -41 114
s-60.333 44 -99 44c-39.333 0 -72.5 -14.5 -99.5 -43.5s-40.5 -67.167 -40.5 -114.5v-2c0 -46.667 13.667 -84.667 41 -114s60.333 -44 99 -44z" />
    <glyph glyph-name="uni03AD" unicode="&#x3ad;" horiz-adv-x="599" 
d="M259 619l74 187l128 -57l-104 -130h-98zM417 224h-120c-64 0 -96 -18 -96 -54v-1c0 -39.333 36 -59 108 -59c64.667 0 127.334 19.667 188.001 59l63 -99c-77.333 -54 -163 -81 -257 -81c-80.667 0 -142.334 14.667 -185.001 44s-64 69.333 -64 120v1
c0 57.333 32.333 99.333 97 126c-55.333 28 -83 68 -83 120v1c0 48 21.167 87.167 63.5 117.5s101.5 45.5 177.5 45.5c94.667 0 176.667 -26 246 -78l-76 -101c-51.333 39.333 -106 59 -164 59c-32.667 0 -57.5 -5.16699 -74.5 -15.5s-25.5 -23.833 -25.5 -40.5v-1
c0 -36 27.333 -54 82 -54h120v-109z" />
    <glyph glyph-name="uni03AE" unicode="&#x3ae;" horiz-adv-x="655" 
d="M283 619l74 187l128 -57l-104 -130h-98zM584 -166l-152 0.000976562v477c0 38 -8.66699 67.167 -26 87.5s-42 30.5 -74 30.5c-32.667 0 -58.167 -10.167 -76.5 -30.5s-27.5 -49.5 -27.5 -87.5v-311h-152v556h152v-80c43.333 60 98.333 90 165 90
c60 0 106.833 -18.333 140.5 -55s50.5 -87.334 50.5 -152.001v-525z" />
    <glyph glyph-name="uni03AF" unicode="&#x3af;" horiz-adv-x="343" 
d="M107 619l74 187l128 -57l-104 -130h-98zM74 171l-0.000976562 384.999h152v-378c0 -39.333 18.333 -59 55 -59c14 0 25 1 33 3v-117c-20.667 -7.33301 -48.667 -11 -84 -11c-53.333 0 -92.666 13.833 -117.999 41.5s-38 72.834 -38 135.501z" />
    <glyph glyph-name="uni03B0" unicode="&#x3b0;" horiz-adv-x="657" 
d="M425 619v135h129v-135h-129zM102 619v135h129v-135h-129zM258 619l48 213l122 -27l-87 -186h-83zM327 -12c-80 0 -142.832 21 -188.499 63s-68.5 103 -68.5 183v322h152v-317c0 -80.667 35.667 -121 107 -121s107 39.333 107 118v320h152v-318
c0 -82 -23.333 -144.167 -70 -186.5s-110.334 -63.5 -191.001 -63.5z" />
    <glyph glyph-name="uni03B1" unicode="&#x3b1;" horiz-adv-x="750" 
d="M721 122l0.000976562 -116.999c-20.667 -7.33301 -48.334 -11 -83.001 -11c-74 0 -120.333 27.667 -139 83c-47.333 -58.667 -109.333 -88 -186 -88c-73.333 0 -135.333 25.667 -186 77s-76 121.666 -76 210.999v2c0 88 24.833 157.833 74.5 209.5s109.5 77.5 179.5 77.5
s128.667 -28.333 176 -85v75h152v-378c0 -39.333 18.333 -59 55 -59c13.333 0 24.333 1 33 3zM343.001 119.001c38.667 0 71.667 14.667 99 44s41 67.333 41 114v2c0 46.667 -13.667 84.667 -41 114s-60.333 44 -99 44c-39.333 0 -72.5 -14.5 -99.5 -43.5
s-40.5 -67.167 -40.5 -114.5v-2c0 -46.667 13.667 -84.667 41 -114s60.333 -44 99 -44z" />
    <glyph glyph-name="uni03B2" unicode="&#x3b2;" horiz-adv-x="695" 
d="M228 -166l-152 0.00195312v658c0 86 24.5 153.167 73.5 201.5s118.167 72.5 207.5 72.5c82.667 0 146.5 -19.333 191.5 -58s67.5 -88.667 67.5 -150v-1c0 -44.667 -11.5 -82.5 -34.5 -113.5s-56.5 -53.167 -100.5 -66.5c54.667 -14.667 95.5 -35.834 122.5 -63.501
s40.5 -66.834 40.5 -117.501v-1c0 -61.333 -19.833 -111 -59.5 -149s-93.5 -57 -161.5 -57c-87.333 0 -152.333 28.667 -195 86v-241zM311 320.002l-85 0.000976562v-22c0 -61.333 13.833 -106.833 41.5 -136.5s65.5 -44.5 113.5 -44.5c36.667 0 64.667 8.66699 84 26
s29 39.666 29 66.999c0 73.333 -61 110 -183 110zM226 493.003l-0.000976562 -65.999h84c50 0 88.833 10.167 116.5 30.5s41.5 48.5 41.5 84.5c0 29.333 -9.83301 53.166 -29.5 71.499s-46.5 27.5 -80.5 27.5c-41.333 0 -73.666 -13.167 -96.999 -39.5s-35 -62.5 -35 -108.5
z" />
    <glyph glyph-name="uni03B3" unicode="&#x3b3;" horiz-adv-x="631" 
d="M605 556l-214 -533v-189h-151v189l-214 533h162l128 -369l130 369h159z" />
    <glyph glyph-name="uni03B4" unicode="&#x3b4;" horiz-adv-x="681" 
d="M564 635l-236 4l116 -83c66 -47.333 113.5 -92.5 142.5 -135.5s43.5 -94.167 43.5 -153.5c0 -80 -26.833 -146.5 -80.5 -199.5s-125.167 -79.5 -214.5 -79.5c-84 0 -152.667 26.167 -206 78.5s-80 116.5 -80 192.5c0 66 16.167 120 48.5 162s84.833 81.667 157.5 119
l-125 106v113h434v-124zM357 454h-0.999023c-59.333 -31.333 -100.833 -62 -124.5 -92s-35.5 -64 -35.5 -102c0 -40 13.333 -74.167 40 -102.5s60.667 -42.5 102 -42.5s75.666 14.333 102.999 43s41 62 41 100c0 33.333 -8.5 63.833 -25.5 91.5s-50.167 62.5 -99.5 104.5z
" />
    <glyph glyph-name="uni03B5" unicode="&#x3b5;" horiz-adv-x="599" 
d="M417 224h-120c-64 0 -96 -18 -96 -54v-1c0 -39.333 36 -59 108 -59c64.667 0 127.334 19.667 188.001 59l63 -99c-77.333 -54 -163 -81 -257 -81c-80.667 0 -142.334 14.667 -185.001 44s-64 69.333 -64 120v1c0 57.333 32.333 99.333 97 126c-55.333 28 -83 68 -83 120
v1c0 48 21.167 87.167 63.5 117.5s101.5 45.5 177.5 45.5c94.667 0 176.667 -26 246 -78l-76 -101c-51.333 39.333 -106 59 -164 59c-32.667 0 -57.5 -5.16699 -74.5 -15.5s-25.5 -23.833 -25.5 -40.5v-1c0 -36 27.333 -54 82 -54h120v-109z" />
    <glyph glyph-name="uni03B6" unicode="&#x3b6;" horiz-adv-x="585" 
d="M396 -133l0.000976562 119.999l-103 13c-84.667 11.333 -146.834 34 -186.501 68s-59.5 81 -59.5 141c0 42 8.33301 79.5 25 112.5s45 70.5 85 112.5l191 200h-260v125h451v-117l-281 -301c-23.333 -24.667 -39.333 -45.167 -48 -61.5s-13 -34.166 -13 -53.499
c0 -27.333 10 -48.5 30 -63.5s50.667 -25.167 92 -30.5l218 -30v-235h-141z" />
    <glyph glyph-name="uni03B7" unicode="&#x3b7;" horiz-adv-x="655" 
d="M584 -166l-152 0.000976562v477c0 38 -8.66699 67.167 -26 87.5s-42 30.5 -74 30.5c-32.667 0 -58.167 -10.167 -76.5 -30.5s-27.5 -49.5 -27.5 -87.5v-311h-152v556h152v-80c43.333 60 98.333 90 165 90c60 0 106.833 -18.333 140.5 -55s50.5 -87.334 50.5 -152.001
v-525z" />
    <glyph glyph-name="uni03B8" unicode="&#x3b8;" horiz-adv-x="709" 
d="M353 -12c-87.333 0 -158.166 34.333 -212.499 103s-81.5 159.667 -81.5 273v26c0 113.333 27.667 204.333 83 273s126.666 103 213.999 103s158.166 -34.333 212.499 -103s81.5 -159.667 81.5 -273v-26c0 -113.333 -27.667 -204.333 -83 -273
s-126.666 -103 -213.999 -103zM355 115c44 0 79.168 17.833 105.501 53.5s40.5 84.834 42.5 147.501h-298c3.33301 -62.667 18.166 -111.834 44.499 -147.501s61.5 -53.5 105.5 -53.5zM354.001 639c-44 0 -79.167 -17.833 -105.5 -53.5s-40.833 -84.5 -43.5 -146.5h298
c-2.66699 62 -17.167 110.833 -43.5 146.5s-61.5 53.5 -105.5 53.5z" />
    <glyph glyph-name="uni03B9" unicode="&#x3b9;" horiz-adv-x="343" 
d="M74 171l-0.000976562 384.999h152v-378c0 -39.333 18.333 -59 55 -59c14 0 25 1 33 3v-117c-20.667 -7.33301 -48.667 -11 -84 -11c-53.333 0 -92.666 13.833 -117.999 41.5s-38 72.834 -38 135.501z" />
    <glyph glyph-name="uni03BA" unicode="&#x3ba;" horiz-adv-x="622" 
d="M228 556v-231l194 231h185l-212 -233l216 -323h-177l-139 216l-67 -74v-142h-152v556h152z" />
    <glyph glyph-name="uni03BB" unicode="&#x3bb;" horiz-adv-x="647" 
d="M105 625l-0.000976562 125.001c26 10.667 58 16 96 16c48.667 0 85.5 -10.333 110.5 -31s47.833 -57.334 68.5 -110.001l243 -625h-161l-137 381l-139 -381h-158l228 551l-13 32c-15.333 36 -39.666 54 -72.999 54c-22 0 -43.667 -4 -65 -12z" />
    <glyph glyph-name="uni03BC" unicode="&#x3bc;" horiz-adv-x="704" 
d="M676 122l-0.000976562 -117c-22 -7.33301 -49.333 -11 -82 -11c-67.333 0 -112 23 -134 69c-30 -46.667 -71.333 -70 -124 -70c-27.333 0 -53.166 6.5 -77.499 19.5s-41.5 31.833 -51.5 56.5h-2c13.333 -58 20 -99.333 20 -124v-111h-149v722h152v-315
c0 -38 9 -67.333 27 -88s43 -31 75 -31c32.667 0 58.5 10.333 77.5 31s28.5 50 28.5 88v315h152v-385c1.33301 -19.333 6.33301 -32.833 15 -40.5s22 -11.5 40 -11.5c12.667 0 23.667 1 33 3z" />
    <glyph glyph-name="uni03BD" unicode="&#x3bd;" horiz-adv-x="631" 
d="M247 -4l-221 560h161l129 -380l131 380h158l-221 -560h-137z" />
    <glyph glyph-name="uni03BE" unicode="&#x3be;" horiz-adv-x="586" 
d="M571 689l-74 -116c-50 41.333 -101 62 -153 62c-34 0 -61 -9 -81 -27s-30 -41.333 -30 -70c0 -32 13 -57 39 -75s61 -27 105 -27h88v-124h-118c-47.333 0 -83.666 -8 -108.999 -24s-38 -38.333 -38 -67c0 -28 10 -49 30 -63s50.333 -24 91 -30l211 -28v-233h-141v120
l-105 13c-77.333 10 -136 30.333 -176 61s-60 77 -60 139c0 88.667 49.667 148.667 149 180c-77.333 34 -116 91 -116 171c0 61.333 23.667 112.5 71 153.5s111 61.5 191 61.5c87.333 0 162.666 -25.667 225.999 -77z" />
    <glyph glyph-name="uni03BF" unicode="&#x3bf;" horiz-adv-x="697" 
d="M347 -12c-84.667 0 -155.5 27.667 -212.5 83s-85.5 123.333 -85.5 204v2c0 80 28.833 148.167 86.5 204.5s129.167 84.5 214.5 84.5c84.667 0 155.5 -27.833 212.5 -83.5s85.5 -123.5 85.5 -203.5v-2c0 -80.667 -28.667 -149 -86 -205s-129 -84 -215 -84zM350 118
c44.667 0 80.5 15.166 107.5 45.499s40.5 67.5 40.5 111.5v2c0 43.333 -14.167 80.5 -42.5 111.5s-64.5 46.5 -108.5 46.5c-44.667 0 -80.5 -15 -107.5 -45s-40.5 -67 -40.5 -111v-2c0 -43.333 14.167 -80.666 42.5 -111.999s64.5 -47 108.5 -47z" />
    <glyph glyph-name="uni03C0" unicode="&#x3c0;" horiz-adv-x="743" 
d="M31 556l662.999 -0.000976562v-135h-88v-243c0 -39.333 18.333 -59 55 -59c14 0 25 1 33 3v-117c-20.667 -7.33301 -48.667 -11 -84 -11c-53.333 0 -92.666 13.833 -117.999 41.5s-38 72.834 -38 135.501v250h-183v-421h-152v421h-88v135z" />
    <glyph glyph-name="uni03C1" unicode="&#x3c1;" horiz-adv-x="699" 
d="M67 -166l0.000976562 427c0 92 26 165.833 78 221.5s122.667 83.5 212 83.5c85.333 0 155.333 -27.5 210 -82.5s82 -123.167 82 -204.5v-2c0 -86 -25 -155.5 -75 -208.5s-108 -79.5 -174 -79.5c-76.667 0 -137.334 29 -182.001 87v-242h-151zM356.001 119
c39.333 0 72.666 14.5 99.999 43.5s41 67.167 41 114.5v2c0 46.667 -13.667 84.667 -41 114s-60.666 44 -99.999 44c-38.667 0 -71.5 -14.667 -98.5 -44s-40.5 -67.333 -40.5 -114v-2c0 -46.667 13.5 -84.667 40.5 -114s59.833 -44 98.5 -44z" />
    <glyph glyph-name="uni03C2" unicode="&#x3c2;" horiz-adv-x="605" 
d="M397 -133v121.999l-59 7c-192.667 28 -289 124.333 -289 289v1c0 76.667 26.5 142.5 79.5 197.5s122.5 82.5 208.5 82.5c51.333 0 94.666 -8.16699 129.999 -24.5s67 -40.5 95 -72.5l-95 -103c-20 22.667 -40.167 39.834 -60.5 51.501s-44.5 17.5 -72.5 17.5
c-39.333 0 -71.666 -14.5 -96.999 -43.5s-38 -63.167 -38 -102.5v-1c0 -48 14.667 -85.333 44 -112s74.333 -43.667 135 -51l160 -22v-236h-141z" />
    <glyph glyph-name="uni03C3" unicode="&#x3c3;" horiz-adv-x="730" 
d="M698 426l-145 2c58 -44 87 -101 87 -171v-1c0 -76 -28 -139.667 -84 -191s-126.667 -77 -212 -77s-155.833 26.833 -211.5 80.5s-83.5 120.5 -83.5 200.5v1c0 80.667 28.833 148.5 86.5 203.5s133.5 82.5 227.5 82.5h335v-130zM347 118c44.667 0 80 14.168 106 42.501
s39 64.166 39 107.499v1c0 44 -13.167 81 -39.5 111s-62.5 45 -108.5 45c-44.667 0 -80 -14.833 -106 -44.5s-39 -66.5 -39 -110.5v-1c0 -42.667 13.667 -78.5 41 -107.5s63 -43.5 107 -43.5z" />
    <glyph glyph-name="uni03C4" unicode="&#x3c4;" horiz-adv-x="605" 
d="M562 421h-192v-227c0 -27.333 6 -46.833 18 -58.5s30.333 -17.5 55 -17.5c24 0 46.667 3 68 9v-119c-34.667 -10 -70 -15 -106 -15c-66.667 0 -114.5 14.5 -143.5 43.5s-43.5 78.5 -43.5 148.5v236h-181v135h525v-135z" />
    <glyph glyph-name="uni03C5" unicode="&#x3c5;" horiz-adv-x="657" 
d="M327 -12c-80 0 -142.832 21 -188.499 63s-68.5 103 -68.5 183v322h152v-317c0 -80.667 35.667 -121 107 -121s107 39.333 107 118v320h152v-318c0 -82 -23.333 -144.167 -70 -186.5s-110.334 -63.5 -191.001 -63.5z" />
    <glyph glyph-name="uni03C6" unicode="&#x3c6;" horiz-adv-x="892" 
d="M521 -166h-150v165c-100.667 4 -179.5 31.5 -236.5 82.5s-85.5 116.167 -85.5 195.5v1c0 78 28.667 143 86 195s136 80 236 84v202h150v-202c100.667 -4 179.5 -31.5 236.5 -82.5s85.5 -116.167 85.5 -195.5v-1c0 -78 -28.667 -143 -86 -195s-136 -80 -236 -84v-165z
M696 277v0.999023c0 44.667 -15.667 80.834 -47 108.501s-75 42.167 -131 43.5v-304c58 1.33301 102.167 15.5 132.5 42.5s45.5 63.167 45.5 108.5zM197 278.999l0.000976562 -0.999023c0 -44.667 15.667 -80.834 47 -108.501s74.666 -42.167 129.999 -43.5v304
c-58 -2 -102 -16.5 -132 -43.5s-45 -62.833 -45 -107.5z" />
    <glyph glyph-name="uni03C7" unicode="&#x3c7;" horiz-adv-x="643" 
d="M193 556l130 -231l130 231h163l-211 -344l235 -378h-168l-152 266l-153 -266h-163l233 376l-211 346h167z" />
    <glyph glyph-name="uni03C8" unicode="&#x3c8;" horiz-adv-x="871" 
d="M510 -166l-148.999 -0.00195312v164c-90.667 0 -161.834 23.5 -213.501 70.5s-77.5 115.5 -77.5 205.5v282h150v-279c0 -45.333 12.833 -81.166 38.5 -107.499s60.167 -39.833 103.5 -40.5v630h147v-630c43.333 0.666992 77.833 13.834 103.5 39.501
s38.5 61.167 38.5 106.5v281h150v-278c0 -91.333 -26 -160.5 -78 -207.5s-123 -71.167 -213 -72.5v-164z" />
    <glyph glyph-name="uni03C9" unicode="&#x3c9;" horiz-adv-x="923" 
d="M388 448l147.999 0.000976562v-189c0 -43.333 8.16699 -77 24.5 -101s38.5 -36 66.5 -36c62 0 93 49.333 93 148c0 48.667 -9.83301 94.667 -29.5 138s-51.5 92.666 -95.5 147.999h161c74.667 -85.333 112 -182.333 112 -291c0 -84.667 -19 -152 -57 -202
s-92.333 -75 -163 -75c-93.333 0 -155.666 45.333 -186.999 136c-34.667 -90.667 -97.334 -136 -188.001 -136c-70.667 0 -124.667 25 -162 75s-56 117.333 -56 202c0 108.667 37.333 205.667 112 291h159c-43.333 -52 -74.666 -100.333 -93.999 -145s-29 -91.667 -29 -141
c0 -98.667 31 -148 93 -148c28 0 50.333 12 67 36s25 57.667 25 101v189z" />
    <glyph glyph-name="uni03CA" unicode="&#x3ca;" horiz-adv-x="343" 
d="M187 619v137h147v-137h-147zM-26 619v137h147v-137h-147zM74 171l-0.000976562 384.999h152v-378c0 -39.333 18.333 -59 55 -59c14 0 25 1 33 3v-117c-20.667 -7.33301 -48.667 -11 -84 -11c-53.333 0 -92.666 13.833 -117.999 41.5s-38 72.834 -38 135.501z" />
    <glyph glyph-name="uni03CB" unicode="&#x3cb;" horiz-adv-x="657" 
d="M361 619v137h147v-137h-147zM148 619v137h147v-137h-147zM327 -12c-80 0 -142.832 21 -188.499 63s-68.5 103 -68.5 183v322h152v-317c0 -80.667 35.667 -121 107 -121s107 39.333 107 118v320h152v-318c0 -82 -23.333 -144.167 -70 -186.5
s-110.334 -63.5 -191.001 -63.5z" />
    <glyph glyph-name="uni03CC" unicode="&#x3cc;" horiz-adv-x="697" 
d="M302 619l74 187l128 -57l-104 -130h-98zM347 -12c-84.667 0 -155.5 27.667 -212.5 83s-85.5 123.333 -85.5 204v2c0 80 28.833 148.167 86.5 204.5s129.167 84.5 214.5 84.5c84.667 0 155.5 -27.833 212.5 -83.5s85.5 -123.5 85.5 -203.5v-2
c0 -80.667 -28.667 -149 -86 -205s-129 -84 -215 -84zM350 118c44.667 0 80.5 15.166 107.5 45.499s40.5 67.5 40.5 111.5v2c0 43.333 -14.167 80.5 -42.5 111.5s-64.5 46.5 -108.5 46.5c-44.667 0 -80.5 -15 -107.5 -45s-40.5 -67 -40.5 -111v-2
c0 -43.333 14.167 -80.666 42.5 -111.999s64.5 -47 108.5 -47z" />
    <glyph glyph-name="uni03CD" unicode="&#x3cd;" horiz-adv-x="657" 
d="M281 619l74 187l128 -57l-104 -130h-98zM327 -12c-80 0 -142.832 21 -188.499 63s-68.5 103 -68.5 183v322h152v-317c0 -80.667 35.667 -121 107 -121s107 39.333 107 118v320h152v-318c0 -82 -23.333 -144.167 -70 -186.5s-110.334 -63.5 -191.001 -63.5z" />
    <glyph glyph-name="uni03CE" unicode="&#x3ce;" horiz-adv-x="923" 
d="M415 619l74 187l128 -57l-104 -130h-98zM388 448l147.999 0.000976562v-189c0 -43.333 8.16699 -77 24.5 -101s38.5 -36 66.5 -36c62 0 93 49.333 93 148c0 48.667 -9.83301 94.667 -29.5 138s-51.5 92.666 -95.5 147.999h161c74.667 -85.333 112 -182.333 112 -291
c0 -84.667 -19 -152 -57 -202s-92.333 -75 -163 -75c-93.333 0 -155.666 45.333 -186.999 136c-34.667 -90.667 -97.334 -136 -188.001 -136c-70.667 0 -124.667 25 -162 75s-56 117.333 -56 202c0 108.667 37.333 205.667 112 291h159
c-43.333 -52 -74.666 -100.333 -93.999 -145s-29 -91.667 -29 -141c0 -98.667 31 -148 93 -148c28 0 50.333 12 67 36s25 57.667 25 101v189z" />
    <glyph glyph-name="uni0400" unicode="&#x400;" horiz-adv-x="705" 
d="M430 786h-116l-140 103l132 58zM93 0v728h547v-137h-395v-156h348v-137h-348v-161h400v-137h-552z" />
    <glyph glyph-name="uni0401" unicode="&#x401;" horiz-adv-x="705" 
d="M406 786v129h148v-129h-148zM182 786v129h148v-129h-148zM93 0v728h547v-137h-395v-156h348v-137h-348v-161h400v-137h-552z" />
    <glyph glyph-name="uni0402" unicode="&#x402;" horiz-adv-x="868" 
d="M636 728l-0.00195312 -142h-229v-146c54.667 9.33301 104.334 14 149.001 14c86 0 152.333 -19.167 199 -57.5s70 -93.5 70 -165.5c0 -70 -23.5 -126.333 -70.5 -169s-112.833 -64 -197.5 -64h-22v135h2c45.333 0 79 8.16699 101 24.5s33 38.5 33 66.5
c0 62.667 -44.667 94 -134 94c-35.333 0 -78.666 -4 -129.999 -12v-306h-154v586h-213v142h596z" />
    <glyph glyph-name="uni0403" unicode="&#x403;" horiz-adv-x="651" 
d="M289 786l124 161l132 -58l-140 -103h-116zM93 0v728h520v-140h-367v-588h-153z" />
    <glyph glyph-name="uni0404" unicode="&#x404;" horiz-adv-x="772" 
d="M429 -12c-106 0 -194 36.001 -264 108.001s-105 160.667 -105 266v2c0 106 35 195.167 105 267.5s160 108.5 270 108.5c64.667 0 119.167 -9.5 163.5 -28.5s85.5 -46.833 123.5 -83.5l-97 -112c-60.667 56.667 -123.667 85 -189 85c-54 0 -100 -15.5 -138 -46.5
s-62.667 -71.833 -74 -122.5h326v-130h-327c9.33301 -52 33.5 -94.167 72.5 -126.5s85.833 -48.5 140.5 -48.5c40 0 74 7 102 21s58.667 36.333 92 67l97 -98c-40 -42.667 -83.167 -74.834 -129.5 -96.501s-102.5 -32.5 -168.5 -32.5z" />
    <glyph glyph-name="uni0405" unicode="&#x405;" horiz-adv-x="674" 
d="M351 -10c-119.333 0 -222 38.666 -308 115.999l91 109c72 -60 145.333 -90 220 -90c34 0 60.833 6.66699 80.5 20s29.5 31.333 29.5 54v2c0 22.667 -9.83301 40.334 -29.5 53.001s-59.834 27 -120.501 43c-41.333 10.667 -75 21 -101 31s-50.667 23.167 -74 39.5
s-40.333 36.833 -51 61.5s-16 54.667 -16 90v2c0 64.667 23.667 117 71 157s108.333 60 183 60c102.667 0 192.334 -30.667 269.001 -92l-81 -116c-66 48.667 -129.667 73 -191 73c-30.667 0 -54.667 -6.5 -72 -19.5s-26 -29.167 -26 -48.5v-2
c0 -24.667 10.5 -43.5 31.5 -56.5s63.833 -27.5 128.5 -43.5c78.667 -20 137 -46.333 175 -79s57 -78.667 57 -138v-2c0 -70 -24.333 -124.833 -73 -164.5s-113 -59.5 -193 -59.5z" />
    <glyph glyph-name="uni0406" unicode="&#x406;" horiz-adv-x="354" 
d="M100 0v728h154v-728h-154z" />
    <glyph glyph-name="uni0407" unicode="&#x407;" horiz-adv-x="354" 
d="M100 0v728h154v-728h-154zM216 786v129h148v-129h-148zM-8 786v129h148v-129h-148z" />
    <glyph glyph-name="uni0408" unicode="&#x408;" horiz-adv-x="594" 
d="M257 -10c-96.667 0 -175.667 36.667 -237 110l98 108c43.333 -50.667 88.333 -76 135 -76c68 0 102 41.667 102 125v471h157v-477c0 -84 -22.667 -148.667 -68 -194c-44 -44.667 -106.333 -67 -187 -67z" />
    <glyph glyph-name="uni0409" unicode="&#x409;" horiz-adv-x="1100" 
d="M496 0v600h-5l-320 -600h-157l394 728h241v-232h124c88 0 157.667 -21 209 -63s77 -102.667 77 -182v-1c0 -77.333 -25.667 -138.333 -77 -183s-123.333 -67 -216 -67h-270zM649 139l120 0.000976562c42 0 74.833 9.5 98.5 28.5s35.5 46.5 35.5 82.5v1
c0 34 -11.667 60.667 -35 80s-56 28.666 -98 27.999h-121v-220z" />
    <glyph glyph-name="uni040A" unicode="&#x40a;" horiz-adv-x="1145" 
d="M542 0v295h-296v-295h-153v728h153v-291h296v291h152v-232h124c88.667 0 158.5 -21 209.5 -63s76.5 -102.667 76.5 -182v-1c0 -77.333 -25.667 -138.333 -77 -183s-123.333 -67 -216 -67h-269zM694 139l120 0.000976562c42.667 0 75.667 9.5 99 28.5s35 46.5 35 82.5v1
c0 34 -11.5 60.667 -34.5 80s-55.5 28.666 -97.5 27.999h-122v-220z" />
    <glyph glyph-name="uni040B" unicode="&#x40b;" horiz-adv-x="897" 
d="M636 728l-0.000976562 -142h-229v-146c54.667 9.33301 102.334 14 143.001 14c87.333 0 155 -20.833 203 -62.5s72 -104.5 72 -188.5v-203h-154v185c0 45.333 -11.167 78.5 -33.5 99.5s-56.833 31.5 -103.5 31.5c-38.667 0 -81 -4 -127 -12v-304h-154v586h-213v142h596z
" />
    <glyph glyph-name="uni040C" unicode="&#x40c;" horiz-adv-x="776" 
d="M335 786l124 161l132 -58l-140 -103h-116zM93 0v728h153l-2 -294h58l258 294h191l-326 -352l345 -376h-196l-269 300h-61l2 -300h-153z" />
    <glyph glyph-name="uni040D" unicode="&#x40d;" horiz-adv-x="830" 
d="M476 786h-116l-140 103l132 58zM737 0h-154v486l-355 -486h-135v728h153v-471l344 471h147v-728z" />
    <glyph glyph-name="uni040E" unicode="&#x40e;" horiz-adv-x="760" 
d="M389 784c-55.333 0 -100.331 13.167 -134.998 39.5s-54.334 63.833 -59.001 112.5h104c13.333 -34.667 43.333 -52 90 -52s76.667 17.333 90 52h104c-4.66699 -48.667 -24.334 -86.167 -59.001 -112.5s-79.667 -39.5 -135 -39.5zM337.002 0h-171l144 250l-283 478h174
l194 -339l177 339h171z" />
    <glyph glyph-name="uni040F" unicode="&#x40f;" horiz-adv-x="794" 
d="M325 -148v148h-232v728h153v-588h301v588h154v-728h-232v-148h-144z" />
    <glyph glyph-name="uni0410" unicode="&#x410;" horiz-adv-x="830" 
d="M30 0l314 733h142l313 -733h-161l-68 166h-315l-68 -166h-157zM310 302h205l-102 247z" />
    <glyph glyph-name="uni0411" unicode="&#x411;" horiz-adv-x="744" 
d="M93 0v728h536v-136h-387v-149h187c84 0 149 -18.333 195 -55s69 -90 69 -160v-1c0 -71.333 -23.5 -127 -70.5 -167s-113.5 -60 -199.5 -60h-330zM242 136h184c34 0 61.333 7.66699 82 23s31 37 31 65v1c0 27.333 -9.66699 48.333 -29 63s-47 22 -83 22h-185v-174z" />
    <glyph glyph-name="uni0412" unicode="&#x412;" horiz-adv-x="759" 
d="M93 0l-0.00195312 728h335c82.667 0 146.334 -21.333 191.001 -64c32.667 -32.667 49 -74 49 -124v-2c0 -68 -32.333 -120.667 -97 -158c44.667 -16.667 78.834 -39 102.501 -67s35.5 -65 35.5 -111v-2c0 -65.333 -24.333 -115 -73 -149s-115 -51 -199 -51h-344z
M514.998 513v1.99902c0 24.667 -9.33301 43.834 -28 57.501s-45.667 20.5 -81 20.5h-164v-162h154c79.333 0 119 27.333 119 82zM555.998 217.999v2c0 55.333 -41.667 83 -125 83h-189v-168h195c79.333 0 119 27.667 119 83z" />
    <glyph glyph-name="uni0413" unicode="&#x413;" horiz-adv-x="651" 
d="M93 0v728h520v-140h-367v-588h-153z" />
    <glyph glyph-name="uni0414" unicode="&#x414;" horiz-adv-x="884" 
d="M36 140h72l253 593h162l251 -593h74v-288h-144v148h-524v-148h-144v288zM440 564l-174 -430h348z" />
    <glyph glyph-name="uni0415" unicode="&#x415;" horiz-adv-x="705" 
d="M93 0v728h547v-137h-395v-156h348v-137h-348v-161h400v-137h-552z" />
    <glyph glyph-name="uni0416" unicode="&#x416;" horiz-adv-x="1143" 
d="M35 728h183l239 -296h40l-1 296h151l-2 -296h40l242 296h181l-297 -355l321 -373h-183l-257 302h-47l2 -302h-151l1 302h-51l-255 -302h-180l321 373z" />
    <glyph glyph-name="uni0417" unicode="&#x417;" horiz-adv-x="702" 
d="M149 517l-92.998 104.001c88 79.333 188 119 300 119c86 0 152.833 -17.5 200.5 -52.5s71.5 -82.833 71.5 -143.5v-1c0 -44 -10.5 -79 -31.5 -105s-52.5 -47.333 -94.5 -64c97.333 -24.667 146 -81.334 146 -170.001v-1c0 -63.333 -27 -115 -81 -155s-128 -60 -222 -60
c-118 0 -218.667 37 -302 111l91 110c72 -56 143.667 -84 215 -84c42.667 0 77.167 7.83301 103.5 23.5s39.5 38.167 39.5 67.5v1c0 28 -12.833 49.5 -38.5 64.5s-60.834 22.167 -105.501 21.5h-134v128h138c37.333 0 66.666 8.16699 87.999 24.5s32 37.833 32 64.5v1
c0 26 -10.5 46.167 -31.5 60.5s-50.167 21.5 -87.5 21.5c-68.667 0 -136.667 -28.667 -204 -86z" />
    <glyph glyph-name="uni0418" unicode="&#x418;" horiz-adv-x="830" 
d="M737 0h-154v486l-355 -486h-135v728h153v-471l344 471h147v-728z" />
    <glyph glyph-name="uni0419" unicode="&#x419;" horiz-adv-x="830" 
d="M415 784c-55.333 0 -100.331 13.167 -134.998 39.5s-54.334 63.833 -59.001 112.5h104c13.333 -34.667 43.333 -52 90 -52s76.667 17.333 90 52h104c-4.66699 -48.667 -24.334 -86.167 -59.001 -112.5s-79.667 -39.5 -135 -39.5zM737.002 0h-154v486l-355 -486h-135v728
h153v-471l344 471h147v-728z" />
    <glyph glyph-name="uni041A" unicode="&#x41a;" horiz-adv-x="776" 
d="M93 0v728h153l-2 -294h58l258 294h191l-326 -352l345 -376h-196l-269 300h-61l2 -300h-153z" />
    <glyph glyph-name="uni041B" unicode="&#x41b;" horiz-adv-x="809" 
d="M472 733l307 -733h-170l-208 518l-205 -518h-166l306 733h136z" />
    <glyph glyph-name="uni041C" unicode="&#x41c;" horiz-adv-x="911" 
d="M93 0v728h165l197 -315l198 315h165v-728h-153v485l-210 -318h-4l-208 315v-482h-150z" />
    <glyph glyph-name="uni041D" unicode="&#x41d;" horiz-adv-x="798" 
d="M93 0v728h153v-291h306v291h154v-728h-154v295h-306v-295h-153z" />
    <glyph glyph-name="uni041E" unicode="&#x41e;" horiz-adv-x="892" 
d="M445 -12c-110.667 0 -202.5 36.167 -275.5 108.5s-109.5 160.833 -109.5 265.5v2c0 104 36.833 192.667 110.5 266s165.834 110 276.501 110s202.5 -36.167 275.5 -108.5s109.5 -160.833 109.5 -265.5v-2c0 -104 -36.833 -192.667 -110.5 -266
s-165.834 -110 -276.501 -110zM447 129c64.667 0 118.167 22.5 160.5 67.5s63.5 100.167 63.5 165.5v2c0 64.667 -21.5 120 -64.5 166s-96.833 69 -161.5 69s-118.167 -22.5 -160.5 -67.5s-63.5 -100.167 -63.5 -165.5v-2c0 -65.333 21.333 -120.833 64 -166.5
s96.667 -68.5 162 -68.5z" />
    <glyph glyph-name="uni041F" unicode="&#x41f;" horiz-adv-x="794" 
d="M93 0v728h608v-728h-154v588h-301v-588h-153z" />
    <glyph glyph-name="uni0420" unicode="&#x420;" horiz-adv-x="703" 
d="M93 0v728h295c85.333 0 153 -23 203 -69s75 -106.333 75 -181v-2c0 -80.667 -27.667 -143.167 -83 -187.5s-125.333 -66.5 -210 -66.5h-127v-222h-153zM246 359h132c41.333 0 73.833 10.667 97.5 32s35.5 48.666 35.5 81.999v2c0 36.667 -12 64.834 -36 84.501
s-57.333 29.5 -100 29.5h-129v-230z" />
    <glyph glyph-name="uni0421" unicode="&#x421;" horiz-adv-x="776" 
d="M433 -12c-106.667 0 -195.501 36.002 -266.501 108.002s-106.5 160.667 -106.5 266v2c0 105.333 35.667 194.333 107 267s162 109 272 109c64.667 0 119.167 -9.5 163.5 -28.5s85.5 -46.833 123.5 -83.5l-98 -113c-61.333 56 -124.666 84 -189.999 84
c-62 0 -113.667 -22.667 -155 -68s-62 -100.333 -62 -165v-2c0 -65.333 20.5 -120.833 61.5 -166.5s92.833 -68.5 155.5 -68.5c39.333 0 73.5 7.16699 102.5 21.5s59.833 36.166 92.5 65.499l98 -99c-40 -42.667 -83.167 -74.834 -129.5 -96.501s-102.5 -32.5 -168.5 -32.5z
" />
    <glyph glyph-name="uni0422" unicode="&#x422;" horiz-adv-x="681" 
d="M264 0v586h-224v142h601v-142h-223v-586h-154z" />
    <glyph glyph-name="uni0423" unicode="&#x423;" horiz-adv-x="760" 
d="M337 0h-171l144 250l-283 478h174l194 -339l177 339h171z" />
    <glyph glyph-name="uni0424" unicode="&#x424;" horiz-adv-x="1018" 
d="M432 -9v74.002c-117.333 1.33301 -209.5 29.666 -276.5 84.999s-100.5 127 -100.5 215v1c0 88 33.333 159.5 100 214.5s159 83.833 277 86.5v70h154v-70c118 -2.66699 210.333 -31.334 277 -86.001s100 -126 100 -214v-1c0 -87.333 -33.5 -159 -100.5 -215
s-159.167 -84.667 -276.5 -86v-74h-154zM214 366.002v-1c0 -48.667 19 -88.5 57 -119.5s92.667 -46.5 164 -46.5v334c-72 -0.666992 -126.833 -16 -164.5 -46s-56.5 -70.333 -56.5 -121zM803 366.002v1c0 48.667 -18.833 88.5 -56.5 119.5s-92.167 46.5 -163.5 46.5v-334
c71.333 0.666992 125.833 16.167 163.5 46.5s56.5 70.5 56.5 120.5z" />
    <glyph glyph-name="uni0425" unicode="&#x425;" horiz-adv-x="769" 
d="M546 728h175l-245 -355l255 -373h-180l-169 256l-170 -256h-175l256 370l-245 358h180l158 -242z" />
    <glyph glyph-name="uni0426" unicode="&#x426;" horiz-adv-x="827" 
d="M650 -148v148h-557v728h153v-588h301v588h154v-588h93v-288h-144z" />
    <glyph glyph-name="uni0427" unicode="&#x427;" horiz-adv-x="750" 
d="M504 0l0.000976562 238.999c-49.333 -11.333 -101 -17 -155 -17c-86 0 -153.333 20.833 -202 62.5s-73 104.834 -73 189.501v254h154v-237c0 -45.333 11.167 -78.333 33.5 -99s56.833 -31 103.5 -31c47.333 0 93.666 5.66699 138.999 17v350h154v-728h-154z" />
    <glyph glyph-name="uni0428" unicode="&#x428;" horiz-adv-x="1179" 
d="M93 0v728h153v-588h266v588h154v-588h266v588h154v-728h-993z" />
    <glyph glyph-name="uni0429" unicode="&#x429;" horiz-adv-x="1212" 
d="M93 0v728h153v-588h266v588h154v-588h266v588h154v-588h93v-288h-144v148h-942z" />
    <glyph glyph-name="uni042A" unicode="&#x42a;" horiz-adv-x="874" 
d="M260 0v591h-220v137h373v-232h134c88.667 0 158.5 -21 209.5 -63s76.5 -102.333 76.5 -181v-1c0 -78 -25.333 -139.333 -76 -184s-122.667 -67 -216 -67h-281zM413 139h131c41.333 0 74 9.5 98 28.5s36 46.167 36 81.5v1c0 35.333 -11.5 62.333 -34.5 81
s-55.833 28 -98.5 28h-132v-220z" />
    <glyph glyph-name="uni042B" unicode="&#x42b;" horiz-adv-x="1022" 
d="M93 0v728h153v-232h134c88.667 0 158.5 -21 209.5 -63s76.5 -102.667 76.5 -182v-1c0 -77.333 -25.5 -138.333 -76.5 -183s-122.833 -67 -215.5 -67h-281zM246 139l131 0.000976562c42 0 74.833 9.5 98.5 28.5s35.5 46.5 35.5 82.5v1c0 34 -11.667 60.667 -35 80
s-56 28.666 -98 27.999h-132v-220zM775 0.000976562v728h154v-728h-154z" />
    <glyph glyph-name="uni042C" unicode="&#x42c;" horiz-adv-x="708" 
d="M93 0v728h153v-232h134c88.667 0 158.5 -21 209.5 -63s76.5 -102.333 76.5 -181v-1c0 -78 -25.333 -139.333 -76 -184s-122.667 -67 -216 -67h-281zM246 139h131c41.333 0 74 9.5 98 28.5s36 46.167 36 81.5v1c0 35.333 -11.5 62.333 -34.5 81s-55.833 28 -98.5 28h-132
v-220z" />
    <glyph glyph-name="uni042D" unicode="&#x42d;" horiz-adv-x="772" 
d="M143 518l-91 105.001c40.667 37.333 84.5 66.166 131.5 86.499s103.5 30.5 169.5 30.5c104 0 189.833 -35.167 257.5 -105.5s101.5 -159.833 101.5 -268.5v-2c0 -107.333 -34.667 -196.833 -104 -268.5s-158 -107.5 -266 -107.5c-116 0 -215 39.333 -297 118l97 108
c34 -30 66.333 -52.167 97 -66.5s64.667 -21.5 102 -21.5c52 0 97 16.167 135 48.5s62.333 74.833 73 127.5h-327v130h326c-10.667 50 -34.667 90.833 -72 122.5s-81 47.5 -131 47.5c-70.667 0 -138 -28 -202 -84z" />
    <glyph glyph-name="uni042E" unicode="&#x42e;" horiz-adv-x="1169" 
d="M93 0l0.00195312 728.001h153v-291h125c16.667 87.333 58.667 159.666 126 216.999s147.666 86 240.999 86c106.667 0 195.167 -36.5 265.5 -109.5s105.5 -161.167 105.5 -264.5v-2c0 -103.333 -35.5 -191.833 -106.5 -265.5s-159.833 -110.5 -266.5 -110.5
c-94 0 -174.833 29.167 -242.5 87.5s-108.834 131.5 -123.501 219.5h-124v-295h-153zM738.002 129.001c62 0 112.5 22.5 151.5 67.5s58.5 100.167 58.5 165.5v2c0 66 -19.833 121.667 -59.5 167s-90.5 68 -152.5 68s-112.5 -22.5 -151.5 -67.5s-58.5 -100.167 -58.5 -165.5
v-2c0 -66 19.833 -121.667 59.5 -167s90.5 -68 152.5 -68z" />
    <glyph glyph-name="uni042F" unicode="&#x42f;" horiz-adv-x="760" 
d="M62 478l-0.000976562 0.999023c0 82.667 26.833 144.834 80.5 186.501s127.834 62.5 222.501 62.5h302v-728h-153v237h-125l-167 -237h-182l187 260c-50 16.667 -90 43.667 -120 81s-45 83 -45 137zM513.999 372.999l-0.000976562 216h-165
c-40.667 0.666992 -72.667 -8.5 -96 -27.5s-35 -45.5 -35 -79.5v-1c0 -34 11.333 -60.5 34 -79.5s54.334 -28.5 95.001 -28.5h167z" />
    <glyph glyph-name="uni0430" unicode="&#x430;" horiz-adv-x="623" 
d="M235 -11c-54.667 0 -100.5 15.167 -137.5 45.5s-55.5 72.166 -55.5 125.499v2c0 58.667 20.333 102.834 61 132.501s95.334 44.5 164.001 44.5c47.333 0 93.666 -7.33301 138.999 -22v10c0 70 -41 105 -123 105c-48 0 -99.667 -10.333 -155 -31l-38 116
c68 30 139.667 45 215 45c82 0 144.333 -20.667 187 -62c40 -40 60 -98.667 60 -176v-324h-147v62c-44 -48.667 -100.667 -73 -170 -73zM280 95c38 0 68.833 9.5 92.5 28.5s35.5 43.5 35.5 73.5v30c-32.667 14 -68 21 -106 21c-35.333 0 -63 -7 -83 -21s-30 -33.667 -30 -59
v-2c0 -22 8.33301 -39.333 25 -52s38.667 -19 66 -19z" />
    <glyph glyph-name="uni0431" unicode="&#x431;" horiz-adv-x="690" 
d="M344 -12c-82.667 0 -149.333 25.332 -200 75.999c-60 60 -90 147.667 -90 263v1c0 120.667 24.167 214.334 72.5 281.001s123.166 108.667 224.499 126l208 35l24 -139l-205 -32c-56 -9.33301 -98.5 -26 -127.5 -50s-47.167 -57.333 -54.5 -100
c50 43.333 113.333 65 190 65c80.667 0 143.334 -22.5 188.001 -67.5s67 -104.833 67 -179.5v-1c0 -80 -27.5 -146.333 -82.5 -199s-126.5 -79 -214.5 -79zM346.001 114.999c43.333 0 78.5 13.999 105.5 41.999s40.5 63.667 40.5 107v1c0 40.667 -12.333 73.834 -37 99.501
s-58.667 38.5 -102 38.5c-46 0 -82.333 -14 -109 -42s-40 -62.667 -40 -104c0 -40.667 13.167 -74.5 39.5 -101.5s60.5 -40.5 102.5 -40.5z" />
    <glyph glyph-name="uni0432" unicode="&#x432;" horiz-adv-x="627" 
d="M76 0l0.000976562 556.002h285c58.667 0 105.667 -12.833 141 -38.5s53 -60.834 53 -105.501c0 -31.333 -6.83301 -56.333 -20.5 -75s-33.834 -34.334 -60.501 -47.001c70 -25.333 105 -69.333 105 -132c0 -52 -19.5 -91.333 -58.5 -118s-92.167 -40 -159.5 -40h-285z
M408.001 391.002c0 38 -25.333 57 -76 57h-108v-117h106c52 0 78 20 78 60zM432.001 169.002c0 40 -28 60 -84 60h-124v-122h127c54 0 81 20.667 81 62z" />
    <glyph glyph-name="uni0433" unicode="&#x433;" horiz-adv-x="537" 
d="M76 0v556h424v-137h-272v-419h-152z" />
    <glyph glyph-name="uni0434" unicode="&#x434;" horiz-adv-x="713" 
d="M277 560h159l187 -423h63v-271h-137v135h-385v-135h-137v271h63zM355 406l-114 -275h228z" />
    <glyph glyph-name="uni0435" unicode="&#x435;" horiz-adv-x="644" 
d="M338 -12c-83.333 0 -152.331 26.833 -206.998 80.5s-82 122.5 -82 206.5v2c0 80.667 25.833 149 77.5 205s117.167 84 196.5 84c58.667 0 109 -14.5 151 -43.5s72.333 -65.667 91 -110s28 -93.5 28 -147.5c0 -6.66699 -0.666992 -20 -2 -40h-391
c7.33301 -37.333 23.166 -65.833 47.499 -85.5s55.166 -29.5 92.499 -29.5c50.667 0 96.667 19.333 138 58l87 -77c-56 -68.667 -131.667 -103 -227 -103zM198.002 320h247c-6 38 -19.333 68.167 -40 90.5s-48 33.5 -82 33.5c-33.333 0 -61 -11 -83 -33s-36 -52.333 -42 -91
z" />
    <glyph glyph-name="uni0436" unicode="&#x436;" horiz-adv-x="949" 
d="M548 556l-2 -211h46l162 211h176l-224 -271l233 -285h-177l-169 216h-47l2 -216h-147l1 216h-47l-168 -216h-177l233 277l-224 279h178l162 -211h43l-1 211h147z" />
    <glyph glyph-name="uni0437" unicode="&#x437;" horiz-adv-x="592" 
d="M39 70l75 99.999c56 -40 115.333 -60 178 -60c70 0 105 20 105 60v1c0 16.667 -8.33301 29.834 -25 39.501s-40.667 14.167 -72 13.5h-119v109h118c55.333 0 83 18.333 83 55v1c0 16.667 -8 30.167 -24 40.5s-38.667 15.166 -68 14.499c-58 0 -113 -20 -165 -60l-80 94
c69.333 58.667 154.333 88 255 88c68.667 0 124 -14.667 166 -44s63 -67.333 63 -114v-1c0 -58 -30.333 -99.333 -91 -124c70.667 -21.333 106 -64.333 106 -129v-1c0 -47.333 -22.5 -86.666 -67.5 -117.999s-106.167 -47 -183.5 -47c-98 0 -182.667 27.333 -254 82z" />
    <glyph glyph-name="uni0438" unicode="&#x438;" horiz-adv-x="672" 
d="M76 0v556h151v-316l226 316h143v-556h-151v326l-234 -326h-135z" />
    <glyph glyph-name="uni0439" unicode="&#x439;" horiz-adv-x="672" 
d="M76 0v556h151v-316l226 316h143v-556h-151v326l-234 -326h-135zM336 617c-54.667 0 -99.167 14.167 -133.5 42.5s-53.833 68.166 -58.5 119.499h102c14.667 -42 44.667 -63 90 -63s75.333 21 90 63h102c-4.66699 -51.333 -24.167 -91.166 -58.5 -119.499
s-78.833 -42.5 -133.5 -42.5z" />
    <glyph glyph-name="uni043A" unicode="&#x43a;" horiz-adv-x="634" 
d="M228 556v-210h43l161 210h185l-228 -272l236 -284h-181l-172 215h-44v-215h-152v556h152z" />
    <glyph glyph-name="uni043B" unicode="&#x43b;" horiz-adv-x="661" 
d="M402 560l235 -560h-163l-144 374l-146 -374h-160l235 560h143z" />
    <glyph glyph-name="uni043C" unicode="&#x43c;" horiz-adv-x="766" 
d="M76 0v556h158l149 -231l150 231h157v-556h-147v337l-160 -241h-3l-157 238v-334h-147z" />
    <glyph glyph-name="uni043D" unicode="&#x43d;" horiz-adv-x="672" 
d="M76 0v556h152v-207h216v207h152v-556h-152v210h-216v-210h-152z" />
    <glyph glyph-name="uni043E" unicode="&#x43e;" horiz-adv-x="697" 
d="M347 -12c-84.667 0 -155.5 27.667 -212.5 83s-85.5 123.333 -85.5 204v2c0 80 28.833 148.167 86.5 204.5s129.167 84.5 214.5 84.5c84.667 0 155.5 -27.833 212.5 -83.5s85.5 -123.5 85.5 -203.5v-2c0 -80.667 -28.667 -149 -86 -205s-129 -84 -215 -84zM350 118
c44.667 0 80.5 15.166 107.5 45.499s40.5 67.5 40.5 111.5v2c0 43.333 -14.167 80.5 -42.5 111.5s-64.5 46.5 -108.5 46.5c-44.667 0 -80.5 -15 -107.5 -45s-40.5 -67 -40.5 -111v-2c0 -43.333 14.167 -80.666 42.5 -111.999s64.5 -47 108.5 -47z" />
    <glyph glyph-name="uni043F" unicode="&#x43f;" horiz-adv-x="672" 
d="M76 0v556h520v-556h-152v419h-216v-419h-152z" />
    <glyph glyph-name="uni0440" unicode="&#x440;" horiz-adv-x="709" 
d="M76 -166v722.001h152v-83c45.333 62 104 93 176 93c69.333 0 129 -25.833 179 -77.5s75 -121.5 75 -209.5v-2c0 -88.667 -24.833 -158.834 -74.5 -210.501s-109.5 -77.5 -179.5 -77.5s-128.667 28.667 -176 86v-241h-152zM366 119.001c39.333 0 72.5 14.5 99.5 43.5
s40.5 67.167 40.5 114.5v2c0 46.667 -13.667 84.667 -41 114s-60.333 44 -99 44s-71.667 -14.667 -99 -44s-41 -67.333 -41 -114v-2c0 -46.667 13.667 -84.667 41 -114s60.333 -44 99 -44z" />
    <glyph glyph-name="uni0441" unicode="&#x441;" horiz-adv-x="602" 
d="M338 -12c-83.333 0 -152.334 27.667 -207.001 83s-82 123.333 -82 204v2c0 80 27.5 148.167 82.5 204.5s124.5 84.5 208.5 84.5c92.667 0 166.667 -31.333 222 -94l-94 -100c-38.667 42 -81.667 63 -129 63c-40.667 0 -74.167 -15.167 -100.5 -45.5
s-39.5 -67.166 -39.5 -110.499v-2c0 -44.667 13.5 -82.334 40.5 -113.001s62.167 -46 105.5 -46c44.667 0 88.334 20.333 131.001 61l89 -89c-60 -68 -135.667 -102 -227 -102z" />
    <glyph glyph-name="uni0442" unicode="&#x442;" horiz-adv-x="601" 
d="M225 0v421h-184v135h519v-135h-184v-421h-151z" />
    <glyph glyph-name="uni0443" unicode="&#x443;" horiz-adv-x="631" 
d="M319 171l126 384.999h158l-215 -570c-22 -57.333 -46.333 -97.666 -73 -120.999s-63.334 -35 -110.001 -35c-48 0 -94 12.667 -138 38l51 110c24.667 -14 47.667 -21 69 -21c14.667 0 26.334 2.83301 35.001 8.5s17 16.5 25 32.5l-221 558h161z" />
    <glyph glyph-name="uni0444" unicode="&#x444;" horiz-adv-x="892" 
d="M521 -166h-150v165c-100.667 4 -179.5 31.5 -236.5 82.5s-85.5 116.167 -85.5 195.5v1c0 78 28.667 143 86 195s136 80 236 84v202h150v-202c100.667 -4 179.5 -31.5 236.5 -82.5s85.5 -116.167 85.5 -195.5v-1c0 -78 -28.667 -143 -86 -195s-136 -80 -236 -84v-165z
M696 277v0.999023c0 44.667 -15.667 80.834 -47 108.501s-75 42.167 -131 43.5v-304c58 1.33301 102.167 15.5 132.5 42.5s45.5 63.167 45.5 108.5zM197 278.999l0.000976562 -0.999023c0 -44.667 15.667 -80.834 47 -108.501s74.666 -42.167 129.999 -43.5v304
c-58 -2 -102 -16.5 -132 -43.5s-45 -62.833 -45 -107.5z" />
    <glyph glyph-name="uni0445" unicode="&#x445;" horiz-adv-x="614" 
d="M200 556l108 -167l110 167h159l-189 -271l197 -285h-163l-117 179l-117 -179h-159l197 283l-189 273h163z" />
    <glyph glyph-name="uni0446" unicode="&#x446;" horiz-adv-x="698" 
d="M531 -134v134h-455v556h152v-419h216v419h152v-419h72v-271h-137z" />
    <glyph glyph-name="uni0447" unicode="&#x447;" horiz-adv-x="628" 
d="M400 0l-0.000976562 170c-41.333 -10.667 -79.666 -16 -114.999 -16c-150.667 0 -226 69 -226 207v195h151v-181c0 -30.667 8 -52.5 24 -65.5s40.667 -19.5 74 -19.5c30 0 60.667 5 92 15v251h152v-556h-152z" />
    <glyph glyph-name="uni0448" unicode="&#x448;" horiz-adv-x="992" 
d="M76 0v556h152v-419h192v419h152v-419h192v419h152v-556h-840z" />
    <glyph glyph-name="uni0449" unicode="&#x449;" horiz-adv-x="1018" 
d="M76 0v556h152v-419h192v419h152v-419h192v419h152v-419h72v-271h-137v134h-775z" />
    <glyph glyph-name="uni044A" unicode="&#x44a;" horiz-adv-x="710" 
d="M35 556l308 -0.000976562v-161h107c68 0 122.333 -17.167 163 -51.5s61 -82.166 61 -143.499v-1c0 -61.333 -20.667 -109.833 -62 -145.5s-99 -53.5 -173 -53.5h-246v424h-158v132zM342 272.999v-150h93c60 0 90 25.333 90 76v1c0 21.333 -7.83301 39 -23.5 53
s-37.167 20.667 -64.5 20h-95z" />
    <glyph glyph-name="uni044B" unicode="&#x44b;" horiz-adv-x="866" 
d="M227 556v-161.001h107c68 0 122.333 -17.167 163 -51.5s61 -82.166 61 -143.499v-1c0 -61.333 -20.667 -109.833 -62 -145.5s-99.333 -53.5 -174 -53.5h-246v556h151zM226 272.999v-150h92c60.667 0 91 25.333 91 76v1c0 21.333 -8 39 -24 53s-37.667 20.667 -65 20h-94z
M638 -0.000976562v556h152v-556h-152z" />
    <glyph glyph-name="uni044C" unicode="&#x44c;" horiz-adv-x="594" 
d="M227 556v-161.001h107c68 0 122.333 -17.167 163 -51.5s61 -82.166 61 -143.499v-1c0 -61.333 -20.667 -109.833 -62 -145.5s-99.333 -53.5 -174 -53.5h-246v556h151zM226 272.999v-150h92c60.667 0 91 25.333 91 76v1c0 21.333 -8 39 -24 53s-37.667 20.667 -65 20h-94z
" />
    <glyph glyph-name="uni044D" unicode="&#x44d;" horiz-adv-x="605" 
d="M38 71l77 100.996c25.333 -21.333 49.5 -36.5 72.5 -45.5s50.167 -13.5 81.5 -13.5c35.333 0 65 9.33301 89 28s39.667 44.334 47 77.001l-230 -1v121l230 -2c-8 32.667 -24.167 58.334 -48.5 77.001s-54.166 28 -89.499 28c-30 0 -56 -4.66699 -78 -14
s-45.667 -23.666 -71 -42.999l-75 97c66.667 56.667 144 85 232 85c82.667 0 150.167 -27.167 202.5 -81.5s78.5 -123.166 78.5 -206.499v-1c0 -83.333 -26.333 -152.333 -79 -207s-121.334 -82 -206.001 -82c-89.333 0 -167 27.667 -233 83z" />
    <glyph glyph-name="uni044E" unicode="&#x44e;" horiz-adv-x="945" 
d="M228 210v-210h-152v556h152v-206h92c16 63.333 50.167 115.166 102.5 155.499s113.166 60.5 182.499 60.5c82.667 0 151.834 -27.833 207.501 -83.5s83.5 -123.5 83.5 -203.5v-2c0 -80.667 -28.167 -149 -84.5 -205s-125.833 -84 -208.5 -84
c-70.667 0 -132.167 20.833 -184.5 62.5s-85.833 94.834 -100.5 159.501h-90zM605 118c42 0 76.001 15.166 102.001 45.499s39 67.5 39 111.5v2c0 43.333 -13.5 80.5 -40.5 111.5s-61.167 46.5 -102.5 46.5c-42.667 0 -77 -15 -103 -45s-39 -67 -39 -111v-2
c0 -43.333 13.667 -80.666 41 -111.999s61.666 -47 102.999 -47z" />
    <glyph glyph-name="uni044F" unicode="&#x44f;" horiz-adv-x="634" 
d="M408 181l-69 0.000976562l-126 -181h-171l142 199c-82 28.667 -123 84 -123 166v1c0 62.667 20.667 110.167 62 142.5s98 48.166 170 47.499h264v-556h-149v181zM408 440.001l-109 -0.000976562c-60 0 -90 -25.333 -90 -76v-1c0 -22 7.83301 -39.667 23.5 -53
s37.5 -19.666 65.5 -18.999h110v149z" />
    <glyph glyph-name="uni0450" unicode="&#x450;" horiz-adv-x="644" 
d="M338 -12c-83.333 0 -152.331 26.833 -206.998 80.5s-82 122.5 -82 206.5v2c0 80.667 25.833 149 77.5 205s117.167 84 196.5 84c58.667 0 109 -14.5 151 -43.5s72.333 -65.667 91 -110s28 -93.5 28 -147.5c0 -6.66699 -0.666992 -20 -2 -40h-391
c7.33301 -37.333 23.166 -65.833 47.499 -85.5s55.166 -29.5 92.499 -29.5c50.667 0 96.667 19.333 138 58l87 -77c-56 -68.667 -131.667 -103 -227 -103zM198.002 320h247c-6 38 -19.333 68.167 -40 90.5s-48 33.5 -82 33.5c-33.333 0 -61 -11 -83 -33s-36 -52.333 -42 -91
zM269.002 619l-134 124l132 57l114 -181h-112z" />
    <glyph glyph-name="uni0451" unicode="&#x451;" horiz-adv-x="644" 
d="M354 619v137h147v-137h-147zM141 619v137h147v-137h-147zM338 -12c-83.333 0 -152.331 26.833 -206.998 80.5s-82 122.5 -82 206.5v2c0 80.667 25.833 149 77.5 205s117.167 84 196.5 84c58.667 0 109 -14.5 151 -43.5s72.333 -65.667 91 -110s28 -93.5 28 -147.5
c0 -6.66699 -0.666992 -20 -2 -40h-391c7.33301 -37.333 23.166 -65.833 47.499 -85.5s55.166 -29.5 92.499 -29.5c50.667 0 96.667 19.333 138 58l87 -77c-56 -68.667 -131.667 -103 -227 -103zM198.002 320h247c-6 38 -19.333 68.167 -40 90.5s-48 33.5 -82 33.5
c-33.333 0 -61 -11 -83 -33s-36 -52.333 -42 -91z" />
    <glyph glyph-name="uni0452" unicode="&#x452;" horiz-adv-x="637" 
d="M395 574h-164.001v-122c41.333 10.667 79.666 16 114.999 16c150.667 0 226.334 -69 227.001 -207v-230c0 -134 -66 -201 -198 -201c-26 0 -51.333 2.66699 -76 8v119c14 -2.66699 29 -4 45 -4c48.667 0 74.334 25 77.001 75v219c0 30.667 -8 52.5 -24 65.5
s-40.667 19.5 -74 19.5c-29.333 0 -60 -5 -92 -15v-317h-152v574h-103v118h103v67h152v-67h164v-118z" />
    <glyph glyph-name="uni0453" unicode="&#x453;" horiz-adv-x="537" 
d="M227 619l114 181l132 -57l-134 -124h-112zM76 0v556h424v-137h-272v-419h-152z" />
    <glyph glyph-name="uni0454" unicode="&#x454;" horiz-adv-x="607" 
d="M564 485l-79 -102.999c-44.667 39.333 -91.334 59 -140.001 59c-36 0 -67 -9.5 -93 -28.5s-43.333 -44.5 -52 -76.5l229 2v-121l-229 1c8 -32.667 24.833 -58.334 50.5 -77.001s58.167 -28 97.5 -28c48.667 0 96.334 19 143.001 57l78 -94
c-64 -58.667 -140.667 -88 -230 -88c-85.333 0 -155 27.667 -209 83s-81 123.333 -81 204v2c0 81.333 27.333 149.833 82 205.5s125 83.5 211 83.5c87.333 0 161.333 -27 222 -81z" />
    <glyph glyph-name="uni0455" unicode="&#x455;" horiz-adv-x="530" 
d="M270 -10c-88 0 -167.333 27.668 -238 83.001l66 101c60.667 -44.667 119.334 -67 176.001 -67c47.333 0 71 15 71 45v2c0 10 -5 19 -15 27s-21 14.167 -33 18.5s-29.333 9.83301 -52 16.5l-6 1.5c-1.33301 0.333008 -3 0.833008 -5 1.5l-6 2
c-24.667 7.33301 -45.167 14.5 -61.5 21.5s-33.5 16.833 -51.5 29.5s-31.667 28.5 -41 47.5s-14 41.5 -14 67.5v2c0 54 19.333 96.667 58 128s87 47 145 47c73.333 0 142 -21.333 206 -64l-58 -105c-60.667 34.667 -111.334 52 -152.001 52
c-19.333 0 -34.5 -3.83301 -45.5 -11.5s-16.5 -17.834 -16.5 -30.501v-2c0 -13.333 8 -24.333 24 -33s40.667 -18.667 74 -30l18 -6c23.333 -7.33301 43.333 -14.833 60 -22.5s34.167 -17.667 52.5 -30s32.333 -28 42 -47s14.5 -40.5 14.5 -64.5v-2
c0 -58.667 -19.5 -103 -58.5 -133s-90.167 -45 -153.5 -45z" />
    <glyph glyph-name="uni0456" unicode="&#x456;" horiz-adv-x="319" 
d="M79 622v136h160v-136h-160zM84 0v556h151v-556h-151z" />
    <glyph glyph-name="uni0457" unicode="&#x457;" horiz-adv-x="319" 
d="M193 619v137h147v-137h-147zM-20 619v137h147v-137h-147zM84 0v556h151v-556h-151z" />
    <glyph glyph-name="uni0458" unicode="&#x458;" horiz-adv-x="319" 
d="M79 622v136h160v-136h-160zM60 -170c-23.333 0 -45.666 2.33301 -66.999 7v119c11.333 -2.66699 22.666 -4 33.999 -4c38 0 57 22 57 66v538h151v-550c0 -117.333 -58.333 -176 -175 -176z" />
    <glyph glyph-name="uni0459" unicode="&#x459;" horiz-adv-x="892" 
d="M385 0v437.999h-3l-215 -438h-157l274 556h251v-161h97c68 0 122.333 -17.167 163 -51.5s61 -82.166 61 -143.499v-1c0 -61.333 -20.667 -109.833 -62 -145.5s-99.333 -53.5 -174 -53.5h-235zM534 122.999h82c60.667 0 91 25.333 91 76v1c0 21.333 -8 39 -24 53
s-37.667 20.667 -65 20h-84v-150z" />
    <glyph glyph-name="uni045A" unicode="&#x45a;" horiz-adv-x="941" 
d="M585 556v-161.001h96c68 0 122.333 -17.167 163 -51.5s61 -82.166 61 -143.499v-1c0 -61.333 -20.667 -109.833 -62 -145.5s-99 -53.5 -173 -53.5h-236v210h-206v-210h-152v556h152v-206h206v206h151zM584 272.999v-150h82c60 0 90 25.333 90 76v1
c0 21.333 -7.83301 39 -23.5 53s-37.167 20.667 -64.5 20h-84z" />
    <glyph glyph-name="uni045B" unicode="&#x45b;" horiz-adv-x="637" 
d="M231 759l0.000976562 -67h164v-118h-164v-122c41.333 10.667 79.666 16 114.999 16c151.333 0 227 -69 227 -207v-261h-152v247c0 30.667 -8 52.5 -24 65.5s-40.667 19.5 -74 19.5c-29.333 0 -60 -5 -92 -15v-317h-152v574h-103v118h103v67h152z" />
    <glyph glyph-name="uni045C" unicode="&#x45c;" horiz-adv-x="634" 
d="M270 619l114 181l132 -57l-134 -124h-112zM228 556v-210h43l161 210h185l-228 -272l236 -284h-181l-172 215h-44v-215h-152v556h152z" />
    <glyph glyph-name="uni045D" unicode="&#x45d;" horiz-adv-x="672" 
d="M283 619l-134 124l132 57l114 -181h-112zM76 0v556h151v-316l226 316h143v-556h-151v326l-234 -326h-135z" />
    <glyph glyph-name="uni045E" unicode="&#x45e;" horiz-adv-x="631" 
d="M319 171l126 384.999h158l-215 -570c-22 -57.333 -46.333 -97.666 -73 -120.999s-63.334 -35 -110.001 -35c-48 0 -94 12.667 -138 38l51 110c24.667 -14 47.667 -21 69 -21c14.667 0 26.334 2.83301 35.001 8.5s17 16.5 25 32.5l-221 558h161zM315 616.999
c-54.667 0 -99.167 14.167 -133.5 42.5s-53.833 68.166 -58.5 119.499h102c14.667 -42 44.667 -63 90 -63s75.333 21 90 63h102c-4.66699 -51.333 -24.167 -91.166 -58.5 -119.499s-78.833 -42.5 -133.5 -42.5z" />
    <glyph glyph-name="uni045F" unicode="&#x45f;" horiz-adv-x="672" 
d="M76 0v556h152v-419h216v419h152v-556h-191v-134h-137v134h-192z" />
    <glyph glyph-name="uni0462" unicode="&#x462;" horiz-adv-x="869" 
d="M407 424l171 -0.00195312c76.667 0 137.5 -17.667 182.5 -53s67.5 -86.666 67.5 -153.999v-1c0 -65.333 -22.667 -117.666 -68 -156.999s-108.333 -59 -189 -59h-316v529h-215v125h215v83h152v-83h239v-123h-239v-107zM577 290.998h-171.001v-156h170
c30.667 0 54.834 6.83301 72.501 20.5s26.5 33.167 26.5 58.5v1c0 24 -8.33301 42.833 -25 56.5s-41 20.167 -73 19.5z" />
    <glyph glyph-name="uni0463" unicode="&#x463;" horiz-adv-x="710" 
d="M344 353l122 0.000976562c64 0 114.667 -14.833 152 -44.5s56 -72.834 56 -129.501v-1c0 -54.667 -19.5 -98 -58.5 -130s-92.833 -48 -161.5 -48h-261v428h-158v128h158v203h151v-203h205v-126h-205v-77zM342 238.001l0.000976562 -121.001h108
c23.333 0 41.666 5.33301 54.999 16s20 25.667 20 45v1c0 18.667 -6.33301 33.334 -19 44.001s-30.667 15.667 -54 15h-110z" />
    <glyph glyph-name="uni0472" unicode="&#x472;" horiz-adv-x="886" 
d="M442 -12c-109.333 0 -200.333 36.167 -273 108.5s-109 160.833 -109 265.5v2c0 104 36.667 192.667 110 266s164.666 110 273.999 110s200.333 -36.167 273 -108.5s109 -160.833 109 -265.5v-2c0 -104 -36.667 -192.667 -110 -266s-164.666 -110 -273.999 -110zM444 121
c58 0 106.834 16.167 146.501 48.5s65.167 75.5 76.5 129.5h-448c12 -53.333 38.167 -96.333 78.5 -129s89.166 -49 146.499 -49zM442.001 607c-56.667 0 -104.833 -15.833 -144.5 -47.5s-65.5 -73.5 -77.5 -125.5h445c-12 52 -38.167 93.833 -78.5 125.5
s-88.5 47.5 -144.5 47.5z" />
    <glyph glyph-name="uni0473" unicode="&#x473;" horiz-adv-x="691" 
d="M345 -12c-84 0 -154.333 27.667 -211 83s-85 123.333 -85 204v2c0 80 28.5 148.167 85.5 204.5s127.833 84.5 212.5 84.5c83.333 0 153.5 -27.833 210.5 -83.5s85.5 -123.5 85.5 -203.5v-2c0 -80.667 -28.833 -149 -86.5 -205s-128.167 -84 -211.5 -84zM347 109
c38 0 70.1699 10 96.5029 30s44.166 47.333 53.499 82h-302c9.33301 -34 27.666 -61.167 54.999 -81.5s59.666 -30.5 96.999 -30.5zM345.003 445c-38 0 -70.332 -9.83203 -96.999 -29.499s-44.667 -46.834 -54 -81.501h301c-10 34 -28.333 61 -55 81s-58.334 30 -95.001 30z
" />
    <glyph glyph-name="uni0474" unicode="&#x474;" horiz-adv-x="831" 
d="M320 -5l-290.001 732.999h170l192 -522l121 320c28 74.667 62.167 127.334 102.5 158.001s95.833 46 166.5 46h23v-139h-7c-34 0 -61.667 -7.33301 -83 -22s-39.666 -41 -54.999 -79l-204 -495h-136z" />
    <glyph glyph-name="uni0475" unicode="&#x475;" horiz-adv-x="653" 
d="M241 -4l-214.999 560h161l126 -380l69 197c22.667 68.667 50 116.667 82 144s78.667 41 140 41h23v-125h-2c-26.667 0 -47.834 -6.66699 -63.501 -20s-30.167 -37 -43.5 -71l-139 -346h-138z" />
    <glyph glyph-name="uni0490" unicode="&#x490;" horiz-adv-x="651" 
d="M93 728h376v141h144v-281h-367v-588h-153v728z" />
    <glyph glyph-name="uni0491" unicode="&#x491;" horiz-adv-x="537" 
d="M76 0v556h282v130h142v-267h-272v-419h-152z" />
    <glyph glyph-name="uni0492" unicode="&#x492;" horiz-adv-x="683" 
d="M124 0v293h-78v106h78v329h520v-140h-367v-189h179v-106h-179v-293h-153z" />
    <glyph glyph-name="uni0493" unicode="&#x493;" horiz-adv-x="558" 
d="M97 0v212h-71v86h71v258h424v-137h-272v-121h129v-86h-129v-212h-152z" />
    <glyph glyph-name="uni0496" unicode="&#x496;" horiz-adv-x="1150" 
d="M1108 728l-297 -355l200 -233h125v-288h-144v148h-43l-257 302h-47l2 -302h-151l1 302h-51l-255 -302h-180l321 373l-297 355h183l239 -296h40l-1 296h151l-2 -296h40l242 296h181z" />
    <glyph glyph-name="uni0497" unicode="&#x497;" horiz-adv-x="959" 
d="M930 556l-224 -271l121 -148h124v-271h-137v134h-52l-169 216h-47l2 -216h-147l1 216h-47l-168 -216h-177l233 277l-224 279h178l162 -211h43l-1 211h147l-2 -211h46l162 211h176z" />
    <glyph glyph-name="uni0498" unicode="&#x498;" horiz-adv-x="702" 
d="M149 517l-92.999 104c88 79.333 188 119 300 119c86 0 152.833 -17.5 200.5 -52.5s71.5 -82.833 71.5 -143.5v-1c0 -44 -10.5 -79 -31.5 -105s-52.5 -47.333 -94.5 -64c97.333 -24.667 146 -81.334 146 -170.001v-1c0 -54 -20.5 -100.167 -61.5 -138.5
s-97.833 -62.166 -170.5 -71.499l6 -141h-150l6 140c-89.333 11.333 -167.666 47 -234.999 107l91 110c72 -56 143.667 -84 215 -84c42.667 0 77.167 7.83301 103.5 23.5s39.5 38.167 39.5 67.5v1c0 28 -12.833 49.5 -38.5 64.5s-60.834 22.167 -105.501 21.5h-134v128h138
c37.333 0 66.666 8.16699 87.999 24.5s32 37.833 32 64.5v1c0 26 -10.5 46.167 -31.5 60.5s-50.167 21.5 -87.5 21.5c-68.667 0 -136.667 -28.667 -204 -86z" />
    <glyph glyph-name="uni0499" unicode="&#x499;" horiz-adv-x="592" 
d="M39 70l75 100c56 -40 115.333 -60 178 -60c70 0 105 20 105 60v1c0 16.667 -8.33301 29.834 -25 39.501s-40.667 14.167 -72 13.5h-119v109h118c55.333 0 83 18.333 83 55v1c0 16.667 -8 30.167 -24 40.5s-38.667 15.166 -68 14.499c-58 0 -113 -20 -165 -60l-80 94
c69.333 58.667 154.333 88 255 88c68.667 0 124 -14.667 166 -44s63 -67.333 63 -114v-1c0 -58 -30.333 -99.333 -91 -124c70.667 -21.333 106 -64.333 106 -129v-1c0 -40.667 -16.5 -75.667 -49.5 -105s-79.167 -48 -138.5 -56l6 -126h-142l5 126
c-67.333 8.66699 -129.333 34.667 -186 78z" />
    <glyph glyph-name="uni049A" unicode="&#x49a;" horiz-adv-x="783" 
d="M93 0v728h153l-2 -294h58l258 294h191l-326 -352l216 -236h132v-288h-144v148h-55l-269 300h-61l2 -300h-153z" />
    <glyph glyph-name="uni049B" unicode="&#x49b;" horiz-adv-x="638" 
d="M228 556v-210h43l161 210h185l-228 -272l122 -147h117v-271h-137v134h-47l-172 215h-44v-215h-152v556h152z" />
    <glyph glyph-name="uni049C" unicode="&#x49c;" horiz-adv-x="816" 
d="M777 728l-258 -345l270 -383h-181l-197 288h-1l2 -179h-93l2 195h-75v-304h-153v728h153v-292h75l-2 198h93l-2 -179h1l190 273h176z" />
    <glyph glyph-name="uni049D" unicode="&#x49d;" horiz-adv-x="685" 
d="M658 556l-196 -264l197 -292h-169l-141 227h-1l1 -153h-72l1 156h-50v-230h-152v556h152v-211h50l-1 149h72l-1 -149h1l142 211h167z" />
    <glyph glyph-name="uni04A0" unicode="&#x4a0;" horiz-adv-x="943" 
d="M40 591v137h373l-2 -294h58l258 294h191l-326 -352l345 -376h-196l-269 300h-61l2 -300h-153v591h-220z" />
    <glyph glyph-name="uni04A1" unicode="&#x4a1;" horiz-adv-x="751" 
d="M344 556v-210h43l161 210h185l-228 -272l236 -284h-181l-172 215h-44v-215h-152v424h-157v132h309z" />
    <glyph glyph-name="uni04A2" unicode="&#x4a2;" horiz-adv-x="832" 
d="M93 0v728h153v-291h306v291h154v-588h93v-288h-144v148h-103v295h-306v-295h-153z" />
    <glyph glyph-name="uni04A3" unicode="&#x4a3;" horiz-adv-x="698" 
d="M76 0v556h152v-207h216v207h152v-419h72v-271h-137v134h-87v210h-216v-210h-152z" />
    <glyph glyph-name="uni04A4" unicode="&#x4a4;" horiz-adv-x="1066" 
d="M539 0v295h-295v-295h-154v728h154v-291h295v291h489v-140h-335v-588h-154z" />
    <glyph glyph-name="uni04A5" unicode="&#x4a5;" horiz-adv-x="884" 
d="M434 0v210h-206v-210h-152v556h152v-206h206v206h413v-137h-262v-419h-151z" />
    <glyph glyph-name="uni04AA" unicode="&#x4aa;" horiz-adv-x="776" 
d="M355 -148l5.99902 143.001c-88.667 16 -161 58 -217 126s-84 148.333 -84 241v2c0 105.333 35.667 194.333 107 267s162 109 272 109c64.667 0 119.167 -9.5 163.5 -28.5s85.5 -46.833 123.5 -83.5l-98 -113c-61.333 56 -124.666 84 -189.999 84
c-62 0 -113.667 -22.667 -155 -68s-62 -100.333 -62 -165v-2c0 -65.333 20.5 -120.833 61.5 -166.5s92.833 -68.5 155.5 -68.5c39.333 0 73.5 7.16699 102.5 21.5s59.833 36.166 92.5 65.499l98 -99c-34.667 -36 -70 -64.333 -106 -85s-78 -34 -126 -40l6 -140h-150z" />
    <glyph glyph-name="uni04AB" unicode="&#x4ab;" horiz-adv-x="602" 
d="M261 -134l5.99902 130.999c-64.667 14.667 -117.167 47.667 -157.5 99s-60.5 111 -60.5 179v2c0 80 27.5 148.167 82.5 204.5s124.5 84.5 208.5 84.5c92.667 0 166.667 -31.333 222 -94l-94 -100c-38.667 42 -81.667 63 -129 63c-40.667 0 -74.167 -15.167 -100.5 -45.5
s-39.5 -67.166 -39.5 -110.499v-2c0 -44.667 13.5 -82.334 40.5 -113.001s62.167 -46 105.5 -46c44.667 0 88.334 20.333 131.001 61l89 -89c-24.667 -26.667 -50 -48.167 -76 -64.5s-56.667 -27.166 -92 -32.499l6 -127h-142z" />
    <glyph glyph-name="uni04AE" unicode="&#x4ae;" horiz-adv-x="753" 
d="M299 0v287l-281 441h180l179 -298l183 298h175l-282 -438v-290h-154z" />
    <glyph glyph-name="uni04AF" unicode="&#x4af;" horiz-adv-x="631" 
d="M605 556l-214 -533v-189h-151v189l-214 533h162l128 -369l130 369h159z" />
    <glyph glyph-name="uni04B0" unicode="&#x4b0;" horiz-adv-x="753" 
d="M299 0v190h-170v106h164l-275 432h180l179 -298l183 298h175l-278 -432h166v-106h-170v-190h-154z" />
    <glyph glyph-name="uni04B1" unicode="&#x4b1;" horiz-adv-x="631" 
d="M545 86v-86h-154v-166h-151v166h-154v86h129l-189 470h162l128 -369l130 369h159l-189 -470h129z" />
    <glyph glyph-name="uni04B2" unicode="&#x4b2;" horiz-adv-x="794" 
d="M546 728h175l-245 -355l159 -233h133v-288h-144v148h-73l-169 256l-170 -256h-175l256 370l-245 358h180l158 -242z" />
    <glyph glyph-name="uni04B3" unicode="&#x4b3;" horiz-adv-x="629" 
d="M200 556l108 -167l110 167h159l-189 -271l102 -148h122v-271h-137v134h-53l-117 179l-117 -179h-159l197 283l-189 273h163z" />
    <glyph glyph-name="uni04B6" unicode="&#x4b6;" horiz-adv-x="784" 
d="M504 0l0.000976562 238.999c-49.333 -11.333 -101 -17 -155 -17c-86 0 -153.333 20.833 -202 62.5s-73 104.834 -73 189.501v254h154v-237c0 -45.333 11.167 -78.333 33.5 -99s56.833 -31 103.5 -31c47.333 0 93.666 5.66699 138.999 17v350h154v-588h93v-288h-144v148
h-103z" />
    <glyph glyph-name="uni04B7" unicode="&#x4b7;" horiz-adv-x="654" 
d="M400 0l-0.000976562 170c-41.333 -10.667 -79.666 -16 -114.999 -16c-150.667 0 -226 69 -226 207v195h151v-181c0 -30.667 8 -52.5 24 -65.5s40.667 -19.5 74 -19.5c30 0 60.667 5 92 15v251h152v-419h72v-271h-137v134h-87z" />
    <glyph glyph-name="uni04B8" unicode="&#x4b8;" horiz-adv-x="750" 
d="M503 0v239c-24 -6 -55 -10.667 -93 -14l2 -156h-92l1 154c-78 4 -138.667 26.833 -182 68.5s-65 102.5 -65 182.5v254h153v-237c0 -38 7.66699 -67.167 23 -87.5s39 -33.5 71 -39.5l-1 198h92l-2 -199c33.333 3.33301 64.333 8.33301 93 15v350h154v-728h-154z" />
    <glyph glyph-name="uni04B9" unicode="&#x4b9;" horiz-adv-x="628" 
d="M400 0v169.999c-17.333 -5.33301 -37.333 -9.33301 -60 -12l1 -110h-73l1 106c-140 5.33301 -210 74.333 -210 207v195h151v-180c0 -46 19.667 -73.667 59 -83l-1 138h73l-1 -140c22.667 2.66699 42.667 7.33398 60 14.001v251h152v-556h-152z" />
    <glyph glyph-name="uni04BA" unicode="&#x4ba;" horiz-adv-x="750" 
d="M246 728l0.00195312 -238.999c49.333 11.333 100.666 17 153.999 17c86.667 0 154.167 -20.833 202.5 -62.5s72.5 -104.834 72.5 -189.501v-254h-153v237c0 44.667 -11.333 77.5 -34 98.5s-57.334 31.5 -104.001 31.5c-45.333 0 -91.333 -6 -138 -18v-349h-154v728h154z
" />
    <glyph glyph-name="uni04BB" unicode="&#x4bb;" horiz-adv-x="655" 
d="M76 0v759.001h152v-283c43.333 60 98.333 90 165 90c60 0 106.833 -18.333 140.5 -55s50.5 -87.334 50.5 -152.001v-359h-152v311c0 38 -8.66699 67.167 -26 87.5s-42 30.5 -74 30.5c-32.667 0 -58.167 -10.167 -76.5 -30.5s-27.5 -49.5 -27.5 -87.5v-311h-152z" />
    <glyph glyph-name="uni04C0" unicode="&#x4c0;" horiz-adv-x="354" 
d="M100 0v728h154v-728h-154z" />
    <glyph glyph-name="uni04C1" unicode="&#x4c1;" horiz-adv-x="1143" 
d="M571 784c-55.333 0 -100.331 13.167 -134.998 39.5s-54.334 63.833 -59.001 112.5h104c13.333 -34.667 43.333 -52 90 -52s76.667 17.333 90 52h104c-4.66699 -48.667 -24.334 -86.167 -59.001 -112.5s-79.667 -39.5 -135 -39.5zM35.002 728h183l239 -296h40l-1 296h151
l-2 -296h40l242 296h181l-297 -355l321 -373h-183l-257 302h-47l2 -302h-151l1 302h-51l-255 -302h-180l321 373z" />
    <glyph glyph-name="uni04C2" unicode="&#x4c2;" horiz-adv-x="949" 
d="M548 556l-2 -211h46l162 211h176l-224 -271l233 -285h-177l-169 216h-47l2 -216h-147l1 216h-47l-168 -216h-177l233 277l-224 279h178l162 -211h43l-1 211h147zM474 617c-54.667 0 -99.167 14.167 -133.5 42.5s-53.833 68.166 -58.5 119.499h102
c14.667 -42 44.667 -63 90 -63s75.333 21 90 63h102c-4.66699 -51.333 -24.167 -91.166 -58.5 -119.499s-78.833 -42.5 -133.5 -42.5z" />
    <glyph glyph-name="uni04CF" unicode="&#x4cf;" horiz-adv-x="319" 
d="M84 0v759h151v-759h-151z" />
    <glyph glyph-name="uni04D0" unicode="&#x4d0;" horiz-adv-x="830" 
d="M30 0l314 733h142l313 -733h-161l-68 166h-315l-68 -166h-157zM310 302h205l-102 247zM415 794c-55.333 0 -100.331 13.167 -134.998 39.5s-54.334 63.833 -59.001 112.5h104c13.333 -34.667 43.333 -52 90 -52s76.667 17.333 90 52h104
c-4.66699 -48.667 -24.334 -86.167 -59.001 -112.5s-79.667 -39.5 -135 -39.5z" />
    <glyph glyph-name="uni04D1" unicode="&#x4d1;" horiz-adv-x="623" 
d="M235 -11c-54.667 0 -100.5 15.167 -137.5 45.5s-55.5 72.166 -55.5 125.499v2c0 58.667 20.333 102.834 61 132.501s95.334 44.5 164.001 44.5c47.333 0 93.666 -7.33301 138.999 -22v10c0 70 -41 105 -123 105c-48 0 -99.667 -10.333 -155 -31l-38 116
c68 30 139.667 45 215 45c82 0 144.333 -20.667 187 -62c40 -40 60 -98.667 60 -176v-324h-147v62c-44 -48.667 -100.667 -73 -170 -73zM280 95c38 0 68.833 9.5 92.5 28.5s35.5 43.5 35.5 73.5v30c-32.667 14 -68 21 -106 21c-35.333 0 -63 -7 -83 -21s-30 -33.667 -30 -59
v-2c0 -22 8.33301 -39.333 25 -52s38.667 -19 66 -19zM313 617c-54.667 0 -99.167 14.167 -133.5 42.5s-53.833 68.166 -58.5 119.499h102c14.667 -42 44.667 -63 90 -63s75.333 21 90 63h102c-4.66699 -51.333 -24.167 -91.166 -58.5 -119.499s-78.833 -42.5 -133.5 -42.5z
" />
    <glyph glyph-name="uni04D2" unicode="&#x4d2;" horiz-adv-x="830" 
d="M30 0l314 733h142l313 -733h-161l-68 166h-315l-68 -166h-157zM310 302h205l-102 247zM453 796v129h148v-129h-148zM229 796v129h148v-129h-148z" />
    <glyph glyph-name="uni04D3" unicode="&#x4d3;" horiz-adv-x="623" 
d="M235 -11c-54.667 0 -100.5 15.167 -137.5 45.5s-55.5 72.166 -55.5 125.499v2c0 58.667 20.333 102.834 61 132.501s95.334 44.5 164.001 44.5c47.333 0 93.666 -7.33301 138.999 -22v10c0 70 -41 105 -123 105c-48 0 -99.667 -10.333 -155 -31l-38 116
c68 30 139.667 45 215 45c82 0 144.333 -20.667 187 -62c40 -40 60 -98.667 60 -176v-324h-147v62c-44 -48.667 -100.667 -73 -170 -73zM280 95c38 0 68.833 9.5 92.5 28.5s35.5 43.5 35.5 73.5v30c-32.667 14 -68 21 -106 21c-35.333 0 -63 -7 -83 -21s-30 -33.667 -30 -59
v-2c0 -22 8.33301 -39.333 25 -52s38.667 -19 66 -19zM346 619v137h147v-137h-147zM133 619v137h147v-137h-147z" />
    <glyph glyph-name="uni04D4" unicode="&#x4d4;" horiz-adv-x="1095" 
d="M14 0l395 728h621v-137h-369v-156h322v-137h-322v-161h374v-137h-527v166h-248l-89 -166h-157zM332 302h176v293h-19z" />
    <glyph glyph-name="uni04D5" unicode="&#x4d5;" horiz-adv-x="997" 
d="M252 -11c-61.333 0 -111.666 15.3311 -150.999 45.998s-59 72.334 -59 125.001v2c0 58.667 20.333 102.834 61 132.501s95.334 44.5 164.001 44.5c46.667 0 92.667 -7.33301 138 -22v10c0 70 -40.667 105 -122 105c-48 0 -99.667 -10.333 -155 -31l-38 116
c65.333 30 136.666 45 213.999 45c89.333 0 152.666 -24.667 189.999 -74c50 52 112 78 186 78c84.667 0 150.167 -29.167 196.5 -87.5s69.5 -129.5 69.5 -213.5c0 -6.66699 -0.666992 -20 -2 -40h-391c7.33301 -37.333 23.333 -65.833 48 -85.5s55.667 -29.5 93 -29.5
c50.667 0 96.667 19.333 138 58l87 -77c-56 -68.667 -131.667 -103 -227 -103c-88.667 0 -159.667 28.667 -213 86c-75.333 -56.667 -151 -85 -227 -85zM551 319.998h247c-4.66699 38 -17.5 68.167 -38.5 90.5s-48.833 33.5 -83.5 33.5c-33.333 0 -61 -11 -83 -33
s-36 -52.333 -42 -91zM279 96.998c53.333 0 102.334 18.668 147.001 56.001c-10 22 -16.667 47 -20 75c-34 13.333 -68.667 20 -104 20s-63 -7 -83 -21s-30 -33.667 -30 -59v-2c0 -20.667 8.66699 -37.334 26 -50.001s38.666 -19 63.999 -19z" />
    <glyph glyph-name="uni04D6" unicode="&#x4d6;" horiz-adv-x="705" 
d="M368 784c-55.333 0 -100.331 13.167 -134.998 39.5s-54.334 63.833 -59.001 112.5h104c13.333 -34.667 43.333 -52 90 -52s76.667 17.333 90 52h104c-4.66699 -48.667 -24.334 -86.167 -59.001 -112.5s-79.667 -39.5 -135 -39.5zM93.002 0v728h547v-137h-395v-156h348
v-137h-348v-161h400v-137h-552z" />
    <glyph glyph-name="uni04D7" unicode="&#x4d7;" horiz-adv-x="644" 
d="M338 -12c-83.333 0 -152.331 26.833 -206.998 80.5s-82 122.5 -82 206.5v2c0 80.667 25.833 149 77.5 205s117.167 84 196.5 84c58.667 0 109 -14.5 151 -43.5s72.333 -65.667 91 -110s28 -93.5 28 -147.5c0 -6.66699 -0.666992 -20 -2 -40h-391
c7.33301 -37.333 23.166 -65.833 47.499 -85.5s55.166 -29.5 92.499 -29.5c50.667 0 96.667 19.333 138 58l87 -77c-56 -68.667 -131.667 -103 -227 -103zM198.002 320h247c-6 38 -19.333 68.167 -40 90.5s-48 33.5 -82 33.5c-33.333 0 -61 -11 -83 -33s-36 -52.333 -42 -91
zM321.002 617c-54.667 0 -99.167 14.167 -133.5 42.5s-53.833 68.166 -58.5 119.499h102c14.667 -42 44.667 -63 90 -63s75.333 21 90 63h102c-4.66699 -51.333 -24.167 -91.166 -58.5 -119.499s-78.833 -42.5 -133.5 -42.5z" />
    <glyph glyph-name="uni04D8" unicode="&#x4d8;" horiz-adv-x="837" 
d="M194 506l-98.001 99.002c76.667 90 179.667 135 309 135c106.667 0 195.334 -34.833 266.001 -104.5s106 -159.167 106 -268.5v-3c0 -105.333 -34.333 -194.333 -103 -267s-155 -109 -259 -109c-76.667 0 -142.5 18.5 -197.5 55.5s-95 84.5 -120 142.5
s-37.5 122.667 -37.5 194v2c0 7.33301 0.666992 23.666 2 48.999h547c-11.333 53.333 -35.333 94.666 -72 123.999s-80.667 44 -132 44c-80.667 0 -151 -31 -211 -93zM414.999 126.002c50.667 0 93.501 16 128.501 48s57.167 74.333 66.5 127h-385
c6.66699 -52 26.667 -94.167 60 -126.5s76.666 -48.5 129.999 -48.5z" />
    </font>
</defs>
</svg>
